<?xml version="1.0" standalone="no"?><!DOCTYPE svg PUBLIC "-//W3C//DTD SVG 1.1//EN" "http://www.w3.org/Graphics/SVG/1.1/DTD/svg11.dtd"><svg class="icon" width="81px" height="81.00px" viewBox="0 0 1024 1024" version="1.1" xmlns="http://www.w3.org/2000/svg"><path d="M513.7408 933.6832c-2.8672 0-5.7344-0.0512-8.6016-0.1024-110.6432-2.2016-215.04-46.9504-294.0416-125.9008-78.9504-78.9504-123.6992-183.3984-125.9008-294.0416-2.3552-117.3504 41.8816-227.7376 124.4672-310.9376 81.2544-81.7664 189.0304-126.6176 304.128-126.6176 1.9456 0 3.9424 0 5.888 0.0512 233.216 3.072 422.9632 197.8368 422.9632 434.0736v31.5392c0 87.1936-70.912 158.1056-158.1056 158.1056s-158.1056-70.912-158.1056-158.1056V346.112c0-16.9472 13.7728-30.72 30.72-30.72s30.72 13.7728 30.72 30.72v195.7376c0 53.2992 43.3664 96.6656 96.6656 96.6656s96.6656-43.3664 96.6656-96.6656v-31.5392c0-202.8544-162.56-370.0224-362.3424-372.6848-100.608-1.4336-194.816 37.1712-265.6256 108.4416-70.7584 71.2704-108.6464 165.8368-106.6496 266.3936 3.8912 194.4576 165.2224 355.84 359.7312 359.7312 87.4496 1.7408 172.6464-27.6992 240.0768-82.8928 13.1584-10.752 32.512-8.8064 43.2128 4.3008 10.752 13.1072 8.8064 32.4608-4.3008 43.2128-76.4416 62.6688-172.5952 96.8704-271.5648 96.8704z" fill="#3E3A39" /><path d="M518.4512 712.8064c-94.464 0-171.264-76.8512-171.264-171.264V457.216c0-94.464 76.8512-171.264 171.264-171.264s171.264 76.8512 171.264 171.264v84.3264c0.0512 94.464-76.8 171.264-171.264 171.264z m0-365.4144c-60.5696 0-109.824 49.2544-109.824 109.824v84.3264c0 60.5696 49.2544 109.824 109.824 109.824s109.824-49.2544 109.824-109.824V457.216c0.0512-60.5184-49.2544-109.824-109.824-109.824z" fill="#FC4138" /></svg>