<?xml version="1.0" standalone="no"?><!DOCTYPE svg PUBLIC "-//W3C//DTD SVG 1.1//EN" "http://www.w3.org/Graphics/SVG/1.1/DTD/svg11.dtd"><svg class="icon" width="81px" height="81.00px" viewBox="0 0 1024 1024" version="1.1" xmlns="http://www.w3.org/2000/svg"><path d="M560.9 110.5c45.3 11.8 93.3-13.7 140-7.8 26 3.3 50.1 16.8 64.8 36.2 11.7 15.5 18.4 35.2 36.2 45.3 18.5 10.5 46.2 8.5 58.1 24.9 13.3 18.5-4.8 45.8 9 64 8.5 11.2 25.9 14.1 36 24.2 22.8 22.6-5 58.2 0.5 88.1 4.8 25.8 33.8 43.4 41 68.8 8.2 29-14.3 57.7-16.4 87.6-2.2 31.5 18.2 63.9 5.8 93.4-10.7 25.5-43.3 40.4-51.7 66.6-6.1 19 1.7 41-9.2 58.3-13 20.6-45.1 23.4-64.9 39.1-17.3 13.8-23.6 36.5-41.9 49.4-24.9 17.5-60.7 10.3-92.1 13.9-36 4.1-67.9 23.3-103.6 29.3-37.9 6.3-76.6-2.7-113.8-11.6-47.8-11.5-95.6-23-143.3-34.4-38.7-9.3-79.6-19.7-107.1-45.8-39.3-37.3-39.7-94.3-58-142.9-18.2-48.2-56.1-94.8-45.5-144.8 4.2-19.7 15.7-37.4 23.8-56.1 10-23 15-47.8 14.5-72.5-0.4-20.8-4.6-42.3 3.3-61.9 14.2-35.4 60.3-50.2 89.9-76.8 19.3-17.3 31.9-40.1 52.8-55.9 34.5-26.1 84.1-28 125.1-45 23.6-9.8 44.2-24.6 67.5-35.1 23.2-10.5 51.3-16.4 75.2-7.1l4 8.6z" fill="#7BAD37" /><path d="M560.9 110.5c45.3 11.8 93.3-13.7 140-7.8 26 3.3 50.1 16.8 64.8 36.2 11.7 15.5 18.4 35.2 36.2 45.3 18.5 10.5 46.2 8.5 58.1 24.9 13.3 18.5-4.8 45.8 9 64 8.5 11.2 25.9 14.1 36 24.2 22.8 22.6-5 58.2 0.5 88.1 4.8 25.8 33.8 43.4 41 68.8 8.2 29-14.3 57.7-16.4 87.6-2.2 31.5 18.2 63.9 5.8 93.4-10.7 25.5-43.3 40.4-51.7 66.6-6.1 19 1.7 41-9.2 58.3-13 20.6-45.1 23.4-64.9 39.1-17.3 13.8-23.6 36.5-41.9 49.4-24.9 17.5-60.7 10.3-92.1 13.9-36 4.1-67.9 23.3-103.6 29.3-37.9 6.3-76.6-2.7-113.8-11.6-47.8-11.5-95.6-23-143.3-34.4-38.7-9.3-79.6-19.7-107.1-45.8-39.3-37.3-39.7-94.3-58-142.9-18.2-48.2-56.1-94.8-45.5-144.8 4.2-19.7 15.7-37.4 23.8-56.1 10-23 15-47.8 14.5-72.5-0.4-20.8-4.6-42.3 3.3-61.9 14.2-35.4 60.3-50.2 89.9-76.8 19.3-17.3 31.9-40.1 52.8-55.9 34.5-26.1 84.1-28 125.1-45 23.6-9.8 44.2-24.6 67.5-35.1 23.2-10.5 51.3-16.4 75.2-7.1l4 8.6z" opacity=".2" /><path d="M945.4 486.7c0.7-2.8 1.3-5.7 1.7-8.5-13 19.4-38 58.3-46.9 69.7-9.8 12.4-17.7 22.4-23.2 29.4-3.9 5-20.7 22.4-29.9 32.1 3.4-24 6.3-46.2 8.7-65.1 6.4-49.5 9.5-97.3 7.3-140.7-0.2-4.1-0.7-7.9-0.9-12l0.2-0.2c6.4-8.1 16.6-28.1 25.4-47.2-0.7-1.8 12.1-23.4 21.9-40.6-0.4-0.7-0.8-1.5-1.3-2.2-16.6 25.2-43.4 64-47.8 70.4-3.4-30.6-9.5-58.2-17.7-81.1-10.7-30.7-24.6-53-35.5-66.6-10.8-13.8-18.4-19.7-18.4-19.7-1.7 1.1 24.8 28.3 45.3 89.9 10.3 30.3 16.2 67.4 18 110.3 0.4 8.8 0.3 17.8 0.1 26.8-8.3-9.8-21.4-25.4-31-42.5-15.6-27.5-24.1-52.4-25.6-51.8-1.3 0.4 5.1 26.8 21.1 55 7.9 14 25.9 49.5 34.8 58.8-1.5 29-5 59.1-9.1 91-1.8 14-3.9 27.5-6.2 40.8-5.9-19.2-19.1-59.6-23.2-74.8-5.8-22.9-16-49.7-29.3-78.3 0.1-0.7 0.2-1.1 0.3-2.2 0.2-15.4-8.8-97.6-11.9-121.1-3.1-23.4-9.3-44.1-15.9-57.8-6.5-13.8-12.3-21-12.8-20.6-0.8 0.6 3.9 8.5 9.3 22.4 5.5 13.8 11 33.9 14 56.9 4.3 35 5.2 80.4 6.2 100.1-7.1-14.2-14.8-28.7-23-43.4-29.1-53.6-62.4-98-92.3-122.5-14.8-12.4-17.2-13.5-19.1-12.2 2.4 1.9 5.8 6.7 16.8 15.5 28.9 24.9 61.1 69 90.1 122.3 0.1 0.2 0.3 0.5 0.4 0.7-6.4-0.9-18.1-2.2-27.6-4.3-13.8-2.9-32.5-9.2-52.2-18.9-39.2-19.8-69.1-40.8-70.1-38.9-0.4 0.7 6.8 6.4 18.8 14.9C627 328.9 644 340.2 664 350c20 9.9 72.3 32.9 86.6 34.8 2 0.3 3.4 0.1 4.4-0.3 24.8 47.4 43.2 95.3 52.8 130.1 8.6 29.8 19.2 72.6 24.1 90.8-7.9 38.5-17.9 73.5-29.1 104.5-3.8-20.6-23.7-74.9-57-134-0.5-10.1-3.5-41.9-5.9-58.7-3-20.1-7.7-48.1-18.3-77.3-10.6-29.2-26.3-52.6-40.2-66.2-6.9-6.9-13.1-11.6-17.6-14.4-4.5-2.8-7.2-4-7.3-3.6-0.5 0.9 9.5 7 22.3 21.1 12.9 14 27.5 36.9 37.9 65.4 10.4 28.5 15.6 56 19.5 75.8 1.7 9 2 33.3 3.4 47.2-17.3-29.5-37.6-59.7-61-87-42.5-50.3-89.1-86.2-124.4-108-8.8-5.6-16.9-10.3-24.2-14.1-7.2-4-13.4-7.3-18.7-9.6-10.4-4.8-16.3-7.3-16.4-6.9-0.1 0.4 5.4 3.6 15.5 9.1 5.1 2.6 11.2 6.2 18.2 10.4 7.1 4 15.1 9 23.6 14.8 34.6 22.6 80.3 58.7 122.4 108.5 18.7 21.8 34.4 44 47.8 65.5-9.7-1.6-36-4-59.1-10.4-28.8-7.8-50.4-20.2-51.2-18.5-0.8 1.2 20.3 16.4 49.9 24.4 20.2 5.6 52.4 12.3 65.2 12.3 14.9 24.6 26.7 47.9 36.1 68 8.2 18.5 25.9 88.4 30.9 108.7-4.4 11.1-9 21.3-13.6 31.1-9.8-21.7-58-81.6-79.1-102.8-16.5-16.7-35.7-32.7-56-48.9-0.6-8.8-3.2-28.6-10.8-44.4-10-20.7-28.8-45.3-51.8-69.5-23.2-24.1-47.2-42.1-65.2-53.3-9-5.6-16.6-9.7-21.9-12.3-5.3-2.5-8.3-3.8-8.5-3.4-0.4 0.9 11 7.3 28.4 19.4 17.4 12.1 40.6 30.3 63.5 54.1 22.1 23.2 55.2 66.8 57.2 102.3-2.7-2.1-5.4-4.3-8.2-6.4-26.8-20.8-54.4-38.1-81.2-48.9-26.7-11-51.9-17-73.1-20.5-21.2-3.5-38.6-4.5-50.5-4.9-6-0.2-10.6-0.2-13.8-0.1-3.1 0.1-4.8 0.2-4.8 0.4 0 0.5 6.6 0.9 18.5 1.9 11.9 1.1 29.1 2.8 50 6.8s45.7 10.4 71.9 21.5c26.3 10.9 51.7 28.8 78.4 49.5 10 7.8 19.4 16 28.5 24.2-4.7 6-13.6 16.4-26.4 20.8-18.7 6.4-45.9 11.6-75.6 7.7-29.5-3.8-55.1-16.7-75.4-18.8-10-1.4-18.3-0.9-23.8 0.3-5.6 1.1-8.4 2.6-8.3 2.9 0.2 1.1 12.2-2.9 31.6 1 19.4 3 44.5 16.5 75.3 20.6 30.6 4 58.6-2.1 77.4-9.6 8.9-3.5 29.6-11.6 36.1-14.9 11.2 10.5 21.9 21 31.8 30.9 21 20.7 35.9 41.1 45.8 61.9 16 33 19.8 57.8 21.4 66.9-13.7 20.8-30 39.3-37.5 50.5-5.1 7.1-5.5 7.5-8.2 11.3-0.2 0.3-0.9 0.9-1.6 1.5 5-0.1 9.9-0.3 14.8-0.7 19.4-8.5 38.1-18.8 56.1-31 7.4-10.6 13.9-21.9 24.3-30.1 1.6-1.3 3.3-2.3 5.1-3.4 3.7-17 7.3-34.9 10.8-53.5 10.4-6.1 34.7-25.4 50.3-34.4 2.2-0.8 4.7-1.7 7.1-2.5 0.3-1.2 0.5-2.4 0.8-3.5 1-3 2.3-5.8 3.8-8.5-3.7 1.3-7.4 2.6-10.8 3.9-13.7 5-24.5 10-31.8 13.7-3.8 2.1-9.9 4.6-15.3 8.4 5.3-30.8 10.2-62.1 14.5-91.6 10.2-9.3 23.4-23.9 26.3-27 5.9-6.5 21.5-30.7 31.7-42.8 3.3-4 6.9-8.6 10.6-13.6 0.1 0 0.1 0 0.2-0.1 3.6-2.1 10.2-6.5 18.2-11.9 0.8-4.1 1.8-8.2 3.1-12.3 0-0.3-0.1-0.6-0.1-0.9-2.2 1.5-4.3 3-6.4 4.4 1.9-2.9 3.9-6 5.9-9-0.1-2.6 6.7-17 11.5-28.1z" fill="#DEE3A0" /><path d="M178.3 288.6c-44.1 62.5-51.3 175.8-55.1 256.6-2.1 43.6 0.2 88 12 129.4 21 73.6 71.2 132.9 130.4 168.7 59.1 35.9 126.6 49.9 193.2 52 91.1 2.9 184.8-17 261.7-73.5 77-56.6 134.9-153.5 138.9-259.2 3.3-86.3-23.8-161-60.7-236.9-32.3-66.6-137.9-142.3-166-151.7-82-27.5-133.7-41.8-218.6-31.6s-169.4 51-225.6 125.6l-10.2 20.6z" opacity=".2" /><path d="M426 134.2c-40.9 12-84.4-13.9-126.6-7.9-23.5 3.3-45.3 17-58.6 36.6-10.6 15.7-16.7 35.7-32.7 45.8-16.7 10.6-41.8 8.6-52.5 25.2-12 18.7 4.3 46.4-8.2 64.8-7.7 11.3-23.4 14.3-32.5 24.5-20.6 22.8 4.5 58.9-0.5 89.2-4.3 26.2-30.6 43.9-37.1 69.6-7.4 29.4 12.9 58.4 14.8 88.6 2 31.8-16.5 64.7-5.3 94.5 9.7 25.8 39.1 40.9 46.7 67.4 5.5 19.3-1.5 41.5 8.3 59 11.8 20.8 40.8 23.7 58.6 39.6 15.7 14 21.4 37 37.9 50 22.5 17.7 54.9 10.4 83.3 14.1 32.6 4.2 61.4 23.6 93.7 29.6 34.2 6.4 69.3-2.7 102.9-11.8l129.6-34.8c35-9.4 72-19.9 96.8-46.4 35.6-37.8 35.9-95.5 52.4-144.6 16.4-48.8 50.8-95.9 41.2-146.5-3.8-19.9-14.2-37.9-21.6-56.8-9.1-23.3-13.6-48.4-13.1-73.4 0.4-21 4.1-42.8-3-62.6-12.8-35.8-54.5-50.8-81.3-77.8-17.4-17.5-28.9-40.6-47.7-56.6-31.2-26.5-76-28.3-113.1-45.6-21.4-9.9-40-24.9-61-35.5-21-10.6-46.4-16.6-68-7.2l-3.4 9z" fill="#7BAD37" /><path d="M772.3 624.1c0.1-0.3-2.8-2-8.3-3.2-5.5-1.3-13.8-1.9-23.8-0.3-20.2 2.3-45.8 16.6-75.4 20.8-29.7 4.3-56.9-1.5-75.6-8.5-12.7-4.8-21.7-16.3-26.4-22.9 9.2-9.1 18.6-18.2 28.5-26.8 26.7-22.9 52-42.7 78.4-54.7 26.2-12.3 51-19.3 71.9-23.7 21-4.4 38.2-6.2 50-7.5 11.9-1.2 18.5-1.6 18.5-2.2 0-0.2-1.7-0.4-4.8-0.5-3.2-0.1-7.8-0.1-13.8 0.1-12 0.4-29.3 1.5-50.5 5.4-21.2 3.9-46.3 10.5-73.1 22.6-26.8 11.9-54.4 31-81.2 54-2.8 2.4-5.4 4.7-8.2 7.1 2-39.2 35.1-87.3 57.2-113 22.9-26.2 46.1-46.4 63.5-59.7 17.4-13.4 28.8-20.4 28.4-21.4-0.2-0.4-3.2 0.9-8.5 3.7-5.3 2.9-12.8 7.4-21.9 13.6-18.1 12.4-42 32.3-65.2 58.9-23 26.8-41.7 53.9-51.8 76.8-7.6 17.4-10.2 39.3-10.8 49-20.3 17.9-39.5 35.5-56 54-21.1 23.5-69.3 89.6-79.1 113.5-4.6-10.8-9.2-22.2-13.6-34.4 5.1-22.4 22.7-99.6 30.9-120 9.4-22.2 21.3-48 36.1-75.1 12.8-0.1 45-7.4 65.2-13.6 29.6-8.8 50.7-25.5 49.9-26.9-0.8-1.8-22.4 11.9-51.2 20.5-23 7.1-49.4 9.7-59.1 11.5 13.5-23.8 29.2-48.3 47.8-72.4 42.1-55 87.8-94.9 122.4-119.8 8.6-6.4 16.5-11.9 23.6-16.3 7-4.7 13.1-8.6 18.2-11.5 10.1-6 15.7-9.6 15.5-10-0.1-0.4-6 2.3-16.4 7.7-5.3 2.5-11.5 6.2-18.7 10.6-7.3 4.2-15.4 9.4-24.2 15.6-35.3 24.1-81.9 63.8-124.4 119.3-23.3 30.2-43.7 63.5-61 96.1 1.4-15.3 1.7-42.2 3.4-52.1 3.9-21.9 9.1-52.3 19.5-83.7 10.4-31.4 25-56.8 37.9-72.2 12.8-15.6 22.8-22.3 22.3-23.3-0.2-0.4-2.8 0.9-7.3 4s-10.7 8.3-17.6 15.9c-13.9 15-29.6 40.8-40.2 73.1-10.6 32.2-15.3 63.2-18.3 85.4-2.4 18.6-5.4 53.7-5.9 64.9-33.3 65.3-53.3 125.2-57 148-11.2-34.3-21.2-72.9-29.1-115.4 5-20.1 15.5-67.3 24.1-100.3 9.6-38.3 28-91.2 52.8-143.6 1 0.4 2.3 0.6 4.4 0.3 14.3-2.1 66.6-27.6 86.6-38.4 20-10.9 37.1-23.3 49.1-32.6 12.1-9.4 19.2-15.7 18.8-16.5-1-2.1-30.9 21.1-70.1 43-19.7 10.7-38.3 17.6-52.2 20.8-9.6 2.3-21.2 3.8-27.6 4.8 0.1-0.3 0.2-0.5 0.4-0.8 29-58.8 61.2-107.5 90.1-135 11-9.8 14.5-15 16.8-17.1-2-1.5-4.4-0.3-19.1 13.4-30 27-63.2 76.1-92.3 135.2-8.2 16.2-15.9 32.3-23 48 1.1-21.8 1.9-71.9 6.2-110.5 3-25.3 8.5-47.5 14-62.8 5.4-15.3 10.1-24.1 9.3-24.8-0.4-0.4-6.3 7.5-12.8 22.7-6.6 15.2-12.8 38-15.9 63.8-3.1 25.9-12.1 116.7-11.9 133.7 0 1.2 0.2 1.7 0.3 2.4-13.3 31.6-23.5 61.2-29.3 86.5-4 16.8-17.2 61.3-23.2 82.6-2.3-14.7-4.5-29.6-6.2-45.1-4.2-35.2-7.6-68.4-9.1-100.5 8.9-10.3 26.9-49.4 34.8-64.9 16-31.2 22.4-60.3 21.1-60.7-1.5-0.7-10 26.8-25.6 57.2-9.6 18.9-22.6 36.1-31 46.9-0.2-10-0.2-19.9 0.1-29.6 1.7-47.4 7.7-88.4 18-121.8 20.5-68 47-98 45.3-99.2 0 0-7.5 6.5-18.4 21.7-10.9 15.1-24.8 39.6-35.5 73.6-8.2 25.3-14.3 55.8-17.7 89.6-9.4-14.9-28.1-44-36.7-71-12.4-37.4-13-70.8-14.7-70.7-1.3-0.3-3.1 34.3 9.7 73.1 7 21.7 29 74.8 39.9 90.1l0.2 0.2c-0.3 4.4-0.7 8.7-0.9 13.2-2.2 48 0.8 100.7 7.3 155.4 2.4 20.9 5.3 45.4 8.7 71.9-9.2-10.7-25.9-30-29.9-35.5-5.5-7.7-13.4-18.7-23.2-32.4-12.7-18.1-28.6-41.3-44.3-68.5 0.6-1.1 1.2-2.3 1.8-4.3 5.5-17.6 20.1-94.8 21.8-123.7 1.6-28.9-1-55.1-4.6-73.4-3.5-18.4-7.3-29.1-7.9-28.9-1.8 0.4 10.6 45.1 7.1 101.8-2.4 48-21.2 99.6-25.9 114.9-5.6-10.2-11.1-20.9-16.3-32.2-22.3-48.2-33.5-97.3-36.2-133.4-1.8-21.7-1.1-38.4-0.6-48.4-0.7 0.6-1.3 1.2-1.9 1.8-0.1 1.1-0.3 2.1-0.4 3.4-1.1 10.2-1.8 25.2-0.8 43.6 1.7 36.8 12.6 87.3 35.3 136.3 14.1 30.4 30.2 59.8 45.2 84.1-7-5.4-15.2-11.6-21.6-16.2-14-10.4-34.4-22.3-55-38.8-20.5-16.5-35.9-36.9-43.6-54.1-7.9-17.2-9.1-29.8-10.1-29.5-0.3 0.1-0.3 3.2 0.4 8.8 0.8 5.6 2.7 13.7 6.3 22.9 7.2 18.6 22.8 40.5 44 57.4 21.1 16.9 80 63.1 94.3 72.4 0.1 0 0.1 0 0.2 0.1 3.7 5.4 7.3 10.5 10.6 15 10.1 13.4 25.7 40.1 31.6 47.3 2.8 3.4 16.1 19.5 26.3 29.8 4.3 32.6 9.1 67.2 14.5 101.1-5.5-4.2-11.5-7-15.3-9.3-7.4-4-18.1-9.7-31.8-15.1-16.3-7.1-37-13.5-59.4-22.5-2.1-5.5-7.1-15.6-14.5-26.4-10.7-15.4-25-37.1-39.5-62.2-14.4-25.2-26.3-49.1-34.5-66.6-8.2-17.5-13.1-28.6-13.8-28.2-0.6 0.4 3.1 12.2 10.5 30.4s18.9 42.7 33.5 68.2c14.6 25.4 32.2 63.9 43.7 78.6-10.3-4.6-20.9-9.9-31.4-16.2-19.3-12-35.8-27.6-48.2-44.8-12.5-17.2-21.7-35-29-50.1-7.3-15.2-12.6-27.9-16.5-36.6-3.8-8.7-6.1-13.4-6.4-13.2-0.3 0.2 1.3 5.3 4.6 14.4 3.3 9 8.2 22.1 15.1 37.7 7 15.5 15.9 33.9 28.6 51.8 12.6 18 29.7 34.4 49.5 46.7 22 13.2 44.5 23.9 64.8 32.7-5.4 1-14.3 2.9-24.3 4-16.3 1.8-38.9 3.5-63.7 1.7-24.8-1.8-46.7-8.6-61.4-17-14.8-8.2-22.6-16.5-23.1-15.6-0.4 0.4 6.6 10.2 21.5 19.8 14.7 9.8 37.4 17.6 62.7 19.4 25.3 1.8 53.3 1.7 69.7-1.2 23.5-1.2 29.8-3.8 30.1-6.3 12.1 5 23.3 9.4 32.6 13.1 15.6 9.9 40 31.2 50.3 38 4 24.3 8.3 47.8 12.7 69.4-6.4 0.3-15.3-0.1-26.4-3.6-22.1-7.2-53-19.5-87.9-27.8-34.8-8.8-66.7-14.1-89.7-17.3-11.6-1.6-20.9-2.6-27.4-3.1s-10.1-0.6-10.1-0.1c-0.1 0.9 14.1 3.6 37 7.9 22.9 4.3 54.6 10.4 89.2 19.1 10.4 2.5 19.4 5.4 27.5 8.3-5.1 2.3-12.4 5.7-22 9.6-19.4 7.9-41.4 29.2-40.9 30.9 0.5 1.7 23.6-15.5 42.6-24.6 14.6-7 23.3-10.8 28.2-13 15.3 6 27.8 12 41.6 15.8 9 2.1 30.7 14.9 43 19.9 6.3 27.9 21.8 83.5 28.6 99.5 4.7 0.3 29.5-1.7 34.1-2.6 29.5-5.5 36.5-8.7 64.5-15.5-12.4-9.2-33.7-40.8-35.4-43.4-2.7-4.1-3.1-4.6-8.2-12.4-7.5-12.4-23.8-32.8-37.5-55.8 1.5-10.1 5.4-37.5 21.4-73.9 9.9-23 24.8-45.5 45.8-68.4 10-10.9 20.6-22.5 31.8-34.1 6.4 3.7 27.1 12.6 36.1 16.5 18.8 8.3 46.7 15.1 77.4 10.6 30.8-4.5 55.9-19.4 75.3-22.8 19.5-4.1 31.6 0.3 31.7-0.9z" fill="#DEE3A0" /><path d="M838.3 540.8c-3.8-19.9-14.2-37.9-21.6-56.8-9.1-23.3-13.6-48.4-13.1-73.4 0.4-20.4 3.7-41.5-2.6-60.9-2.2-3.1-4.4-6.2-6.8-9.4-19.8-16.7-44.2-30.4-62.6-48.9-19.9-20-32.9-46.4-54.5-64.7-35.7-30.2-86.8-32.4-129.2-52.1-24.4-11.3-45.7-28.5-69.7-40.6-11.5-5.8-24.1-10.3-36.9-12.3-4 0.8-8 1.8-11.9 3.5l-3.5 9c-10.9 3.2-21.9 3.6-33 2.8-5.4 1.3-10.8 2.1-16.3 2.5 6 15.3 17.9 27.9 31.7 36.9 15.4 10 34.3 17 43.1 33 5.2 9.5 6.1 20.9 11.6 30.2 15.8 27.2 61.9 26.3 73.5 55.5 3.9 9.7 2.7 20.8 5.9 30.8 6.1 19 26.1 29.6 44.9 36.3 18.8 6.7 39.4 12.3 52.3 27.5 13.7 16 16 39.7 30.4 55.1 15.9 17.1 41.6 19.4 64.2 25.5 31.6 8.5 60.6 26.5 82.3 51.1 6.7 7.6 13.7 16.2 21.8 22 0.1-1 0.2-1.8 0-2.6z" opacity=".2" /><path d="M821.6 495.3c-1.7-3.8-3.3-7.5-4.8-11.4-9.1-23.3-13.6-48.4-13.1-73.4 0.3-16.7 2.5-33.9-0.1-50.2-5.9-13.8-16.6-30.4-29.4-47.5-17.4-14.7-38.7-26.6-54.8-42.8-17.4-17.5-28.9-40.6-47.7-56.6-31.2-26.5-76-28.3-113.1-45.6-21.4-9.9-40-24.9-61-35.5-21-10.6-46.4-16.6-68-7.2l-10.2 3.2c-5.8 1.7-8.3 5.8-10.8 8.7 5.3 13.4 15.7 24.4 27.8 32.3 13.5 8.8 30 14.9 37.8 28.9 4.6 8.3 5.4 18.3 10.1 26.4 13.8 23.8 54.2 23 64.3 48.6 3.4 8.5 2.4 18.2 5.2 27 5.3 16.6 22.8 25.9 39.3 31.8 16.4 5.9 34.5 10.8 45.8 24 12 14 14 34.7 26.6 48.3 14 15 36.5 17 56.2 22.3 27.7 7.4 53.1 23.2 72 44.7 8.3 9.4 16.8 20.3 27.9 24z" fill="#7BAD37" /></svg>