<?xml version="1.0" standalone="no"?><!DOCTYPE svg PUBLIC "-//W3C//DTD SVG 1.1//EN" "http://www.w3.org/Graphics/SVG/1.1/DTD/svg11.dtd"><svg class="icon" width="81px" height="81.00px" viewBox="0 0 1024 1024" version="1.1" xmlns="http://www.w3.org/2000/svg"><path d="M952.7 503.2c-7.8-42.8-23.8-83.8-41.9-123.4-29.1-63.7-65-125.9-117.2-172.6s-123.1-76.4-192.4-66.4l-4.2 7.5c-19.2 25.9 4.2 62.3 30.3 81.1 26.2 18.8 59.1 36.2 65.2 67.8 3 15.8-1.6 32.3 1.7 48 9.2 43 73.1 63.4 70.1 107.3-1 15.7-11.3 30-11.1 45.7 0.4 35.4 48.8 50.2 62 83.1 19.2 48-45.7 95.8-35.4 146.5 4.8 23.6 25.5 43 24.8 67-0.3 10.2-4.5 19.8-5.9 29.9-3.5 26.3 16.3 53.9 42.5 57.8 26.2 4 51.4-25.5 60.7-47.4 44.6-103.9 71.2-220.5 50.8-331.9z" opacity=".2" /><path d="M887.5 835.3c44.5-104.1 71-220.7 50.7-332.1-7.8-42.8-23.8-83.8-41.9-123.4-29.1-63.7-65-125.9-117.2-172.6-52.2-46.7-123.1-76.4-192.4-66.4l-4.2 7.5c-19.2 25.9 4.2 62.3 30.3 81.1 26.2 18.8 59.1 36.2 65.2 67.8 3 15.8-1.6 32.3 1.7 48 9.2 43 73.1 63.4 70.1 107.3-1 15.7-11.3 30-11.1 45.7 0.4 35.4 48.8 50.2 62 83.1 19.2 48-45.7 95.8-35.4 146.5 4.8 23.6 25.5 43 24.8 67-0.3 10.2-4.5 19.8-5.9 29.9-3.5 26.3 16.3 53.9 42.5 57.8 26.3 4.1 51.4-25.3 60.8-47.2z" fill="#7BAD37" /><path d="M838.4 865.5c-3.3 1.2-6.3 1.5-9.2 1.1C812 864 798 844.8 800.4 827c0.5-3.6 1.4-7.2 2.4-10.7 1.6-6.2 3.4-13.2 3.6-20.9 0.5-18-7.5-33-14.6-46.2-4.6-8.5-8.9-16.6-10.5-24.5-3.8-18.5 6.7-38.7 17.8-60.1 13.9-26.8 29.6-57.2 16.8-89.2-7.2-18.1-22-31-35.1-42.3-15.9-13.9-25.6-23.2-25.8-35-0.1-5.4 2.2-11.8 4.6-18.6 2.7-7.6 5.8-16.2 6.4-25.9 2.1-31.3-20-52.2-39.5-70.6-14.3-13.5-27.8-26.3-31-41.2-1.3-6-1-13-0.6-20.3 0.4-8.3 0.8-17.7-1-27.3-6.4-33.3-34.4-52.4-59.2-69.3-4.2-2.9-8.4-5.7-12.4-8.6-16-11.5-28.2-28.5-30.3-42.3-1-6.2 0.2-11.4 3.5-15.9l0.6-0.8 0.7-1.2c57.1-5.5 120.5 17.8 171.4 63.3 55.8 49.9 91.3 119.3 113.2 167.2 14.6 32 32.4 74.5 40.7 119.6 17.5 96 0.8 204.6-49.7 322.8-5.9 13.9-19.9 31.6-34 36.5z" opacity=".2" /><path d="M707.6 229.6m-37 0a37 37 0 1 0 74 0 37 37 0 1 0-74 0Z" fill="#DEE3A0" /><path d="M765.1 324.7m-46.2 0a46.2 46.2 0 1 0 92.4 0 46.2 46.2 0 1 0-92.4 0Z" fill="#DEE3A0" /><path d="M823.4 436.9m-46.2 0a46.2 46.2 0 1 0 92.4 0 46.2 46.2 0 1 0-92.4 0Z" fill="#DEE3A0" /><path d="M867 549.1m-46.2 0a46.2 46.2 0 1 0 92.4 0 46.2 46.2 0 1 0-92.4 0Z" fill="#DEE3A0" /><path d="M861.4 672.8m-46.2 0a46.2 46.2 0 1 0 92.4 0 46.2 46.2 0 1 0-92.4 0Z" fill="#DEE3A0" /><path d="M845.7 767.7m-33.2 0a33.2 33.2 0 1 0 66.4 0 33.2 33.2 0 1 0-66.4 0Z" fill="#DEE3A0" /><path d="M624.2 136.4l-7.4 4.4c-29.6 12.7-27.7 55.9-14.5 85.4 13.2 29.4 32.9 61 22.3 91.4-5.3 15.1-17.6 27.1-22.6 42.4-13.6 41.8 31.3 91.5 6.8 128-8.8 13.1-24.8 20.2-32.6 34-17.4 30.9 17 68 11.8 103-7.5 51.2-87.6 59.9-104.2 108.9-7.7 22.8 0.4 50-12.3 70.4-5.4 8.7-13.9 14.9-20.1 22.9-16.2 21-13 54.8 7.7 71.4 20.7 16.6 57.2 3.8 76.3-10.5 90.8-67.7 172.3-155.1 210.7-261.6 14.8-41 21.6-84.4 25.8-127.7 6.8-69.7 7.1-141.5-14.6-208.1-21.8-66.8-68.1-128.1-133.1-154.3z" opacity=".2" /><path d="M510.9 876.2c90.8-67.7 172.3-155.1 210.7-261.6 14.8-41 21.6-84.4 25.8-127.7 6.8-69.7 7.1-141.5-14.6-208.1s-68-127.9-133-154.1l-7.4 4.4c-29.6 12.7-27.7 55.9-14.5 85.4s32.9 61 22.3 91.4c-5.3 15.1-17.6 27.1-22.6 42.4-13.6 41.8 31.3 91.5 6.8 128-8.8 13.1-24.8 20.2-32.6 34-17.4 30.9 17 68 11.8 103-7.6 51-87.7 59.7-104.3 108.7-7.7 22.8 0.4 50-12.3 70.4-5.4 8.7-13.9 14.9-20.1 22.9-16.2 21-13 54.8 7.7 71.4 20.7 16.6 57.2 3.8 76.3-10.5z" fill="#7BAD37" /><path d="M633.8 230.5c18.9-6.6 39.6 3.4 46.2 22.3 1.1 3.2 1.6 6.4 1.8 9.7 3.5-8.1 4.2-17.4 1.1-26.4-6.6-18.9-27.3-28.9-46.2-22.3-15.7 5.5-25.1 20.7-24.1 36.5 3.9-8.9 11.3-16.3 21.2-19.8zM642.5 322.5c18.9-6.6 39.6 3.4 46.2 22.3 1.1 3.2 1.6 6.4 1.8 9.7 3.5-8.1 4.2-17.4 1.1-26.4-6.6-18.9-27.3-28.9-46.2-22.3-15.7 5.5-25.1 20.7-24.1 36.5 3.9-8.9 11.2-16.3 21.2-19.8zM637.3 437.5c18.9-6.6 39.6 3.4 46.2 22.3 1.1 3.2 1.6 6.4 1.8 9.7 3.5-8.1 4.2-17.4 1.1-26.4-6.6-18.9-27.3-28.9-46.2-22.3-15.7 5.5-25.1 20.7-24.1 36.5 3.9-8.9 11.2-16.3 21.2-19.8zM618.3 550.1c19.7-3.4 38.5 9.8 42 29.5 0.6 3.3 0.5 6.6 0.2 9.8 4.8-7.4 7-16.5 5.4-25.9-3.4-19.7-22.2-32.9-42-29.5-16.4 2.9-28.1 16.3-29.7 32.1 5.3-8.1 13.7-14.2 24.1-16zM584.3 661.1c20-0.8 36.9 14.7 37.7 34.7 0.1 3.4-0.3 6.6-1.1 9.8 5.7-6.7 9.1-15.4 8.7-25-0.8-20-17.7-35.6-37.7-34.7-16.6 0.7-30 12.5-33.7 28 6.4-7.4 15.6-12.3 26.1-12.8zM517.5 750.2c19.9 2.2 34.3 20.1 32.1 40-0.4 3.4-1.3 6.5-2.5 9.5 6.7-5.8 11.3-13.9 12.4-23.4 2.2-19.9-12.2-37.8-32.1-40-16.5-1.8-31.6 7.8-37.5 22.6 7.3-6.4 17.2-9.9 27.6-8.7z" fill="#FFFFFF" opacity=".2" /><path d="M548.2 485.9c5.2-33.5 4-67.6 0.8-101.3-5.1-54.2-15.5-109.1-41.9-156.7-26.4-47.6-70.8-87.5-124.3-97.9l-5 4.4c-20.7 14.1-12.9 46.8 1.5 67.3s34.1 41.7 30.5 66.5c-1.8 12.3-9.4 23.3-11 35.7-4.2 33.9 37.4 65.2 24.1 96.7-4.8 11.3-16 19.1-19.9 30.7-8.7 26.1 23 49.4 24.3 76.9 1.8 40.2-58 58.7-63.5 98.5-2.5 18.5 7.7 38.1 1 55.5-2.8 7.4-8.4 13.4-12 20.5-9.3 18.4-1.8 43.7 16.4 53.3 18.2 9.6 44.2-5.6 56.7-19.3 59.4-65 108.8-143.8 122.3-230.8z" opacity=".2" /><path d="M415.4 713c59.3-65.1 108.6-143.9 122.1-230.8 5.2-33.5 4-67.6 0.8-101.3-5.1-54.2-15.5-109.1-41.9-156.7s-70.8-87.5-124.3-97.9l-5 4.4c-20.7 14.1-12.9 46.8 1.5 67.3s34.1 41.7 30.5 66.5c-1.8 12.3-9.4 23.3-11 35.7-4.2 33.9 37.4 65.2 24.1 96.7-4.8 11.3-16 19.1-19.9 30.7-8.7 26.1 23 49.4 24.3 76.9 1.8 40.2-58 58.7-63.5 98.5-2.5 18.5 7.7 38.1 1 55.5-2.8 7.4-8.4 13.4-12 20.5-9.3 18.4-1.8 43.7 16.4 53.3 18.4 9.6 44.4-5.6 56.9-19.3z" fill="#7BAD37" /><path d="M371.6 722.6c-2.7 0-5-0.5-7-1.6-11.9-6.3-17.3-24-11-36.4 1.3-2.5 2.9-4.9 4.5-7.3 2.8-4.1 5.9-8.8 8-14.4 5-13.1 2.9-26.1 1.1-37.7-1.2-7.4-2.3-14.5-1.4-20.6 2-14.6 14.8-26.7 28.4-39.6 17-16.1 36.4-34.4 35.1-61.2-0.7-15.1-8.3-28.4-14.9-40.1-8.1-14.3-12.9-23.6-10-32.3 1.3-4 4.7-8.1 8.2-12.4 3.9-4.9 8.4-10.4 11.3-17.3 9.5-22.4-1.3-43.4-10.9-61.9-7-13.6-13.7-26.4-12.2-38.2 0.6-4.7 2.6-9.8 4.7-15.1 2.4-6 5.1-12.8 6.2-20.3 3.8-26-11.9-47.3-25.7-66-2.4-3.2-4.7-6.4-6.9-9.5-8.8-12.5-13.4-28.1-11.4-38.8 0.9-4.8 3.1-8.3 6.6-10.8l0.7-0.4 0.8-0.7c43.3 10.6 83.9 43.9 109.6 90.3 28.2 50.9 36.5 111 40.4 151.7 2.6 27.2 4.8 63-0.7 98.2-11.7 74.9-51.7 150.4-119 224.2-8.1 8.8-22.9 18.2-34.5 18.2z" opacity=".2" /><path d="M438.2 222.3m-28.8 0a28.8 28.8 0 1 0 57.6 0 28.8 28.8 0 1 0-57.6 0Z" fill="#DEE3A0" /><path d="M456.1 306.9m-35.9 0a35.9 35.9 0 1 0 71.8 0 35.9 35.9 0 1 0-71.8 0Z" fill="#DEE3A0" /><path d="M470.2 404.1m-35.9 0a35.9 35.9 0 1 0 71.8 0 35.9 35.9 0 1 0-71.8 0Z" fill="#DEE3A0" /><path d="M473.6 497.6m-35.9 0a35.9 35.9 0 1 0 71.8 0 35.9 35.9 0 1 0-71.8 0Z" fill="#DEE3A0" /><path d="M437.8 587m-35.9 0a35.9 35.9 0 1 0 71.8 0 35.9 35.9 0 1 0-71.8 0Z" fill="#DEE3A0" /><path d="M402 652.7m-25.8 0a25.8 25.8 0 1 0 51.6 0 25.8 25.8 0 1 0-51.6 0Z" fill="#DEE3A0" /><path d="M400.8 132.6l-6.6 1.3c-25 1.8-34.6 34-32.5 59 2.1 25 8.6 53.2-7 72.8-7.8 9.8-19.9 15.4-27.4 25.3-20.7 27.2-0.4 75.2-27.8 95.7-9.8 7.3-23.4 8.5-32.6 16.6-20.7 18.2-4.9 54.2-17.7 78.7-18.6 35.7-79.6 21.6-104.4 53.3-11.5 14.7-12.5 36.8-27 48.5-6.2 5-14 7.4-20.6 11.7-17.3 11.2-23.5 36.9-12.6 54.4s41 17.4 58.7 11.8c83.9-26.5 166.2-69.8 221.6-138.2 21.3-26.3 37.4-56.4 51.6-87.2 22.8-49.4 41.4-102.1 42.5-156.5 1.2-54.5-17.2-111.3-58.2-147.2z" opacity=".2" /><path d="M128.4 646.7c83.9-26.5 166.2-69.8 221.6-138.2 21.3-26.3 37.4-56.4 51.6-87.2 22.8-49.4 41.4-102.1 42.5-156.5 1.1-54.4-17.2-111.3-58.2-147.1l-6.6 1.3c-25 1.8-34.6 34-32.5 59 2.1 25 8.6 53.2-7 72.8-7.8 9.8-19.9 15.4-27.4 25.3-20.7 27.2-0.4 75.2-27.8 95.7-9.8 7.3-23.4 8.5-32.6 16.6-20.7 18.2-4.9 54.2-17.7 78.7-18.6 35.7-79.6 21.6-104.4 53.3-11.5 14.7-12.5 36.8-27 48.5-6.2 5-14 7.4-20.6 11.7C65 591.8 58.8 617.5 69.7 635s41.1 17.3 58.7 11.7z" fill="#7BAD37" /><path d="M383.8 204.1c15.6 0 28.2 12.6 28.2 28.2 0 2.6-0.5 5.1-1.1 7.6 4.7-5 7.6-11.7 7.5-19.1 0-15.6-12.7-28.2-28.2-28.2-12.9 0-23.7 8.8-27 20.7 5.1-5.6 12.4-9.1 20.6-9.2zM366.6 273.9c15.6 0 28.2 12.6 28.2 28.2 0 2.6-0.5 5.1-1.1 7.6 4.7-5 7.6-11.7 7.5-19.1 0-15.6-12.7-28.2-28.2-28.2-12.9 0-23.7 8.8-27 20.7 5.2-5.7 12.5-9.2 20.6-9.2zM333.4 357c15.6 0 28.2 12.6 28.2 28.2 0 2.6-0.5 5.1-1.1 7.6 4.7-5 7.6-11.7 7.5-19.1 0-15.6-12.7-28.2-28.2-28.2-12.9 0-23.7 8.8-27 20.7 5.1-5.6 12.4-9.2 20.6-9.2zM290.7 434.8c15.4 2.5 25.8 17 23.3 32.4-0.4 2.6-1.3 5-2.4 7.3 5.4-4.2 9.4-10.3 10.6-17.6 2.5-15.4-7.9-29.9-23.3-32.4-12.8-2.1-24.8 4.8-30 16 5.9-4.7 13.7-7 21.8-5.7zM237.3 507.6c14.9 4.5 23.3 20.2 18.8 35.2-0.8 2.5-1.9 4.8-3.3 6.9 5.9-3.5 10.6-9 12.8-16.1 4.5-14.9-3.9-30.6-18.8-35.2-12.4-3.7-25.2 1.5-31.9 11.9 6.6-3.8 14.6-5.1 22.4-2.7zM165.5 555.9c14.1 6.7 20 23.5 13.3 37.6-1.1 2.4-2.6 4.4-4.3 6.3 6.4-2.5 11.9-7.3 15.1-14 6.7-14.1 0.8-30.9-13.3-37.6-11.7-5.6-25.2-2.3-33.3 7 7-2.8 15.1-2.8 22.5 0.7z" fill="#FFFFFF" opacity=".2" /></svg>