<?xml version="1.0" standalone="no"?><!DOCTYPE svg PUBLIC "-//W3C//DTD SVG 1.1//EN" "http://www.w3.org/Graphics/SVG/1.1/DTD/svg11.dtd"><svg class="icon" width="81px" height="81.00px" viewBox="0 0 1024 1024" version="1.1" xmlns="http://www.w3.org/2000/svg"><path d="M512.7168 942.2336c-237.1584 0-430.08-192.9216-430.08-430.08s192.9216-430.08 430.08-430.08 430.08 192.9216 430.08 430.08-192.9216 430.08-430.08 430.08z m0-798.72c-203.264 0-368.64 165.376-368.64 368.64s165.376 368.64 368.64 368.64 368.64-165.376 368.64-368.64-165.376-368.64-368.64-368.64z" fill="#3E3A39" /><path d="M452.0448 690.688c-12.5952 0-25.1904-3.328-36.6592-9.9328-22.9376-13.2608-36.6592-37.0176-36.6592-63.488V407.0912c0-26.5216 13.7216-50.2272 36.6592-63.488 22.9888-13.2608 50.3808-13.2608 73.3184 0L670.72 448.6656c22.9376 13.2608 36.6592 36.9664 36.6592 63.488 0 26.5216-13.7216 50.2272-36.6592 63.488l-182.016 105.0624c-11.4688 6.656-24.064 9.984-36.6592 9.984z m0.0512-295.5776c-2.56 0-4.6592 0.9216-5.9904 1.6384-2.2016 1.28-5.9392 4.3008-5.9392 10.2912v210.176c0 5.9904 3.7376 9.0112 5.9392 10.2912 2.2016 1.28 6.7072 3.0208 11.8784 0L640 522.4448c5.1712-2.9696 5.9392-7.7312 5.9392-10.2912s-0.768-7.3216-5.9392-10.2912L457.984 396.8c-2.0992-1.2288-4.096-1.6896-5.888-1.6896z" fill="#FC4138" /></svg>