<?xml version="1.0" standalone="no"?><!DOCTYPE svg PUBLIC "-//W3C//DTD SVG 1.1//EN" "http://www.w3.org/Graphics/SVG/1.1/DTD/svg11.dtd"><svg class="icon" width="81px" height="81.00px" viewBox="0 0 1024 1024" version="1.1" xmlns="http://www.w3.org/2000/svg"><path d="M373.3 675.1c-54.5-30.5-101.9-99.8-91.1-161.3 1.3-7.3 3.1-14.8 1.4-22-1.3-5.4-4.4-10.1-7.5-14.8-10.6-16.3-20.9-34.7-18.4-54 3.9-30.6 38.8-56.5 28.3-85.6-3.3-9.3-11.1-16.7-14.1-26.1-6.9-21.4-10.2-43.3 7.4-57.3 19.1-15.2 3.7-46.6 17.3-58.5 19.8-17.3 20.5-56 45-65.4 4.2-1.6 8.9-3.2 12.9-1.3 3.1 1.4 24.9 18.3 26.4 21.4 23.6 48.1 93.8 79.7 110.3 145.7 4.9 19.7 25.7 38.4 15.5 56-2 3.4-4.8 6.2-6.2 9.8-5.8 14.9 14.2 25.5 24.1 37.9 10.5 13.2 9.8 32.1 5.5 48.4-4.3 16.3-11.6 31.9-12.9 48.7-0.7 9.6 0.5 19.2-0.1 28.8-1.8 30.3-21.4 56.4-42.2 78.5-20.8 22.1-76.4 43.1-88.9 70.8h-12.7z" fill="#7BAD37" /><path d="M373.3 675.1c-54.5-30.5-101.9-99.8-91.1-161.3 1.3-7.3 3.1-14.8 1.4-22-1.3-5.4-4.4-10.1-7.5-14.8-10.6-16.3-20.9-34.7-18.4-54 3.9-30.6 38.8-56.5 28.3-85.6-3.3-9.3-11.1-16.7-14.1-26.1-6.9-21.4-10.2-43.3 7.4-57.3 19.1-15.2 3.7-46.6 17.3-58.5 19.8-17.3 20.5-56 45-65.4 4.2-1.6 8.9-3.2 12.9-1.3 3.1 1.4 24.9 18.3 26.4 21.4 23.6 48.1 93.8 79.7 110.3 145.7 4.9 19.7 25.7 38.4 15.5 56-2 3.4-4.8 6.2-6.2 9.8-5.8 14.9 14.2 25.5 24.1 37.9 10.5 13.2 9.8 32.1 5.5 48.4-4.3 16.3-11.6 31.9-12.9 48.7-0.7 9.6 0.5 19.2-0.1 28.8-1.8 30.3-21.4 56.4-42.2 78.5-20.8 22.1-76.4 43.1-88.9 70.8h-12.7z" opacity=".2" /><path d="M525.5 661.5c-23.1-16.4-65.5-56.9-79.2-81.7-4.7-8.4-8.3-19.9-1.6-26.8 2.4-2.4 5.7-3.8 8-6.3 3.8-4.1 3.9-10.4 3.1-15.9-3.4-24.4-19.6-44.8-30.3-67-10.7-22.2-14.4-52.2 3.8-68.8 7.1-6.5 17.1-10.7 20.3-19.7 1.5-4.4 1.1-9.1 0.8-13.8-1.3-16.3-2.2-32.6-2.6-48.9-0.1-4.5-0.1-9.3 2.1-13.3 2.7-4.9 8.3-7.5 13.4-10 55.2-27.3 93.2-79.4 140.5-118.8 10.6-8.8 22.3-17.3 35.9-19.5 24.1-3.8 47.5 14.2 57.5 36.4 10 22.3 9.3 47.7 7.1 72-2.4 26.1-5.1 56.3 13.6 74.6 4.4 4.3 10.4 8.9 9.5 15-0.4 3-2.4 5.5-4.4 7.8-13 15.4-25.9 30.8-38.9 46.2-14.2 16.9-29.3 37.9-22.9 59 2.1 6.9 6.5 13.1 7.7 20.2 3.4 20.4-19.2 35.7-24.5 55.7-1.8 6.7-1.6 13.7-2.4 20.5-2.7 22.7-16.9 42.7-34.4 57.3-17.6 14.6-49.2 38-69.9 47.7l-12.2-1.9z" fill="#7BAD37" /><path d="M525.5 661.5c-23.1-16.4-65.5-56.9-79.2-81.7-4.7-8.4-8.3-19.9-1.6-26.8 2.4-2.4 5.7-3.8 8-6.3 3.8-4.1 3.9-10.4 3.1-15.9-3.4-24.4-19.6-44.8-30.3-67-10.7-22.2-14.4-52.2 3.8-68.8 7.1-6.5 17.1-10.7 20.3-19.7 1.5-4.4 1.1-9.1 0.8-13.8-1.3-16.3-2.2-32.6-2.6-48.9-0.1-4.5-0.1-9.3 2.1-13.3 2.7-4.9 8.3-7.5 13.4-10 55.2-27.3 93.2-79.4 140.5-118.8 10.6-8.8 22.3-17.3 35.9-19.5 24.1-3.8 47.5 14.2 57.5 36.4 10 22.3 9.3 47.7 7.1 72-2.4 26.1-5.1 56.3 13.6 74.6 4.4 4.3 10.4 8.9 9.5 15-0.4 3-2.4 5.5-4.4 7.8-13 15.4-25.9 30.8-38.9 46.2-14.2 16.9-29.3 37.9-22.9 59 2.1 6.9 6.5 13.1 7.7 20.2 3.4 20.4-19.2 35.7-24.5 55.7-1.8 6.7-1.6 13.7-2.4 20.5-2.7 22.7-16.9 42.7-34.4 57.3-17.6 14.6-49.2 38-69.9 47.7l-12.2-1.9z" opacity=".2" /><path d="M644.5 537.9c5.3-20 27.9-35.2 24.5-55.7-1.2-7.1-5.5-13.3-7.7-20.2-6.5-21.1 8.7-42.1 22.9-59 13-15.4 25.9-30.8 38.9-46.2 1.9-2.3 4-4.8 4.4-7.8 0.8-6.1-5.1-10.7-9.5-15-11.6-11.4-15-27.3-15.3-44.1-17.5 15.5-31.8 34.2-40 55.9-8.9 23.6-12.9 53-35.2 64.7-9.1 4.8-20.2 5.8-27.9 12.6-11 9.8-10.3 26.7-13.4 41.2-3.9 18.3-14.9 34.2-21.6 51.6-12.2 31.7-9.4 67.9 2.8 99.6 3 7.9 6.6 15.6 10.7 23 11.2-8 21.8-16.2 29.7-22.7 17.6-14.6 31.7-34.7 34.4-57.3 0.8-7 0.5-14 2.3-20.6z" opacity=".2" /><path d="M539.3 341.8s18.5 39.5 15.2 74.3c-7.3 76.8-31.4 143.4-30.4 223.1l0.1 8.7c0.9 78.6-6.2 160.1-33.5 224.7l18.6 16.7c30.4-72 32-159.3 31.1-242.6l-0.1-8.7c-0.9-76 14.4-151.4 20-221.2 3-39.9-21-75-21-75z m-128.7 24c1.3-3.8-25.1 26.3-35.4 49.3-17.5 39.1-23.9 81.5-23.8 121.6 0.1 44 7.7 87.1 15 128.8 2.5 14.5 5.1 28.9 7.3 43.4 7.2 46.8 13.2 107.4-4.8 160.5l25.2 11.8c22.5-60.9 15.6-114.1 3.6-164.4-3.5-14.5-7.8-42.7-10.4-57.4-7.4-42-17.1-83-17.2-123.7-0.1-36.5-0.6-80.1 11-117.6 8.3-27 29.5-52.3 29.5-52.3z" fill="#DEE3A0" /><path d="M539.3 341.8s18.5 39.5 15.2 74.3c-7.3 76.8-31.4 143.4-30.4 223.1l0.1 8.7c0.9 78.6-6.2 160.1-33.5 224.7l18.6 16.7c30.4-72 32-159.3 31.1-242.6l-0.1-8.7c-0.9-76 14.4-151.4 20-221.2 3-39.9-21-75-21-75z m-128.7 24c1.3-3.8-25.1 26.3-35.4 49.3-17.5 39.1-23.9 81.5-23.8 121.6 0.1 44 7.7 87.1 15 128.8 2.5 14.5 5.1 28.9 7.3 43.4 7.2 46.8 13.2 107.4-4.8 160.5l25.2 11.8c22.5-60.9 15.6-114.1 3.6-164.4-3.5-14.5-7.8-42.7-10.4-57.4-7.4-42-17.1-83-17.2-123.7-0.1-36.5-0.6-80.1 11-117.6 8.3-27 29.5-52.3 29.5-52.3z" opacity=".2" /><path d="M645.7 699.1c61.6-8.1 140.9-64.7 176-116-11.8-6.5-14.4-23.2-9.5-35.7 5-12.5 15.5-21.8 25.5-30.7 10-8.9 20.3-18.6 24.7-31.3 6.2-18-1-37.5-4.8-56.2-5.2-25.2-4.3-51.6 2.7-76.3 10.9-39 36.6-78.7 22.6-116.7-1.5-4.1-3.6-8.2-7.3-10.5-5.6-3.5-12.8-1.7-19.2 0.1-35.7 10.5-71.8 21.1-104.2 39.5-32.4 18.4-61.2 45.5-74.4 80.3-8.9 23.6-12.9 53-35.2 64.7-9.1 4.8-20.2 5.8-27.9 12.6-11 9.8-10.3 26.7-13.4 41.2-3.9 18.3-14.9 34.2-21.6 51.6-12.2 31.7-9.4 67.9 2.8 99.6 12.2 31.7 33.3 59.4 57 83.7h6.2z" fill="#7BAD37" /><path d="M763.5 543.5c0.4 0.5-4.2 5.2-13 10.9-8.7 5.8-21.7 12.2-35 20.2s-23.7 17.7-29.3 26c-5.7 8.3-7.2 14.6-8.1 14.4-0.5 0-0.3-6.9 5.1-16.3 5.2-9.4 15.9-20.1 29.6-28.4 13.8-8.3 26.8-14 35.8-19 9.2-4.8 14.5-8.4 14.9-7.8zM644.9 478.5c2.6 0.7-14.4 22.9-6.3 52.9 3.2 14.7 7 28.4 7.1 38.8 0.4 10.4-2.2 16.5-2.7 16.3-0.8-0.2 0.4-6.3-0.9-16.1-1-9.8-5.2-22.9-8.5-38.1-3.6-15.2-1.8-30.6 2.8-39.8 4.3-9.2 8-14.2 8.5-14zM800.2 421.3c0.5 0.4-3.2 6.3-10.6 15-3.7 4.3-8.5 9.2-14.9 13.6-6.3 4.4-14 7.9-22.1 11-16.3 5.8-30.5 11.1-39.2 17.8-8.9 6.4-12.2 12.7-12.9 12.3-0.5-0.1 1.7-7.4 10.7-15.1 8.6-7.9 23.7-14.1 39.7-19.8 16.2-5.5 28.5-14.2 36.2-22.3 7.8-7.8 12.5-13 13.1-12.5z" fill="#DEE3A0" /><path d="M376.3 475.8c-13.3-14.3-4.2-36-3.1-55 1.3-22.7-10.2-43.8-23.4-62.7-22.1-31.6-50.1-60-82.5-84.1-2.3 11.5 0.5 24.6 4.6 37.5 3 9.4 10.7 16.8 14.1 26.1 10.4 29.1-24.5 54.9-28.3 85.6-2.4 19.3 7.8 37.7 18.4 54 3 4.6 6.2 9.4 7.5 14.8 1.7 7.2-0.1 14.7-1.4 22-6.7 38.4 9.2 79.9 35.5 113.1 18.5-9.2 32.2-26.4 32.4-44.3 0.1-14.6-7.4-28.7-3.9-43.1 3.2-13.1 14.9-23.9 27.2-32.6 6.7-4.8 14.6-10.7 13.7-17.8-0.9-5.7-6.8-9.2-10.8-13.5z" opacity=".2" /><path d="M259.9 637c-5.1-16.4-35.5-28.3-52.2-37-16.7-8.7-35.5-14.5-52.8-22.3-7.3-3.3-14.9-7.5-17-14.5-1.8-6.1 1.2-12.6 4-18.7 6.2-13.9 11.1-28.3 14.6-42.7 2.6-10.8 4.5-22.1 1.3-32.6-2.9-9.4-9.6-17.4-13.3-26.5-9.2-22.2 0-47.8 12.5-70 4.1-7.3 8.7-14.8 9.3-22.7 0.8-9.7-4.4-18.7-9-27.3-6.1-11.5-11.2-23.4-15.4-35.6-3.6-10.4-6.5-21.5-3.9-32.5s12.2-21.9 25.1-24.2c11.1-1.9 21.7 2.7 31.1 7.5 57.5 29.5 106 71 140.4 120.1 13.2 18.9 24.7 40 23.4 62.7-1.1 18.9-10.2 40.6 3.1 55 4 4.3 9.9 7.8 10.7 13.4 1 7.1-6.9 13-13.7 17.8-12.3 8.7-24 19.5-27.2 32.6-3.5 14.4 4.1 28.5 3.9 43.1-0.2 25.8-28.5 50.5-58.8 51.3l-16.1 3.1z" fill="#7BAD37" /><path d="M468.4 637.1c26.9-13 77.4-47.3 95.2-70 6.1-7.7 11.4-18.6 5.1-26.4-2.2-2.7-5.6-4.5-7.8-7.4-3.5-4.6-2.8-10.8-1.3-16.2 6.8-23.8 26.8-41.7 41-62.3 14.3-20.6 22.1-49.8 4.8-68.8-6.7-7.4-16.9-13-19.2-22.3-1.1-4.5 0-9.2 1-13.8 3.5-16 6.5-32 9-48.2 0.7-4.5 1.3-9.2-0.5-13.5-2.3-5.3-7.9-8.6-13-11.8-55.6-34.7-0.8-117.4-46.3-163.1-10.2-10.2-43.4-44.6-57.7-48.6-25.3-7.1-76.6 74.3-90.2 95s-59.2 29.3-59.9 53.7c-0.8 26.2 19.3 57.4-3.1 73-5.3 3.7-12.2 7.4-12.1 13.6 0 3 1.9 5.8 3.7 8.3 11.9 17.1 2.7 33.3 14.6 50.4 13 18.7 26.5 41.7 16.9 61.7-3.1 6.6-8.6 12.1-10.8 19-6.3 19.8 16 38 19.1 58.6 1 6.9-0.1 13.8-0.1 20.7 0 22.9 12.5 44.7 29.5 61.6 16.9 16.9 47.8 44.5 68.6 57l13.5-0.2z" opacity=".2" /><path d="M465.6 636.7c25-13.3 72.3-48 89-70.8 5.7-7.8 10.8-18.7 5-26.4-2.1-2.7-5.2-4.5-7.1-7.3-3.2-4.6-2.5-10.8-1.1-16.2 6.5-23.8 25.2-41.9 38.7-62.6s20.9-49.9 5.1-68.8c-6.2-7.3-15.6-12.8-17.6-22.1-1-4.5 0-9.2 1-13.7 3.4-16 6.4-32.1 8.8-48.2 0.7-4.5 1.3-9.2-0.4-13.4-2.1-5.3-7.2-8.5-12-11.7-51.3-34.1 0.3-117.2-41.5-162.4-9.4-10.1-39.8-44.1-53.1-48-23.4-6.9-71.8 74.9-84.6 95.7s-55.2 29.8-56.1 54.2c-0.9 26.2 17.4 57.2-3.6 72.9-4.9 3.7-11.4 7.5-11.4 13.7 0 3 1.7 5.7 3.3 8.3 10.9 16.9 2.2 33.2 13.1 50.2 11.9 18.6 24.2 41.4 15.1 61.4-3 6.6-8.1 12.2-10.2 19.1-6 19.8 14.4 37.8 17.2 58.3 0.9 6.8-0.2 13.8-0.3 20.7-0.2 22.8 11.2 44.6 26.8 61.3 15.6 16.7 43.9 44 63.2 56.3l12.7-0.5z" fill="#7BAD37" /><path d="M336.3 933.3c-52.7-7.4-85.6-58.5-85.6-165.1 0-57.9 1.7-105.7 7.4-162.7 7.1-70.5 22.3-114.8 0.9-213.9-6.3-29.3-52.6-65-52.6-65s50.6 23.9 64.4 64.3c25.2 73.3 14 146.1 4.2 219.4-9.9 74.4-5.4 109.3-3.7 159.1 3.3 99.2 18.5 106.9 48.5 137.2l16.5 26.7zM544.5 926.2v-45c50.1-46.4 75.1-113.6 87.3-193.7l2.3-15.1c12.4-82.3 15.4-174.6 69.3-230.9 9.3-9.8 72-72 72-72s-62.9 71.6-70.8 84.4c-35.9 58.6-44.4 139-51.4 222-5.6 66.1-51.4 197.1-108.7 250.3z" fill="#DEE3A0" /><path d="M287.8 858.4a147.4 101.3 0 1 0 294.8 0 147.4 101.3 0 1 0-294.8 0Z" fill="#DEE3A0" /><path d="M443.9 946.5c-8.9-78.9-11-159.5-6.3-239.4 1.6-26.5 3.9-53.4 6.2-79.3 6.5-74.9-12.4-119-1.9-188.3 7.9-52.3 22.5-246 22.5-246s-9.7 193.7-15.3 247.2c-7.8 75.6 16.3 117.7 9.8 192.2-2.2 25.6-0.2 98.4-1.7 124.2-4.6 76.9-3.1 107.5 5.5 183.5l-18.8 5.9z" fill="#DEE3A0" /><path d="M528.1 436.4c0.5 0.3-3.2 7.2-11.8 16.1-8.5 9.1-22.2 19.3-35.8 31.8-13.7 12.4-22.6 26.7-25.4 38.3-3.1 11.5-1.4 19.2-2.3 19.3-0.5 0.2-3.6-7.5-1.2-20.1 2.1-12.6 11.3-28.4 25.5-41.1 14-12.8 27.9-22.4 36.8-30.7 9-8.1 13.6-14.1 14.2-13.6zM381.3 341.5c0.8 0 1.4 7.8 3.4 20.3 2.1 12.3 5.7 29.7 15.8 45.7 5 8 11.1 14.7 17.6 19.5 6.6 4.9 13.5 8.6 18.3 13.2 9.2 10 9.3 19.1 8.8 18.9-0.8 0.4-2.3-8-11.3-16.3-4.7-3.9-11.6-7.1-18.5-12-7.1-5-13.8-12.2-19.1-20.6-10.7-17.1-13.9-35.3-15.1-47.9-1.1-12.9-0.5-20.8 0.1-20.8zM520.4 265.6c0.5-0.2 2.7 8.3-1.9 20.9-4.1 12.7-16.2 27-30.3 40.3-14.3 13.3-24.7 27.1-29.2 38.9-4.9 11.6-5.9 19.5-6.7 19.4-0.6 0-0.8-8.2 3.4-20.7 3.8-12.6 14.7-28 29-41.2 14.2-13.4 25.8-26.4 30.5-38 5.1-11.5 4.3-19.6 5.2-19.6zM324 468.5c0.6-0.1 0.8 7.4-5.2 16.9-5.8 9.6-16.7 19.7-25 33.5-17.5 27.4-20.9 54.3-22.4 53.9-1.3 0.2 0-28.1 18.1-56.6 8.8-14.4 20.4-24.3 26.4-32.7 6.2-8.5 7.3-15.1 8.1-15zM177 400c-0.3-0.6 9.6-1.5 20.7 7.7 11.7 8.7 18.7 27.2 30.4 43.3 6 8.1 12.7 15.2 19.2 21 6.5 5.8 13.2 10.4 18.3 15.1 10.7 9.3 12.5 18.7 11.8 18.6-0.7 0.3-3.4-7.9-14.1-15.9-5.1-4.2-12-8.4-19-14.2-7-5.8-14-13-20.3-21.5-12.4-17.2-18.5-35.1-28.7-43.6-9.6-9.3-18.6-9.7-18.3-10.5zM262.1 321.6c0.6-0.2 3.2 4.8 6.7 13.2 3.4 8.4 7.8 20.3 10.5 34 2.8 13.7 2.7 26.7 1.2 35.8-2.1 9-1.7 14-2.1 14.3-0.9 0.5-2.7-5.8-1.4-14.7 0.6-8.8 0.2-21.1-2.6-34.4-5.7-26.6-14-47.6-12.3-48.2z" fill="#DEE3A0" /><path d="M533.7 911.7c-71.9 27.7-155.9 10.9-172.8 4.9-16.9-6 69.7-3.8 87.5-13s-37.5-0.8-87.5 0c-17.2 0.3-39.8-2.8-62.1-7 20.4 34.2 67.2 59.1 123 62.5 3.2-0.1 6.5-0.1 9.7-0.3 97.9-22.2 148.2-64.8 102.2-47.1z" fill="#7BAD37" opacity=".3" /></svg>