<?xml version="1.0" standalone="no"?><!DOCTYPE svg PUBLIC "-//W3C//DTD SVG 1.1//EN" "http://www.w3.org/Graphics/SVG/1.1/DTD/svg11.dtd"><svg class="icon" width="81px" height="81.00px" viewBox="0 0 1024 1024" version="1.1" xmlns="http://www.w3.org/2000/svg"><path d="M810.3936 258.5088h-211.1488l134.0928-111.7184c13.056-10.8544 14.7968-30.208 3.9424-43.264a30.70464 30.70464 0 0 0-43.264-3.9424l-179.456 149.504-175.872-149.2992a30.7456 30.7456 0 0 0-43.3152 3.5328 30.78656 30.78656 0 0 0 3.5328 43.3152l131.7888 111.872H222.1056C153.2928 258.5088 97.28 314.5216 97.28 383.3344v411.8016c0 68.8128 56.0128 124.8256 124.8256 124.8256h588.2368c68.8128 0 124.8256-56.0128 124.8256-124.8256V383.3344c0.0512-68.8128-55.9616-124.8256-124.7744-124.8256z m63.3856 536.6272c0 34.9696-28.416 63.3856-63.3856 63.3856H222.1056c-34.9696 0-63.3856-28.416-63.3856-63.3856V383.3344c0-34.9696 28.4672-63.3856 63.3856-63.3856h588.2368c34.9696 0 63.3856 28.416 63.3856 63.3856v411.8016z" fill="#3E3A39" /><path d="M433.8176 764.8256c-12.6464 0-25.344-3.328-36.864-10.0352-22.8352-13.2608-36.4544-36.9664-36.4544-63.3856V480.2048c0-26.4192 13.6192-50.1248 36.4544-63.3856 22.8352-13.2608 50.176-13.4144 73.1648-0.3072l185.344 105.5744c23.1936 13.2096 37.0176 37.0176 37.0176 63.6928 0 26.6752-13.824 50.4832-37.0176 63.6928l-185.344 105.5744c-11.3664 6.5024-23.808 9.7792-36.3008 9.7792z m0.0512-296.5504c-2.56 0-4.7104 0.9216-5.9904 1.6896-2.2016 1.28-5.888 4.3008-5.888 10.2912v211.1488c0 5.9392 3.6864 9.0112 5.888 10.2912 2.2016 1.28 6.7072 2.9696 11.8784 0.0512l185.344-105.5744c5.2224-2.9696 5.9904-7.7312 5.9904-10.3424 0-2.56-0.768-7.3728-5.9904-10.3424l-185.344-105.5744c-2.1504-1.2288-4.096-1.6384-5.888-1.6384z" fill="#FC4138" /></svg>