<?xml version="1.0" standalone="no"?><!DOCTYPE svg PUBLIC "-//W3C//DTD SVG 1.1//EN" "http://www.w3.org/Graphics/SVG/1.1/DTD/svg11.dtd"><svg class="icon" width="81px" height="81.00px" viewBox="0 0 1024 1024" version="1.1" xmlns="http://www.w3.org/2000/svg"><path d="M269.7 406.7l338.4 303.7c98.3-46.8 192.6-130.4 257.4-217.9s83.2-218.6 14.4-302.9c-65.1-79.7-186.8-92.3-283.6-57.5S421.8 239.4 347 310.1c-33.4 31.5-52.1 58.8-77.3 96.6" fill="#7BAD37" /><path d="M879.9 189.6c-31.6-38.7-76.5-61.4-125.4-70.8 10.9 8.5 21 18 29.9 29 68.9 84.3 50.4 215.4-14.4 302.9-57.9 78.4-139.5 153.3-226.5 201.8l64.6 58c98.3-46.8 192.6-130.4 257.4-217.9s83.2-218.7 14.4-303z" opacity=".2" /><path d="M271.2 403c26.1-22.3 60.6-34.7 94.9-34.1 49.4 0.9 94.4 27.1 136.8 52.5 29.1 17.4 50.2 47.9 67.7 77 39.2 65.1 61.9 119.7 51 191.3-0.8 5.4-1.8 11-5.3 15.2-3.7 4.4-9.4 6.3-14.8 8-37.3 11.7-77.4 17.1-115.6 8.8-73.2-15.9-154-68.2-185.8-135s-42.7-143.4-36-164.7l7.1-19z" fill="#DEE3A0" /><path d="M462.6 526.6c-3.5 4.7-13.2 6.5-14.6 5.4-1.4-1.1-2.5-10.9 1-15.6 3.5-4.7 7.8-4.2 11.6-1.4 3.7 2.9 5.5 6.9 2 11.6zM410.8 567.9c3.5-4.7 13.2-6.5 14.6-5.4 1.4 1.1 2.5 10.9-1 15.6-3.5 4.7-7.8 4.2-11.6 1.4-3.8-2.9-5.5-6.9-2-11.6zM473.9 581.6c-7.4-5.5-14-15.7-13.3-16.6s12.4 2.4 19.7 7.9c7.4 5.5 8.7 9.5 6.9 11.9-1.8 2.4-6 2.2-13.3-3.2zM399.5 512.9c7.4 5.5 14 15.7 13.3 16.6-0.7 0.9-12.4-2.4-19.7-7.9s-8.7-9.5-6.9-11.9c1.7-2.4 6-2.2 13.3 3.2z" opacity=".2" /><path d="M481.3 556.9c-7.7-0.6-19.2-6.5-19.7-7.9s7-6 14.6-5.4 11.7 3.7 13.1 7.4c1.4 3.7-0.3 6.5-8 5.9zM392.1 537.6c7.7 0.6 19.2 6.5 19.7 7.9 0.5 1.4-7 6-14.6 5.4s-11.7-3.7-13.1-7.4c-1.4-3.7 0.3-6.5 8-5.9z" opacity=".2" /><path d="M444.7 586.1c-2.7-7.2-0.6-15.7 1-15.6 1.5 0.1 10.5 9.4 13.3 16.6 2.7 7.2 0.6 9.6-3.3 9.4-4.1-0.3-8.3-3.2-11-10.4zM428.7 508.4c2.7 7.2 0.6 15.7-1 15.6-1.5-0.1-10.5-9.4-13.3-16.6-2.7-7.2-0.6-9.6 3.3-9.4 4.1 0.3 8.3 3.2 11 10.4z" opacity=".2" /><path d="M498.8 795.5c0.3-2.3 0.5-4.7 0.8-7 0.3-3 0.6-5.9 0.7-8.9 11.3-52.3 0.1-103-19.6-153.1-7.8-19.9-18.2-39-32.7-54.7-34.8-37.3-90.2-50-140.8-43.3-50.6 6.8-97.2 30.5-140.8 57.1l-0.1 1.7c-14.7 11.5-30.3 37.5-38.3 68-5.4 16-9.3 33.7-10.4 52-0.5 7.1-0.5 14.3-0.1 21.5v0.5c0.4 7.1 1.3 14.2 2.8 21.2 4.8 22.8 14.1 43.9 26.7 62.7 12.6 18.8 28.3 35.1 46.1 48.5 11.8 8.9 24.5 16.5 37.6 22.6 19.7 9.1 39.3 15.6 59.2 19.9 33.1 7.1 66.8 7.7 102.2 3.4 5.4-0.7 11-1.8 16.6-3.3 8.4-2.3 16.8-5.9 24.7-10.1 7.9-4.2 15.5-8.9 21.7-14.6 6.1-5.6 12.7-12.9 18.7-21.1 4-5.4 7.9-11.2 11.2-17.1 5-8.9 8.9-18 10.7-26.5 1.2-6.5 2.2-12.9 3.1-19.4z" opacity=".2" /><path d="M145.5 615.4c-26 21.9-54.8 90.9-41.8 151.7s59.1 109.5 112.7 133.8 107.1 30.2 164.9 23.3c22-2.6 47.5-12.8 64.4-28 16.7-15 36.5-41.9 41.6-64.7 13.1-59.2 1.4-116.5-19.4-173-8-21.9-18.6-43-33.6-60.2-35.7-41.1-92.5-55.1-144.3-47.6-51.8 7.4-99.7 33.6-144.4 62.8l-0.1 1.9z" fill="#7BAD37" /><path d="M487.3 808.9c-5 22.7-24.9 49.7-41.6 64.7-16.9 15.2-42.5 25.4-64.4 28-57.8 6.9-111.3 1-164.9-23.3s-99.7-73-112.7-133.8c-1.4-6.8-2.3-13.6-2.8-20.5-0.9 14.4-0.3 29 2.8 43.1 13 60.9 59.1 109.5 112.7 133.8 53.6 24.3 107.1 30.2 164.9 23.3 22-2.6 47.5-12.8 64.4-28 16.7-15 36.5-41.9 41.6-64.7 4.7-21.2 6.1-42.2 5.2-63-0.7 13.4-2.2 26.8-5.2 40.4z" opacity=".2" /><path d="M146.2 601.4c-25.9 20.3-54.7 84.5-41.7 141s59 101.8 112.5 124.4c53.5 22.6 106.8 28.1 164.5 21.7 21.9-2.4 47.4-11.9 64.3-26.1 16.6-13.9 36.5-39 41.5-60.1 13.1-55 1.4-108.3-19.3-160.8-8-20.3-18.6-39.9-33.5-55.9-35.6-38.2-92.3-51.2-144-44.3-51.7 6.9-99.5 31.2-144.1 58.4l-0.2 1.7z" fill="#7BAD37" /><path d="M152.7 606.3c-24.8 19.5-52.3 80.8-39.9 134.9 12.4 54.1 56.4 97.4 107.6 119 51.2 21.6 102.2 26.9 157.4 20.7 21-2.3 45.3-11.4 61.5-24.9 15.9-13.3 34.9-37.3 39.7-57.5 12.5-52.6 1.4-103.6-18.5-153.9-7.7-19.5-17.8-38.2-32.1-53.5-34-36.5-88.3-49-137.8-42.4s-95.2 29.9-137.8 55.9l-0.1 1.7z" fill="#DEE3A0" /><path d="M349.1 676.5c-4 5.5-15.2 7.6-16.9 6.4s-2.9-12.8 1.1-18.2c4-5.5 9-4.9 13.4-1.6s6.4 7.9 2.4 13.4zM289.3 724.9c4-5.5 15.2-7.6 16.9-6.4 1.7 1.3 2.9 12.8-1.1 18.2-4 5.5-9 4.9-13.4 1.6-4.4-3.2-6.5-7.9-2.4-13.4zM362.1 741c-8.5-6.4-16.1-18.4-15.3-19.4 0.8-1.1 14.3 2.9 22.8 9.3s10 11.1 8 13.9-7 2.5-15.5-3.8zM276.3 660.4c8.5 6.4 16.1 18.4 15.3 19.4-0.8 1.1-14.3-2.9-22.8-9.3s-10-11.1-8-13.9 7-2.6 15.5 3.8z" opacity=".2" /><path d="M370.7 712c-8.8-0.6-22.1-7.6-22.8-9.2s8.1-7 16.9-6.4 13.5 4.4 15.1 8.7-0.4 7.6-9.2 6.9zM267.7 689.3c8.8 0.6 22.1 7.6 22.8 9.2s-8.1 7-16.9 6.4-13.5-4.4-15.1-8.7 0.3-7.5 9.2-6.9z" opacity=".2" /><path d="M328.4 746.3c-3.2-8.4-0.6-18.4 1.1-18.3 1.7 0.1 12.1 11.1 15.3 19.5s0.7 11.3-3.8 11-9.5-3.8-12.6-12.2zM310 655.1c3.2 8.4 0.6 18.4-1.1 18.3s-12.1-11.1-15.3-19.5c-3.2-8.4-0.7-11.3 3.8-11s9.4 3.8 12.6 12.2z" opacity=".2" /><path d="M835.6 150.4s61.9-48.3 86.5-53.3c6.3 8.8-10.9 18.3-25 27.8s-46.3 34.8-47.6 35.9c-0.8-1.5-13.9-10.4-13.9-10.4z" fill="#7BAD37" /></svg>