<?xml version="1.0" standalone="no"?><!DOCTYPE svg PUBLIC "-//W3C//DTD SVG 1.1//EN" "http://www.w3.org/Graphics/SVG/1.1/DTD/svg11.dtd"><svg class="icon" width="81px" height="81.00px" viewBox="0 0 1024 1024" version="1.1" xmlns="http://www.w3.org/2000/svg"><path d="M889.1904 810.1376c-16.9472 0-30.72-13.7728-30.72-30.72v-265.0112c0-192.1024-156.2624-348.3648-348.3648-348.3648s-348.3648 156.2624-348.3648 348.3648v265.0112c0 16.9472-13.7728 30.72-30.72 30.72s-30.72-13.7728-30.72-30.72v-265.0112c0-225.9968 183.8592-409.8048 409.8048-409.8048s409.8048 183.8592 409.8048 409.8048v265.0112c0 16.9984-13.7728 30.72-30.72 30.72z" fill="#3E3A39" /><path d="M235.5712 925.44c-74.5984 0-135.3216-60.672-135.3216-135.3216v-99.584c0-74.5984 60.672-135.2704 135.3216-135.2704 74.5984 0 135.2704 60.672 135.2704 135.2704v99.584c0 74.5984-60.672 135.3216-135.2704 135.3216z m0-308.736c-40.704 0-73.8816 33.1264-73.8816 73.8304v99.584c0 40.704 33.1264 73.8816 73.8816 73.8816s73.8304-33.1264 73.8304-73.8816v-99.584c0-40.704-33.1264-73.8304-73.8304-73.8304zM784.5888 925.44c-74.5984 0-135.2704-60.672-135.2704-135.3216v-99.584c0-74.5984 60.672-135.2704 135.2704-135.2704 74.5984 0 135.3216 60.672 135.3216 135.2704v99.584c0 74.5984-60.7232 135.3216-135.3216 135.3216z m0-308.736c-40.704 0-73.8304 33.1264-73.8304 73.8304v99.584c0 40.704 33.1264 73.8816 73.8304 73.8816s73.8816-33.1264 73.8816-73.8816v-99.584c0-40.704-33.1776-73.8304-73.8816-73.8304z" fill="#FC4138" /></svg>