<?xml version="1.0" standalone="no"?><!DOCTYPE svg PUBLIC "-//W3C//DTD SVG 1.1//EN" "http://www.w3.org/Graphics/SVG/1.1/DTD/svg11.dtd"><svg class="icon" width="81px" height="81.00px" viewBox="0 0 1024 1024" version="1.1" xmlns="http://www.w3.org/2000/svg"><path d="M513.4848 947.3536c-237.1584 0-430.08-192.9216-430.08-430.08 0-118.6816 49.7664-233.2672 136.5504-314.368a30.73536 30.73536 0 0 1 43.4176 1.4848 30.73536 30.73536 0 0 1-1.4848 43.4176c-74.3936 69.4784-117.0432 167.68-117.0432 269.4656 0 203.264 165.376 368.64 368.64 368.64s368.64-165.376 368.64-368.64c0-101.8368-40.6528-196.6592-114.3808-266.9568a30.72512 30.72512 0 0 1-1.0752-43.4176 30.72512 30.72512 0 0 1 43.4176-1.0752c86.0672 81.9712 133.4784 192.6144 133.4784 311.4496 0 237.1584-192.9216 430.08-430.08 430.08z" fill="#3E3A39" /><path d="M513.4848 560.7936c-16.9472 0-30.72-13.7728-30.72-30.72V99.584c0-16.9472 13.7728-30.72 30.72-30.72s30.72 13.7728 30.72 30.72v430.4896c0 16.9472-13.7728 30.72-30.72 30.72z" fill="#FC4138" /></svg>