<?xml version="1.0" standalone="no"?><!DOCTYPE svg PUBLIC "-//W3C//DTD SVG 1.1//EN" "http://www.w3.org/Graphics/SVG/1.1/DTD/svg11.dtd"><svg class="icon" width="81px" height="81.00px" viewBox="0 0 1024 1024" version="1.1" xmlns="http://www.w3.org/2000/svg"><path d="M913.4 236.1c26.4 95.6 15.3 203.2-30 289.7-4.4 8.4-9.3 16.8-16.1 23-8.7 7.9-24.3 35.4-35.1 38.8-27.2 8.6-53.3 16-90.9 10.3L706 577.4c-9.2-49.1 0.4-100.6 18-146.8 7.5-19.8 16.7-39.2 29.8-55 28.1-33.6 70.6-46.8 104-73.8 23-18.6 41.5-44 53.1-72.8l2.5 7.1z" fill="#7BAD37" /><path d="M913.4 236.1c26.4 95.6 15.3 203.2-30 289.7-4.4 8.4-9.3 16.8-16.1 23-8.7 7.9-24.3 35.4-35.1 38.8-27.2 8.6-53.3 16-90.9 10.3L706 577.4c-9.2-49.1 0.4-100.6 18-146.8 7.5-19.8 16.7-39.2 29.8-55 28.1-33.6 70.6-46.8 104-73.8 23-18.6 41.5-44 53.1-72.8l2.5 7.1z" opacity=".2" /><path d="M86.2 324.2c74-7.7 153.9 2.5 211.8 61.8 42.7 43.8 69.1 112.5 70 182.4 0.3 22.9-2 45.9-8.1 67.4-14.9 52.7-10.2 59.3-53.6 67.8l-3.4-1.1c-22.4 1.1-44.9-1.3-66.9-7-10.4-2.7-20.9-6.3-29.5-14.4-8.8-8.3-14.8-20.6-19.1-33.4-19.1-56.5-9.6-122.2-21.6-181.8-11.2-55.7-61.6-110.1-102-135.6l22.4-6.1z" fill="#7BAD37" /><path d="M86.2 324.2c74-7.7 153.9 2.5 211.8 61.8 42.7 43.8 69.1 112.5 70 182.4 0.3 22.9-2 45.9-8.1 67.4-14.9 52.7-10.2 59.3-53.6 67.8l-3.4-1.1c-22.4 1.1-44.9-1.3-66.9-7-10.4-2.7-20.9-6.3-29.5-14.4-8.8-8.3-14.8-20.6-19.1-33.4-19.1-56.5-9.6-122.2-21.6-181.8-11.2-55.7-61.6-110.1-102-135.6l22.4-6.1z" opacity=".2" /><path d="M431.1 283.7c-15-12.6-15.1-41.4-0.2-54.1 5.7-4.9 16.8-4.8 17.2 3.1 5.1-14.1 12.1-30.2 25.6-33.3 8.2-1.9 16.8 1.8 25.1 0.2 7.4-1.4 13.6-6.8 20-11.3 6.3-4.5 13.9-8.4 21.2-6.2 7.3 2.2 12.2 13.2 7.1 19.3 7.1-5.6 17.6-4.9 24.1 1.6 6.4 6.5 8.1 18 3.8 26.4 12.8-3.2 26.2 12.3 22.6 26.4-0.7 3-2.1 5.8-2 8.9 0.2 4.7 3.6 8.3 5.9 12.3 5.2 8.8 4.6 21.3-1.3 29.5-5.9 8.2-16.7 11.6-25.7 8 3.2 10.9-3.7 22.9-12.8 28.2-9.1 5.4-19.9 5.7-30.2 5.9 8.6 5.5 6.9 21-0.6 28.1-7.5 7.1-18.2 8.1-28 8.8-6.6 0.4-16.2-3.5-13.6-10.2 2.8-4.5 10.1 0.2 9.7 5.6-0.4 5.5-5.1 9.2-9.6 11.3-11.9 5.2-26.2 3.3-36.6-4.9-10.5-8.2-16.8-22.5-16.3-36.7-2.4 7.8-12.7 10.1-18.7 5.1-6-4.9-7.7-14.5-5.7-22.5s7-14.6 12.3-20.4c-5.6 5-14.3-3.6-13.2-11.6s7.3-13.5 13.2-18.2l6.7 0.7z" fill="#DEE3A0" /><path d="M601.5 276.9c-2.3-3.9-5.8-7.6-5.9-12.3-0.1-3.1 1.2-5.9 2-8.9 3.6-14.1-9.8-29.6-22.6-26.4 4-7.8 2.6-18.1-2.7-24.8-7.3 0.9-14.8-1.9-22.1-0.3-12.5 2.9-19 17.8-23.7 30.9-0.3-7.4-10.7-7.4-16-2.9-13.8 11.8-13.7 38.5 0.2 50.2l-6.2-0.7c-5.4 4.4-11.3 9.6-12.2 16.9-1 7.4 7.1 15.4 12.3 10.7-5 5.3-9.6 11.5-11.5 18.9-1.8 7.4-0.3 16.3 5.3 20.8 5.6 4.6 15.1 2.5 17.3-4.8-0.5 12.7 5.1 25.3 14.1 33.1 0.4-0.3 0.8-0.5 1.2-0.8 7.5-7.1 9.2-22.6 0.6-28.1 10.3-0.2 21.1-0.6 30.2-5.9 9.1-5.4 16-17.3 12.8-28.2 8.9 3.6 19.7 0.2 25.7-8 5.8-8.1 6.4-20.6 1.2-29.4zM467.7 339c5.5-7.6 6-19.2 1.2-27.4-2.2-3.7-5.3-7-5.5-11.4-0.1-2.8 1.1-5.5 1.8-8.2 3.3-13-9.1-27.5-21-24.5 4-7.8 2.4-18.5-3.5-24.5-4.4-4.4-10.9-5.9-16.6-4.3-7.3 14.3-5 34.8 7 45l-6.7-0.7c-5.8 4.7-12.1 10.3-13.2 18.2-1 7.9 7.6 16.6 13.2 11.6-5.4 5.8-10.3 12.4-12.3 20.4-2 8-0.3 17.6 5.7 22.5 6 4.9 16.3 2.7 18.7-5.1-0.2 5.4 0.9 10.7 2.5 15.8 4.4-5.6 6.9-12.9 4.9-19.8 8.2 3.2 18.3 0.1 23.8-7.6z" opacity=".2" /><path d="M297.4 341.4c-15-12.6-15.1-41.4-0.2-54.1 5.7-4.9 16.8-4.8 17.2 3.1 5.1-14.1 12.1-30.2 25.6-33.3 8.2-1.9 16.8 1.8 25.1 0.2 7.4-1.4 13.6-6.8 20-11.3 6.3-4.5 13.9-8.4 21.2-6.2 7.3 2.2 12.2 13.2 7.1 19.3 7.1-5.6 17.6-4.9 24.1 1.6 6.4 6.5 8.1 18 3.8 26.4 12.8-3.2 26.2 12.3 22.6 26.4-0.7 3-2.1 5.8-2 8.9 0.2 4.7 3.6 8.3 5.9 12.3 5.2 8.8 4.6 21.3-1.3 29.5-5.9 8.2-16.7 11.6-25.7 8 3.2 10.9-3.7 22.9-12.8 28.2-9.1 5.4-19.9 5.7-30.2 5.9 8.6 5.5 6.9 21-0.6 28.1s-18.2 8.1-28 8.8c-6.6 0.4-16.2-3.5-13.6-10.2 2.8-4.5 10.1 0.2 9.7 5.6-0.4 5.5-5.1 9.3-9.6 11.3-11.9 5.2-26.2 3.3-36.6-4.9-10.5-8.2-16.8-22.5-16.3-36.7-2.4 7.8-12.7 10.1-18.7 5.1s-7.7-14.5-5.7-22.5 7-14.6 12.3-20.4c-5.6 5-14.3-3.6-13.2-11.6s7.3-13.5 13.2-18.2l6.7 0.7zM512.9 303.3c-15-12.6-15.1-41.4-0.2-54.1 5.7-4.9 16.8-4.8 17.2 3.1 5.1-14.1 12.1-30.2 25.6-33.3 8.2-1.9 16.8 1.8 25.1 0.2 7.4-1.4 13.6-6.8 20-11.3 6.3-4.5 13.9-8.4 21.2-6.2 7.3 2.2 12.2 13.2 7.1 19.3 7.1-5.6 17.6-4.9 24.1 1.6 6.4 6.5 8.1 18 3.8 26.4 12.8-3.2 26.2 12.3 22.6 26.4-0.7 3-2.1 5.8-2 8.9 0.2 4.7 3.6 8.3 5.9 12.3 5.2 8.8 4.6 21.3-1.3 29.5-5.9 8.2-16.7 11.6-25.7 8 3.2 10.9-3.7 22.9-12.8 28.2-9.1 5.4-19.9 5.7-30.2 5.9 8.6 5.5 6.9 21-0.6 28.1s-18.2 8.1-28 8.8c-6.6 0.4-16.2-3.5-13.6-10.2 2.8-4.5 10.1 0.2 9.7 5.6-0.4 5.5-5.1 9.2-9.6 11.3-11.9 5.2-26.2 3.3-36.6-4.9s-16.8-22.5-16.3-36.7c-2.4 7.8-12.7 10.1-18.7 5.1-6-4.9-7.7-14.5-5.7-22.5s7-14.6 12.3-20.4c-5.6 5-14.3-3.6-13.2-11.6 1-7.9 7.3-13.5 13.2-18.2l6.7 0.7z" fill="#DEE3A0" /><path d="M443.3 388.2c-15.5-13.1-15.6-43-0.2-56.2 5.9-5 17.5-5 17.8 3.3 5.3-14.7 12.6-31.3 26.5-34.6 8.5-2 17.5 1.9 26.1 0.2 7.7-1.5 14.1-7.1 20.7-11.8 6.6-4.7 14.5-8.7 22-6.4 7.6 2.3 12.7 13.7 7.3 20 7.4-5.8 18.3-5.1 25 1.6s8.4 18.7 4 27.4c13.3-3.3 27.2 12.8 23.5 27.4-0.8 3.1-2.2 6-2 9.2 0.2 4.9 3.8 8.6 6.2 12.7 5.4 9.2 4.8 22.1-1.3 30.6s-17.4 12.1-26.6 8.3c3.3 11.3-3.8 23.8-13.3 29.3-9.5 5.6-20.6 5.9-31.4 6.2 8.9 5.7 7.2 21.8-0.6 29.1s-18.8 8.4-29.1 9.1c-6.8 0.4-16.8-3.6-14.1-10.6 2.9-4.7 10.4 0.2 10.1 5.8-0.4 5.7-5.3 9.6-10 11.7-12.4 5.4-27.2 3.4-38-5.1S448.5 472 449 457.3c-2.5 8.1-13.1 10.4-19.4 5.3-6.2-5.1-8-15-5.9-23.3 2.1-8.3 7.3-15.1 12.8-21.1-5.9 5.2-14.8-3.8-13.8-12 1.1-8.2 7.6-14 13.7-18.9l6.9 0.9z" opacity=".2" /><path d="M446.2 401.4c-15-12.6-15.1-41.4-0.2-54.1 5.7-4.9 16.8-4.8 17.2 3.1 5.1-14.1 12.1-30.2 25.6-33.3 8.2-1.9 16.8 1.8 25.1 0.2 7.4-1.4 13.6-6.8 20-11.3s13.9-8.4 21.2-6.2c7.3 2.2 12.2 13.2 7.1 19.3 7.1-5.6 17.6-4.9 24.1 1.6 6.4 6.5 8.1 18 3.8 26.4 12.8-3.2 26.2 12.3 22.6 26.4-0.7 3-2.1 5.8-2 8.9 0.2 4.7 3.6 8.3 5.9 12.3 5.2 8.8 4.6 21.3-1.3 29.5-5.9 8.2-16.7 11.6-25.7 8 3.2 10.9-3.7 22.9-12.8 28.2-9.1 5.4-19.9 5.7-30.2 5.9 8.6 5.5 6.9 21-0.6 28.1s-18.2 8.1-28 8.8c-6.6 0.4-16.2-3.5-13.6-10.2 2.8-4.5 10.1 0.2 9.7 5.6-0.4 5.5-5.1 9.2-9.6 11.3-11.9 5.2-26.2 3.3-36.6-4.9-10.5-8.2-16.8-22.5-16.3-36.7-2.4 7.8-12.7 10.1-18.7 5.1-6-4.9-7.7-14.5-5.7-22.5s7-14.6 12.3-20.4c-5.6 5-14.3-3.6-13.2-11.6s7.3-13.5 13.2-18.2l6.7 0.7z" fill="#DEE3A0" /><path d="M595.1 390.5c-15-12.6-15.1-41.4-0.2-54.1 5.7-4.9 16.8-4.8 17.2 3.1 5.1-14.1 12.1-30.2 25.6-33.3 8.2-1.9 16.8 1.8 25.1 0.2 7.4-1.4 13.6-6.8 20-11.3 6.3-4.5 13.9-8.4 21.2-6.2 7.3 2.2 12.2 13.2 7.1 19.3 7.1-5.6 17.6-4.9 24.1 1.6 6.4 6.5 8.1 18 3.8 26.4 12.8-3.2 26.2 12.3 22.6 26.4-0.7 3-2.1 5.8-2 8.9 0.2 4.7 3.6 8.3 5.9 12.3 5.2 8.8 4.6 21.3-1.3 29.5-5.9 8.2-16.7 11.6-25.7 8 3.2 10.9-3.7 22.9-12.8 28.2-9.1 5.4-19.9 5.7-30.2 5.9 8.6 5.5 6.9 21-0.6 28.1s-18.2 8.1-28 8.8c-6.6 0.4-16.2-3.5-13.6-10.2 2.8-4.5 10.1 0.2 9.7 5.6-0.4 5.5-5.1 9.3-9.6 11.3-11.9 5.2-26.2 3.3-36.6-4.9-10.5-8.2-16.8-22.5-16.3-36.7-2.4 7.8-12.7 10.1-18.7 5.1-6-4.9-7.7-14.5-5.7-22.5s7-14.6 12.3-20.4c-5.6 5-14.3-3.6-13.2-11.6s7.3-13.5 13.2-18.2l6.7 0.7z" opacity=".2" /><path d="M595.1 401.4c-15-12.6-15.1-41.4-0.2-54.1 5.7-4.9 16.8-4.8 17.2 3.1 5.1-14.1 12.1-30.2 25.6-33.3 8.2-1.9 16.8 1.8 25.1 0.2 7.4-1.4 13.6-6.8 20-11.3s13.9-8.4 21.2-6.2c7.3 2.2 12.2 13.2 7.1 19.3 7.1-5.6 17.6-4.9 24.1 1.6 6.4 6.5 8.1 18 3.8 26.4 12.8-3.2 26.2 12.3 22.6 26.4-0.7 3-2.1 5.8-2 8.9 0.2 4.7 3.6 8.3 5.9 12.3 5.2 8.8 4.6 21.3-1.3 29.5-5.9 8.2-16.7 11.6-25.7 8 3.2 10.9-3.7 22.9-12.8 28.2-9.1 5.4-19.9 5.7-30.2 5.9 8.6 5.5 6.9 21-0.6 28.1s-18.2 8.1-28 8.8c-6.6 0.4-16.2-3.5-13.6-10.2 2.8-4.5 10.1 0.2 9.7 5.6-0.4 5.5-5.1 9.2-9.6 11.3-11.9 5.2-26.2 3.3-36.6-4.9-10.5-8.2-16.8-22.5-16.3-36.7-2.4 7.8-12.7 10.1-18.7 5.1-6-4.9-7.7-14.5-5.7-22.5s7-14.6 12.3-20.4c-5.6 5-14.3-3.6-13.2-11.6s7.3-13.5 13.2-18.2l6.7 0.7z" fill="#DEE3A0" /><path d="M229 485.4c-19.8 2.8-35.4-19-41.2-40.1-1.7-6-2.9-12.8-0.4-18.4 2.5-5.7 10.1-8.7 14-4.2-5.9 0.8-11.3-4.9-12.8-11.3-2.5-10.7 3.2-21.7 10.4-29.3 7.2-7.6 16.1-13.2 22.5-21.6 4-5.2 7-11.3 11.2-16.3 4.2-5 10.4-8.8 16.4-7.4s10.5 9.9 7 15.5c4.2-6.9 10.3-12.9 17.7-14.3 7.4-1.4 15.9 3.3 17.6 11.4 0.5 2.4 0.5 5.2 1.9 7.1 1.3 1.7 3.4 2.3 5.4 2.7 9.7 2.1 20.3 3.2 27.5 10.6 7.3 7.4 7.1 23.9-2.5 26.7 12.2-2.6 25.2 8.9 25.7 22.6 0.5 13.7-11.7 26.3-24 24.7 9.3 6.6 14.1 20 11.6 31.9s-12.3 21.4-23.3 22.7c5.3-4.6 13.7 2.9 13 10.4s-6.8 12.9-12.9 16.1c-9 4.8-19.6 6.7-29.1 3.4-9.5-3.3-17.7-12.6-18.6-23.7-4.3 4.6-9 9.4-14.9 10.3-5.9 0.9-12.9-4.2-12-10.7 0.7-5.1 6.6-8.3 10.6-5.8 4 2.5 4.7 9.7 1.1 13.1-5.5 5.1-13.7-1-17.5-7.8-4.1-7.3-6.5-15.8-6.9-24.4l2.5 6.1z" opacity=".2" /><path d="M229 500.4c-19.8 2.8-35.4-19-41.2-40.1-1.7-6-2.9-12.8-0.4-18.4s10.1-8.7 14-4.2c-5.9 0.8-11.3-4.9-12.8-11.3-2.5-10.7 3.2-21.7 10.4-29.3s16.1-13.2 22.5-21.6c4-5.2 7-11.3 11.2-16.3 4.2-5 10.4-8.8 16.4-7.4s10.5 9.9 7 15.5c4.2-6.9 10.3-12.9 17.7-14.3 7.4-1.4 15.9 3.3 17.6 11.4 0.5 2.4 0.5 5.2 1.9 7.1 1.3 1.7 3.4 2.3 5.4 2.7 9.7 2.1 20.3 3.2 27.5 10.6 7.3 7.4 7.1 23.9-2.5 26.7 12.2-2.6 25.2 8.9 25.7 22.6 0.5 13.7-11.7 26.3-24 24.7 9.3 6.6 14.1 20 11.6 31.9s-12.3 21.4-23.3 22.7c5.3-4.6 13.7 2.9 13 10.4-0.7 7.5-6.8 12.9-12.9 16.1-9 4.8-19.6 6.7-29.1 3.4-9.5-3.3-17.7-12.6-18.6-23.7-4.3 4.6-9 9.4-14.9 10.3s-12.9-4.2-12-10.7c0.7-5.1 6.6-8.3 10.6-5.8 4 2.5 4.7 9.7 1.1 13.1-5.5 5.1-13.7-1-17.5-7.8-4.1-7.3-6.5-15.8-6.9-24.4l2.5 6.1z" fill="#DEE3A0" /><path d="M354.1 520.3c-19.8 2.8-35.4-19-41.2-40.1-1.7-6-2.9-12.8-0.4-18.4s10.1-8.7 14-4.2c-5.9 0.8-11.3-4.9-12.8-11.3-2.5-10.7 3.2-21.7 10.4-29.3s16.1-13.2 22.5-21.6c4-5.2 7-11.3 11.2-16.3 4.2-5 10.4-8.8 16.4-7.4 6 1.4 10.5 9.9 7 15.5 4.2-6.9 10.3-12.9 17.7-14.3 7.4-1.4 15.9 3.3 17.6 11.4 0.5 2.4 0.5 5.2 1.9 7.1 1.3 1.7 3.4 2.3 5.4 2.7 9.7 2.1 20.3 3.2 27.5 10.6s7.1 23.9-2.5 26.7c12.2-2.6 25.2 8.9 25.7 22.6 0.5 13.7-11.7 26.3-24 24.7 9.3 6.6 14.1 20 11.6 31.9-2.5 11.9-12.3 21.4-23.3 22.7 5.3-4.6 13.7 2.9 13 10.4-0.7 7.5-6.8 12.9-12.9 16.1-9 4.8-19.6 6.7-29.1 3.4-9.5-3.3-17.7-12.6-18.6-23.7-4.3 4.6-9 9.4-14.9 10.3-5.9 0.9-12.9-4.2-12-10.7 0.7-5.1 6.6-8.3 10.6-5.8 4 2.5 4.7 9.7 1.1 13.1-5.5 5.1-13.7-1-17.5-7.8-4.1-7.3-6.5-15.8-6.9-24.4l2.5 6.1z" opacity=".2" /><path d="M354.1 533.3c-19.8 2.8-35.4-19-41.2-40.1-1.7-6-2.9-12.8-0.4-18.4s10.1-8.7 14-4.2c-5.9 0.8-11.3-4.9-12.8-11.3-2.5-10.7 3.2-21.7 10.4-29.3s16.1-13.2 22.5-21.6c4-5.2 7-11.3 11.2-16.3 4.2-5 10.4-8.8 16.4-7.4 6 1.4 10.5 9.9 7 15.5 4.2-6.9 10.3-12.9 17.7-14.3 7.4-1.4 15.9 3.3 17.6 11.4 0.5 2.4 0.5 5.2 1.9 7.1 1.3 1.7 3.4 2.3 5.4 2.7 9.7 2.1 20.3 3.2 27.5 10.6 7.3 7.4 7.1 23.9-2.5 26.7 12.2-2.6 25.2 8.9 25.7 22.6 0.5 13.7-11.7 26.3-24 24.7 9.3 6.6 14.1 20 11.6 31.9-2.5 11.9-12.3 21.4-23.3 22.7 5.3-4.6 13.7 2.9 13 10.4-0.7 7.5-6.8 12.9-12.9 16.1-9 4.8-19.6 6.7-29.1 3.4-9.5-3.3-17.7-12.6-18.6-23.7-4.3 4.6-9 9.4-14.9 10.3-5.9 0.9-12.9-4.2-12-10.7 0.7-5.1 6.6-8.3 10.6-5.8 4 2.5 4.7 9.7 1.1 13.1-5.5 5.1-13.7-1-17.5-7.8-4.1-7.3-6.5-15.8-6.9-24.4l2.5 6.1z" fill="#DEE3A0" /><path d="M565.2 580.6c-20.3 2.8-36.4-19.6-42.4-41.3-1.7-6.2-2.9-13.1-0.4-19 2.5-5.8 10.4-9 14.4-4.3-6.1 0.8-11.6-5.1-13.2-11.6-2.6-11 3.3-22.3 10.7-30.1s16.5-13.6 23.2-22.2c4.1-5.3 7.2-11.6 11.5-16.7 4.4-5.1 10.6-9 16.9-7.6 6.2 1.4 10.8 10.1 7.2 15.9 4.3-7.1 10.6-13.3 18.2-14.7 7.6-1.4 16.4 3.4 18.2 11.8 0.5 2.5 0.5 5.3 2 7.3 1.3 1.8 3.5 2.4 5.5 2.8 9.9 2.2 20.8 3.3 28.3 10.9 7.5 7.6 7.3 24.6-2.5 27.4 12.5-2.7 25.9 9.1 26.4 23.3s-12 27-24.7 25.4c9.5 6.8 14.5 20.6 11.9 32.8-2.6 12.2-12.7 22-23.9 23.4 5.5-4.8 14 3 13.3 10.6-0.7 7.7-7 13.2-13.3 16.6-9.3 4.9-20.2 6.9-30 3.5-9.8-3.4-18.2-13-19.2-24.3-4.4 4.7-9.3 9.6-15.3 10.6-6.1 1-13.2-4.3-12.3-11 0.7-5.2 6.8-8.5 10.9-5.9 4.2 2.6 4.8 10 1.2 13.4-5.6 5.3-14.1-1-18-8-4.2-7.6-6.7-16.3-7.1-25.1l2.5 6.1z" opacity=".2" /><path d="M566.3 592.2c-19.8 2.8-35.4-19-41.2-40.1-1.7-6-2.9-12.8-0.4-18.4 2.5-5.7 10.1-8.7 14-4.2-5.9 0.8-11.3-4.9-12.8-11.3-2.5-10.7 3.2-21.7 10.4-29.3 7.2-7.6 16.1-13.2 22.5-21.6 4-5.2 7-11.3 11.2-16.3 4.2-5 10.4-8.8 16.4-7.4s10.5 9.9 7 15.5c4.2-6.9 10.3-12.9 17.7-14.3s15.9 3.3 17.6 11.4c0.5 2.4 0.5 5.2 1.9 7.1 1.3 1.7 3.4 2.3 5.4 2.7 9.7 2.1 20.3 3.2 27.5 10.6 7.3 7.4 7.1 23.9-2.5 26.7 12.2-2.6 25.2 8.9 25.7 22.6 0.5 13.7-11.7 26.3-24 24.7 9.3 6.6 14.1 20 11.6 31.9S662 603.9 651 605.2c5.3-4.6 13.7 2.9 13 10.4-0.7 7.5-6.8 12.9-12.9 16.1-9 4.8-19.6 6.7-29.1 3.4-9.5-3.3-17.7-12.6-18.6-23.7-4.3 4.6-9 9.4-14.9 10.3s-12.9-4.2-12-10.7c0.7-5.1 6.6-8.3 10.6-5.8 4 2.5 4.7 9.7 1.1 13.1-5.5 5.1-13.7-1-17.5-7.8-4.1-7.3-6.5-15.8-6.9-24.4l2.5 6.1z" fill="#DEE3A0" /><path d="M474.6 615.9c-12.6-2.3-24.5-9.6-32.9-20.3-3.3-4.1-6.1-9-6.6-14.5s1.9-11.5 6.5-13.5c-9.1-0.8-15.1-12-14.6-22.2 0.5-10.1 5.6-19.2 10.5-27.7 1.3-2.2 2.5-4.4 3.8-6.6l9-15.6c2.3-4 4.9-8.2 9-9.4 4.1-1.2 9.4 3 7.8 7.4-1.8-7.9 3.4-16.2 10.1-19.7s14.3-3.5 21.7-3.4c2.1 0 5.1 2 3.7 3.7l3.6-3.4c1.2-7 8.6-11.8 14.7-9.5 6.1 2.3 9.3 11.2 6.4 17.5 7.2-6 18.5-1.7 23.3 6.8 4.5 7.9 4.4 18.7-0.3 26.5 11.9 0.7 21 13.5 22.7 26.6 1.6 13.1-2.5 26.2-7.5 38.2-0.6 1.5-1.3 3.3-0.6 4.8 0.6 1.4 2.2 2 3.4 2.8 7.9 4.6 7 18.5 0.5 25.3-6.4 6.8-15.8 8.5-24.5 10.3-2.1 0.4-4.4 0.9-5.9 2.6-0.9 1-1.4 2.2-2.1 3.3-6.6 11.3-21.6 9.9-33.5 7.3-3.5-0.8-7.1-1.7-9.6-4.5s-2.8-8.2 0.3-10.2c3.3 0.3 4.3 5.8 2.1 8.5-2.2 2.7-5.9 3.1-9.1 2.4-8.9-1.9-16.3-10.8-17.3-20.8l5.4 7.3z" opacity=".2" /><path d="M476 622.1c-11.9-2.2-23.1-9.1-31.1-19.2-3.1-3.9-5.8-8.5-6.2-13.7s1.8-10.9 6.2-12.8c-8.6-0.7-14.3-11.4-13.8-21s5.3-18.1 10-26.2c1.2-2.1 2.4-4.2 3.6-6.2 2.8-4.9 5.7-9.8 8.5-14.7 2.2-3.7 4.7-7.8 8.5-8.9 3.9-1.2 8.9 2.8 7.4 7-1.7-7.5 3.2-15.3 9.5-18.6 6.3-3.3 13.6-3.3 20.6-3.2 2 0 4.8 1.8 3.5 3.5l3.4-3.2c1.1-6.6 8.2-11.2 13.9-9s8.8 10.6 6 16.6c6.9-5.6 17.5-1.6 22.1 6.4 4.3 7.5 4.2 17.7-0.2 25.1 11.3 0.7 19.9 12.8 21.4 25.2 1.6 12.4-2.4 24.8-7.1 36.2-0.6 1.4-1.2 3.1-0.6 4.5s2 1.9 3.3 2.6c7.4 4.3 6.6 17.5 0.5 23.9-6.1 6.4-14.9 8.1-23.2 9.7-2 0.4-4.1 0.9-5.6 2.5-0.8 0.9-1.4 2.1-2 3.1-6.3 10.7-20.5 9.4-31.7 6.9-3.3-0.7-6.8-1.6-9.1-4.2-2.3-2.7-2.6-7.8 0.3-9.6 3.1 0.3 4.1 5.5 2 8-2 2.6-5.6 2.9-8.6 2.3-8.5-1.8-15.4-10.2-16.4-19.7l4.9 6.7z" fill="#DEE3A0" /><path d="M677.2 512.8c-15-12.6-15.1-41.4-0.2-54.1 5.7-4.9 16.8-4.8 17.2 3.1 5.1-14.1 12.1-30.2 25.6-33.3 8.2-1.9 16.8 1.8 25.1 0.2 7.4-1.4 13.6-6.8 20-11.3 6.3-4.5 13.9-8.4 21.2-6.2 7.3 2.2 12.2 13.2 7.1 19.3 7.1-5.6 17.6-4.9 24.1 1.6 6.4 6.5 8.1 18 3.8 26.4 12.8-3.2 26.2 12.3 22.6 26.4-0.7 3-2.1 5.8-2 8.9 0.2 4.7 3.6 8.3 5.9 12.3 5.2 8.8 4.6 21.3-1.3 29.5s-16.7 11.6-25.7 8c3.2 10.9-3.7 22.9-12.8 28.2s-19.9 5.7-30.2 5.9c8.6 5.5 6.9 21-0.6 28.1s-18.2 8.1-28 8.8c-6.6 0.4-16.2-3.5-13.6-10.2 2.8-4.5 10.1 0.2 9.7 5.6s-5.1 9.3-9.6 11.3c-11.9 5.2-26.2 3.3-36.6-4.9-10.5-8.2-16.8-22.5-16.3-36.7-2.4 7.8-12.7 10.1-18.7 5.1-6-4.9-7.7-14.5-5.7-22.5s7-14.6 12.3-20.4c-5.6 5-14.3-3.6-13.2-11.6 1-7.9 7.3-13.5 13.2-18.2l6.7 0.7z" opacity=".2" /><path d="M677.2 525.5c-15-12.6-15.1-41.4-0.2-54.1 5.7-4.9 16.8-4.8 17.2 3.1 5.1-14.1 12.1-30.2 25.6-33.3 8.2-1.9 16.8 1.8 25.1 0.2 7.4-1.4 13.6-6.8 20-11.3 6.3-4.5 13.9-8.4 21.2-6.2 7.3 2.2 12.2 13.2 7.1 19.3 7.1-5.6 17.6-4.9 24.1 1.6 6.4 6.5 8.1 18 3.8 26.4 12.8-3.2 26.2 12.3 22.6 26.4-0.7 3-2.1 5.8-2 8.9 0.2 4.7 3.6 8.3 5.9 12.3 5.2 8.8 4.6 21.3-1.3 29.5-5.9 8.2-16.7 11.6-25.7 8 3.2 10.9-3.7 22.9-12.8 28.2s-19.9 5.7-30.2 5.9c8.6 5.5 6.9 21-0.6 28.1s-18.2 8.1-28 8.8c-6.6 0.4-16.2-3.5-13.6-10.2 2.8-4.5 10.1 0.2 9.7 5.6s-5.1 9.3-9.6 11.3c-11.9 5.2-26.2 3.3-36.6-4.9-10.5-8.2-16.8-22.5-16.3-36.7-2.4 7.8-12.7 10.1-18.7 5.1s-7.7-14.5-5.7-22.5 7-14.6 12.3-20.4c-5.6 5-14.3-3.6-13.2-11.6 1-7.9 7.3-13.5 13.2-18.2l6.7 0.7z" fill="#DEE3A0" /><path d="M286.4 609.4c-11.9-2.2-23.1-9.1-31.1-19.2-3.1-3.9-5.8-8.5-6.2-13.7-0.5-5.2 1.8-10.9 6.2-12.8-8.6-0.7-14.3-11.4-13.8-21s5.3-18.1 10-26.2c1.2-2.1 2.4-4.2 3.6-6.2 2.8-4.9 5.7-9.8 8.5-14.7 2.2-3.7 4.7-7.8 8.5-8.9 3.9-1.2 8.9 2.8 7.4 7-1.7-7.5 3.2-15.3 9.5-18.6 6.3-3.3 13.6-3.3 20.6-3.2 2 0 4.8 1.8 3.5 3.5l3.4-3.2c1.1-6.6 8.2-11.2 13.9-9 5.8 2.2 8.8 10.6 6 16.6 6.9-5.6 17.5-1.6 22.1 6.4 4.3 7.5 4.2 17.7-0.2 25.1 11.3 0.7 19.9 12.8 21.4 25.2 1.6 12.4-2.4 24.8-7.1 36.2-0.6 1.4-1.2 3.1-0.6 4.5s2 1.9 3.3 2.6c7.4 4.3 6.6 17.5 0.5 23.9-6.1 6.4-14.9 8.1-23.2 9.7-2 0.4-4.1 0.9-5.6 2.5-0.8 0.9-1.4 2.1-2 3.1-6.3 10.7-20.5 9.4-31.7 6.9-3.3-0.7-6.8-1.6-9.1-4.2-2.3-2.7-2.6-7.8 0.3-9.6 3.1 0.3 4.1 5.5 2 8-2 2.6-5.6 2.9-8.6 2.3-8.5-1.8-15.4-10.2-16.4-19.7l4.9 6.7z" opacity=".2" /><path d="M286.4 622.1c-11.9-2.2-23.1-9.1-31.1-19.2-3.1-3.9-5.8-8.5-6.2-13.7-0.5-5.2 1.8-10.9 6.2-12.8-8.6-0.7-14.3-11.4-13.8-21s5.3-18.1 10-26.2c1.2-2.1 2.4-4.2 3.6-6.2 2.8-4.9 5.7-9.8 8.5-14.7 2.2-3.7 4.7-7.8 8.5-8.9 3.9-1.2 8.9 2.8 7.4 7-1.7-7.5 3.2-15.3 9.5-18.6 6.3-3.3 13.6-3.3 20.6-3.2 2 0 4.8 1.8 3.5 3.5l3.4-3.2c1.1-6.6 8.2-11.2 13.9-9s8.8 10.6 6 16.6c6.9-5.6 17.5-1.6 22.1 6.4 4.3 7.5 4.2 17.7-0.2 25.1 11.3 0.7 19.9 12.8 21.4 25.2 1.6 12.4-2.4 24.8-7.1 36.2-0.6 1.4-1.2 3.1-0.6 4.5s2 1.9 3.3 2.6c7.4 4.3 6.6 17.5 0.5 23.9-6.1 6.4-14.9 8.1-23.2 9.7-2 0.4-4.1 0.9-5.6 2.5-0.8 0.9-1.4 2.1-2 3.1-6.3 10.7-20.5 9.4-31.7 6.9-3.3-0.7-6.8-1.6-9.1-4.2-2.3-2.7-2.6-7.8 0.3-9.6 3.1 0.3 4.1 5.5 2 8-2 2.6-5.6 2.9-8.6 2.3-8.5-1.8-15.4-10.2-16.4-19.7l4.9 6.7z" fill="#DEE3A0" /><path d="M383.7 673.9c-11.9-2.2-23.1-9.1-31.1-19.2-3.1-3.9-5.8-8.5-6.2-13.7s1.8-10.9 6.2-12.8c-8.6-0.7-14.3-11.4-13.8-21s5.3-18.1 10-26.2c1.2-2.1 2.4-4.2 3.6-6.2 2.8-4.9 5.7-9.8 8.5-14.7 2.2-3.7 4.7-7.8 8.5-8.9 3.9-1.2 8.9 2.8 7.4 7-1.7-7.5 3.2-15.3 9.5-18.6 6.3-3.3 13.6-3.3 20.6-3.2 2 0 4.8 1.8 3.5 3.5l3.4-3.2c1.1-6.6 8.2-11.2 13.9-9 5.8 2.2 8.8 10.6 6 16.6 6.9-5.6 17.5-1.6 22.1 6.4 4.3 7.5 4.2 17.7-0.2 25.1 11.3 0.7 19.9 12.8 21.4 25.2s-2.4 24.8-7.1 36.2c-0.6 1.4-1.2 3.1-0.6 4.5s2 1.9 3.3 2.6c7.4 4.3 6.6 17.5 0.5 23.9-6.1 6.4-14.9 8.1-23.2 9.7-2 0.4-4.1 0.9-5.6 2.5-0.8 0.9-1.4 2.1-2 3.1-6.3 10.7-20.5 9.4-31.7 6.9-3.3-0.7-6.8-1.6-9.1-4.2-2.3-2.7-2.6-7.8 0.3-9.6 3.1 0.3 4.1 5.5 2 8-2 2.6-5.6 2.9-8.6 2.3-8.5-1.8-15.4-10.2-16.4-19.7l4.9 6.7z" opacity=".2" /><path d="M383.7 683.5c-11.9-2.2-23.1-9.1-31.1-19.2-3.1-3.9-5.8-8.5-6.2-13.7-0.5-5.2 1.8-10.9 6.2-12.8-8.6-0.7-14.3-11.4-13.8-21s5.3-18.1 10-26.2c1.2-2.1 2.4-4.2 3.6-6.2 2.8-4.9 5.7-9.8 8.5-14.7 2.2-3.7 4.7-7.8 8.5-8.9 3.9-1.2 8.9 2.8 7.4 7-1.7-7.5 3.2-15.3 9.5-18.6 6.3-3.3 13.6-3.3 20.6-3.2 2 0 4.8 1.8 3.5 3.5l3.4-3.2c1.1-6.6 8.2-11.2 13.9-9s8.8 10.6 6 16.6c6.9-5.6 17.5-1.6 22.1 6.4 4.3 7.5 4.2 17.7-0.2 25.1 11.3 0.7 19.9 12.8 21.4 25.2 1.6 12.4-2.4 24.8-7.1 36.2-0.6 1.4-1.2 3.1-0.6 4.5s2 1.9 3.3 2.6c7.4 4.3 6.6 17.5 0.5 23.9-6.1 6.4-14.9 8.1-23.2 9.7-2 0.4-4.1 0.9-5.6 2.5-0.8 0.9-1.4 2.1-2 3.1-6.3 10.7-20.5 9.4-31.7 6.9-3.3-0.7-6.8-1.6-9.1-4.2-2.3-2.7-2.6-7.8 0.3-9.6 3.1 0.3 4.1 5.5 2 8s-5.6 2.9-8.6 2.3c-8.5-1.8-15.4-10.2-16.4-19.7l4.9 6.7z" fill="#DEE3A0" /><path d="M468.2 644.4c-15-12.6-15.1-41.4-0.2-54.1 5.7-4.9 16.8-4.8 17.2 3.1 5.1-14.1 12.1-30.2 25.6-33.3 8.2-1.9 16.8 1.8 25.1 0.2 7.4-1.4 13.6-6.8 20-11.3 6.3-4.5 13.9-8.4 21.2-6.2 7.3 2.2 12.2 13.2 7.1 19.3 7.1-5.6 17.6-4.9 24.1 1.6 6.4 6.5 8.1 18 3.8 26.4 12.8-3.2 26.2 12.3 22.6 26.4-0.7 3-2.1 5.8-2 8.9 0.2 4.7 3.6 8.3 5.9 12.3 5.2 8.8 4.6 21.3-1.3 29.5-5.9 8.2-16.7 11.6-25.7 8 3.2 10.9-3.7 22.9-12.8 28.2s-19.9 5.7-30.2 5.9c8.6 5.5 6.9 21-0.6 28.1s-18.2 8.1-28 8.8c-6.6 0.4-16.2-3.5-13.6-10.2 2.8-4.5 10.1 0.2 9.7 5.6-0.4 5.5-5.1 9.3-9.6 11.3-11.9 5.2-26.2 3.3-36.6-4.9-10.5-8.2-16.8-22.5-16.3-36.7-2.4 7.8-12.7 10.1-18.7 5.1-6-4.9-7.7-14.5-5.7-22.5s7-14.6 12.3-20.4c-5.6 5-14.3-3.6-13.2-11.6 1-7.9 7.3-13.5 13.2-18.2l6.7 0.7z" opacity=".2" /><path d="M468.2 656.5c-15-12.6-15.1-41.4-0.2-54.1 5.7-4.9 16.8-4.8 17.2 3.1 5.1-14.1 12.1-30.2 25.6-33.3 8.2-1.9 16.8 1.8 25.1 0.2 7.4-1.4 13.6-6.8 20-11.3 6.3-4.5 13.9-8.4 21.2-6.2 7.3 2.2 12.2 13.2 7.1 19.3 7.1-5.6 17.6-4.9 24.1 1.6 6.4 6.5 8.1 18 3.8 26.4 12.8-3.2 26.2 12.3 22.6 26.4-0.7 3-2.1 5.8-2 8.9 0.2 4.7 3.6 8.3 5.9 12.3 5.2 8.8 4.6 21.3-1.3 29.5-5.9 8.2-16.7 11.6-25.7 8 3.2 10.9-3.7 22.9-12.8 28.2s-19.9 5.7-30.2 5.9c8.6 5.5 6.9 21-0.6 28.1s-18.2 8.1-28 8.8c-6.6 0.4-16.2-3.5-13.6-10.2 2.8-4.5 10.1 0.2 9.7 5.6-0.4 5.5-5.1 9.3-9.6 11.3-11.9 5.2-26.2 3.3-36.6-4.9-10.5-8.2-16.8-22.5-16.3-36.7-2.4 7.8-12.7 10.1-18.7 5.1-6-4.9-7.7-14.5-5.7-22.5s7-14.6 12.3-20.4c-5.6 5-14.3-3.6-13.2-11.6 1-7.9 7.3-13.5 13.2-18.2l6.7 0.7z" fill="#DEE3A0" /><path d="M578 712.9c8.2-51.7 50.8-78.5 93.2-96.3 35.5-14.9 133.3-38.3 219.8-28.2 19.7 2.3 69.2 30.4 69.2 30.4-53.2 0.4-74.7 48.6-103.3 90.9-28.6 42.3-71.4 82.9-121 94.3-42.6 9.8-97.7-11.3-134.2-55.2L578 712.9z" fill="#7BAD37" /><path d="M578 712.9c8.2-51.7 50.8-78.5 93.2-96.3 35.5-14.9 133.3-38.3 219.8-28.2 19.7 2.3 69.2 30.4 69.2 30.4-53.2 0.4-74.7 48.6-103.3 90.9-28.6 42.3-71.4 82.9-121 94.3-42.6 9.8-97.7-11.3-134.2-55.2L578 712.9z" opacity=".2" /><path d="M545.2 772C531 712.1 471 640.8 416.5 627.4c-40.1-9.9-83.3-1.8-121.7-17.9-32.1-13.5-50.2-26.6-76.9-52.1l-19.2-20.9c-4 62.5 19.7 174.8 50.3 227.3 10.4 17.9 22.1 35.4 37.8 47.5 12.9 9.9 28.1 15.7 43.3 20.2 74.2 22.1 161.8 12.5 215-48.9V772z" fill="#7BAD37" /><path d="M538.7 775.6c38.3 30.7 85.8 17 127.3-2.9 34.9-16.7 77.3-41 117.9-112.8 17.7-31.3 38.3-47.5 61-71 8-8.2 27.1-41 27.1-41-38.4 40.8-90.3 37.4-137.3 29.2-47.1-8.2-97.2-18.9-139.9 11.3-36.7 25.9-63 83.6-61.6 143.3l5.5 43.9z" fill="#7BAD37" /><path d="M218.8 594.2c0.9-0.7 12.5 16.9 33.4 43.2 21 25.9 51 62 89.9 92.9 39.3 30.9 83.8 38.3 114.8 42.5 31.4 3.8 51.1 5 51 6.3 0 0.5-4.9 0.8-13.8 0.7-8.9-0.1-21.7-0.4-37.6-1.7-31.2-2.8-77.4-9.6-118.1-41.6-39.9-31.8-69.3-68.6-89.7-95.6-10.1-13.7-17.6-25.3-22.6-33.4-5.2-8.3-7.7-13-7.3-13.3z" fill="#DEE3A0" /><path d="M384.7 679.3c0.5-0.8 7.2 3.4 15.1 13.5 8.1 10 16.1 26.1 26.3 41.9 20.4 32.5 50.7 40.3 49.7 42.4-0.2 0.9-7.7 0.3-18.9-5-11.1-5.1-25.6-16.1-36.3-33-10.7-16.7-17.8-32.7-24.6-43.1-6.6-10.4-11.9-15.8-11.3-16.7z" fill="#DEE3A0" /><path d="M301.7 638.3c1.8-1.6 19.3 25.5 37.2 60.4 17.7 35.1 38.4 57.9 37.4 59.3-1.2 2-25.2-19.7-43.2-55.5-18-35.2-32.5-63.2-31.4-64.2z" fill="#DEE3A0" /><path d="M223.1 653c1.1-1.7 14 6.9 30.2 16.2 16.2 9.4 29.8 16.2 29.2 18.2-0.5 1.9-15.6-1.9-32.3-11.6-16.8-9.7-28.2-21.3-27.1-22.8z" fill="#DEE3A0" /><path d="M257.6 724.3c1.2-2.3 26.5 15.6 60 30.2 16.9 7 32.8 10.7 44.7 10.9 11.8 0.8 19.3 1.8 19.3 2.8 0 1-7.4 1.9-19.6 2.5-12.1 1.1-29.4-1.9-46.8-9.2-17.5-7.3-32-16.8-42.1-23.9-10.1-7.3-15.9-12.4-15.5-13.3z" fill="#DEE3A0" /><path d="M359.9 800.4c0.3-1.2 6.9 0.5 17.4 0 10.6-0.3 24.9-3.9 40.9-8.9 15.9-5 31.1-8.7 42.3-8.7 11.2-0.2 17.9 2.5 17.7 3.3-0.2 1.2-6.9 0.5-17.4 2-10.6 1.3-24.8 5.6-40.9 10.6-16 5-31.4 8.1-42.7 7-11.2-1-17.6-4.6-17.3-5.3z" fill="#DEE3A0" /><path d="M771.9 618.1c0.3 0.3-1.5 3.4-5.7 8.3-4.1 5-10.7 11.5-19.7 18.2-18 13.8-46.1 25.9-76.6 38.3-30.4 12.5-56.4 27.9-71.5 44.2-7.6 7.9-12.9 15.6-16 20.8-3 5.8-0.1 8.4-0.2 8.6 0 0.2-1.2 0.3-2.3-1.5-1.1-1.8-1.1-5 0.1-8.3 2.8-6.3 7.5-14.5 15.1-23.3 14.9-18.1 41.7-34.9 72.4-47.5 30.8-12.5 58.3-23.5 76.4-35.7 18.3-12 27.1-23.1 28-22.1z" fill="#DEE3A0" /><path d="M730.6 613.3c0.5 0.8-5 6-15 12.2-9.9 6.4-24.4 13.2-39.3 22.3-14.8 9-26.5 20.1-33.2 29.7-6.8 9.6-9.1 17-10.1 16.6-0.7-0.1 0-8.5 6.2-19.6 6.1-11.2 18.3-23.8 33.8-33.2 15.5-9.4 30.2-15.4 40.4-20.5 10.5-5 16.7-8.4 17.2-7.5z" fill="#DEE3A0" /><path d="M723.8 708.5c0.4 0.6-5.1 6.6-16.5 11.4-11.4 5-28.2 6.9-46.2 7.1-18 0.2-34 0.7-45.3 3.3-11.3 2.4-17.9 5.9-18.4 4.8-0.4-0.7 5.6-6 17.3-9.9 11.6-4.1 28.4-5.5 46.3-5.7 17.9-0.2 33.9-1.2 44.9-4.7 11-3.1 17.2-7.4 17.9-6.3z" fill="#DEE3A0" /><path d="M629.3 633.9c1.6 1.4-9.5 17.7-17.1 40.8-7.8 23.1-8.8 43.4-10.8 43.4-1.7 0.2-3.7-21.4 4.5-45.9 8.1-24.7 22.2-39.7 23.4-38.3z" fill="#DEE3A0" /></svg>