<?xml version="1.0" standalone="no"?><!DOCTYPE svg PUBLIC "-//W3C//DTD SVG 1.1//EN" "http://www.w3.org/Graphics/SVG/1.1/DTD/svg11.dtd"><svg class="icon" width="81px" height="81.00px" viewBox="0 0 1024 1024" version="1.1" xmlns="http://www.w3.org/2000/svg"><path d="M508.2112 712.96c-11.0592 0-21.248-5.9392-26.7264-15.5648L302.6432 382.3616a30.70976 30.70976 0 0 1 11.52-41.8816 30.70976 30.70976 0 0 1 41.8816 11.52l152.1664 267.9808 152.1152-267.9808a30.80704 30.80704 0 0 1 23.6544-15.4112c9.8816-1.024 19.6608 2.8672 26.2144 10.3936l48.5888 55.7056a30.72512 30.72512 0 0 1-2.9696 43.3664 30.72512 30.72512 0 0 1-43.3664-2.9696l-20.1216-23.04-157.44 277.2992a30.54592 30.54592 0 0 1-26.6752 15.616z" fill="#FC4138" /><path d="M513.3312 939.4176c-237.1584 0-430.08-192.9216-430.08-430.08s192.9216-430.08 430.08-430.08 430.08 192.9216 430.08 430.08-192.9216 430.08-430.08 430.08z m0-798.72c-203.264 0-368.64 165.376-368.64 368.64s165.376 368.64 368.64 368.64 368.64-165.376 368.64-368.64-165.376-368.64-368.64-368.64z" fill="#3E3A39" /></svg>