<?xml version="1.0" standalone="no"?><!DOCTYPE svg PUBLIC "-//W3C//DTD SVG 1.1//EN" "http://www.w3.org/Graphics/SVG/1.1/DTD/svg11.dtd"><svg class="icon" width="81px" height="81.00px" viewBox="0 0 1024 1024" version="1.1" xmlns="http://www.w3.org/2000/svg"><path d="M402.8 745l36.5 0.1-2-104c-0.2-10.8-5-246-37.4-368.7 0-0.1 0-0.1-0.1-0.1-15.9-52.1-81-182.4-81-182.4-0.1-0.2-0.3 0-0.3 0.3l51.6 203.5v0.1C400 407.2 404.7 639.6 404.8 642l-2 103z" fill="#7BAD37" /><path d="M409.7 926.2h22.9c4.3 0 6.7-3.1 6.7-6.8v-178c0-0.7-0.1-1.3-0.2-2L425 661.6c-1.2-6.5-6.7-6.5-7.9 0L403 739.4c-0.1 0.6-0.2 1.3-0.2 2v178c0 3.7 2.8 6.8 6.9 6.8z" fill="#DEE3A0" /><path d="M446.3 157.2c0.1-0.2 0.3 0 0.3 0.2 0 0 1.6 4.6 4 12.6-2.3-9.4-4-14.4-4.3-12.8zM478.2 367.4c10.6-63.2-16.9-162.5-27.6-197.4 7.4 30.8 20.5 110.9 5.8 183.6-23 114.2-20.6 325.3-20.8 335.2l-1.8 91.4c0 0.2-0.1 0.5-0.1 0.7v160c0 3.5 1.7 6.3 3.8 6.3h26c2.1 0 3.8-2.8 3.8-6.3V781c0-0.3 0-0.5-0.1-0.8l-1.8-90.6c0.1-2 5.3-277.5 12.8-322.2z" opacity=".2" /><path d="M472.8 783.6h-33.5l1.9-94.7c0.2-9.9-2.2-221 20.8-335.2 19.2-95.2-9.1-203.3-10.1-196.5 0.1-0.2 0.3 0 0.3 0.2 0 0 44.6 132.2 31.6 210-7.5 44.7-12.7 320.1-12.7 322.3l1.7 93.9z" fill="#7BAD37" /><path d="M469.1 947.3h-26c-2.1 0-3.8-2.8-3.8-6.3V781c0-0.6 0.1-1.2 0.2-1.8l13-71.4c1.1-5.9 6.2-5.9 7.2 0l13 71.4c0.1 0.6 0.2 1.2 0.2 1.8v160c-0.1 3.5-1.8 6.3-3.8 6.3z" fill="#DEE3A0" /><path d="M512.6 745.4l-36.5-0.1 2-102.4c0.2-10.8 5-246 37.4-368.7 0-0.1 0-0.1 0.1-0.1 20.4-72.2 16.9-182.4 26-209.8 24.6 134.2 3.7 231.2 3.7 231.2v0.1c-29.9 113.4-34.6 345.8-34.7 348.2l2 101.6z" fill="#7BAD37" /><path d="M508.4 928h-28.3c-2.3 0-4.1-3.1-4.1-6.8v-178c0-0.7 0.1-1.3 0.2-2l14.1-77.8c1.2-6.5 6.7-6.5 7.9 0l14.1 77.8c0.1 0.6 0.2 1.3 0.2 2v178c0.1 3.7-1.8 6.8-4.1 6.8z" fill="#DEE3A0" /><path d="M651.1 757.3l-35.6-0.4 2-105.5c0.2-10.5 4.9-239.5 36.4-359.1 0-0.1 0-0.1 0.1-0.1 19.9-70.4 16.4-177.7 25.3-204.3 24 130.7 3.6 225.1 3.6 225.1v0.1c-29.1 110.4-33.7 336.8-33.8 339l2 105.2z" fill="#7BAD37" /><path d="M647.1 928h-27.5c-2.2 0-4-3-4-6.6V749.1c0-0.6 0.1-1.3 0.2-1.9l13.8-75.8c1.1-6.3 6.5-6.3 7.7 0l13.8 75.8c0.1 0.6 0.2 1.3 0.2 1.9v172.2c-0.2 3.7-2 6.7-4.2 6.7z" fill="#DEE3A0" /><path d="M705.1 157.9S642.6 283 627.3 333c0 0 0 0.1-0.1 0.1-31 117.9-35.7 343.8-35.9 354.1l-1.9 95.7c0 0.2-0.1 0.4-0.1 0.7V953c0 3.6 1.8 6.5 4 6.5h27.2c2.2 0 4-2.9 4-6.5V783.7c0-0.2 0-0.4-0.1-0.6l-1.9-94.9c0-2.2 4.6-225.5 33.3-334.4v-0.1l49.5-195.5c0.1-0.3-0.1-0.5-0.2-0.3z" opacity=".2" /><path d="M615.6 785.9l-35.1 0.1 1.9-98.7c0.2-10.4 4.8-236.2 35.9-354.1 0-0.1 0-0.1 0.1-0.1C633.6 283 696.2 158 696.2 158c0.1-0.2 0.3 0 0.3 0.3L647 353.8v0.1c-28.7 108.9-33.2 332.1-33.3 334.4l1.9 97.6z" fill="#7BAD37" /><path d="M611.6 959.6h-27.2c-2.2 0-4-2.9-4-6.5V783.7c0-0.6 0.1-1.3 0.2-1.9l13.6-74.7c1.1-6.2 6.5-6.2 7.6 0l13.6 74.7c0.1 0.6 0.2 1.2 0.2 1.9V953c0 3.6-1.8 6.6-4 6.6z" fill="#DEE3A0" /><path d="M567 157.9S504.5 283 489.2 333c0 0 0 0.1-0.1 0.1-31 117.9-35.7 343.8-35.9 354.1l-1.9 95.7c0 0.2-0.1 0.4-0.1 0.7V953c0 3.6 1.8 6.5 4 6.5h27.2c2.2 0 4-2.9 4-6.5V783.7c0-0.2 0-0.4-0.1-0.6l-1.9-94.9c0-2.2 4.6-225.5 33.3-334.4v-0.1l49.5-195.5c0.2-0.3 0-0.5-0.2-0.3z" opacity=".2" /><path d="M491.8 785.9l-35.1 0.1 1.9-98.7c0.2-10.4 4.8-236.2 35.9-354.1 0-0.1 0-0.1 0.1-0.1C509.8 283 572.4 158 572.4 158c0.1-0.2 0.3 0 0.3 0.3l-49.5 195.5v0.1C494.5 462.8 490 686 489.9 688.3l1.9 97.6z" fill="#7BAD37" /><path d="M487.9 959.6h-27.2c-2.2 0-4-2.9-4-6.5V783.7c0-0.6 0.1-1.3 0.2-1.9l13.6-74.7c1.1-6.2 6.5-6.2 7.6 0l13.6 74.7c0.1 0.6 0.2 1.2 0.2 1.9V953c-0.1 3.6-1.8 6.6-4 6.6z" fill="#DEE3A0" /><path d="M612.6 280.2c-9.2 20.9-5.6 105.1-26.2 160.3 0 0 0 0.1-0.1 0.1-32.5 93.8-37.4 273.5-37.6 281.8l-1.9 75.2c-0.1 0.5-0.2 1-0.2 1.5v126.5c0 2.9 1.9 5.2 4.2 5.2h28.5c2.3 0 4.2-2.3 4.2-5.2V799c0-0.5-0.1-1-0.2-1.5l-1.9-74.5c0-1.8 4.8-179.4 34.9-266v-0.1c0.1-0.1 21.1-74.2-3.7-176.7z" opacity=".2" /><path d="M578.3 804.9h-36.8l2-82.6c0.2-8.2 5.1-188 37.6-281.8 0 0 0-0.1 0.1-0.1 20.6-55.2 17-139.4 26.2-160.3 24.8 102.5 3.8 176.7 3.8 176.7v0.1c-30.1 86.7-34.9 264.3-34.9 266l2 82z" fill="#7BAD37" /><path d="M574.1 930.7h-28.5c-2.3 0-4.2-2.3-4.2-5.2V799c0-0.5 0.1-1 0.2-1.5l14.2-59.4c1.2-4.9 6.8-4.9 8 0l14.2 59.4c0.1 0.5 0.2 1 0.2 1.5v126.5c0.1 2.9-1.8 5.2-4.1 5.2z" fill="#DEE3A0" /><path d="M622.8 101.2s-65.1 130.2-81 182.4c0 0.1 0 0.1-0.1 0.1-32.3 122.8-37.2 357.9-37.4 368.7l-1.9 98.8c-0.1 0.5-0.1 1-0.1 1.5v178c0 3.8 1.8 6.8 4.1 6.8h28.3c2.3 0 4.1-3.1 4.1-6.8v-178c0-0.5-0.1-1-0.1-1.5l-1.9-98c0-2.3 4.8-234.8 34.7-348.2v-0.1l51.6-203.5c0.1-0.2-0.1-0.4-0.3-0.2z" opacity=".2" /><path d="M544.2 758.1l-36.5 0.2 2-105.9c0.2-10.8 5-246 37.4-368.7 0-0.1 0-0.1 0.1-0.1 15.9-52.1 81-182.4 81-182.4 0.1-0.2 0.3 0 0.3 0.3L576.9 305v0.1c-29.9 113.4-34.6 345.8-34.7 348.2l2 104.8z" fill="#7BAD37" /><path d="M540.1 937.6h-28.3c-2.3 0-4.1-3.1-4.1-6.8v-178c0-0.7 0.1-1.3 0.2-2L522 673c1.2-6.5 6.7-6.5 7.9 0l14.1 77.8c0.1 0.6 0.2 1.3 0.2 2v178c0 3.7-1.8 6.8-4.1 6.8z" fill="#DEE3A0" /><path d="M595.5 959.6l2.5-163.5 4.6 163.5zM628.5 928l2.5-163.4 4.6 163.4zM518.8 937.6l2.5-163.5 4.7 163.5zM555.6 930.7l2.6-163.4 4.6 163.4zM469.3 959.6l2.5-163.5 4.6 163.5zM416.2 926.2l2.5-163.5 4.6 163.5z" fill="#7BAD37" opacity=".3" /></svg>