<?xml version="1.0" standalone="no"?><!DOCTYPE svg PUBLIC "-//W3C//DTD SVG 1.1//EN" "http://www.w3.org/Graphics/SVG/1.1/DTD/svg11.dtd"><svg class="icon" width="81px" height="81.00px" viewBox="0 0 1024 1024" version="1.1" xmlns="http://www.w3.org/2000/svg"><path d="M667.4 325.8c37.3 12.2 77.5-4.8 111.6-24.2 15.8-9 31.3-18.6 44.7-30.9 46.9-43.4 58.7-120.1 26.9-175.5l-13.4 20.6C797.3 166 709 155.6 672.6 208.4c-6.9 10-11.2 21.4-14.5 33.1-6.9 24.5-9.3 50.3-7 75.7l16.3 8.6zM682.4 443.6c19.4 15 49.2 22.2 73.6 24.3 18.2 1.5 36.9 1.6 54.3-3.8 34.4-10.6 59.7-41.4 72-75.3 12.3-33.8 13.2-70.6 12.3-106.6l1.5-9.5c-12.4 20.1-31.9 35.8-54.2 43.6-23.9 8.4-50.1 7.9-74.7 14-45.7 11.4-83.2 56.1-90.6 102.7l5.8 10.6zM657.9 591.9c-5.2-27 11.4-58.9 18.8-67.6 23.3-27.5 60.2-41.3 96.3-42.2 36-0.9 68.6 24.8 89.1 54.5 0 0-46.6 13.6-58.6 23.9-12 10.2-21.8 22.8-33.3 33.6-12.5 11.8-27.3 21.5-43.9 26.1-16.6 4.6-49.9-0.4-64.9-8.9l-3.5-19.4zM344.8 374.4c0.4-16.5-4.7-52.5-16.7-63.9-12-11.4-27.2-18.7-42.8-24.2-44.3-15.5-118.3-9.6-156.9 17.1l27.9 9.4c22.1 13.4 42.9 29.1 61.8 46.7 7.6 7.1 15 14.6 23.8 20.2 27.8 18 65.2 14.6 95 0.1l7.9-5.4zM170.7 471c8.2 29 26.3 54.8 49.1 74.4 17.7 15.2 38.9 27.3 61.9 30.9 23.1 3.7 62.4-0.2 79.6-16l8.3-6.8c11-19.6 10.7-52.9-2-71.4-12.1-17.5-32.4-27-52.8-33.1-38.7-11.6-81.8 19.5-119.3 4.6-12.6-5-22.7-14.8-32.4-24.3l7.6 41.7z" fill="#7BAD37" /><path d="M328.1 310.5c-12-11.4-27.2-18.7-42.8-24.2-15.7-5.5-35.2-8.3-55.6-8.4 18.5 20.8 39.4 37.9 56.3 49.7 17.1 11.9 37.1 22 57.3 25.4-2.3-16.4-7.2-34.9-15.2-42.5z" opacity=".2" /><path d="M398.9 321.6c13.6-42.2-3.6-92.3-40.3-117.3-48.7-33.2-116.7-20.3-169.1-47.4v7.5c-4.8 69.1 60.9 129.8 102.4 158.8 28.2 19.8 64.6 34.6 96.7 22.1l10.3-23.7z" fill="#7BAD37" /><path d="M398.9 321.6c11.1-34.5 1.6-74.3-22.3-101.4-4.9 27.1-1 56 9.7 81.6 3.3 7.8 7.1 15.2 11.4 22.4l1.2-2.6z" opacity=".2" /><path d="M476.3 392c22.4-47.5 29.6-130-44.6-186.5-14.1-10.7-28.2-31.8-28.2-31.8l-10.4 17.8c-16.1 34.3-13.9 75.4 0.7 110.3s40.7 64.1 70.4 87.6l12.1 2.6zM590 341.6c-25.3-33.7-43.8-97.1 6.9-153.1 9.6-10.6 17.6-29.4 17.6-29.4l11.1 12.3c18.2 24.3 22.8 56.8 16.5 86.5-6.3 29.7-22.7 56.7-42.9 79.8l-9.2 3.9z" fill="#7BAD37" /><path d="M500.3 595.5l0.1 0.1c0.6-104.2-3.2-181.1-56.8-273.9-6.6-11.3-29.6-40.3-29.6-40.3s22 32.6 29.2 49.7c38.1 89.4 40.6 135.3 40 202.9-5.1-13.6-10.6-26.5-15.9-38.5C430.6 412 392.7 325 338.7 266.9c-15.7-16.9-49.6-24.1-49.6-24.1s34.9 11.7 55.4 38.5c35.9 46.9 57.7 104.4 81 164.1-9.9-1.8-20.1-7.9-29.1-19.6-22.6-29.4-34.4-48.3-100-90.9-21.9-14.2-65.8-14.2-65.8-14.2s36.9 5.4 54.7 13.8c49.8 23.7 97.7 104 101.2 109 9.6 13.5 31.1 27.1 49.5 28.5 5.2 12.9 10.5 25.9 16.2 38.8 12.9 29.4 26 61 31.3 96.2 5.1 33.9 2.8 70.1 0.6 105.2l-2.1 33.5c-17.4-47.4-37-87.8-59.3-122.3-36.6-56.4-80.6-102-124-110-10-1.8-39.6-1.3-39.6-1.3s39.8 1 60.1 13.3c38.1 23 65.8 60.6 99.3 112.2 26.6 41.1 42.1 93.6 60.5 155.7l-8.5 134.1 29.9 0.8 4.3-214.3c2.2-35.5 2.2-74.9-3.5-113.1-0.2-1.8-0.6-3.5-0.9-5.3zM740.2 531.3c-70.3 14.9-109.9 87.1-130.9 175.9-1.1-44.8-0.3-91.4 2.5-137 20.4-44.3 43.1-89.3 70.7-126.6 8.7-11.8 36.6-44.5 56.4-59.9 17.2-13.3 41.2-17 41.2-17s-22.1 1.9-35.1 8.1c-22.6 10.9-59.4 46-68.4 58.2-24.5 33.2-43.8 63.5-62 99.4 8.3-92.7 25.9-178.2 55.5-232.6 26.3-48.2 64.4-77.1 64.4-77.1s-49.9 30.3-76.6 75.6c-20.2 34.1-34.3 81.6-44 136.3-14-44-21.1-81.7-17.2-130.4 3.2-39.9 20.4-58 20.4-58-10.6 7.6-18.7 23.8-25 50.9-12.5 53.8-2.8 124 14.9 182.7-15.7 123.5-12.9 273-6 392.8l19.4-14.8c-2.8-21-5.2-43.7-7.1-67.5l0.1 0.1c14.5-107.6 46.8-234.2 126.7-252.8 19-4.4 71.3-6.1 71.3-6.1s-53.6-3.9-71.2-0.2z" fill="#DEE3A0" /><path d="M789 233.4c0.2 0.5-6.6 3.6-16.1 11.1-9.6 7.2-21.2 19.3-35.7 31.1-7.3 5.8-14.9 10.6-22.5 13.8-7.6 3.1-14.9 4.5-21.1 4.7-6.2 0.1-11.2-0.9-14.4-2-3.3-1.1-4.9-2.2-4.8-2.3 0.2-0.6 7.2 3 19.1 2.1 5.9-0.4 12.9-2 20.1-5.1 7.2-3.1 14.5-7.9 21.7-13.6 14.2-11.5 26.2-23.5 36.3-30.4 5-3.5 9.3-6 12.4-7.5 3.1-1.5 4.9-2.1 5-1.9zM856.4 360.4c0.1 0.1-1.3 1.9-4.2 4.9-2.9 3-7.1 7.3-12.7 12.2-5.6 4.9-12.6 10.6-21.4 15.2-8.7 4.8-19.6 8.2-31.2 8.1-11.5-0.2-22.1-1.5-31.7 0-9.6 1.2-18 3.9-24.7 6.8-13.5 5.9-20.4 12.2-20.7 11.7-0.1-0.1 1.5-1.8 4.7-4.4 3.3-2.6 8.3-6.1 15.1-9.3 6.8-3.2 15.3-6.2 25.2-7.6 9.9-1.7 21-0.4 32-0.2 11.1 0.1 21.4-3 29.9-7.5 8.6-4.4 15.6-9.8 21.3-14.4 11.4-9.4 18-15.9 18.4-15.5zM837.3 418.5c0.2 0.3-4.1 3.2-11.8 6.5-7.5 3.1-19.4 7.1-32.3 3.4-6.3-1.9-11.6-4.9-16.4-7.4-4.8-2.6-9.2-4.5-13-5.6-7.8-2.3-12.9-0.9-12.9-1.4-0.2-0.3 5-2.6 13.5-0.7 8.5 1.5 18.2 8.5 29.7 12.2 11.8 3.4 23.1 0.1 30.7-2.4 7.6-2.8 12.3-5 12.5-4.6zM614.8 200.1c0.2 0 0 1.7-0.7 4.5-0.8 2.8-2.3 6.9-4.7 11.6-4.6 9.5-14.2 20.8-20.5 35.1-6.4 14.5-3.3 29.3-0.6 39.1 2.8 10 5 16.1 4.5 16.3-0.3 0.1-3.2-5.7-6.6-15.7-1.6-5-3.3-11.1-3.8-18.2-0.5-7 0.4-15.1 3.7-22.6 6.6-15.1 16.4-25.9 21.4-35 5.3-8.9 6.8-15.2 7.3-15.1zM778.1 548.3c0.2 0.3-3.7 4.5-11.4 10-3.9 2.7-8.9 5.7-15.2 7.1-6.3 0.8-13.3 1.2-20.3 1.1-14.2 0.3-27.3-1-36.1 0.7-9.2 1.6-12.1 7.4-12.5 7-0.1-0.1 0.3-1.6 2.1-3.6 1.8-2.1 5.2-4.3 9.9-5.5 4.7-1.3 10.4-1.5 16.6-1.6 6.2 0 13-0.1 20.1-0.1 7.2 0.1 13.8-0.2 19.7-0.8 5.8-1.2 10.7-3.8 14.6-6.2 7.7-4.8 12.2-8.5 12.5-8.1zM806.3 498.9c0.1 0.1-0.9 1.4-3.1 3.1-2.3 1.7-5.9 3.9-11 5.2-5.1 1.6-11.2 0.7-17.9 0.5-6.5-0.3-13.7 0.3-20.9 2.4-14.5 4.1-25.7 12.7-32.2 20.1-6.7 7.3-9.2 13.1-9.7 12.8-0.2-0.1 0.3-1.6 1.5-4.2 1.3-2.5 3.3-6.2 6.6-10.1 6.3-8 17.8-17.3 33-21.6 7.5-2.2 15.1-2.8 21.9-2.3 6.6 0.3 12.5 1.4 17.3 0.2 9.5-1.9 14.2-6.6 14.5-6.1zM285.1 472.5c0.3-0.2 2.6 4.4 10.3 5.8 7.2 1.4 19 2.5 28.5 11 4.7 4.1 7.6 9.6 9.1 14.6 1.6 5.1 2.2 9.7 2.5 13.6 0.6 7.9-0.3 12.7-0.7 12.6-0.5 0-0.4-4.8-1.5-12.4-1.3-7.3-2.9-18.6-11.5-26.2-8.7-7.7-19.4-9.1-27-11.2-3.8-1.1-6.8-3-8.2-4.8-1.5-1.6-1.7-2.9-1.5-3zM234.8 521.6c0.2-0.4 4.9 1.3 12.6 3.6 7.6 2 18.6 5.5 30.5 5.8 5.9-0.2 11.4-2 16.6-3.4 5.2-1.4 10.2-2 14.4-1.9 8.3 0.3 13.1 2.6 12.9 2.9-0.1 0.5-5-1-12.9-0.7-4 0.1-8.6 0.9-13.6 2.4-5.1 1.4-10.8 3.5-17.3 3.7-12.9-0.4-23.5-4.2-31.2-6.8-7.8-2.8-12.2-5.2-12-5.6zM234.5 340.3c0.3-0.5 3.7 2 10 3 6.3 1.2 15.2 0.2 25.3-0.4 20.6-1 36.3 5.7 35.9 6.3-0.2 0.9-15.9-4.3-35.7-3.3-9.9 0.6-19.2 1.3-25.9-0.5-6.8-1.6-9.9-4.9-9.6-5.1zM292.3 281.8c0.5-0.9 13.9 13 36.2 16.9 10.9 2 21.3 3.2 28.4 6.1 7.1 2.8 10.5 6.2 10.3 6.5-0.3 0.4-4-2.3-11-4.4-6.9-2.3-17-3.1-28.3-5.2-11.4-2-20.9-7-26.9-11.5-6.1-4.5-8.9-8.2-8.7-8.4zM325 213.9c0.5-0.1 1.7 3.7 4.9 9.2 3 5.6 8.8 12.9 11.4 23 2.5 10 2.2 19.1 2.4 25.6 0.1 6.5 0 10.6-0.4 10.6s-1.1-4-1.7-10.5c-0.8-6.5-0.9-15.6-3.2-24.9-2.4-9.3-7.8-16.7-10.4-22.8-2.9-5.9-3.4-10.1-3-10.2z" fill="#DEE3A0" /><path d="M430.1 228.6c0.5-0.1 1.6 7.3 4.6 18.8 1.6 5.7 3.9 12.4 8.1 18.9 4.1 6.5 10.2 13 14.5 21.5 8.5 17.1 7.3 35 4.8 46.6-1.3 5.9-2.9 10.6-4.2 13.7-1.3 3.1-2.2 4.7-2.4 4.7-0.5-0.2 2.4-7.1 4.4-18.8 1.9-11.5 2.6-28.7-5.5-44.8-3.9-8-9.9-14.4-14.1-21.4-4.3-6.9-6.5-14-7.8-19.9-1.3-5.9-1.9-10.8-2.3-14.1-0.3-3.3-0.3-5.2-0.1-5.2z" fill="#DEE3A0" /></svg>