<?xml version="1.0" standalone="no"?><!DOCTYPE svg PUBLIC "-//W3C//DTD SVG 1.1//EN" "http://www.w3.org/Graphics/SVG/1.1/DTD/svg11.dtd"><svg class="icon" width="81px" height="81.00px" viewBox="0 0 1024 1024" version="1.1" xmlns="http://www.w3.org/2000/svg"><path d="M95.9 727.4c39.9-44.7 112.4-83.1 155.2-133.3 80.7-94.4 124.3-215.7 202.1-312.5 30.9-38.4 71.2-70.4 112.3-97.5 40.4-26.7 165.1-72.1 188.6-28.8 17 31.3-35.3 140.9-50 173.4s-45.8 74.7-69.6 101.2l-169.8 189c-75.3 83.8-163.1 173.8-275.7 179-43.9 2-77.3 0.3-93.2-48.1v-22.4z" fill="#7BAD37" /><path d="M507.8 497.7c-0.3-0.3 2.3-3.2 7.3-8.1 2.5-2.4 5.6-5.4 9.1-8.9 3.3-3.5 8.5-7.3 11.3-11.5 1.3-2.1 0.8-4.5 0-8-1-3.5-0.4-8.3 1.3-11.8 3.1-7.2 8.6-13.3 5.8-19.9-1.2-3.3-3.7-9-0.9-14.4 2.8-5.2 7.6-7.2 11.6-9.3 4.1-1.9 8.2-3.7 11-6.3 2.9-2.5 3.5-5.9 3.9-11 0.1-4.8 2.6-11.4 7.3-14.2 4.4-3.1 8.9-4.5 12.8-6.3 4-1.8 7.1-3.8 9.2-6.9 2.1-3.1 3.3-6.9 4.2-10.8 1.8-7.9 3-15.6 3.8-22.8 0.4-3.7 0.7-6.9 0.9-10.7 0.4-1.3-0.7-3.6 1.4-3.5l3.2-1c1.4-0.6 2.7-1.2 3.9-2 9.8-6.5 12.6-17.2 12.5-23.6 0-6.8-2.3-10.2-1.7-10.4 0.2-0.1 0.8 0.7 1.8 2.3 0.8 1.7 2 4.3 2.3 8 0.8 7-1.3 19-12.5 27.2-1.4 1-2.9 1.8-4.5 2.6-2.1 0.8-1.5 0.4-1.6 1.1-0.1 3-0.3 6.9-0.6 10.5-0.6 7.4-1.7 15.3-3.4 23.5-0.9 4.1-2.1 8.6-4.8 12.8-2.7 4.3-7.3 7.2-11.5 9-4.2 2-8.5 3.4-11.7 5.8-3.3 2.3-4.5 5.4-4.9 10.1-0.3 2.3-0.4 4.8-1.2 7.6-0.8 2.8-2.6 5.3-4.5 7.2-4.1 3.7-8.6 5.4-12.6 7.3-4 1.8-7.7 3.9-9 6.5-1.5 2.7-0.4 5.8 1.1 10.1 1.7 4.3 0.8 10-1.1 13.6-1.8 3.8-4 6.9-5.4 10-1.5 3.1-1.9 5.7-1.3 8.9 0.7 3 1.5 7.7-0.8 11-4.4 5.9-9 8.4-12.7 11.9-3.8 3.2-7.1 5.9-9.8 8.1-5.8 4.3-8.9 6.6-9.2 6.3zM373.5 533.7c-0.3-0.2 1.8-4.3 7.6-10.1 5.6-5.8 16-13.2 30.1-16.9 3-1.1 3.8-2.9 2.3-6.1-1.4-3.3-4.3-6.5-5.2-11.8-0.8-6.1 3.8-10.4 6.9-13.2 3.2-3 6-6.3 8.4-10.2 2.4-3.9 4.2-8.1 5.4-12.7 1.4-4.6 1.3-9.2 2.2-14.9 0.5-2.8 1.4-5.9 4-8.6 2.7-2.8 6.4-3.2 8.2-4 1.1-0.4 1.3-0.8 1.2-0.7 0 0 0.1-0.1-0.6-1.1-1.5-1.3-4.5-7.3-1.5-10.8 4.6-5.9 10-7.2 12.9-10.7 1.4-1.6 1.8-2.6 1.1-4.4-0.8-1.8-2.3-5.7-1.6-9 1.4-7.2 7-10.2 11-13.2 4.3-2.8 8.6-5.2 11.9-8 3.4-2.8 5.4-6 4.5-9.3-0.3-1.7-1.6-3.6-2.2-6.4-0.5-2.7-0.1-5.7 1.3-8 6-8.5 14.4-10.2 19.1-14.9 4.7-4.4 6-10.9 5.4-16.2-0.8-5.5-2.5-9.2-6.2-12.5-0.8-0.9-2.5-1.7-2.3-2.4 1.1-0.6 2.1-1.2 3-1.7 1.5-0.8 2.8-1.5 3.9-2.1 1.9-1 3-1.4 3.1-1.2 0.1 0.2-0.7 0.9-2.4 2.2-0.8 0.6-1.7 1.3-2.8 2.1-0.4 0.3-0.8 0.6-1.3 1 0 0.3 1 0.7 1.4 1.1 5.7 3.9 12.8 20.1 1.3 32.7-5.5 5.5-14 8.4-17.7 14.3-1.7 3-0.3 5.3 1.7 10.7 1.7 5.9-2.2 11.8-6.1 14.8-3.9 3.4-8.3 5.8-12.3 8.5-3.9 2.7-8.1 5.9-8.4 9.3-0.3 1.9 0.1 3.1 1.4 6.2 1.5 3.2 0.1 8.1-2.3 10.3-4.3 4.6-10.2 6.8-12.2 9.9-0.6 1.3-0.6 1.5 1.3 4.1 0.9 1.1 2.3 3.7 1.4 6.4-0.9 2.8-3.4 3.9-4.7 4.4-3.1 1.1-5.2 1.4-6.2 2.6-1.2 1.2-2 3.2-2.4 5.5-0.8 4.5-0.9 10.2-2.5 15.3-1.4 5.1-3.6 9.9-6.3 14.1-2.7 4.3-6 8.1-9.5 11.2-3.4 3-6 5.8-5.6 8.8 0.4 3.2 2.9 6.6 4.6 10.6 0.8 1.9 1.5 4.8 0.4 7.4-1.1 2.5-3.6 4-5.5 4.5-14.2 3.2-23.8 9.5-29.9 14.6-6.2 5.2-8.9 8.8-9.3 8.5zM134.3 761c-0.5-0.7 11-9.3 30-22.8 9.5-6.6 20.9-14.6 33.5-23.3 3.2-2.2 6.3-4.3 8.3-7 2.2-2.7 2-5.2 2.2-10.2 0.1-2.4 1.2-5.6 3.5-7.5 2.2-2 4.8-2.8 7.1-3.4 4.8-1 9-1 11.3-2.9 1-0.8 1-1.1 1.2-2.3 0-0.5 0-1-0.2-1.4-0.2-0.3 0.1-0.1-0.5-0.7l-9.8-0.9c5.6-3.3 11.2-6.6 16.7-9.8 3.3-2.1 6.5-4.2 9.4-6.6 5.9-4.7 10-9.9 13.2-16.3 1.7-3.2 4.1-6.6 7.2-8.8 3-2.2 6.2-3.6 9.3-4.7 6.2-2.1 11.8-3.1 16.5-5.2 4.6-1.9 8.3-4.8 10-8 1.7-3.3 1.5-6.9 0.7-9.4-1.7-5.4-5.8-5.7-5.5-6.2-0.4-0.3 4.6-0.9 7.6 5.4 1.3 2.9 1.9 7.1 0.1 11.6-2 4.4-6.2 8-11.2 10.4-9.7 5.1-24.4 5-29.9 17.5-2.9 6.4-8 13.3-14.3 18.2-3.1 2.6-6.5 4.9-9.9 7.1l-4.6 2.8c-0.2 0.1-0.1 0.1-0.1 0.1s0.6 1 0.7 1.5c0.4 1.2 0.6 2.5 0.5 3.7 0 2.3-1.6 5.4-3.5 6.6-4.9 3.6-10.2 3.1-13.7 4-3.9 1-5.8 2.3-6 5.6-0.2 1.7 0 3.9-0.4 6.4-0.4 2.5-1.6 4.9-3.1 6.8-3 3.7-6.6 5.9-9.7 8.1-12.9 8.4-24.4 15.9-34.2 22.3-19.6 12.5-31.9 20-32.4 19.3zM292.3 683.9c-0.1-0.4 3-1.5 8.3-3.5 5.1-2.1 13.5-5 19.6-12.4 1.5-1.8 2.7-4 3.4-6.4 0.4-1.1 0.6-2.6 1.3-4.4 0.7-1.8 2.4-3.6 4.5-4.3 8.4-2 13.7 2.9 19.2 0.5 5.6-1.8 10.2-6.6 10.4-13.4 0.2-1.8 0.4-4.1 1.6-6.4 1.2-2.4 3.1-3.9 4.8-5.2 3.4-2.3 6.7-4.2 7-6.2 0.3-1 0-2.8-0.1-5-0.2-2.1 0.3-5.7 2.7-7.7 5.2-3.7 9.4-2.1 12.1-3.1 5.6-0.7 2.2-8.2 2.2-16-0.1-4.2 2.8-8.6 6.2-10.4 3.4-2 6.8-2.6 10.1-2.9 6.4-0.3 11.9 0.2 15.9-1.8 4-1.9 5.9-6 6.8-9.7 0.9-3.8 1.2-7.3 1.5-10.2 0.6-5.8 1.2-8.9 1.6-8.9 0.4 0 0.7 3.2 0.7 9 0 2.9 0.1 6.5-0.6 10.8-0.7 4.1-2.6 9.7-8.1 12.8-5.4 2.9-11.8 2.5-17.4 3-5.5 0.6-11.6 3.1-11.3 8.5-0.1 2.8 0.9 6.1 1.2 10.1 0.1 2 0.1 4.5-1.3 6.9-1.3 2.4-3.9 4-6.2 4.4-4.3 1-8.5 0.7-9.7 1.9-1.5 0.6 0 3.9-0.8 9.6-1.8 6-6.8 7.6-9.4 9.7-3 2.1-3.6 3.6-4 7.5-0.3 8.5-7.1 16.1-14.7 18-8.1 2.5-15.4-2.6-19.1-1.1-1.7 0.4-2.1 2.2-3.1 5.5-1 3-2.7 5.5-4.5 7.7-7.8 8.3-16.7 10.3-22.2 11.9-5.3 1.3-8.5 1.5-8.6 1.2z" opacity=".19" /><path d="M537.4 353.8c-0.1-0.3 4.3-0.4 5.9-7 1-2.8 0.7-7.2 3.4-11.9 1.2-2.1 3.8-5.1 7.8-4.6 3.9 0.9 5.6 3 6.4 1.9 2.6-2 1.3-10.1 2-16.9 0.4-7.1 1.4-14.6 3.1-22.3 0.9-3.9 1.6-7.8 3.5-12.1 1.8-4.5 6.7-7.9 10.9-9.3 8-2.9 16.3-5.9 24.9-8.9 5.2-1.8 10.3-3.6 15.3-5.4-3-6-5.8-11.9-8.6-17.5-1.6-3.4-3.4-6.3-4.4-10.5-1.3-4.1 0.7-9.7 4.6-11.8 7.3-4.3 14.9-2 20.2-1 5.6 1.2 10.6 0.8 13.2-2.4 2.7-3.1 3-7.7 2.2-11.1-0.8-3.5-2.6-6.3-4.1-8.6-3.1-4.4-5.1-6.7-4.8-7 0.2-0.2 2.7 1.5 6.5 5.7 1.8 2.1 4 5 5.4 9.1 1.2 4 1.5 9.5-2.1 14.4-3.8 5.2-11.3 5.6-17 4.5-5.9-1.1-12-2.1-16.6 0.8-2 1.4-2.8 3.5-2.1 6.2 0.6 2.7 2.6 6 4.2 9.3 3.8 7.5 7.7 15.3 11.8 23.3-7 2.5-14.2 5.1-21.6 7.7-8.5 3-16.8 5.9-24.7 8.7-3.9 1.4-6.3 3.1-7.8 6.3-1.5 3.1-2.4 7.1-3.3 10.8-1.8 7.5-2.9 14.7-3.5 21.5-0.3 3.4-0.5 6.7-0.6 9.9-0.3 3.4-0.2 7.3-4.1 10.2-2.1 1.3-4.8 0.7-6.2-0.2-1.4-0.8-2.3-1.5-3.1-1.5-1.6-0.4-3.2 0.9-4.4 2.6-2.4 3.4-2.6 7.6-4 10.9-1.3 3.2-3.3 5.5-5.2 6.2-2.2 0.6-3.2 0.2-3.1 0z" opacity=".2" /><path d="M704.2 328.8c14.7-32.5 66.9-142.1 50-173.4-7.2-13.3-24-18.2-44.9-17.9-34 80.6-105.3 236.1-167.7 277.6-74.1 49.3 9.3 48.2 106.1-91.3-80.6 128.8-217.8 324.4-340.6 390.9-136.7 74.1-46.5 54.2 81.2-16.4 27-25.1 52.4-52.5 76.5-79.3l169.8-189c23.8-26.5 54.9-68.8 69.6-101.2z m-9.6-82.7c32.8-61.4 28.4-49.3 0 0z" opacity=".2" /><path d="M751.3 151.2l-11.9-8.8c0.6-0.9 62-82.9 181.3-24.5l2.5 8.7-8.1 2.8C805.7 75.8 753.6 148 751.3 151.2z" fill="#7BAD37" /><path d="M837.6 187.5l-6.3-8.8c0.3-0.9 32.6-82.9 95.4-24.5l1.3 8.7-4.3 2.8c-57.5-53.6-84.9 18.6-86.1 21.8z" fill="#7BAD37" /><path d="M708.5 221.6c-3.6 6.6-8.3 14.8-13.9 24.5 4.4-8.2 8.1-15 11.1-20.6-13.5 19.7-23.7 39.8-30.3 52.4-38.9 73.7-77.9 148-107.1 225.9l66.3-73.8c23.8-26.5 54.9-68.8 69.6-101.2 12.5-27.6 51.9-110.6 53.1-154.2-19.3 10.4-35.6 28.3-48.8 47z" opacity=".2" /><path d="M695.4 283.7c-44.7 95.4-89.7 191.7-114.2 294.1-6 24.9-10.7 50.1-16.6 75.1-21.1 89.3-57.2 177-55.3 268.8 25.6 5.1 53.6 9.9 76.6-2.5 8.6-4.7 15.8-11.5 22.9-18.3 36.4-34.5 183.1-267.5 201.5-300.7 15.5-28 31-56.1 41.7-86.2 31.2-88.4 61.5-164.9 47.3-257.5-4.7-30.6-12.1-65.3-39-80.8-12.9-7.4-28.3-8.3-43.1-9.8-66.7-6.6-105.6 83.2-121.8 117.8z" fill="#7BAD37" /><path d="M551 890.8c-1.5 0-3.1 0-4.7-0.1 3.6-50 17.8-99.8 32.7-152 7.2-25.2 14.6-51.2 20.8-77.4 2.9-12.3 5.5-24.6 8.1-37 2.7-12.7 5.4-25.4 8.4-38C640 487 684.8 391.5 728.1 299.1l2.1-4.5c11.8-25.4 43.2-92.8 79.9-92.8 1.1 0 2.2 0.1 3.4 0.2l4 0.4c9.7 0.9 19.6 1.9 24.6 4.7 12.4 7.1 17.7 31.7 21.2 54.9 11.9 77.7-12 145.1-39.7 223.1l-6 16.8c-9.7 27.5-24.7 54.6-39.2 80.7-21.5 38.9-164.1 262.9-194.7 292-5.6 5.3-10.8 10.3-15.3 12.7-4.1 2.4-9.9 3.5-17.4 3.5z" fill="#DEE3A0" /><path d="M840.3 348.1c6.4-8.4 4.8-20.4-3.6-26.9-0.5-0.4-1-0.6-1.6-1 5.5 5.4 6.4 14.2 1.6 20.5-5.2 6.8-14.9 8.1-21.7 2.9-6.3-4.8-7.8-13.5-3.9-20.2-0.4 0.5-0.9 0.8-1.3 1.3-6.4 8.4-4.8 20.4 3.6 26.9s20.4 4.9 26.9-3.5zM783.9 320.3c6.4-8.4 4.8-20.4-3.6-26.9-0.5-0.4-1-0.6-1.6-1 5.5 5.4 6.4 14.2 1.6 20.5-5.2 6.8-14.9 8.1-21.7 2.9-6.3-4.8-7.8-13.5-3.9-20.2-0.4 0.5-0.9 0.8-1.3 1.3-6.4 8.4-4.8 20.4 3.6 26.9s20.4 4.9 26.9-3.5zM754.7 387.8c6.4-8.4 4.8-20.4-3.6-26.9-0.5-0.4-1-0.6-1.6-1 5.5 5.4 6.4 14.2 1.6 20.5-5.2 6.8-14.9 8.1-21.7 2.9-6.3-4.8-7.8-13.5-3.9-20.2-0.4 0.5-0.9 0.8-1.3 1.3-6.4 8.4-4.8 20.4 3.6 26.9s20.4 4.9 26.9-3.5zM840.3 268.8c6.4-8.4 4.8-20.4-3.6-26.9-0.5-0.4-1-0.6-1.6-1 5.5 5.4 6.4 14.2 1.6 20.5-5.2 6.8-14.9 8.1-21.7 2.9-6.3-4.8-7.8-13.5-3.9-20.2-0.4 0.5-0.9 0.8-1.3 1.3-6.4 8.4-4.8 20.4 3.6 26.9s20.4 4.9 26.9-3.5zM814.7 414.8c6.4-8.4 4.8-20.4-3.6-26.9-0.5-0.4-1-0.6-1.6-1 5.5 5.4 6.4 14.2 1.6 20.5-5.2 6.8-14.9 8.1-21.7 2.9-6.3-4.8-7.8-13.5-3.9-20.2-0.4 0.5-0.9 0.8-1.3 1.3-6.4 8.4-4.8 20.4 3.6 26.9 8.5 6.5 20.5 4.9 26.9-3.5zM795.6 481.6c6.4-8.4 4.8-20.4-3.6-26.9-0.5-0.4-1-0.6-1.6-1 5.5 5.4 6.4 14.2 1.6 20.5-5.2 6.8-14.9 8.1-21.7 2.9-6.3-4.8-7.8-13.5-3.9-20.2-0.4 0.5-0.9 0.8-1.3 1.3-6.4 8.4-4.8 20.4 3.6 26.9s20.5 4.9 26.9-3.5zM732.8 459.7c6.4-8.4 4.8-20.4-3.6-26.9-0.5-0.4-1-0.6-1.6-1 5.5 5.4 6.4 14.2 1.6 20.5-5.2 6.8-14.9 8.1-21.7 2.9-6.3-4.8-7.8-13.5-3.9-20.2-0.4 0.5-0.9 0.8-1.3 1.3-6.4 8.4-4.8 20.4 3.6 26.9s20.5 4.9 26.9-3.5zM764.7 554.9c6.4-8.4 4.8-20.4-3.6-26.9-0.5-0.4-1-0.6-1.6-1 5.5 5.4 6.4 14.2 1.6 20.5-5.2 6.8-14.9 8.1-21.7 2.9-6.3-4.8-7.8-13.5-3.9-20.2-0.4 0.5-0.9 0.8-1.3 1.3-6.4 8.4-4.8 20.4 3.6 26.9s20.5 4.9 26.9-3.5zM702.5 531.6c6.4-8.4 4.8-20.4-3.6-26.9-0.5-0.4-1-0.6-1.6-1 5.5 5.4 6.4 14.2 1.6 20.5-5.2 6.8-14.9 8.1-21.7 2.9-6.3-4.8-7.8-13.5-3.9-20.2-0.4 0.5-0.9 0.8-1.3 1.3-6.4 8.4-4.8 20.4 3.6 26.9 8.5 6.5 20.5 4.9 26.9-3.5zM721.7 619.1c6.4-8.4 4.8-20.4-3.6-26.9-0.5-0.4-1-0.6-1.6-1 5.5 5.4 6.4 14.2 1.6 20.5-5.2 6.8-14.9 8.1-21.7 2.9-6.3-4.8-7.8-13.5-3.9-20.2-0.4 0.5-0.9 0.8-1.3 1.3-6.4 8.4-4.8 20.4 3.6 26.9 8.5 6.5 20.5 4.9 26.9-3.5zM685.8 685.4c6.4-8.4 4.8-20.4-3.6-26.9-0.5-0.4-1-0.6-1.6-1 5.5 5.4 6.4 14.2 1.6 20.5-5.2 6.8-14.9 8.1-21.7 2.9-6.3-4.8-7.8-13.5-3.9-20.2-0.4 0.5-0.9 0.8-1.3 1.3-6.4 8.4-4.8 20.4 3.6 26.9 8.5 6.5 20.5 4.9 26.9-3.5zM638 754c6.4-8.4 4.8-20.4-3.6-26.9-0.5-0.4-1-0.6-1.6-1 5.5 5.4 6.4 14.2 1.6 20.5-5.2 6.8-14.9 8.1-21.7 2.9-6.3-4.8-7.8-13.5-3.9-20.2-0.4 0.5-0.9 0.8-1.3 1.3-6.4 8.4-4.8 20.4 3.6 26.9 8.5 6.5 20.5 4.9 26.9-3.5z" opacity=".2" /></svg>