<?xml version="1.0" standalone="no"?><!DOCTYPE svg PUBLIC "-//W3C//DTD SVG 1.1//EN" "http://www.w3.org/Graphics/SVG/1.1/DTD/svg11.dtd"><svg class="icon" width="81px" height="81.00px" viewBox="0 0 1024 1024" version="1.1" xmlns="http://www.w3.org/2000/svg"><path d="M520.9088 952.32c-16.9472 0-30.72-13.7728-30.72-30.72V310.784c0-16.9472 13.7728-30.72 30.72-30.72s30.72 13.7728 30.72 30.72V921.6c0 16.9472-13.7728 30.72-30.72 30.72z" fill="#FC4138" /><path d="M875.1616 275.5072h-47.9744c25.7536-71.8336-5.6832-152.832-74.6496-187.904-37.632-19.1488-81.9712-21.8112-121.6512-7.3728a153.4464 153.4464 0 0 0-88.4224 83.8656l-22.4256 52.6336-22.3744-52.6848a153.60512 153.60512 0 0 0-88.4224-83.8656 153.66144 153.66144 0 0 0-121.6512 7.3728c-68.9152 35.072-100.4032 116.0704-74.6496 187.904h-46.336c-44.3392 0-80.384 36.0448-80.384 80.384v109.6192c0 42.5472 33.28 77.4144 75.1616 80.128v320.5632c0 47.4624 38.6048 86.1184 86.1184 86.1184h540.2112c47.4624 0 86.1184-38.6048 86.1184-86.1184v-320.3072h1.3312c44.3392 0 80.384-36.0448 80.384-80.384v-109.568c0-44.3392-36.0448-80.384-80.384-80.384z m-276.1728-87.3984c10.0352-23.6032 28.8256-41.3696 52.8896-50.176 24.1152-8.7552 49.92-7.2192 72.7552 4.4032 43.0592 21.9136 61.696 73.728 42.4448 118.016l-6.5536 15.104h-198.7584l37.2224-87.3472zM272.9984 260.4032c-19.2512-44.288-0.5632-96.1536 42.4448-118.016 22.8352-11.6224 48.6912-13.1584 72.7552-4.4032 24.064 8.7552 42.8544 26.5728 52.8896 50.176l37.1712 87.3984H279.552l-6.5536-15.1552z m539.392 605.7984c0 13.6192-11.0592 24.6784-24.6784 24.6784H247.5008c-13.6192 0-24.6784-11.0592-24.6784-24.6784v-320.3072h589.568v320.3072z m81.7152-400.6912c0 10.4448-8.4992 18.944-18.944 18.944H166.656c-10.4448 0-18.944-8.4992-18.944-18.944V355.8912c0-10.4448 8.4992-18.944 18.944-18.944h708.5056c10.4448 0 18.944 8.4992 18.944 18.944v109.6192z" fill="#3E3A39" /></svg>