<?xml version="1.0" standalone="no"?><!DOCTYPE svg PUBLIC "-//W3C//DTD SVG 1.1//EN" "http://www.w3.org/Graphics/SVG/1.1/DTD/svg11.dtd"><svg class="icon" width="81px" height="81.00px" viewBox="0 0 1024 1024" version="1.1" xmlns="http://www.w3.org/2000/svg"><path d="M749.5 699.3l2.8-18.7c16.4 2.4 34.7-2.6 56-15.2 7.3-4.4 14.6-9.3 21.6-14.1 10.9-7.4 22.2-15.1 34.5-21.3l8.4 16.9c-11.2 5.6-21.4 12.6-32.3 20-7.3 5-14.8 10.1-22.6 14.7-25.1 15-47.5 20.8-68.4 17.7z" fill="#7BAD37" /><path d="M752.7 691.7l15.2-11.2c15.7 21.2 43.9 33.2 70.1 29.8 21.1-2.7 40.6-14.3 58.7-26l10.2 15.9c-20 12.8-41.6 25.5-66.5 28.8-33.3 4.3-67.7-10.3-87.7-37.3z" fill="#7BAD37" /><path d="M735.3 690.1l13.9-12.8c6.2 6.7 11.9 14 17.5 20.9 13.6 17.1 26.4 33.2 44.3 41.9 27.8 13.6 65.4 3.1 82.3-22.8l15.8 10.3c-22.1 34.1-69.9 47.3-106.4 29.5-21.7-10.6-36.5-29.1-50.8-47.1-5.3-6.7-10.9-13.7-16.6-19.9z" fill="#7BAD37" /><path d="M745.8 703.8l11.1-15.3c5.7 4.1 13.9 6.2 23 5.8 9.3-0.4 18.6-3.1 27.3-5.9 24-7.5 47.7-16.7 70.4-27.4l8 17.1c-23.5 11.1-48 20.6-72.8 28.4-9.5 3-20.6 6.2-32.2 6.7-9.4 0.4-23.1-0.9-34.8-9.4z" fill="#7BAD37" /><path d="M747.9 706.4c5.1-19.8 17.8-37.9 39.9-57 5.7-5 11.6-9.7 17.6-14.4 11.2-8.9 21.7-17.3 30.9-27.2l13.9 12.8c-10.1 11-21.8 20.3-33 29.2-5.7 4.5-11.4 9.1-16.9 13.9-19.1 16.5-29.8 31.6-34 47.5l-18.4-4.8z" fill="#7BAD37" /><path d="M737.3 692.2c12.8-42.5 35.7-82 66.2-114.3l13.7 13c-28.5 30.1-49.9 67-61.8 106.7l-18.1-5.4z" fill="#7BAD37" /><path d="M737.9 704.9c-12.2-25.8-23.4-53.8-23-83.7 0.4-28.4 14.5-63.1 45.2-76.7l7.6 17.3c-23 10.2-33.6 37.3-34 59.7-0.4 26 10 51.6 21.2 75.4l-17 8z" fill="#7BAD37" /><path d="M733.9 670.7c7.1-29.3 18-57.5 32.5-84 2.1-3.9 7.7-14.2 18.9-14.7l0.9 18.9c0.2 0 0.4-0.1 0.4-0.1-0.2 0.1-1.4 0.9-3.7 5-13.7 25-24 51.7-30.7 79.4l-18.3-4.5zM752.5 732.1c-6.1-9.4-11.3-19.1-16.4-28.3l16.6-9.1c12 21.9 25.6 46.8 46.8 61.7 29.3 20.6 73.2 18 99.9-5.9l12.6 14.1c-33.5 30-86.5 33.1-123.4 7.3-15.2-10.7-26.6-24.9-36.1-39.8z" fill="#7BAD37" /><path d="M683.8 622.1c-81.7-4.5-144.6 30.7-217.6 67.8-49.4 25-132.8 72.7-203.7 77.2-60.6 3.8-151.2 30.2-148.8 38.2 25.4 70.5 90.8 122.1 162.9 142.7s149.9 13 221.7-8.5c71.8-21.5 138.8-56.4 205.2-91 25.8-13.5 53.3-28.6 65.9-54.9 18.7-38.9-2.6-84.6-25.2-121.4-14.2-23.3-33.2-48.6-60.4-50.1z" fill="#DEE3A0" /><path d="M621.086128 722.178609a78.1 2.9 70.056 1 0 5.452153-1.978389 78.1 2.9 70.056 1 0-5.452153 1.978389Z" opacity=".2" /><path d="M514.077923 834.777942a78.1 2.9 70.056 1 0 5.452153-1.978389 78.1 2.9 70.056 1 0-5.452153 1.978389Z" opacity=".2" /><path d="M499.458349 867.034614a59.3 2.7 70.056 1 0 5.076143-1.841948 59.3 2.7 70.056 1 0-5.076143 1.841948Z" opacity=".2" /><path d="M303.270599 804.116285a33.5 2.7 70.056 1 0 5.076142-1.841948 33.5 2.7 70.056 1 0-5.076142 1.841948Z" opacity=".2" /><path d="M586.7 100l-21.7 3.8c7.2 41.2-17.4 86.3-55.9 102.7-3.4 1.4-6.8 2.6-10.3 3.7 4.4-2 8.8-3.8 13.1-6.5 40.3-25.2 56.6-80.7 36.5-123.7l-20 9.4c15.3 32.7 2.4 76.5-28.2 95.7-11.7 7.3-24.9 11.1-39 13.7 20-11.4 36.5-28.6 46.2-49.7 12.2-26.7 12.9-56 12.5-83.7l-22.1 0.3c0.3 25.2-0.3 51.7-10.5 74.3-4.9 10.7-12.1 20.2-20.9 28.1 0.5-1.8 1.2-3.8 1.6-5.5 7.6-29.4 13.3-59.5 16.8-89.7l-21.9-2.6c-3.4 29.1-8.9 58.3-16.3 86.7-0.5 2-1.2 4-1.7 6 0.9-6.7 1.5-13.5 1.7-20.9 0.2-10.6-0.2-21.3-0.6-31.5-0.6-15.4-1.2-29.9 0.2-44.3l-22-2.1c-1.5 16-0.9 31.9-0.2 47.3 0.4 10 0.8 20.2 0.6 30.2-0.2 9.7-1.3 18.2-2.8 26.2-1.5-6-2.9-12.3-4-19.3-1.3-8.4-2.3-16.9-3.3-25.4-1.9-16.7-3.9-34-8.6-50.8l-21.3 5.9c4.2 15.2 6 30.9 7.9 47.5 1 8.8 2 17.6 3.4 26.3 2.4 15.3 6 28.4 10.5 39.9-23.1-31.6-40.5-67.3-50.4-105.1l-21.3 5.6c5.2 20 12.9 39.4 21.7 58.1-5.9-8.7-11.6-17.5-16.8-26.7-2.7-4.8-2.7-6.4-2.7-6.7 0 0.1-0.1 0.2-0.2 0.5L317.4 107c-6.3 11.4 0.4 23.3 2.9 27.8 14 24.7 30.6 47.8 49.4 69.1-12.4-3.7-24.3-8.4-35.1-15.3-22-14.1-42.3-41.4-38.2-70.5l-21.9-3.1c-5.5 38.8 20.2 74.3 48.1 92.2 5 3.2 10.3 6 15.6 8.5-13.6 4.2-25.7 11.2-33.9 22.9-54.9 78.3-58.9 162.3-67.2 257.6-5.7 64.4-10 176.6-49.3 249.7-33.7 62.5-63.4 168.5-54 171.2 85.6 18.4 177.2-14.6 242.1-73.3 64.9-58.8 105.5-140.6 128.5-225.1s29.8-172.4 36.5-259.7c2.6-33.9 4.6-70.5-13.7-99.3-7.1-11.2-16.4-19.8-27.1-26.6 5.9-1.5 11.8-3.4 17.5-5.8 48.4-21 78.1-75.5 69.1-127.3z" opacity=".2" /><path d="M401.6 220.8l-16.8-14.3c12.5-14.8 18.9-36 19.5-65 0.2-9.9-0.2-20.2-0.6-30.2-0.6-15.4-1.3-31.4 0.2-47.3l22 2.1c-1.4 14.5-0.8 29-0.2 44.3 0.4 10.3 0.9 20.9 0.6 31.5-0.6 34.3-8.7 60.1-24.7 78.9z" fill="#7BAD37" /><path d="M396 213l-1.8-22c30.8-2.5 60.1-23 72.9-51.1 10.3-22.6 10.9-49.1 10.5-74.3l22.1-0.3c0.3 27.7-0.3 57-12.5 83.7-16.3 35.7-52.1 60.8-91.2 64z" fill="#7BAD37" /><path d="M383.6 229.2l-4.1-21.7c10.5-2 21.2-3.2 31.6-4.4 25.3-2.9 49.2-5.7 68.9-18 30.6-19.2 43.5-63 28.2-95.7l20-9.4c20.1 43 3.7 98.5-36.5 123.7-23.9 14.9-51.4 18.1-78.1 21.2-9.9 1.2-20.2 2.5-30 4.3z" fill="#7BAD37" /><path d="M403.7 227.3l-8.3-20.4c7.7-3.1 14.8-9.9 20-19.2 5.3-9.4 8.4-20.3 11.1-30.7 7.4-28.4 12.9-57.6 16.3-86.7l21.9 2.6c-3.5 30.1-9.2 60.3-16.8 89.7-2.9 11.3-6.6 24.3-13.2 36-5.5 9.5-15.3 22.3-31 28.7z" fill="#7BAD37" /><path d="M407.7 226.7c-16.4-17.3-26.6-41-31.9-74.8-1.4-8.7-2.4-17.5-3.4-26.3-1.9-16.6-3.7-32.2-7.9-47.5l21.3-5.9c4.7 16.9 6.7 34.1 8.6 50.8 1 8.5 2 17 3.3 25.4 4.6 29.1 12.9 49.1 26.1 63l-16.1 15.3z" fill="#7BAD37" /><path d="M387 228.6c-34.3-38.9-59.3-86.1-72.4-136.3l21.3-5.6c12.2 46.9 35.6 90.9 67.6 127.3L387 228.6z" fill="#7BAD37" /><path d="M399.9 235.8c-33.1-3.9-67.8-10.1-97.2-29-27.9-18-53.6-53.4-48.1-92.2l21.9 3.1c-4.1 29.1 16.2 56.4 38.2 70.5 25.6 16.4 57.3 22 87.8 25.6l-2.6 22z" fill="#7BAD37" /><path d="M363.5 218.6c-24.6-25.1-45.9-53.4-63.2-84.1-2.5-4.5-9.3-16.4-2.9-27.8l19.3 10.7c0.1-0.2 0.2-0.4 0.2-0.5 0 0.3 0 1.9 2.7 6.7 16.4 29 36.5 55.7 59.7 79.5l-15.8 15.5zM435.9 238.1c-13.1 0.2-26-0.6-38.2-1.3l1.2-22c29.2 1.6 62.3 3.5 90.1-8.3 38.5-16.4 63.1-61.5 55.9-102.7l21.7-3.8c9 51.7-20.7 106.3-69 126.8-19.9 8.5-41 11-61.7 11.3z" fill="#7BAD37" /><path d="M284.4 238.3c-54.9 78.3-58.9 162.3-67.2 257.6-5.7 64.4-10 176.6-49.3 249.7-33.7 62.5-63.4 168.5-54 171.2 85.6 18.4 177.2-14.6 242.1-73.3 64.9-58.8 105.5-140.6 128.5-225.1S514.3 446 521 358.7c2.6-33.9 4.6-70.5-13.7-99.3-27-42.6-85.4-49.7-135.9-50-31.9-0.4-68.7 2.8-87 28.9z" fill="#DEE3A0" /><path d="M349.429723 387.437436a108.50217 3.100062 4.527 1 0 0.489369-6.180781 108.50217 3.100062 4.527 1 0-0.489369 6.180781Z" opacity=".2" /><path d="M379.374778 518.760924a108.50217 3.100062 4.527 1 0 0.489369-6.180781 108.50217 3.100062 4.527 1 0-0.489369 6.180781Z" opacity=".2" /><path d="M398.744774 549.220952a88.801776 2.800056 4.527 1 0 0.442011-5.582642 88.801776 2.800056 4.527 1 0-0.442011 5.582642Z" opacity=".2" /><path d="M264.206605 691.148113a58.1 2.7 11.712 1 0 1.096159-5.287573 58.1 2.7 11.712 1 0-1.096159 5.287573Z" opacity=".2" /><path d="M236.222496 742.651923a48.1 2.4 11.712 1 0 0.974364-4.700066 48.1 2.4 11.712 1 0-0.974364 4.700066Z" opacity=".2" /></svg>