<?xml version="1.0" standalone="no"?><!DOCTYPE svg PUBLIC "-//W3C//DTD SVG 1.1//EN" "http://www.w3.org/Graphics/SVG/1.1/DTD/svg11.dtd"><svg class="icon" width="81px" height="81.00px" viewBox="0 0 1024 1024" version="1.1" xmlns="http://www.w3.org/2000/svg"><path d="M964.5056 287.6928a30.65856 30.65856 0 0 0-33.024 5.1712l-120.2688 107.6224V295.936c0-66.1504-53.8112-119.9616-119.9616-119.9616H168.7552c-66.1504 0-119.9616 53.8112-119.9616 119.9616v458.1888c0 66.1504 53.8112 119.9616 119.9616 119.9616H691.2c66.1504 0 119.9616-53.8112 119.9616-119.9616v-104.6016l120.2688 107.6224a30.76608 30.76608 0 0 0 33.024 5.1712 30.74048 30.74048 0 0 0 18.176-28.0576V315.7504a30.66368 30.66368 0 0 0-18.1248-28.0576z m-214.784 466.432c0 32.256-26.2656 58.5216-58.5216 58.5216H168.7552c-32.256 0-58.5216-26.2656-58.5216-58.5216V295.936c0-32.256 26.2656-58.5216 58.5216-58.5216H691.2c32.256 0 58.5216 26.2656 58.5216 58.5216V754.1248z m171.52-88.576l-110.08-98.4576V482.9696l110.08-98.4576v281.0368z" fill="#3E3A39" /><path d="M354.4576 420.352H217.4976c-16.9472 0-30.72-13.7728-30.72-30.72s13.7728-30.72 30.72-30.72h136.96c16.9472 0 30.72 13.7728 30.72 30.72s-13.7216 30.72-30.72 30.72z" fill="#FC4138" /><path d="M489.7792 389.632m-39.5264 0a39.5264 39.5264 0 1 0 79.0528 0 39.5264 39.5264 0 1 0-79.0528 0Z" fill="#F23E31" /></svg>