<?xml version="1.0" standalone="no"?><!DOCTYPE svg PUBLIC "-//W3C//DTD SVG 1.1//EN" "http://www.w3.org/Graphics/SVG/1.1/DTD/svg11.dtd"><svg class="icon" width="81px" height="81.00px" viewBox="0 0 1024 1024" version="1.1" xmlns="http://www.w3.org/2000/svg"><path d="M282.5 386.3c65.4 34.4 99.9 106.6 130.2 174 16 35.7 32 71.4 48 107.2 5.8 12.9 24.2 26.8 32.6 38.2 13.3 18 53.7 59.1 73 70.3 107.3 62.1 257 89.1 362.9 44.2l30.6-18.6c-57.3 30.1-127.4 20.4-189.1 0.9-63.9-20.2-126.3-51.4-170-102.2-15.5-18-28.3-38.1-41-58.1-13.1-20.6-26.3-41.3-39.4-61.9-10.7-16.8-21.4-33.6-31.4-50.7-9.7-16.6-18.7-33.6-30.3-48.9-14.7-19.4-33-35.6-52-50.9-38.1-30.7-92.3-58.3-140.3-48.8l16.2 5.3z" fill="#DEE3A0" /><path d="M128.7 301.1c-19.2-3-39.7 4.9-52 20s-15.8 36.8-9 55c6.9 18.5 23 32 39.9 42.3 27.8 17.1 60.1 28.2 92.7 26.7s65.3-16.7 83.9-43.5c17.7-25.5 21.1-59.1 14.3-89.3s-22.9-57.7-41.5-82.5c-16.5-22-35.6-42.6-59.5-56.1-24-13.4-53.4-18.9-79.3-9.7s-46.4 35-44.8 62.4c1.8 29.9 26.8 52.5 50.6 70.8l4.7 3.9z" fill="#7BAD37" /><path d="M214.7 352c-43.2-16-86-50.9-86-50.9-17.6-2.7-36.2 3.7-48.6 16.3 32.9 11.9 107.7 37.4 134.6 34.6z" opacity=".2" /><path d="M606.8 299.8c24.1 46 15.3 101.5 6 152.5-5 27-9.9 54.1-14.9 81.1-1.8 9.8-3.6 19.7-3.3 29.7 0.5 15.7 14.4 61 21.2 75.1 37.3 78.8 113.1 154 192.2 170.3l25.1 1.4c-45.2-5.4-81.8-38.9-109.8-74.8-28.9-37.1-52.6-80.1-57.6-126.8-1.8-16.6-1.2-33.3-0.6-49.9 0.6-17.2 1.2-34.3 1.9-51.5 0.5-14 1-27.9 2.1-41.9 1-13.4 2.6-26.9 2-40.3-0.8-17.1-4.9-33.8-9.8-50.1-9.8-32.9-30.2-70.5-61.7-84.1l7.2 9.3z" fill="#DEE3A0" /><path d="M551.8 189.3c-9.9-9.4-24.9-13-38-9.2-13.1 3.8-23.8 15-27.1 28.2-3.4 13.5 0.6 27.7 6.2 40.4 9.3 21 23.6 40.3 43 52.4 19.5 12.1 44.4 16.4 65.9 8.3 20.4-7.7 35.7-25.8 43.8-46 8.1-20.2 9.8-42.5 8.9-64.3-0.8-19.3-3.6-38.8-12.1-56.2-8.5-17.3-23.4-32.2-42-37.2s-40.8 1.7-50.8 18.2c-10.9 18-5.4 41.1 1.1 61.1l1.1 4.3z" fill="#7BAD37" /><path d="M581.3 253c-18.6-26.5-29.4-63.7-29.4-63.7-9.1-8.6-22.4-12.3-34.6-9.9 14.2 19.9 47.3 64.5 64 73.6z" opacity=".2" /><path d="M803.8 336c8.2 43.4-12.8 86.4-33.2 125.6-10.8 20.8-21.6 41.5-32.4 62.3-3.9 7.5-7.9 15.1-10.1 23.3-3.5 12.9-3.5 53.2-1.5 66.4 10.8 73.4 53.7 153.6 114 186.5l20.1 7.4c-35.4-15.7-56.9-52.1-70.7-88.3-14.3-37.4-22.8-78.3-15.3-117.6 2.7-13.9 7.3-27.4 12-40.8 4.8-13.8 9.6-27.6 14.4-41.5 3.9-11.2 7.8-22.5 12.1-33.6 4.2-10.7 8.8-21.2 11.7-32.3 3.6-14.1 4.4-28.7 4.5-43.3 0.2-29.3-7-64.9-29.3-83.9l3.7 9.8z" fill="#DEE3A0" /><path d="M786.6 232.3c-5.7-10.1-17.1-16.8-28.7-17-11.6-0.2-23.1 6.2-29.1 16.2-6.1 10.1-6.4 22.7-5 34.4 2.3 19.4 9.1 38.6 21.9 53.4 12.8 14.7 32.1 24.4 51.6 23.2 18.5-1.2 35.5-12.1 47.2-26.5 11.7-14.4 18.5-32.2 23.3-50.1 4.2-15.9 6.8-32.5 4.2-48.7-2.6-16.2-11-32.1-24.9-40.8s-33.6-8.8-45.9 2.2c-13.4 11.9-14.6 32.1-14.4 50l-0.2 3.7z" fill="#7BAD37" /><path d="M794.7 291.5c-8.5-26.2-8.1-59.2-8.1-59.2-5.2-9.2-15.2-15.6-25.7-16.7 6.7 19.8 22.5 64.4 33.8 75.9z" opacity=".2" /><path d="M280.3 718.4c57.9 6.5 102.1 47.9 141.8 87.1 21.1 20.8 42.1 41.6 63.2 62.3 7.6 7.5 15.3 15.1 24.6 20.9 14.5 9 64.9 24.2 82.2 26.8 96.4 14.7 215.8-6.8 284.1-67l18.3-21.4c-35.5 36.7-90.6 48.8-142 51.8-53.1 3.1-108-2-153.7-25.9-16.2-8.5-30.9-19.1-45.5-29.7-15.1-10.9-30.2-21.9-45.3-32.8-12.3-8.9-24.5-17.8-36.4-27.2-11.4-9-22.5-18.5-35.1-26.2-15.9-9.7-33.9-16.1-51.9-21.7-36.4-11.3-84.2-16-117.9 3.6l13.6-0.6z" fill="#DEE3A0" /><path d="M143.1 700.1c-15.2 3.1-28.6 14.2-34.1 28.1s-2.6 30.1 7.1 41.1c9.9 11.1 25.4 16.3 40.7 19 25.2 4.5 52.3 3.6 76.5-6.3 24.2-9.9 44.9-29.4 52.1-53.3 6.8-22.7 0.9-47.2-11.8-66.6-12.8-19.4-31.8-34.4-52.1-46.8-18-11-37.5-20.3-58.9-23.3s-45 1.2-62.1 14.6-26.1 37.1-17.9 55.9c8.9 20.5 33.5 29.7 55.9 36.1l4.6 1.5z" fill="#7BAD37" /><path d="M220.6 712.6c-36.5 0.4-77.5-12.6-77.5-12.6-13.9 2.8-26.3 12.4-32.4 24.6 27.7-0.5 90.4-2.8 109.9-12z" opacity=".2" /><path d="M263.1 531s6.3 3.6 8.3 9.5c-1.5-6.1-8-9.9-8.2-9.7-0.2 0.1-0.1 0.2-0.1 0.2zM276.5 527.4s2.2 5 1 9.5c1.5-4.4-0.7-9.7-0.9-9.6l-0.1 0.1zM284.7 528.9s0.3 5.4-2.3 9.3c2.9-3.7 2.6-9.4 2.4-9.4-0.1 0-0.1 0.1-0.1 0.1zM262.9 544.8s5 0.3 8.5 5.3c-3-5.3-8.4-5.8-8.5-5.5-0.1 0.1 0 0.2 0 0.2z" fill="#7BAD37" opacity=".3" /></svg>