<?xml version="1.0" standalone="no"?><!DOCTYPE svg PUBLIC "-//W3C//DTD SVG 1.1//EN" "http://www.w3.org/Graphics/SVG/1.1/DTD/svg11.dtd"><svg class="icon" width="81px" height="81.00px" viewBox="0 0 1024 1024" version="1.1" xmlns="http://www.w3.org/2000/svg"><path d="M304.9472 888.576h-172.544c-16.9472 0-30.72-13.7728-30.72-30.72V339.0976c0-16.9472 13.7728-30.72 30.72-30.72h172.544c16.9472 0 30.72 13.7728 30.72 30.72v518.7072c0 16.9984-13.7728 30.7712-30.72 30.7712z m-141.824-61.44h111.104V369.8176h-111.104v457.3184zM893.7984 888.576h-172.544c-16.9472 0-30.72-13.7728-30.72-30.72V491.3152c0-16.9472 13.7728-30.72 30.72-30.72h172.544c16.9472 0 30.72 13.7728 30.72 30.72v366.5408c0 16.9472-13.7728 30.72-30.72 30.72z m-141.824-61.44h111.104v-305.1008h-111.104v305.1008z" fill="#3E3A39" /><path d="M599.296 888.576h-172.544c-16.9472 0-30.72-13.7728-30.72-30.72V155.2384c0-16.9472 13.7728-30.72 30.72-30.72h172.544c16.9472 0 30.72 13.7728 30.72 30.72v702.6176c0 16.9472-13.7728 30.72-30.72 30.72z m-141.824-61.44h111.104V185.9584h-111.104v641.1776z" fill="#FC4138" /></svg>