<?xml version="1.0" standalone="no"?><!DOCTYPE svg PUBLIC "-//W3C//DTD SVG 1.1//EN" "http://www.w3.org/Graphics/SVG/1.1/DTD/svg11.dtd"><svg class="icon" width="81px" height="81.00px" viewBox="0 0 1024 1024" version="1.1" xmlns="http://www.w3.org/2000/svg"><path d="M392.3 196.8c33.5 12.3 53.4-9 56.1-11.4-4-1.2-5.6-2.7-9.5-5.2 10.9-2.2 14-5.3 18.7-13.9 4.3-7.7 1.3-21.2 2.5-30.9-2.1 1.9-5 3.1-8.1 3.5 3.6-9.7-0.4-20.8-4.4-31-7.9 0.1-15.9 0.2-23.1 2.5-4.4 1.4-8.3 3.5-12.2 5.7 1-4.3-0.6-4.8-1.1-7.6-2.8 1.4-9.4 6.7-11.5 10.3-1.8-3.8-1.8-3.8-2.3-7.8-8.5 2.7-11.9 8.5-15.5 12.6-8.8 9.7-12.2 23.1-9.3 36.1-1.7-2.3-5.7-4.4-8.6-5.4-1.6 5.3-0.3 26.7 18.6 37.4l9.7 5.1zM295.4 253.9c11-31.9-13.2-49-15.9-51.4-1 3.8-2.5 5.4-5 9.2-3-10-6.6-12.6-16.1-16.5-8.6-3.5-22.8 0.2-33.3-0.3 2.2 1.9 3.7 4.5 4.3 7.3-10.6-2.7-22.2 1.8-32.9 6.1 0.6 7.3 1.3 14.8 4.2 21.3 1.8 4 4.3 7.5 6.9 11-4.6-0.6-5.1 0.9-8 1.5 1.6 2.5 7.8 8.3 11.8 10-3.9 1.9-3.9 1.9-8.2 2.6 3.4 7.7 9.9 10.5 14.5 13.6 11 7.5 25.6 9.9 39.3 6.2-2.4 1.7-4.3 5.6-5.3 8.3 5.8 1.2 28.6-1.4 38.9-19.8l4.8-9.1zM463.9 404.5c35.8-3.3 43.1-30.7 44.3-34-4.1 0.7-6.3 0-11-0.6 8.6-6.6 9.8-10.6 9.9-20.3 0-8.7-9.2-19.4-12.9-28.6-1 2.6-2.9 4.9-5.5 6.6-1.6-10.1-10.6-18.3-19.1-25.7-7 3.4-14 7-19.3 12-3.2 3.1-5.7 6.7-8.1 10.2-1.2-4.2-2.9-4-4.7-6.3-1.8 2.4-5.1 10-5.2 14.1-3.5-2.6-3.5-2.6-5.8-6-6.2 6-6.4 12.6-7.7 17.8-3.1 12.4 0.4 25.8 9.4 36.1-2.7-1.3-7.2-1.5-10.3-1.2 1.1 5.4 12.8 23.9 34.9 25.4l11.1 0.5z" fill="#7BAD37" /><path d="M463.9 404.5c35.8-3.3 43.1-30.7 44.3-34-4.1 0.7-6.3 0-11-0.6 8.6-6.6 9.8-10.6 9.9-20.3 0-8.7-9.2-19.4-12.9-28.6-1 2.6-2.9 4.9-5.5 6.6-1.6-10.1-10.6-18.3-19.1-25.7-7 3.4-14 7-19.3 12-3.2 3.1-5.7 6.7-8.1 10.2-1.2-4.2-2.9-4-4.7-6.3-1.8 2.4-5.1 10-5.2 14.1-3.5-2.6-3.5-2.6-5.8-6-6.2 6-6.4 12.6-7.7 17.8-3.1 12.4 0.4 25.8 9.4 36.1-2.7-1.3-7.2-1.5-10.3-1.2 1.1 5.4 12.8 23.9 34.9 25.4l11.1 0.5z" opacity=".2" /><path d="M521.2 330.5c34.2 10.4 52.7-12.1 55.2-14.6-4.1-0.9-5.8-2.4-9.8-4.7 10.7-2.8 13.6-6.1 17.8-14.9 3.8-8-0.1-21.2 0.4-31-2 2-4.8 3.4-7.9 4 2.9-9.9-1.8-20.7-6.4-30.7-7.8 0.6-15.9 1.1-22.9 3.8-4.3 1.6-8.1 4-11.8 6.4 0.7-4.3-1-4.8-1.6-7.5-2.7 1.5-8.9 7.2-10.8 10.9-2.1-3.6-2.1-3.6-2.8-7.7-8.3 3.2-11.3 9.2-14.7 13.5-8.1 10.2-10.7 23.8-6.9 36.6-1.9-2.2-6-4-8.9-4.9-1.3 5.4 1.4 26.7 21.1 36.3l10 4.5z" fill="#7BAD37" /><path d="M521.2 330.5c34.2 10.4 52.7-12.1 55.2-14.6-4.1-0.9-5.8-2.4-9.8-4.7 10.7-2.8 13.6-6.1 17.8-14.9 3.8-8-0.1-21.2 0.4-31-2 2-4.8 3.4-7.9 4 2.9-9.9-1.8-20.7-6.4-30.7-7.8 0.6-15.9 1.1-22.9 3.8-4.3 1.6-8.1 4-11.8 6.4 0.7-4.3-1-4.8-1.6-7.5-2.7 1.5-8.9 7.2-10.8 10.9-2.1-3.6-2.1-3.6-2.8-7.7-8.3 3.2-11.3 9.2-14.7 13.5-8.1 10.2-10.7 23.8-6.9 36.6-1.9-2.2-6-4-8.9-4.9-1.3 5.4 1.4 26.7 21.1 36.3l10 4.5z" opacity=".2" /><path d="M324.9 163.2c37.1-18 33.4-41.8 33.3-45.4-3.9-1.3-6.8-2.5-12.1-1.1 6.5-9.8 6.1-14.1 2.1-23.3-3.6-8.2-18.1-14.5-25.9-21.5 0 2.8-1.1 5.9-3.1 8.5-6-8.9-19-12.8-31.3-16.3-6 6.1-12.2 12.4-15.7 19.4-2.2 4.3-3.3 8.7-4.4 13-3.2 0.3-6.2-2.3-9-3.6-0.9 3 0.2 7.8 3.2 10.1-4.7 2.3-9.6 4.3-14.7 6 3.2 4.5 2.8 10.4 3.6 15.8 1.9 13 11.3 24.1 25.3 30.1-3.4-0.1-8.4 1.6-11.6 3.2 3.5 4.6 23.8 17.2 48.1 9.4l12.2-4.3zM563.5 361.5c35.8 3.9 49.1-21.5 51.1-24.4-4.2-0.2-6.2-1.3-10.6-2.8 9.9-4.7 12-8.4 14.3-17.9 2-8.5-4.6-20.8-6.1-30.5-1.5 2.3-4 4.2-6.9 5.4 0.8-10.2-6.1-20-12.8-28.9-7.6 2-15.3 4-21.6 7.9-3.9 2.4-7.1 5.4-10.2 8.4-0.2-4.4-2-4.5-3.1-7-2.3 2-7.2 8.7-8.3 12.7-2.8-3.2-2.8-3.2-4.3-7-7.4 4.6-9.1 11.1-11.6 15.9-5.8 11.5-5.5 25.3 1 37.1-2.3-1.8-6.7-2.9-9.8-3.2-0.1 5.5 7 25.9 28.3 31.7l10.6 2.6zM651.9 357.1c26.8 35.6 64.7 25.8 69.4 25-3.4-3.9-4-6.6-6.3-12 13.5 4.9 19.1 3.6 30.9-2.6 10.5-5.5 17.7-22.1 26.4-31.8-3.8 0.6-7.8 0.1-11.5-1.6 11.3-8.1 15.5-22.7 19-36.5-8.6-5.1-17.4-10.3-26.9-12.6-5.8-1.4-11.7-1.7-17.6-2 4.4-4 3-5.7 4.6-8.9-4-0.4-15.3 1-20.4 3.5 0.9-5.3 0.9-5.3 3.5-10-11.2-2.7-19.4 1.3-26.5 3.3-17 4.7-31 16.9-37.7 32.9-0.1-3.6-2.8-8.5-5.1-11.6-5.8 4.6-20.9 28.7-8.6 52.9l6.8 12zM684.6 447.3c7.7 42.9 46.5 49.2 51.2 50.3-1.3-4.9-0.5-7.6-0.1-13.3 9.9 9.8 15.6 10.9 29.1 10.1 12.1-0.7 26.1-12.9 38.5-18.2-3.7-0.9-7.1-3.1-9.7-6.1 13.9-2.8 24.5-14.3 34-25.3-5.4-8.1-10.9-16.3-18.4-22.2-4.6-3.6-9.8-6.2-15-8.8 5.8-1.8 5.3-3.9 8.3-6.2-3.5-2-14.3-5.2-20-5 3.3-4.4 3.3-4.4 7.8-7.6-8.9-6.9-18.1-6.6-25.4-7.6-17.5-2.6-35.8 2.8-49.2 14.6 1.6-3.3 1.4-8.8 0.7-12.5-7.4 1.8-32.1 17.5-32.1 44.3l0.3 13.5z" fill="#7BAD37" /><path d="M466 347.1c0 97 17.4 250.8 24.7 345.7 1.8 23.4 5 51.9 8.4 74 11.9 78.7 16.3 96.8 20.2 148.6 0 0-9.7 26.1-26.7 24.4-16.9-1.7-24.3-1.4-33.8-39.9-8.6-34.7-9.3-79.1-9.8-121-1.4-116.8-2.7-235.2 6.7-349.1l10.3-82.7z" fill="#DEE3A0" /><path d="M466 347.1c0 97 17.4 250.8 24.7 345.7 1.8 23.4 5 51.9 8.4 74 11.9 78.7 16.3 96.8 20.2 148.6 0 0-9.7 26.1-26.7 24.4-16.9-1.7-24.3-1.4-33.8-39.9-8.6-34.7-9.3-79.1-9.8-121-1.4-116.8-2.7-235.2 6.7-349.1l10.3-82.7z" opacity=".2" /><path d="M710.3 332.2C530.2 347.1 546.5 607.4 538 701.1c-2.1 23.1-4.5 46.2-8.3 68.1-13.7 77.7-44.5 153.3-80.3 158.6 0 0 39.2 32.7 58.8 31 19.6-1.7 39.9-20.1 50.9-58.2 9.9-34.3 10.8-78.1 11.4-119.5 1.6-115.3-3.8-235.2 26.8-344.5 25-89.5 113-104.4 113-104.4z" fill="#DEE3A0" /><path d="M497.1 957c39.2-5.2 39.8-13.7 46.6-22.5 1.8-2.6 3.5-5.4 5.2-8.5-18.9-5.2-36.5-23.7-51.5-49.6-13.8 28.8-30.3 48.7-48 51.3 0 0 27.3 22.7 47.7 29.3z" opacity=".1" /><path d="M308.3 117.1c45 90.3 83.7 250.7 94 345.5 2.5 23.4 40.5 282 45.2 304.1 16.6 78.7 51.7 168.7 86.3 179.6 0 0-14.3 18.2-60.3 12.4-23.5-3-48.2-20.4-61.4-58.9-11.9-34.7-13-79.1-13.7-121-1.9-116.8-15.5-262.6-27-376.7-12.1-119.3-63.1-285-63.1-285zM589.5 306.1c1.8 0.6-28.6 32.6-30.1 82.4-6.3 48.6 11.6 86.3 9.8 86.6-0.3 0.1-1.7 6.2-3.6 2-2.1-4.1-2.1 12.1-4.3 4.3-4.6-15.6-10-68.8-7.1-93.5 3-24.7 11.5-46.1 19.6-60.3 4.1-7.1 7.8-12.7 10.8-16.3 2.9-3.5 4.6-5.4 4.9-5.2zM769.8 449.3c-2.5-0.2-10.9-0.5-28.2-1.5-17.4-1-41.4-1.5-67.8 0.6-38.2 2.6-71 23-87.9 26.8-8.5 1.8 6-12.7 1.9-10.4-4.1 2.2-5.9 4.2-6.2 3.9-0.2-0.2 1.1-2.6 5.1-5.5 4-3 10.8-5.8 19.2-8 16.8-4.6 40.7-9.6 67.5-11.7 26.8-2.1 51.2-1.1 68.6 0.8 17.3 1.9 27.9 4.4 27.8 5zM530 293.5c0.4 0 0.6 3.2 0.6 9.1 0.2 5.9-0.6 14.5-2.4 24.9-3.4 21-13.3 48.8-26 78.5-12.7 29.7-22.4 90.1-27 110.5-4.8 20.3-5.8 0-6.8 0-0.4 0-0.5-3.2-0.5-9.2-0.1-5.9 0.8-14.4 2.8-24.8 3.7-20.9 13.8-48.6 26.5-78.3 12.7-29.7 23-56.9 27.3-77.3 4.6-20.3 4.5-33.4 5.5-33.4z" fill="#DEE3A0" /><path d="M530 293.5c0.4 0 0.6 3.2 0.6 9.1 0.2 5.9-0.6 14.5-2.4 24.9-3.4 21-13.3 48.8-26 78.5-12.7 29.7-22.4 90.1-27 110.5-4.8 20.3-5.8 0-6.8 0-0.4 0-0.5-3.2-0.5-9.2-0.1-5.9 0.8-14.4 2.8-24.8 3.7-20.9 13.8-48.6 26.5-78.3 12.7-29.7 23-56.9 27.3-77.3 4.6-20.3 4.5-33.4 5.5-33.4z" opacity=".2" /><path d="M226.9 225.4c0.2-0.6 8.9 1.7 22.4 6.8 13.5 5 31.8 12.8 51.1 22.9 19.3 10.2 36.3 20.2 47.5 29.1 11.2 8.9 15.9 16.4 15.4 16.7-0.7 0.5 6.6 12.5-4.9 4.5-10.1-11.9-41.5-35.9-60.6-46-19.2-10-37-18.2-50-24-13-5.9-21.1-9.3-20.9-10zM437.9 125.7c0.6 0.5-6.3 9.1-16.7 23.5-10.3 14.4-24 34.8-34.5 59.2-10.5 24.4-15.1 48.1-15.9 65.3-0.9 17.2 0.9 27.9 0 28-0.3 0.1-6.7 1.5-7.6-3.3-0.9-4.8-4.7-9.6-4.8-18.4-0.2-17.6 12.4-48.5 23.2-73.4 10.8-25 25.2-45.4 36.4-59.4 11.3-14 19.3-21.8 19.9-21.5zM685.8 312.6c-2.5 0.9-11.5 3.5-19.5 13.8-7.9 10.2-5.9 22.3-7.2 22.5-0.6 0.2-2.2-2.4-2.1-7.1 0-4.6 2.1-11 6.8-16.5 9.8-10.7 21.6-13.7 22-12.7zM713.6 349.8c-6.5 2.8-14.5 4.6-25 1.6-5.3-1.5-9.3-3.8-12.2-4.9-2.9-1.2-4.9-1.5-5-2.2-0.1-0.6 2.2-1.7 5.9-1.2 3.8 0.4 9.4 4.8 14 6.2 10.8 3.4 17 0.8 22.3 0.5zM760.7 404.6c-5.8 0.4-13.7 2.4-27 14.7-12.2 11.3-17.5 24.2-18.8 23.8-0.4 0-3.7 1.7-3.3 0 1-4.8 9-17.7 20-25.7 14.3-10.6 22.8-13.3 29.1-12.8z" fill="#DEE3A0" /><path d="M767.7 468.4c-8.4-0.8-13.8-1.5-22.7-7-6.7-4.2-13.2-11.1-14.3-14.2-0.4-1 2.1-0.7 2.3-0.9 0.9-1.1 8.3 10.4 17.3 16.3 4.1 2.8 11.7 5.2 17.4 5.8z" fill="#DEE3A0" /><path d="M563.5 292c-0.5 4-2.8 14.4-1.3 24.8 1.5 10.5 9.4 19.4 8.4 20.3-0.5 0.6-0.7 0.2-2.1 1.9-1.2 1.4-4.2-6.7-6-12-4.4-12.7-0.3-35.1 1-35z" fill="#DEE3A0" /><path d="M435 350.8c1.4-0.3 0.7 12.3 9.3 21.9 4.1 4.8 14.2 8.8 17.1 12.3 2.9 3.4 2 6.4 1.5 6.7-0.6 0.3-2.4-1.7-5.8-4.4-3.3-2.7-8.6-6.3-13.1-11.6-9.3-10.4-10.3-24.7-9-24.9z" fill="#DEE3A0" /><path d="M435 350.8c1.4-0.3 0.7 12.3 9.3 21.9 4.1 4.8 14.2 8.8 17.1 12.3 2.9 3.4 2 6.4 1.5 6.7-0.6 0.3-2.4-1.7-5.8-4.4-3.3-2.7-8.6-6.3-13.1-11.6-9.3-10.4-10.3-24.7-9-24.9z" opacity=".19" /><path d="M450.5 146.8c-1.2 2.8-5.7 8.5-17 10.8-4.5 0.9-16.5 2.7-19.8 2.3-4.2-0.5 0.5-2.3 0.6-3.1 0.1-1.4 10.2 1.1 20.9-1.2 10.1-2.2 12.6-6.2 15.3-8.8z" fill="#DEE3A0" /><path d="M399.7 138.9c-2.3 2.1-6.4 8.1-4.3 18.7 0.8 4.3 3.5 15.3 5.1 18 2.1 3.4 2.1-1.3 2.8-1.6 1.3-0.6-4.9-8.4-6.6-18.5-1.6-9.7 1.4-13.4 3-16.6z" fill="#DEE3A0" /><path d="M331.1 123.2c2 2 3.2 12.5-0.8 18s-8.8 8.7-9.9 7.8c-1.1-0.9 2.4-3.3 6.6-8.2 7.4-8.4 4.3-14.1 4.1-17.6z" fill="#DEE3A0" /><path d="M287.5 117.6c1.3 3.2 2.4 10 9.9 14.3 7.6 4.3 17.6 3.6 18.6 6.9-0.7 1.2-11.9 0.3-18.7-4.2-6.8-4.5-9.2-11.4-9.8-17z" fill="#DEE3A0" /><path d="M246.9 203c6.2 1.5 13.3 5.4 21.6 20.3 7.5 13.7 13.7 24.8 12.4 25.5-1.3 0.7-9.7-12.7-16.3-27.1-6.7-14.6-12.1-15.9-17.7-18.7z" fill="#DEE3A0" /><path d="M216.7 241c3.2 1.1 6.9 3.3 18.3 2.8 10.1-0.2 26.1-5.8 26.6-4.4 0.2 0.4 1.6 0.6-1 1.5-5.2 1.7-17.6 4.4-25 4.6-11 0.3-15-2.1-18.9-4.5z" fill="#DEE3A0" /></svg>