<?xml version="1.0" standalone="no"?><!DOCTYPE svg PUBLIC "-//W3C//DTD SVG 1.1//EN" "http://www.w3.org/Graphics/SVG/1.1/DTD/svg11.dtd"><svg class="icon" width="81px" height="81.00px" viewBox="0 0 1024 1024" version="1.1" xmlns="http://www.w3.org/2000/svg"><path d="M335.6 315.4c9.3-27.7 34.2-47.7 60.2-48.3 26-0.6 51.6 18.2 61.9 45.4 18.2-30.1 44.8-55.1 76.2-62.6 31.4-7.4 67.4 5.7 84.5 36.6 22.1 39.9 8 91.8-6.6 136-29.8 89.7-59.5 179.5-89.3 269.2-8.7 26.1-17.9 53.2-35.9 72.2-18 18.9-47.5 26.8-67 10.1-7.2-6.1-13.2-15.4-22.1-16.8-18.7-2.9-25.9 28.3-42.3 38.9-21.2 13.8-45.3-11.6-58.7-34.8-18.6 5.8-32.8 22.4-49.2 33.8s-39.7 17-53.5 1.7c-14.9-16.4-9.1-44.2-10.7-67.8-1.9-28.4-15.9-53.5-27.6-78.6-26.1-55.9-42.7-117.2-51.6-179.7-6-42.6-8.4-86.8 1.6-128.4s34.2-80.4 69.1-97 80.4-5.7 101.1 30.5c8.8 15.4 13.1 34.5 25.3 46.5 12.1 12 36.8 8.7 37.9-9.6l-3.3 2.7z" fill="#7BAD37" /><path d="M275.7 276c8.8 15.4 13.1 34.5 25.3 46.5 12.1 12 36.8 8.7 37.9-9.6l-3.2 2.5c9.3-27.7 34.2-47.7 60.2-48.3 26-0.6 51.6 18.2 61.9 45.4 15.3-25.4 36.7-47.1 61.9-57.7-10.6-12.4-29.8-17.8-47-14.6-18.3 3.4-33.8 15-44.5 28.8-6-12.6-20.9-21.2-36.1-20.9-15.2 0.3-29.7 9.5-35.1 22.2 0 0-13.2 8.8-20.3 3.3-7.1-5.5-9.6-14.3-14.7-21.4-12-16.7-38.6-21.7-59-14-6.1 2.3-11.4 5.7-16.4 9.6 11.6 6.3 21.9 15.6 29.1 28.2z" fill="#7BAD37" /><path d="M275.7 276c8.8 15.4 13.1 34.5 25.3 46.5 12.1 12 34.7-7.1 34.7-7.1 9.3-27.7 34.2-47.7 60.2-48.3 26-0.6 51.6 18.2 61.9 45.4 15.3-25.4 36.7-47.1 61.9-57.7-10.6-12.4-29.8-17.8-47-14.6-18.3 3.4-33.8 15-44.5 28.8-6-12.6-20.9-21.2-36.1-20.9-15.2 0.3-29.7 9.5-35.1 22.2 0 0-13.2 8.8-20.3 3.3-7.1-5.5-9.6-14.3-14.7-21.4-12-16.7-38.6-21.7-59-14-6.1 2.3-11.4 5.7-16.4 9.6 11.6 6.3 21.9 15.6 29.1 28.2zM500.3 721.2c-17.7 16.7-45.3 24.8-66.5 14.9 38.7-174.9 4.6-437.6 6-335.6 1 78.3-24.7 225.4-41.9 314.2-18.3 0.8-26.5 28.7-43.7 38.7-18.6 10.9-39.1-2.7-54.3-20.3-53.3-205.6 20.8-282.8-6.6-253.8-29.5 31.3-49.8 127.1-38 258-6.9 5.2-13.8 10.5-21.1 15.1-15.2 9.6-35.7 14.8-51 7.5 0.2 14.1 1.9 27.5 10.5 37 13.8 15.2 37.1 9.7 53.5-1.7 4.6-3.2 9-6.8 13.4-10.5 0.2-0.1 0.3-0.3 0.5-0.4 2.8-2.4 5.7-4.8 8.6-7.1 0.9-0.7 1.9-1.4 2.8-2.2 2.8-2.2 5.6-4.2 8.5-6.1 1.1-0.7 2.2-1.4 3.4-2.1 3.8-2.2 7.8-4.3 12-5.6 2.3 3.9 4.9 7.8 7.7 11.6 0.6 0.9 1.3 1.7 1.9 2.6 13.7 17.8 32.3 31.5 49.1 20.6 13.7-8.9 21.1-31.9 34-37.6 1-0.5 2.1-0.8 3.2-1 1.6-0.3 3.3-0.6 5.1-0.3 8.9 1.4 14.9 10.7 22.1 16.8 1.1 0.9 2.3 1.5 3.5 2.3 19.5 13.2 46.6 5.5 63.6-12.4 18-18.9 27.2-46.1 35.9-72.2 0.3-0.9 0.6-1.9 0.9-2.8-6.1 12.1-13.4 23.2-23.1 32.4z" opacity=".2" /><path d="M395.8 267.1c18.1-0.4 35.8 8.7 48.5 23.3 7.5-45.6 34.7-120.3 69-157 3.9-4.2 4.7-10.4 1.4-15.1-6.4-8.9-16.4-15.6-33.6-20.2-2.7-0.7-5.8-0.5-8.3 0.6-86.6 37.3-120.6 163.7-131 203.4 11.8-20.6 32.4-34.5 54-35z" fill="#DEE3A0" /><path d="M395.8 267.1c18.1-0.4 35.8 8.7 48.5 23.3 7.5-45.6 34.7-120.3 69-157 3.9-4.2 4.7-10.4 1.4-15.1-6.4-8.9-16.4-15.6-33.6-20.2-2.7-0.7-5.8-0.5-8.3 0.6-86.6 37.3-120.6 163.7-131 203.4 11.8-20.6 32.4-34.5 54-35z" fill="#DEE3A0" /><path d="M444.3 290.4c0.3-1.9 0.9-4.1 1.2-6.1-12.7-15.5-31.1-25.1-49.7-24.7-19.4 0.5-38.2 11.7-50.4 28.9-1.4 5.1-2.7 9.8-3.7 13.6 11.8-20.5 32.4-34.5 54-35 18.2-0.4 35.9 8.7 48.6 23.3z" opacity=".2" /><path d="M395.8 267.1c6.9-0.2 13.8 1.1 20.4 3.5-5.1-19.3 13.1-58.1 36.4-116.2-19.1 16.1-55.3 87-64.7 113.6 2.6-0.4 5.3-0.8 7.9-0.9z" fill="#7BAD37" opacity=".3" /><path d="M867.7 834.2c0.7-0.2 1.5-0.3 2.2-0.5 1.7-0.5 3.3-1.1 4.9-1.7 0.6-0.3 1.3-0.5 2-0.8 2.1-1.1 4.1-2.3 5.9-4 4.6-4.2 6.8-9.4 7.4-15 0.9-9.3-3-19.7-8.8-28-2.6-3.7-5.5-7.2-8.4-10.8-0.1-0.1-0.1-0.2-0.2-0.2-2-2.3-3.9-4.7-5.8-7.1-0.6-0.7-1.1-1.5-1.7-2.2-1.7-2.2-3.4-4.5-4.9-6.8-0.6-0.9-1.2-1.8-1.7-2.7-1.8-3.1-3.4-6.3-4.5-9.6 3.2-1.8 6.4-4 9.5-6.3 0.6-0.5 1.2-0.9 1.9-1.4 1.6-1.2 3.1-2.5 4.6-3.8 0.4-0.3 0.8-0.7 1.1-1 1.3-1.2 2.6-2.4 3.8-3.7 0.5-0.6 1-1.2 1.5-1.7 1.4-1.6 2.7-3.3 3.8-5 0.8-1.3 1.6-2.5 2.3-3.8 0.4-0.8 0.6-1.5 0.9-2.3 0.5-1.3 0.9-2.5 1.2-3.8 0.2-0.8 0.3-1.5 0.3-2.3 0.1-1.4 0.1-2.7-0.1-4.1-0.1-0.6-0.1-1.3-0.3-1.9-0.5-2-1.2-3.9-2.5-5.9-1.6-2.5-3.9-4.7-6.4-6.7-0.6-0.5-1.2-1.1-1.9-1.6-1.5-1.1-3.1-2.3-4.6-3.3-7.2-4.9-14.5-9.5-17.2-15.6-0.4-0.8-0.6-1.7-0.8-2.6-0.3-1.3-0.5-2.6-0.2-4.1 0.6-3.6 2.7-6.6 5.3-9.4 1.3-1.4 2.7-2.8 4.1-4.2 1.4-1.4 2.8-2.8 4-4.2 0.7-0.9 1.2-1.8 1.8-2.7 0 0 0-0.1 0.1-0.1 5.3-7.8 6.5-17.1 4.4-26.2 0-0.2-0.1-0.4-0.2-0.6-0.5-2-1.1-4-1.9-6-0.2-0.6-0.5-1.1-0.8-1.7-0.7-1.6-1.4-3.2-2.3-4.8-0.6-1-1.3-2-2-3-0.7-1.1-1.4-2.2-2.2-3.2-1.5-1.9-3.1-3.7-4.9-5.4-0.1-0.1-0.1-0.2-0.2-0.2-1.7-1.6-3.6-2.8-5.4-4.2-9.4-7.4-20.5-12.9-32.3-17.4-6.7-2.6-13.4-4.9-20.2-7.2-72.1-23.9-144.1-47.8-216.2-71.7-35.4-11.7-77.2-23-109.2-5.3-24.8 13.8-35.3 42.7-29.4 67.9 1.2 5.1 3.3 9.8 5.6 14.6-0.5-1.1-1.3-2-1.7-3.1-9.9 8.5-14.3 24-11.7 37.7 0.9 5 2.8 9.6 5.1 14-32.7-10.1-69.7-26.9-90.8-46.7-3.4-3.2-8.4-3.8-12.1-1.1-7.1 5.1-12.5 13.1-16.2 26.9-0.6 2.2-0.4 4.7 0.5 6.7 24.6 57.3 97.9 85.8 140.7 98.8 1.3 3.4 2 7.6-0.3 10.5-4.4 5.7-11.5 7.7-17.2 11.8-13.4 9.7-17.4 31-11.3 47.4 1.8 4.9 4.6 9.2 7.7 13.1-9.6 17.6-10.5 39.5-1.8 57.8 13.3 28 44.5 47.4 77.9 55.5 33.4 8.1 68.9 6.1 103.1 1.3 50.2-7.1 99.4-20.4 144.3-41.4 20.2-9.4 40.3-20.6 63.1-22.2 10.4-0.7 21.7 0.3 32.1-0.6 0.6 0 1.1-0.1 1.7-0.2 1.8-0.2 3.6-0.5 5.5-0.9zM494 710.7l2 2.6c-3.8-1.3-7.3-3-10.7-5 3.4 1.9 6.9 3.7 10.7 5l-2-2.6z m-28.9-21.5l0.6 0.9-0.6-0.9z m-5.8-12.6c0.2 0.6 0.3 1.2 0.5 1.8-0.2-0.6-0.3-1.2-0.5-1.8z m18.6-72.5c5 4 10.2 7.8 15.8 11.1-5.6-3.3-10.8-7.1-15.8-11.1z m-13.6-13c2.6 2.9 5.5 5.6 8.4 8.2-3-2.6-5.8-5.3-8.4-8.2z m-5.4-6.6c-2-2.6-3.9-5.3-5.6-8.1 1.7 2.8 3.6 5.5 5.6 8.1z m-6.8 186.6c-0.7 0.7-1.3 1.3-1.9 2 0.7-0.7 1.3-1.4 1.9-2z m49.6-29.9c-2.4 2.4-5.2 4.5-8.2 6.3-9 5.4-19.9 8.7-29.2 14 9.3-5.3 20.2-8.6 29.2-14 3-1.8 5.8-3.9 8.2-6.3 1.2-1.2 2.2-2.6 3-4.1-0.8 1.5-1.8 2.9-3 4.1z m4.9-8.8c0.9-3.2 1-6.7 0.4-9.8 0.6 3.2 0.5 6.6-0.4 9.8z" opacity=".2" /><path d="M530.8 719.4c-22.3-7.5-38.3-27.4-38.8-48.3s14.6-41.4 36.5-49.7c-24.2-14.6-44.3-35.9-50.3-61.2-6-25.2 4.5-54.1 29.4-67.9 32-17.8 73.8-6.5 109.2 5.3 72.1 23.9 144.1 47.8 216.2 71.7 21 7 42.7 14.4 57.9 28.8s21.6 38.1 8.1 53.8c-4.9 5.8-12.4 10.6-13.5 17.7-2.4 15 22.7 20.8 31.2 34 11.1 17-9.3 36.4-28 47.2 4.7 14.9 18 26.3 27.2 39.5s13.6 31.9 1.4 43c-13.2 12-35.5 7.3-54.4 8.6-22.8 1.5-42.9 12.8-63.1 22.2-44.9 21-94.1 34.3-144.3 41.4-34.2 4.8-69.7 6.8-103.1-1.3-33.4-8.1-64.6-27.5-77.9-55.5-13.3-28-4.5-64.6 24.5-81.2 12.3-7 27.7-10.5 37.3-20.3 9.7-9.7 7-29.6-7.7-30.5l2.2 2.7z" fill="#7BAD37" /><path d="M499.1 767.6c12.3-7 27.7-10.5 37.3-20.3 9.7-9.7 7-29.6-7.7-30.5l2 2.6c-22.3-7.5-38.3-27.4-38.8-48.3s14.6-41.4 36.5-49.7c-20.4-12.3-37.8-29.5-46.4-49.7-9.9 8.5-14.3 24-11.7 37.7 2.8 14.7 12 27.2 23.2 35.7-10.1 4.8-17 16.8-16.8 29 0.2 12.2 7.6 23.9 17.9 28.2 0 0 7.1 10.6 2.6 16.3-4.4 5.7-11.5 7.7-17.2 11.8-13.4 9.7-17.4 31-11.3 47.4 1.8 4.9 4.6 9.2 7.7 13.1 5.2-9.3 12.7-17.5 22.7-23.3z" fill="#7BAD37" /><path d="M499.1 767.6c12.3-7 27.7-10.5 37.3-20.3 9.7-9.7-5.7-27.9-5.7-27.9-22.3-7.5-38.3-27.4-38.8-48.3s14.6-41.4 36.5-49.7c-20.4-12.3-37.8-29.5-46.4-49.7-9.9 8.5-14.3 24-11.7 37.7 2.8 14.7 12 27.2 23.2 35.7-10.1 4.8-17 16.8-16.8 29 0.2 12.2 7.6 23.9 17.9 28.2 0 0 7.1 10.6 2.6 16.3-4.4 5.7-11.5 7.7-17.2 11.8-13.4 9.7-17.4 31-11.3 47.4 1.8 4.9 4.6 9.2 7.7 13.1 5.2-9.3 12.7-17.5 22.7-23.3zM856.6 587.2c13.4 14.2 19.9 36.4 12 53.4-140.4-31.1-351.4-3.7-269.5-4.8 62.9-0.8 181 19.9 252.3 33.6 0.6 14.7 23 21.3 31.1 35.1 8.7 15-2.2 31.4-16.3 43.6-165.1 42.8-227.1-16.7-203.8 5.3 25.2 23.7 102 40 207.2 30.5 4.2 5.6 8.4 11.1 12.1 16.9 7.7 12.2 11.9 28.6 6 40.9 11.3-0.2 22.1-1.5 29.7-8.4 12.2-11.1 7.8-29.8-1.4-43-2.6-3.7-5.5-7.2-8.4-10.8-0.1-0.1-0.2-0.3-0.3-0.4l-5.7-6.9c-0.6-0.7-1.1-1.5-1.7-2.3-1.7-2.2-3.4-4.5-4.9-6.8-0.6-0.9-1.2-1.8-1.7-2.7-1.8-3.1-3.4-6.3-4.5-9.6 3.1-1.8 6.3-3.9 9.3-6.2 0.7-0.5 1.4-1 2.1-1.6 14.3-11 25.3-25.9 16.6-39.4-7.1-11-25.6-16.9-30.2-27.3-0.4-0.8-0.6-1.7-0.8-2.6-0.3-1.3-0.5-2.6-0.2-4.1 1.1-7.1 8.6-12 13.5-17.7 0.8-0.9 1.2-1.9 1.9-2.8 10.6-15.6 4.4-37.4-10-51-15.2-14.4-37-21.8-57.9-28.8-0.8-0.3-1.5-0.5-2.3-0.8 9.5 5 18.5 10.9 25.8 18.7z" opacity=".2" /><path d="M492 671.1c-0.3-14.5 6.9-28.8 18.7-38.9-36.7-6-96.6-27.9-126-55.4-3.4-3.2-8.4-3.8-12.1-1.1-7.1 5.1-12.5 13.1-16.2 26.9-0.6 2.2-0.4 4.7 0.4 6.7 29.9 69.5 131.5 96.8 163.3 105.1-16.5-9.4-27.7-25.9-28.1-43.3z" fill="#DEE3A0" /><path d="M510.7 632.2c-1.5-0.3-3.3-0.7-4.9-1-12.4 10.2-20.2 24.9-19.8 39.9 0.4 15.6 9.4 30.7 23.2 40.4 4.1 1.1 7.9 2.2 10.9 2.9-16.5-9.4-27.7-26-28.1-43.4-0.3-14.4 7-28.6 18.7-38.8z" opacity=".2" /><path d="M411.3 624.5s49 27.5 84.7 27.1c-2.7 8.1-4 19.5-4 19.5s-68.3-32.3-80.7-46.6z" fill="#7BAD37" opacity=".3" /></svg>