<?xml version="1.0" standalone="no"?><!DOCTYPE svg PUBLIC "-//W3C//DTD SVG 1.1//EN" "http://www.w3.org/Graphics/SVG/1.1/DTD/svg11.dtd"><svg class="icon" width="81px" height="81.00px" viewBox="0 0 1024 1024" version="1.1" xmlns="http://www.w3.org/2000/svg"><path d="M419.8 257.5c27.3-19.1 60.9-52.6 84.1-85.3 12-17 28.5-19.7 41.7-18.4 12.9-2.9 29.6-2.2 43.6 13.1 27.1 29.7 64.5 58.7 94 74.2 29.5 15.6 61.5 116.9 51.8 190.2-9.7 73.3 3.6 104-38.1 143.5-35.7 33.8-98.3 67.8-101.7 149.4l-28.1 1.8c-13.5-80.5-79.9-106.6-119.5-135.6-46.3-34-36.9-66.1-55.6-137.6-18.6-71.7 0.5-176.2 27.8-195.3z" fill="#7BAD37" /><path d="M504.4 244.2c-0.4 0-0.6 4.6-0.4 13 0 8.4 1.2 20.5 3.5 35.2 4.4 29.6 15.9 68.9 29.9 111.3 6.9 21.2 13.2 41.5 18.2 60.1 4.8 18.7 8.6 35.7 10.5 50.3 4.2 29.1 3.2 47.5 4.5 47.6 0.4 0 0.9-4.5 1.3-12.9 0.3-4.2 0.4-9.3 0-15.3-0.3-5.9-0.4-12.8-1.4-20.2-1.4-14.9-4.8-32.4-9.4-51.5-4.8-19-11-39.5-17.9-60.8-14-42.4-26-80.9-31.5-109.8-5.6-28.6-6.2-47.1-7.3-47z" fill="#DEE3A0" /><path d="M497.2 358.8c-0.9 0.7 5.9 11.8 8.8 33 1.6 10.5 2.3 23.3 3.6 37.6 1.2 14.3 3.6 30.6 9.7 46.1 12.2 30.9 28.5 54.4 36.4 73.8 8.4 19.1 10 32.5 11.1 32.3 0.7 0 0.6-14.1-7-34.5-7.1-20.6-23.1-45.1-34.7-74.5-11.5-29.5-9.7-60.5-14.7-81.9-4.2-21.8-12.8-32.5-13.2-31.9z" fill="#DEE3A0" /><path d="M459.1 407.4c-0.8 0.4 3 13.7 10.4 34.7 7.1 21.1 19.8 49.5 37 77.8 17 28.4 30.6 55 36.4 76.4 6.1 21.1 5.9 35.3 6.9 35.3 0.6 0.1 2.6-14.4-2.7-36.7-4.9-22.4-18.4-50.6-35.4-78.9-17.2-28.3-30-55.3-38.2-75.8-8.4-20.5-13.6-33.2-14.4-32.8z" fill="#DEE3A0" /><path d="M470 493.4c-0.7 0.2-0.2 10.6 4.2 26.8 2.2 8 5.8 17.6 11.4 26.9 5.6 9.4 13 18.4 20.9 27.3 16.1 17.4 29.6 33.9 35.6 48.7 6.1 14.5 6.1 25.3 7.5 25 0.4 0 0.6-2.7 0.4-7.4 0.1-4.7-1.1-11.7-3.8-19.7-5.3-16.3-19.2-34.5-35.2-51.7-34.7-33.2-38.6-77-41-75.9z" fill="#DEE3A0" /><path d="M546.2 299.2c-2-0.6-6 19.6-6.3 44-0.2 24.4-4.7 42.9-3.3 43.7 0.7 0.4 3.3-4 5.5-11.9s3.7-19.2 4.1-31.5c0.4-24.6 1.5-43.8 0-44.3z" fill="#DEE3A0" /><path d="M555.4 250.2c-0.3 0-0.8 4.8 0.2 13.5 0.9 8.6 3.4 21 7.8 35.5 4.3 14.6 10.7 31.4 15.4 50.6 4.9 19.1 5.8 41.1 3.7 64.1-2 23-5.6 45.1-6.9 65.5-1.5 20.5-0.4 39.1 1.8 54.4 2.1 15.3 5.2 27.4 7.7 35.5 2.5 8.1 4.4 12.4 4.8 12.3 1.1-0.4-4.9-18.3-8-48.5-1.5-15.1-2.1-33.2-0.4-53.1 1.6-20 5.3-41.9 7.4-65.4 2.2-23.5 1.1-46.9-4.4-66.7-5.2-19.8-12-36.4-16.8-50.6-10.4-28.1-11.3-47.2-12.3-47.1z" fill="#DEE3A0" /><path d="M600.8 260.7c-1.8 0-2.8 17-7.8 36.8-4.9 19.9-11.9 34.9-10.3 36 1.3 1.1 11.2-12.9 16.4-34 5.2-21.1 3.3-39 1.7-38.8z" fill="#DEE3A0" /><path d="M632.6 330.3c-2.1-0.4-5.7 38.4-17.9 83.4-12 45.4-33.3 75.8-31.9 77 1.1 1.6 25.5-28 37.9-74.8 6.4-23 9.4-44.6 11.1-60.2 1.6-15.5 1.7-25.3 0.8-25.4z" fill="#DEE3A0" /><path d="M646.1 427.9c-1-0.1-1.8 12.2-7.4 30.6-5.2 18.6-16.3 42.5-27.9 69.8-11.5 27.4-18 54.9-17.5 75.3 0.3 20.5 5.8 31.9 6.3 31.5 1.1-0.4-2.7-12.1-1.9-31.4 0.6-19.4 7.4-45.4 18.7-72.3 11.4-26.9 22.2-51.8 26.4-71.4 4.8-19.4 3.9-32.1 3.3-32.1z" fill="#DEE3A0" /><path d="M654.1 483.7c-1.9-0.4-7.7 41-26.8 87-4.7 11.4-9.9 22.4-13.1 33.3-3.4 10.9-4.1 21.6-4 30 0.5 17 0.5 27.1 1.2 27.3 1 0.2 2.6-10.4 3.2-27.1 0.5-8.3 1.5-17.9 5-27.9 3.3-10.1 8.5-20.7 13.3-32.4 9.7-23.5 15.5-46.2 18.5-62.8 3.1-16.8 3.5-27.3 2.7-27.4zM521.3 834.7c14.6-59.8 9-113.4 15.3-147.8 6-32.6 28.2-132.1 38.4-177.7 10.2 45.5 32.4 145 38.4 177.7 6.3 34.3 0.7 87.9 15.3 147.8 8.4 34.3-5.9 71.6-31.9 83.9-8 3.8-15.3 5.4-21.9 5.3-6.6 0.1-13.9-1.5-21.9-5.3-25.8-12.3-40.1-49.6-31.7-83.9z" fill="#DEE3A0" /><path d="M623.7 816.9s40.8 68.3 0 103.3-68.4 23.7-103.2 20.6c-34.7-3.1-50.8-19.7-50.8-19.7s18.6-7.5 34.2-40.1 20.8-62 20.8-62l99-2.1z" fill="#DEE3A0" /><path d="M620.6 414c-19.7-13.8-44-37.9-60.7-61.6-8.7-12.2-20.6-14.2-30.1-13.3-9.3-2.1-21.4-1.6-31.5 9.5-19.6 21.4-46.6 42.3-67.9 53.6-21.3 11.2-44.4 84.4-37.4 137.3 7 52.9-2.6 75.1 27.5 103.6 25.7 24.4 71 49 73.4 107.9l20.3 1.3c9.7-58.1 57.7-76.9 86.2-97.9 33.4-24.6 26.7-47.7 40.2-99.4s-0.3-127.2-20-141z" fill="#7BAD37" /><path d="M559.6 404.4c0.3 0 0.4 3.3 0.3 9.4 0 6-0.9 14.8-2.5 25.4-3.2 21.4-11.5 49.8-21.6 80.3-5 15.3-9.5 30-13.1 43.4-3.4 13.5-6.2 25.8-7.6 36.3-3 21-2.3 34.3-3.2 34.3-0.3 0-0.6-3.3-0.9-9.3-0.2-3-0.3-6.7 0-11 0.2-4.3 0.3-9.2 1-14.5 1-10.8 3.5-23.4 6.8-37.2 3.5-13.7 7.9-28.5 12.9-43.9 10.1-30.6 18.8-58.4 22.7-79.2 3.9-20.7 4.3-34 5.2-34z" fill="#DEE3A0" /><path d="M564.8 487.1c0.7 0.5-4.3 8.5-6.4 23.8-1.2 7.6-1.7 16.8-2.6 27.2-0.8 10.3-2.6 22.1-7 33.3-8.8 22.3-20.6 39.3-26.3 53.3-6.1 13.8-7.2 23.5-8 23.3-0.5 0-0.4-10.2 5.1-24.9 5.1-14.8 16.6-32.5 25-53.8 8.3-21.3 7-43.7 10.6-59.1 3-15.8 9.3-23.5 9.6-23.1z" fill="#DEE3A0" /><path d="M592.3 522.2c0.5 0.3-2.1 9.9-7.5 25-5.2 15.2-14.3 35.7-26.7 56.1-12.3 20.5-22.1 39.7-26.3 55.1-4.4 15.3-4.2 25.5-5 25.5-0.5 0.1-1.9-10.4 1.9-26.5 3.5-16.2 13.3-36.5 25.5-57 12.4-20.4 21.6-39.9 27.6-54.7 6.1-14.6 9.8-23.8 10.5-23.5z" fill="#DEE3A0" /><path d="M584.4 584.3c0.5 0.1 0.1 7.6-3 19.3-1.6 5.8-4.2 12.7-8.2 19.4-4 6.8-9.4 13.3-15.1 19.7-11.6 12.6-21.3 24.5-25.7 35.1-4.4 10.5-4.4 18.3-5.4 18.1-0.3 0-0.4-1.9-0.3-5.3-0.1-3.4 0.8-8.5 2.7-14.2 3.8-11.8 13.9-24.9 25.4-37.4 25-23.9 27.8-55.5 29.6-54.7z" fill="#DEE3A0" /><path d="M529.3 444.1c1.4-0.4 4.3 14.1 4.5 31.8 0.1 17.6 3.4 31 2.4 31.6-0.5 0.3-2.4-2.9-3.9-8.6-1.6-5.7-2.7-13.9-3-22.8-0.2-17.8-1-31.6 0-32z" fill="#DEE3A0" /><path d="M522.7 408.8c0.2 0 0.6 3.5-0.1 9.7-0.6 6.2-2.4 15.1-5.7 25.6-3.1 10.6-7.7 22.7-11.1 36.5-3.6 13.8-4.2 29.6-2.7 46.3 1.4 16.6 4 32.5 5 47.3 1.1 14.8 0.3 28.2-1.3 39.3-1.5 11.1-3.7 19.8-5.6 25.7-1.8 5.9-3.2 9-3.5 8.9-0.8-0.3 3.5-13.2 5.8-35 1.1-10.9 1.5-24 0.3-38.4-1.1-14.4-3.9-30.2-5.3-47.2-1.6-16.9-0.8-33.8 3.2-48.1 3.7-14.3 8.7-26.2 12.1-36.5 7.5-20.5 8.2-34.2 8.9-34.1z" fill="#DEE3A0" /><path d="M490 416.3c1.3 0 2 12.3 5.6 26.6 3.5 14.4 8.6 25.2 7.4 26-1 0.8-8.1-9.3-11.8-24.6-3.8-15.2-2.4-28.1-1.2-28z" fill="#DEE3A0" /><path d="M467 466.6c1.6-0.3 4.1 27.7 12.9 60.2 8.6 32.8 24.1 54.7 23 55.6-0.8 1.2-18.4-20.2-27.3-54-4.6-16.6-6.8-32.2-8-43.4-1.2-11.3-1.2-18.3-0.6-18.4z" fill="#DEE3A0" /><path d="M457.3 537c0.8-0.1 1.3 8.8 5.3 22.1 3.8 13.4 11.8 30.7 20.1 50.4s13 39.6 12.6 54.4c-0.2 14.8-4.2 23-4.6 22.8-0.8-0.3 2-8.7 1.3-22.7-0.4-14-5.3-32.8-13.5-52.2-8.2-19.4-16-37.4-19.1-51.5-3.2-14.1-2.6-23.3-2.1-23.3z" fill="#DEE3A0" /><path d="M451.4 577.3c1.4-0.3 5.6 29.6 19.3 62.8 3.4 8.3 7.1 16.1 9.4 24 2.5 7.8 3 15.6 2.9 21.7-0.3 12.3-0.4 19.6-0.9 19.7-0.7 0.2-1.9-7.5-2.3-19.6-0.4-6-1.1-12.9-3.6-20.1-2.4-7.3-6.1-14.9-9.6-23.4-7-17-11.2-33.3-13.3-45.3-2.1-12.1-2.4-19.7-1.9-19.8zM547.4 830.6c-10.6-43.2-6.5-81.9-11.1-106.7-4.4-23.6-20.4-95.4-27.7-128.2-7.4 32.9-23.4 104.7-27.7 128.2-4.6 24.8-0.5 63.5-11.1 106.7-6.1 24.8 4.3 51.7 23 60.5 5.8 2.7 11 3.9 15.8 3.8 4.8 0 10-1.1 15.8-3.8 18.7-8.8 29-35.7 23-60.5z" fill="#DEE3A0" /><path d="M473.4 817.8s-29.4 49.3 0 74.6c29.4 25.2 49.4 17.1 74.5 14.8C573 905 584.6 893 584.6 893s-13.5-5.4-24.7-29c-11.2-23.5-15-44.8-15-44.8l-71.5-1.4z" fill="#DEE3A0" /><path d="M560.5 887.2c-11.5-24.1-17.9-46.5-21.1-59.2-4.6-20.4-7-39.9-8.6-58.4-1.4 18.5-3.6 38.3-8.3 58.9-2.8 11.2-8.5 31-18.7 52.4-15.5 32.6-34.2 40.1-34.2 40.1s16.1 16.6 50.8 19.7c23 2 42.9 7.6 65.6 1 8.7-4.9 13.1-9.3 13.1-9.3s-21-8.3-38.6-45.2zM683.3 241c-29.5-15.6-67-44.6-94-74.2-14-15.3-30.7-16-43.6-13.1-13.2-1.2-29.7 1.5-41.7 18.4-23.2 32.8-56.8 66.2-84.1 85.3-27.3 19.1-46.5 123.7-27.8 195.2 18.7 71.5 9.3 103.6 55.6 137.6 20.5 15 48.1 29.3 71.9 50.7 30.1-39.1 74.1-59.9 104.3-82.1 52.3-38.4 41.7-74.7 62.9-155.5 13.1-50.1 9.8-114.4-2-161.3-0.5-0.2-1-0.7-1.5-1z" opacity=".2" /><path d="M639.8 183c-30.9-21.6-68.8-59.4-95-96.4-13.6-19.2-32.2-22.2-47.1-20.8-14.6-3.2-33.5-2.5-49.3 14.8-30.6 33.5-72.9 66.3-106.2 83.9s-69.5 132.1-58.5 214.8c10.9 82.8-4.1 117.5 43 162.1 40.3 38.1 111 76.6 114.9 168.8l31.7 2c15.2-91 90.2-120.4 134.9-153.2 52.3-38.4 41.7-74.7 62.9-155.5s-0.5-198.9-31.3-220.5z" fill="#7BAD37" /><path d="M544.3 168c0.5 0 0.6 5.2 0.5 14.7 0 9.5-1.3 23.1-3.9 39.8-5 33.4-18 77.9-33.8 125.7-7.8 24-14.9 46.9-20.6 67.9-5.4 21.1-9.7 40.4-11.9 56.8-4.7 32.8-3.7 53.7-5.1 53.7-0.5 0-1-5.1-1.5-14.6-0.3-4.7-0.5-10.5-0.1-17.2 0.3-6.7 0.4-14.4 1.6-22.8 1.5-16.9 5.5-36.6 10.6-58.1 5.4-21.4 12.4-44.6 20.2-68.7 15.8-47.9 29.4-91.4 35.5-124 6.5-32.5 7.2-53.3 8.5-53.2z" fill="#DEE3A0" /><path d="M552.4 297.4c1.1 0.7-6.7 13.3-9.9 37.3-1.8 11.9-2.6 26.3-4 42.5-1.3 16.1-4.1 34.6-11 52.1-13.8 34.9-32.2 61.4-41.1 83.4-9.5 21.6-11.3 36.7-12.5 36.5-0.8 0-0.7-15.9 7.9-38.9 8-23.2 26-50.9 39.1-84.2 13-33.3 11-68.4 16.6-92.5 4.7-24.7 14.5-36.9 14.9-36.2z" fill="#DEE3A0" /><path d="M595.4 352.3c0.9 0.4-3.4 15.5-11.7 39.2-8.1 23.8-22.4 55.9-41.8 87.8-19.2 32-34.5 62.2-41.1 86.3-6.9 23.9-6.6 39.9-7.8 39.8-0.7 0.2-2.9-16.3 3-41.5 5.5-25.3 20.8-57.1 40-89.1 19.4-31.9 33.8-62.4 43.1-85.6 9.5-23 15.4-37.3 16.3-36.9z" fill="#DEE3A0" /><path d="M583.1 449.5c0.8 0.2 0.2 11.9-4.7 30.3-2.5 9.1-6.5 19.9-12.9 30.4-6.3 10.6-14.6 20.8-23.6 30.8-18.2 19.7-33.4 38.3-40.2 55-6.9 16.4-6.9 28.6-8.4 28.2-0.5-0.1-0.6-3-0.5-8.3-0.1-5.3 1.2-13.2 4.3-22.3 6-18.4 21.7-39 39.8-58.5 39-37.4 43.5-86.9 46.2-85.6z" fill="#DEE3A0" /><path d="M497 230.1c2.2-0.7 6.8 22.1 7.1 49.7 0.2 27.6 5.3 48.5 3.7 49.4-0.8 0.4-3.7-4.5-6.2-13.4s-4.2-21.7-4.7-35.6c-0.3-27.9-1.5-49.5 0.1-50.1z" fill="#DEE3A0" /><path d="M486.6 174.8c0.3 0 0.9 5.5-0.2 15.2-1 9.7-3.8 23.7-8.9 40.1-4.9 16.5-12.1 35.5-17.4 57.2-5.6 21.6-6.6 46.4-4.2 72.4 2.2 26 6.3 50.9 7.8 74 1.7 23.1 0.4 44.2-2 61.4-2.4 17.3-5.9 30.9-8.7 40.1-2.9 9.2-5 14-5.4 13.8-1.2-0.4 5.6-20.7 9.1-54.8 1.7-17 2.4-37.5 0.4-60-1.8-22.6-6-47.3-8.3-73.9-2.5-26.5-1.2-52.9 5-75.3 5.9-22.4 13.6-41.1 19-57.1 11.7-31.7 12.7-53.2 13.8-53.1z" fill="#DEE3A0" /><path d="M435.4 186.6c2.1 0 3.1 19.2 8.8 41.6 5.5 22.5 13.4 39.4 11.6 40.7-1.5 1.3-12.6-14.6-18.5-38.4-5.9-23.8-3.7-44.1-1.9-43.9z" fill="#DEE3A0" /><path d="M399.4 265.3c2.4-0.4 6.4 43.3 20.2 94.2 13.5 51.3 37.6 85.6 36 87-1.2 1.8-28.8-31.6-42.8-84.5-7.3-26-10.7-50.4-12.5-67.9-1.7-17.7-1.9-28.7-0.9-28.8z" fill="#DEE3A0" /><path d="M384.2 375.5c1.2-0.1 2.1 13.7 8.3 34.6 5.9 21 18.4 48 31.5 78.8 13 30.9 20.4 62 19.8 85.1-0.3 23.1-6.6 36-7.1 35.6-1.3-0.4 3.1-13.6 2.1-35.5-0.7-21.9-8.4-51.3-21.2-81.7-12.9-30.4-25-58.5-29.9-80.6-5.2-22-4.2-36.3-3.5-36.3z" fill="#DEE3A0" /><path d="M375.1 438.5c2.1-0.5 8.7 46.3 30.2 98.3 5.3 12.9 11.1 25.3 14.8 37.6 3.9 12.3 4.7 24.4 4.5 33.9-0.5 19.2-0.6 30.6-1.4 30.8-1.1 0.3-2.9-11.8-3.6-30.6-0.6-9.4-1.8-20.2-5.7-31.5-3.7-11.4-9.6-23.3-15.1-36.6-10.9-26.5-17.5-52.2-20.8-70.9-3.3-19-3.8-30.9-2.9-31zM544.8 887.2c-11.5-24.1-18-46.5-21.1-59.2-14.5-64.8-9-122.5-15.9-160-6.8-36.9-31.9-149.2-43.4-200.7-11.5 51.5-36.6 163.9-43.4 200.7-6.6 35.9-1.9 90.4-14.2 151.8-9.1 17.4-36.5 78.1 2.7 111.7 46.1 39.5 77.3 26.7 116.5 23.2s57.4-22.3 57.4-22.3-21-8.3-38.6-45.2z" fill="#DEE3A0" /><path d="M693.4 216.1c-31-16.3-70.3-46.8-98.7-77.9-14.7-16.1-32.2-16.8-45.8-13.8-13.9-1.3-31.1 1.6-43.7 19.4-24.3 34.4-59.6 69.5-88.3 89.6-28.7 20.1-48.8 129.8-29.1 204.9 19.7 75.1 9.8 108.8 58.4 144.5 28.5 20.9 70.1 40.3 98.1 77.6-2 9.6-3.6 17.8-4.7 23.8-6.4 34.8-1.3 88.5-14.8 148.7-2.9 11.8-8.9 32.6-19.6 55-16.3 34.2-35.9 42.1-35.9 42.1s16.9 17.5 53.3 20.7c36.5 3.2 65.5 15.1 108.3-21.6 36.4-31.2 10.9-87.7 2.5-103.9-11.4-57.1-7-107.8-13.2-141.1-1-5.3-2.4-12.5-4.1-20.7 22.4-45.2 64.5-71.3 91.7-97.1 43.8-41.5 29.8-73.7 40-150.6 10.2-76.9-23.4-183.3-54.4-199.6z" opacity=".2" /><path d="M443.8 233.3c28.7-20.1 63.9-55.2 88.3-89.6 12.6-17.8 29.9-20.7 43.7-19.4 13.6-3 31.1-2.3 45.8 13.8 28.4 31.1 67.8 61.6 98.7 77.9s64.6 122.7 54.4 199.7 3.8 109.2-40 150.6c-37.4 35.4-103.2 71.2-106.7 156.9l-29.5 1.8c-14.2-84.5-83.9-111.9-125.4-142.4-48.6-35.7-38.8-69.4-58.4-144.5s0.4-184.7 29.1-204.8z" fill="#7BAD37" /><path d="M532.5 219.4c-0.5 0-0.6 4.8-0.4 13.6 0 8.8 1.2 21.5 3.6 36.9 4.6 31.1 16.7 72.4 31.4 116.8 7.2 22.3 13.8 43.6 19.1 63.1 5 19.6 9.1 37.5 11.1 52.8 4.4 30.5 3.4 49.9 4.7 50 0.5 0 0.9-4.8 1.4-13.6 0.3-4.4 0.5-9.8 0.1-16-0.3-6.2-0.4-13.4-1.5-21.2-1.4-15.7-5.1-34-9.8-54-5.1-19.9-11.5-41.5-18.8-63.8-14.7-44.5-27.3-84.9-33-115.2-6.1-30.1-6.6-49.5-7.9-49.4z" fill="#DEE3A0" /><path d="M525 339.7c-1 0.7 6.2 12.4 9.2 34.6 1.7 11 2.4 24.4 3.8 39.5 1.2 15 3.8 32.1 10.2 48.4 12.8 32.4 30 57.1 38.2 77.5 8.8 20.1 10.5 34.1 11.6 33.9 0.7 0 0.6-14.8-7.4-36.2-7.4-21.6-24.2-47.3-36.4-78.3-12.1-31-10.2-63.6-15.4-86-4.3-22.8-13.4-34-13.8-33.4z" fill="#DEE3A0" /><path d="M485 390.7c-0.8 0.4 3.1 14.4 10.9 36.4 7.5 22.1 20.8 51.9 38.9 81.6 17.8 29.8 32.1 57.8 38.2 80.2 6.4 22.2 6.1 37.1 7.3 37 0.5 0.1 5.7-2.8 4.2-16.4-0.6-4.9-5.5-15.9-7-22.1-5.1-23.6-19.3-53.1-37.2-82.9-18-29.7-31.5-58-40.1-79.6-8.9-21.3-14.3-34.6-15.2-34.2z" fill="#DEE3A0" /><path d="M496.4 481c-0.7 0.2-0.2 11.1 4.4 28.1 2.3 8.4 6 18.5 12 28.3 5.9 9.8 13.6 19.3 21.9 28.7 16.9 18.3 31 35.6 37.3 51.1 6.4 15.2 6.4 26.5 7.8 26.3 0.5-0.1 0.6-2.8 0.4-7.8 0.1-4.9-1.1-12.3-4-20.7-5.6-17.1-20.2-36.2-37-54.3-36.1-34.9-40.2-80.9-42.8-79.7z" fill="#DEE3A0" /><path d="M576.5 277.1c-2.1-0.6-6.3 20.6-6.6 46.2-0.2 25.6-4.9 45-3.4 45.9 0.8 0.4 3.4-4.2 5.7-12.4 2.4-8.3 3.9-20.2 4.3-33.1 0.3-25.9 1.5-46.1 0-46.6z" fill="#DEE3A0" /><path d="M586.1 225.7c-0.3 0-0.8 5.1 0.2 14.1 0.9 9.1 3.5 22 8.2 37.3 4.5 15.3 11.2 33 16.2 53.2 5.2 20.1 6.1 43.1 3.9 67.3-2.1 24.2-5.8 47.3-7.2 68.8-1.5 21.5-0.4 41.1 1.9 57.1 2.2 16.1 5.5 28.8 8.1 37.3 2.6 8.6 4.6 13 5 12.9 1.1-0.4-5.2-19.2-8.4-50.9-1.6-15.8-2.2-34.8-0.4-55.8 1.7-21 5.6-44 7.7-68.7 2.3-24.6 1.1-49.2-4.6-70-5.4-20.8-12.6-38.2-17.6-53.1-11-29.6-11.9-49.6-13-49.5z" fill="#DEE3A0" /><path d="M633.7 236.7c-1.9 0-2.9 17.8-8.2 38.7-5.1 20.9-12.5 36.6-10.8 37.8 1.4 1.2 11.8-13.6 17.2-35.7 5.6-22.2 3.5-41 1.8-40.8z" fill="#DEE3A0" /><path d="M667.2 309.8c-2.3-0.4-6 40.3-18.8 87.5-9.1 34.7-31.8 70.4-39.7 86.3-2.9 5.9-0.2 15.6 0.2 16 0.2 0.4 2.3-1.8 3.8-6.3 5.1-15.2 31.9-55.3 42.1-93.7 6.8-24.2 9.9-46.8 11.6-63.2 1.6-16.3 1.7-26.5 0.8-26.6z" fill="#DEE3A0" /><path d="M681.3 412.3c-1.1-0.1-1.9 12.8-7.7 32.1-5.5 19.5-17.1 44.6-29.3 73.2-12.1 28.7-18.9 57.7-18.4 79.1 0.3 21.5 6.1 33.5 6.6 33.1 1.2-0.4-2.9-12.7-1.9-33 0.6-20.3 7.8-47.7 19.7-75.9 12-28.3 23.3-54.4 27.7-74.9 4.9-20.4 4-33.8 3.3-33.7z" fill="#DEE3A0" /><path d="M689.8 470.8c-2-0.5-8.1 43-28.1 91.3-4.9 12-10.4 23.5-13.7 34.9-3.6 11.4-11.6 37.5-11.5 46.3 0.5 17.8 1.5 13.6 2.2 13.8 1 0.2 3.7-6.6 7.9-23.6 2.9-10.6 3.4-23.6 7.1-34.1 3.5-10.6 8.9-21.7 14-34.1 10.1-24.7 16.3-48.5 19.4-65.9 3.1-17.4 3.5-28.4 2.7-28.6z" fill="#DEE3A0" /><path d="M660.3 825.2c-11.4-57.1-7-107.8-13.2-141.1-6.3-34.3-29.6-138.7-40.4-186.5-10.7 47.8-34 152.3-40.4 186.5-6.4 34.8-1.3 88.5-14.8 148.7-2.9 11.8-8.9 32.6-19.6 55-16.3 34.2-35.9 42.1-35.9 42.1s16.9 17.5 53.3 20.7c36.5 3.2 65.5 15.1 108.3-21.6 36.6-31.1 11.1-87.6 2.7-103.8z" fill="#DEE3A0" /><path d="M326.4 230.9c14.1-15.9 32-45.6 44.9-76 6.7-15.7 14.7-16.4 20.9-13.4 6.3-1.3 14.2 1.5 19.9 18.9 11.1 33.6 27.1 67.8 40.2 87.4 13.1 19.6 22.2 126.6 13.3 199.8-8.9 73.2-4.5 106.1-26.6 140.9-13 20.4-31.9 39.3-44.6 75.7 0.9 9.4 1.7 17.4 2.2 23.3 2.9 33.9 0.6 86.3 6.7 145 1.3 11.5 4.1 31.8 8.9 53.7 7.4 33.4 86.9 73.5 86.9 73.5s-65.9-5.2-82.5-2c-16.6 3.2-42.1 4.5-61.6-31.3-16.6-30.5-5-85.5-1.1-101.3 5.2-55.7 3.2-105.1 6-137.6 0.4-5.2 1.1-12.2 1.9-20.2-10.2-44.1-29.4-69.5-41.8-94.7-20-40.5-13.6-71.9-18.2-146.9-4.8-75.1 10.5-178.9 24.6-194.8z" opacity=".2" /><path d="M440 247.7c-13.1-19.6-29.1-53.8-40.2-87.4-5.7-17.4-13.6-20.2-19.9-18.9-6.2-2.9-45.4 4.3-52.1 20-12.9 30.4-32 62.9-46.1 78.8-14.1 15.9-38.3 106.9-33.7 182 4.6 75 39.6 109.9 59.6 150.3 17 34.6 47 69.5 48.6 153l13.4 1.8c6.5-82.5 38.2-109.1 57.1-138.9 22.1-34.8 17.6-67.7 26.6-140.9 8.9-73.2-0.2-180.2-13.3-199.8z" fill="#7BAD37" /><path d="M363.3 234.5c0.3 0 0.9 4.7 1.8 13.2 1 8.5 1.8 20.9 2.3 36 1.1 30.4-0.8 71.2-3.7 115.2-1.4 22.1-2.5 43.1-3.2 62.4-0.5 19.4-0.6 36.9 0.1 51.9 1.1 29.9 3.9 48.6 3.2 48.7-0.2 0.1-1.1-4.6-2.3-13-0.7-4.2-1.4-9.4-1.9-15.5-0.6-6.1-1.3-13-1.6-20.6-1-15.3-1.2-33.3-0.9-53 0.5-19.6 1.5-40.9 2.9-63 2.9-44.1 5.1-84 4.8-113.8-0.3-29.7-2.2-48.5-1.5-48.5z" fill="#DEE3A0" /><path d="M381.4 350.5c0.6 0.6-2 12.4-1.1 34.2 0.3 10.8 1.5 23.8 2.5 38.5 1.1 14.6 1.6 31.4 0 47.6-3.3 32.2-9.8 57.3-12 77.6-2.5 20-1.8 33.7-2.5 33.6-0.4 0.1-2.1-14.3-0.1-35.5 1.6-21.4 7.8-47.4 10.9-78.2 3-30.8-1.8-62.2-1.5-84.3-0.2-22.6 3.5-34.1 3.8-33.5z" fill="#DEE3A0" /><path d="M409.3 397.3c0.5 0.3 0 14.1-1.8 36-1.6 21.9-5.4 51.7-11.9 81.6-6.3 30-10.9 58.1-11.7 80.2-1 21.9 0.9 36.3 0.3 36.3-0.4 0.2-3.2-14.4-2.9-37.5 0.1-23.1 4.5-52.7 10.8-82.7 6.5-29.9 10.5-58.3 12.8-79.7 2.4-21.3 3.8-34.6 4.4-34.2z" fill="#DEE3A0" /><path d="M413.5 485.4c0.4 0.1 1.4 10.7 0.9 27.5-0.3 8.3-1.2 18.3-3.3 28.2-2.1 9.9-5.2 19.6-8.7 29.2-7.2 18.8-12.9 36.5-14.6 51.9-1.8 15.2-0.4 26.1-1.3 25.9-0.3 0-0.6-2.7-1.1-7.5-0.6-4.8-0.8-12-0.2-20.3 1.1-16.9 6.9-36.4 14-55 15.8-36.1 12.7-80.9 14.3-79.9z" fill="#DEE3A0" /><path d="M345.8 293.3c1.1-0.8 5.9 19.5 9 44.3 3.1 24.8 7.9 43.3 7.2 44.2-0.4 0.4-2.4-3.8-4.6-11.7-2.3-7.8-4.5-19.3-6.2-31.8-3.2-25-6.1-44.4-5.4-45z" fill="#DEE3A0" /><path d="M334.6 244.1c0.2 0 1 4.9 1.5 13.7 0.5 8.8 0.6 21.5-0.2 36.7-0.7 15.2-2.3 32.7-2.7 52.5-0.5 19.8 1.6 42.2 5.7 65.5 3.9 23.3 8.7 45.4 12 66.2 3.3 20.7 5 39.7 5.6 55.4 0.7 15.7 0.3 28.2-0.1 36.7-0.5 8.5-1 12.9-1.3 12.8-0.7-0.3 0.6-18.9-1.3-49.9-1-15.4-2.8-33.9-6.2-54-3.4-20.2-8.2-42.2-12.2-66-4.1-23.7-6.3-47.6-5.6-68.1 0.6-20.5 2.5-37.8 3.5-52.6 2.5-29.5 0.7-48.9 1.3-48.9z" fill="#DEE3A0" /><path d="M309.7 257.9c1.1-0.1 3.7 17.1 9 36.9 5.2 19.9 11.1 34.6 10.3 35.9-0.6 1.2-8-12.4-13.6-33.5-5.6-21-6.7-39.4-5.7-39.3z" fill="#DEE3A0" /><path d="M299.8 330.9c1.2-0.5 7.9 38.6 20.5 83.5 12.4 45.3 28.5 74.7 27.8 76.1-0.4 1.7-18.1-26.7-31-73.4-6.5-22.9-10.9-44.7-13.7-60.4-2.9-15.7-4.1-25.6-3.6-25.8z" fill="#DEE3A0" /><path d="M303.9 431.1c0.6-0.2 2.5 12.2 8 30.6 5.3 18.6 14.6 42.1 24.6 69 10 27 17.1 54.6 19.3 75.3 2.3 20.8 0.5 32.8 0.2 32.5-0.7-0.3 0.1-12.5-2.8-32.1-2.7-19.6-9.8-45.6-19.6-72.2-9.9-26.6-19.1-51.1-23.9-70.7-5.1-19.5-6.2-32.4-5.8-32.4z" fill="#DEE3A0" /><path d="M306.1 488.3c1-0.6 9.4 41.1 26 86.6 4.1 11.3 8.4 22.1 11.6 32.9 3.3 10.8 5 21.6 6 30.2 1.8 17.3 3 27.6 2.6 27.8-0.5 0.3-2.7-10.4-5.2-27.3-1.3-8.4-3.1-18.1-6.3-28-3.1-10-7.4-20.4-11.6-32.1-8.4-23.2-14.6-45.9-18.3-62.6-3.8-16.6-5.3-27.3-4.8-27.5z" fill="#DEE3A0" /><path d="M399.8 886.1c-4.9-21.9-7.6-42.1-8.9-53.6-6.1-58.7-3.8-111.1-6.7-145.1-2.9-33.4-13.5-135.3-18.4-181.9-4.9 46.6-15.5 148.5-18.4 181.9-2.8 32.5-0.8 81.9-6 137.6-3.8 15.8-15.5 70.8 1.1 101.3 19.5 35.8 45 34.5 61.6 31.3 16.6-3.2 82.5 2 82.5 2s-79.3-40.1-86.8-73.5z" fill="#DEE3A0" /></svg>