<?xml version="1.0" standalone="no"?><!DOCTYPE svg PUBLIC "-//W3C//DTD SVG 1.1//EN" "http://www.w3.org/Graphics/SVG/1.1/DTD/svg11.dtd"><svg class="icon" width="81px" height="81.00px" viewBox="0 0 1024 1024" version="1.1" xmlns="http://www.w3.org/2000/svg"><path d="M871.2 272.4c24.4-0.5 48.8-1.1 73.1-1.6 1.8 0 3.7 0 5.2 1 1.9 1.2 2.5 3.6 3 5.8 2.3 10.2 4.5 20.3 6.8 30.5 0.6 2.7 1.1 5.8-0.7 7.9-1.7 2-4.6 2.1-7.2 2.2-12.9 0.5-25.7 4.3-36.8 10.9-8.5 5.1-18.1 12-27.2 8.1-7.5-3.2-10.2-12.3-12-20.3-2.8-12.5-5.6-24.9-8.4-37.4l4.2-7.1z" fill="#DEE3A0" /><path d="M891.8 288.1c8.6-2.7 41.1-4 41.1-4l-41.1 14.7 44.4 5.7-44.4 19.4-7.4-32.5 7.4-3.3z" fill="#7BAD37" opacity=".3" /><path d="M64.1 628c7.6-45.2 72.8-55.6 110.8-81.1 35.6-23.9 72.2-46.5 104.8-74.4 20.5-17.5 39.2-36.9 59.8-54.4 29.8-25.2 63.1-46 98-63.4 65.5-32.6 136.1-53.4 206.9-71.8 77.5-20.1 147.9-40.4 225-18.9 10 2.8 15.6 16.1 22.3 24.1 11.2 13.3 19.2 35.9 15.9 53-3.7 19.1-1.9 29.5-14.2 44.6-11.9 14.6-29.9 22.5-47.2 30-112 48.3-225.6 97.2-346.3 115.1-88.2 13.1-181.4 10.1-261.4 49.6-28.1 13.9-53.7 32.7-82.4 45.4-28.7 12.7-53.9 30.3-82.5 17.6 0.2-0.1-10.2-10.9-9.5-15.4z" fill="#7BAD37" /><path d="M884.4 277.7c-4.1-6.1-8.6-12-14.9-13.7-14.1-3.9-28.1-6.4-41.8-7.8-22.6 20.3-55 29.5-85.1 37.8-111.7 30.8-220.7 71.4-325.2 121.2-50.2 23.9-195.9 113.6-234.3 154C234 527.7 370.2 459.3 417.3 438c29.7-13.4 61.4-21.7 92.5-31.6 126-40.1 245.1-107.2 374.6-128.7zM907.7 341.1c2.5-13.1-1.6-29.3-8.7-42.2-6.8 4-13.8 7.6-21.1 10.7-19.9 8.4-41.2 13-62.1 18.5-63.6 16.6-124.9 40.9-185.9 65.1-35.3 14-70.5 28-105.8 42C432 471.7 339.5 508.4 253 556.9c35.8-11.4 68.4-29.9 104.1-41.7 47.6-15.8 98.4-25.2 143.3-47.5 27.6-13.7 54.2-29.7 82.5-41.9 30.2-13 62.2-21.5 94-30 57.3-15.3 114.6-30.6 172.8-41.8 19.5-3.7 39.1-7.1 58-12.9z" opacity=".2" /><path d="M893.5 385.7c12.3-15 10.5-25.5 14.2-44.6-12.3 2.3-24.7 4.6-37 6.9-1-0.9-2.1-1.8-3.2-2.5-0.3-0.2-0.7-0.4-1.1-0.6-1.7-1-3.4-1.8-5.3-2-7.2-0.8-14.1-1-21-1-2.2 0-4.4 0.1-6.5 0.1-2.2 0.1-4.5 0-6.7 0.1l-0.3 0.3c-49.4 3.2-93.7 23.6-141.7 44.8-53.8 23.8-107.3 49.5-155 84-25.5 18.4-49.3 39.2-69.6 63.1-0.4 0.5-0.7 0.9-1.1 1.4 13.8-1.5 27.5-3.1 41-5.1 120.7-17.9 234.3-66.7 346.3-115.1 17.1-7.2 35.1-15.2 47-29.8z" opacity=".2" /><path d="M860.5 366l57.9-10.8c1.4-0.3 2.9-0.5 4.3 0.1 1.6 0.7 2.5 2.6 3.1 4.2 3.1 7.8 6.3 15.6 9.4 23.4 0.8 2.1 1.6 4.5 0.5 6.4-1.1 1.8-3.4 2.2-5.4 2.7-10.2 2.1-19.9 6.8-27.8 13.5-6.1 5.1-12.8 11.9-20.6 10-6.4-1.6-9.7-8.5-12.2-14.6-3.8-9.5-7.7-19.1-11.5-28.6l2.3-6.3z" fill="#DEE3A0" /><path d="M878.9 375.8c6.5-3.2 32.1-8.5 32.1-8.5l-30.7 17 36-1.3-32.8 21.2-10.1-24.8 5.5-3.6z" fill="#7BAD37" opacity=".3" /><path d="M265.6 753.7c0.2-36.9 50.6-53.7 77.5-78.9 25.2-23.6 51.3-46.4 73.6-72.8 14-16.6 26.3-34.5 40.4-51 20.4-23.9 44.2-44.7 69.6-63.1 47.8-34.4 101.2-60.2 155-84 58.9-26.1 112.2-51.3 176.3-44.3 8.3 0.9 14.5 10.8 20.8 16.2 10.7 9.1 20 26 19.5 40.1-0.5 15.6 2.4 23.7-5.5 37.2-7.6 13.1-20.8 21.8-33.6 30-82.7 53-166.6 106.6-260.2 136.5-68.4 21.9-142.8 31.7-201.2 73.5-20.5 14.7-38.4 33-59.5 46.8S299.5 771 275 764.6c0.3 0-9.5-7.3-9.4-10.9z" fill="#7BAD37" /><path d="M871.7 368.5c-4.1-4.3-8.4-8.4-13.6-8.9-11.8-1.3-23.1-1.5-34.3-0.8-15.3 19.1-39.8 30.6-62.7 41.1-84.7 39-166 85.5-242.6 138.7-36.8 25.6-140.9 115.8-166.1 152.8 35.1-39.6 134.3-111.7 168.9-134.8 21.8-14.5 46-25.3 69.4-37.2 95-48.1 180.8-116.9 281-150.9zM898.4 415.8c0.3-10.7-5.1-23.1-12.4-32.4-4.9 4.1-10 7.9-15.3 11.2-14.7 9.3-31 15.7-46.9 22.8-48.4 21.5-93.9 48.7-139.2 75.9L606 540.4c-68.5 41.1-137.2 82.3-199.6 132.1 27-13.7 50.5-32.6 77.3-46.7 35.7-18.8 74.9-32.9 107.7-56.4 20.2-14.5 39.2-30.7 60.1-44 22.3-14.3 46.6-25.2 70.8-36.1 43.5-19.6 87.1-39.2 131.9-55.7 14.8-5.4 30-10.7 44.2-17.8z" opacity=".2" /><path d="M486.1 689.3c0.2 0-0.6 13.2-0.8 13.2-1.7 0-1.9-0.2-2.9 1.2-2.8 4-2.2 45 0.4 49.1 2.5 4.1 7.6 6.6 12.4 5.9 2.2-0.3 4.2-1.1 6.4-1.4 9.3-1 16 9.4 25.2 11.5 6.5 1.5 13.8-1.8 16.9-7.7 0.7-1.3 1.2-2.7 2.5-3.3 0.8-0.4 1.8-0.4 2.7-0.3 5.4 0.4 10.8 1.7 16.2 1 5.4-0.7 11-4.2 11.7-9.6 0.2-1.4 0-2.9 0.5-4.3 1.5-4.5 8.7-5.5 9.6-10.2 0.3-1.3-0.2-44.1-0.8-45.1h-100z" fill="#7BAD37" /><path d="M486.1 689.3c0.2 0-0.6 13.2-0.8 13.2-1.7 0-1.9-0.2-2.9 1.2-2.8 4-2.2 45 0.4 49.1 2.5 4.1 7.6 6.6 12.4 5.9 2.2-0.3 4.2-1.1 6.4-1.4 9.3-1 16 9.4 25.2 11.5 6.5 1.5 13.8-1.8 16.9-7.7 0.7-1.3 1.2-2.7 2.5-3.3 0.8-0.4 1.8-0.4 2.7-0.3 5.4 0.4 10.8 1.7 16.2 1 5.4-0.7 11-4.2 11.7-9.6 0.2-1.4 0-2.9 0.5-4.3 1.5-4.5 8.7-5.5 9.6-10.2 0.3-1.3-0.2-44.1-0.8-45.1h-100z" opacity=".1" /><path d="M496.4 676.6c-5-1.1-10.4 3.1-10.5 8.2 0 2.4 0.9 4.9 0.2 7.2-0.5 1.6-1.8 2.8-2.8 4.2-2.8 4-3 9.6-0.5 13.7s7.6 6.6 12.4 5.9c2.2-0.3 4.2-1.1 6.4-1.4 9.3-1 16 9.4 25.2 11.5 6.5 1.5 13.8-1.8 16.9-7.7 0.7-1.3 1.2-2.7 2.5-3.3 0.8-0.4 1.8-0.4 2.7-0.3 5.4 0.4 10.8 1.7 16.2 1s11-4.2 11.7-9.6c0.2-1.4 0-2.9 0.5-4.3 1.5-4.5 8.7-5.5 9.6-10.2 0.8-4.1-4.1-7.3-8.4-7.2-3 0-7.2 0.2-7.8-2.7-0.2-1 0.1-2 0.2-3.1 0.3-3.9-3.1-7.2-6.8-8.3-3.7-1.1-7.7-0.4-11.5 0.3-2.5 0.4-5.3 0.8-7.5-0.5-1.9-1.1-3-3.2-4.7-4.6-3.8-3.1-9.6-2-13.8 0.6-4.2 2.6-7.5 6.4-11.7 9-5.4 3.3-12.2 4.2-18.2 2.5l-0.3-0.9z" fill="#7BAD37" /><path d="M529.9 719.3c-0.5 0-1.1-0.1-1.6-0.2-2.6-0.6-5.4-2.6-8.4-4.7-4.7-3.3-10.1-7.1-17.1-7.1l-2 0.1c-1.5 0.1-3 0.5-4.4 0.9-0.7 0.2-1.4 0.4-2.2 0.5h-0.1c-2.5 0-4.4-1.1-5.4-2.6-1.1-1.8-1-4.4 0.2-6.1 1.6-2.1 3-3.7 3.7-6.1 1-2.9 0.6-5.6 0.3-7.6-0.1-0.5-0.2-1.1-0.2-1.6 0-0.3 0.4-0.8 0.8-1.1l1 0.5c2.6 0.7 5.3 1.1 8 1.1 5.6 0 11.1-1.5 15.8-4.4 2.5-1.5 4.7-3.4 6.9-5.2 1.6-1.3 3.1-2.7 4.9-3.8 1.4-0.9 3.1-1.4 4.4-1.4 0.4 0 1 0.1 1.3 0.3 0.4 0.3 0.7 0.7 1.1 1.2 1 1.2 2.5 2.9 4.6 4.1 2.1 1.2 4.5 1.8 7.2 1.8 1.7 0 3.3-0.2 5-0.5 2-0.3 4.1-0.7 6-0.7 0.9 0 1.7 0.1 2.4 0.3 0.9 0.3 1.6 1 1.7 1.3-0.3 1.1-0.5 2.9 0 5 0.9 3.7 3.8 8.1 13 8.1h0.8c-2.5 1.7-5.7 4-7.1 8.2-0.6 1.8-0.7 3.4-0.7 4.7-0.3 2.5-2.9 4.2-5.8 4.5-0.8 0.1-1.6 0.1-2.3 0.1-2.3 0-4.6-0.3-6.9-0.6-1.9-0.2-3.7-0.5-5.6-0.6h-1.3c-1.9 0-3.6 0.4-5 1.1-3.1 1.6-4.6 4.4-5.3 5.9-1.6 2.9-4.7 4.6-7.7 4.6z" fill="#DEE3A0" /><path d="M574.4 719.3c0.2 5.4 1.6 18.8 2.6 27 0-0.6 0.1-1.2 0.3-1.8 0.4-1.1 1.1-2 2-2.8-3.5-12.1-5.2-28.5-4.9-22.4zM546.1 757.7c0.8-0.4 1.8-0.4 2.7-0.3 2.3 0.2 4.7 0.5 7 0.8-6.8-16.3-9.7-43.6-9.6-38.8 0.4 19.2-0.5 32.5-2.2 40.9 0.5-1.1 1.1-2.1 2.1-2.6zM503.4 721.6c-0.2 17-4.2 29.8-6.9 36.8 1.7-0.4 3.3-0.9 5.1-1.1 2.6-0.3 5 0.4 7.4 1.5-6.1-18-5.2-60.5-5.6-37.2z" opacity=".2" /><path d="M528.6 682.8a4.3 8.9 0 1 0 8.6 0 4.3 8.9 0 1 0-8.6 0Z" opacity=".2" /><path d="M539.686051 692.83072a4.3 11.6 62.104 1 0 20.504121-10.854541 4.3 11.6 62.104 1 0-20.504121 10.854541Z" opacity=".2" /><path d="M551.914247 705.246861a11.6 4.3 9.015 1 0 1.34756-8.493767 11.6 4.3 9.015 1 0-1.34756 8.493767Z" opacity=".2" /><path d="M500 691.7a8.9 4.3 0 1 0 17.8 0 8.9 4.3 0 1 0-17.8 0Z" opacity=".2" /><path d="M500.118349 702.402359a2.9 8.9 80.846 1 0 17.573304-2.831777 2.9 8.9 80.846 1 0-17.573304 2.831777Z" opacity=".2" /><path d="M528.607008 715.791853a4.3 8.9 15.569 1 0 4.777496-17.146881 4.3 8.9 15.569 1 0-4.777496 17.146881Z" opacity=".2" /><path d="M633.6 630.7c0.3 0-0.7 16.5-1 16.5-2.1 0-2.4-0.3-3.6 1.4-3.5 4.9-2.7 56 0.4 61.1 3.1 5.2 9.5 8.2 15.4 7.4 2.7-0.4 5.2-1.4 7.9-1.7 11.6-1.2 19.9 11.6 31.3 14.3 8.1 1.9 17.1-2.3 21-9.6 0.8-1.6 1.5-3.4 3.1-4.1 1-0.5 2.2-0.5 3.4-0.4 6.7 0.5 13.5 2.1 20.2 1.3 6.7-0.9 13.7-5.2 14.6-11.9 0.3-1.8 0.1-3.7 0.6-5.4 1.9-5.6 10.8-6.8 12-12.7 0.3-1.6-0.2-54.8-1-56.1l-124.3-0.1z" fill="#7BAD37" /><path d="M633.6 630.7c0.3 0-0.7 16.5-1 16.5-2.1 0-2.4-0.3-3.6 1.4-3.5 4.9-2.7 56 0.4 61.1 3.1 5.2 9.5 8.2 15.4 7.4 2.7-0.4 5.2-1.4 7.9-1.7 11.6-1.2 19.9 11.6 31.3 14.3 8.1 1.9 17.1-2.3 21-9.6 0.8-1.6 1.5-3.4 3.1-4.1 1-0.5 2.2-0.5 3.4-0.4 6.7 0.5 13.5 2.1 20.2 1.3 6.7-0.9 13.7-5.2 14.6-11.9 0.3-1.8 0.1-3.7 0.6-5.4 1.9-5.6 10.8-6.8 12-12.7 0.3-1.6-0.2-54.8-1-56.1l-124.3-0.1z" opacity=".1" /><path d="M646.3 614.9c-6.2-1.4-13 3.9-13.1 10.3-0.1 3 1.1 6.1 0.2 8.9-0.6 2-2.2 3.5-3.4 5.3-3.5 4.9-3.7 11.9-0.6 17.1 3.1 5.2 9.4 8.2 15.4 7.4 2.7-0.4 5.2-1.4 7.9-1.7 11.6-1.2 19.9 11.6 31.3 14.3 8.1 1.9 17.1-2.3 21-9.6 0.8-1.6 1.5-3.4 3.1-4.1 1-0.5 2.2-0.5 3.4-0.4 6.7 0.5 13.5 2.1 20.2 1.3 6.7-0.9 13.7-5.2 14.6-11.9 0.3-1.8 0.1-3.7 0.6-5.4 1.9-5.6 10.8-6.8 12-12.6 1.1-5.2-5.1-9.1-10.4-9-3.8 0-8.9 0.3-9.8-3.3-0.3-1.2 0.1-2.5 0.2-3.8 0.4-4.8-3.8-9-8.4-10.3-4.6-1.3-9.6-0.5-14.3 0.3-3.1 0.5-6.6 1-9.4-0.6-2.4-1.4-3.8-4-5.9-5.7-4.7-3.9-12-2.5-17.2 0.7-5.2 3.2-9.3 8-14.6 11.2-6.7 4.1-15.1 5.2-22.7 3.1l-0.1-1.5z" fill="#7BAD37" /><path d="M688 668.1c-0.7 0-1.3-0.1-2-0.2-3.3-0.8-6.8-3.2-10.5-5.8-5.9-4.1-12.6-8.8-21.3-8.8l-2.4 0.1c-1.8 0.2-3.7 0.6-5.5 1.1-0.9 0.2-1.8 0.5-2.7 0.6h-0.2c-3.1 0-5.5-1.3-6.7-3.3-1.3-2.2-1.2-5.5 0.2-7.6 2-2.6 3.7-4.7 4.6-7.6 1.2-3.6 0.7-7 0.4-9.4-0.1-0.7-0.2-1.3-0.2-2 0-0.4 0.5-1 1-1.4l1.3 0.6c3.2 0.9 6.5 1.3 9.9 1.3 7 0 13.8-1.9 19.6-5.4 3.1-1.9 5.8-4.2 8.5-6.5 2-1.7 3.9-3.4 6.1-4.7 1.8-1.1 3.9-1.8 5.5-1.8 0.5 0 1.2 0.1 1.6 0.4 0.5 0.4 0.9 0.9 1.3 1.4 1.3 1.5 3.1 3.6 5.8 5.1 2.6 1.5 5.6 2.2 9 2.2 2.1 0 4.2-0.3 6.2-0.6 2.5-0.4 5.1-0.9 7.5-0.9 1.2 0 2.1 0.1 2.9 0.3 1.2 0.3 2 1.2 2.2 1.6-0.3 1.4-0.7 3.6 0 6.2 1.1 4.6 4.8 10 16.2 10h1c-3.1 2.1-7.1 4.9-8.9 10.2-0.7 2.2-0.9 4.3-0.9 5.8-0.3 3.1-3.7 5.2-7.2 5.6-0.9 0.1-1.9 0.2-2.9 0.2-2.8 0-5.7-0.4-8.6-0.7-2.3-0.3-4.6-0.6-7-0.7l-1.7-0.1c-2.4 0-4.4 0.4-6.3 1.4-3.9 1.9-5.7 5.5-6.6 7.4-1.5 3.8-5.4 6-9.2 6z" fill="#DEE3A0" /><path d="M743.4 668.1c0.3 6.8 2 23.4 3.2 33.6 0.1-0.8 0.1-1.5 0.4-2.3 0.5-1.4 1.4-2.5 2.5-3.5-4.3-15-6.4-35.5-6.1-27.8zM708.2 715.9c1-0.5 2.2-0.5 3.4-0.4 2.9 0.2 5.8 0.6 8.8 1-8.4-20.3-12.1-54.3-12-48.3 0.5 23.9-0.6 40.5-2.8 50.9 0.6-1.4 1.3-2.6 2.6-3.2zM655.1 670.9c-0.3 21.1-5.2 37.1-8.6 45.8 2.1-0.5 4.2-1.1 6.3-1.3 3.3-0.3 6.3 0.5 9.1 1.8-7.4-22.4-6.4-75.3-6.8-46.3z" opacity=".2" /><path d="M686.3 622.6a5.4 11 0 1 0 10.8 0 5.4 11 0 1 0-10.8 0Z" opacity=".2" /><path d="M700.292515 635.014648a5.4 14.4 62.104 1 0 25.453391-13.474602 5.4 14.4 62.104 1 0-25.453391 13.474602Z" opacity=".2" /><path d="M715.463347 650.606409a14.4 5.4 9.015 1 0 1.692284-10.666592 14.4 5.4 9.015 1 0-1.692284 10.666592Z" opacity=".2" /><path d="M650.9 633.7a11 5.4 0 1 0 22 0 11 5.4 0 1 0-22 0Z" opacity=".2" /><path d="M651.048224 647.035554a3.7 11 80.846 1 0 21.719815-3.499949 3.7 11 80.846 1 0-21.719815 3.499949Z" opacity=".2" /><path d="M686.483049 663.615044a5.4 11 15.569 1 0 5.904771-21.192774 5.4 11 15.569 1 0-5.904771 21.192774Z" opacity=".2" /></svg>