<?xml version="1.0" standalone="no"?><!DOCTYPE svg PUBLIC "-//W3C//DTD SVG 1.1//EN" "http://www.w3.org/Graphics/SVG/1.1/DTD/svg11.dtd"><svg class="icon" width="81px" height="81.00px" viewBox="0 0 1024 1024" version="1.1" xmlns="http://www.w3.org/2000/svg"><path d="M167.9872 361.984c-16.9472 0-30.72-13.7728-30.72-30.72v-148.48c0-38.6048 31.3856-69.9904 69.9904-69.9904H359.424c16.9472 0 30.72 13.7728 30.72 30.72s-13.7728 30.72-30.72 30.72H207.2576c-4.7104 0-8.5504 3.84-8.5504 8.5504v148.48c0 16.9472-13.7728 30.72-30.72 30.72zM869.9392 361.984c-16.9472 0-30.72-13.7728-30.72-30.72v-148.48c0-4.7104-3.84-8.5504-8.5504-8.5504h-152.1664c-16.9472 0-30.72-13.7728-30.72-30.72s13.7728-30.72 30.72-30.72h152.1664c38.6048 0 69.9904 31.3856 69.9904 69.9904v148.48c0 16.9472-13.7216 30.72-30.72 30.72zM359.424 876.1856H207.2576c-38.6048 0-69.9904-31.3856-69.9904-69.9904v-148.48c0-16.9472 13.7728-30.72 30.72-30.72s30.72 13.7728 30.72 30.72v148.48c0 4.7104 3.84 8.5504 8.5504 8.5504H359.424c16.9472 0 30.72 13.7728 30.72 30.72s-13.7216 30.72-30.72 30.72zM830.6688 876.1856h-152.1664c-16.9472 0-30.72-13.7728-30.72-30.72s13.7728-30.72 30.72-30.72h152.1664c4.7104 0 8.5504-3.84 8.5504-8.5504v-148.48c0-16.9472 13.7728-30.72 30.72-30.72s30.72 13.7728 30.72 30.72v148.48c0 38.6048-31.3856 69.9904-69.9904 69.9904z" fill="#3E3A39" /><path d="M899.5328 537.2416H134.656c-16.9472 0-30.72-13.7728-30.72-30.72s13.7728-30.72 30.72-30.72h764.8768c16.9472 0 30.72 13.7728 30.72 30.72s-13.7728 30.72-30.72 30.72z" fill="#FC4138" /></svg>