<?xml version="1.0" standalone="no"?><!DOCTYPE svg PUBLIC "-//W3C//DTD SVG 1.1//EN" "http://www.w3.org/Graphics/SVG/1.1/DTD/svg11.dtd"><svg class="icon" width="81px" height="81.00px" viewBox="0 0 1024 1024" version="1.1" xmlns="http://www.w3.org/2000/svg"><path d="M427.4 717.7c0.2-25.4-20.9-48.5-37-71.7-16.1-23.2-27.1-51.2-7.6-73.2 10.8-12.2 30.8-23.4 26.3-37.2-1.7-5.2-6.7-9.6-11.1-14.1-13.8-14.2-21.2-31.1-21.1-47.9 0.1-21.9 12.5-43.6 8.2-65.3-3.3-16.3-15.9-32-13.2-48.3 4.4-26.9 47.8-45.2 54.2-71.9 3.9-16.4-6.8-34 3.3-49.2 6-9.1 18.5-15.5 30.4-21.6l46.2-23.4c21.9-11.1 15.5-28.2 17.1-46.3 0.8-9.2-12.8-23 20.6-23 23.5 17.2 45.6 35.3 66 54.1 17.9 16.5 35 34.2 39.8 54.2 3.4 14.3 0.3 28.9 2.6 43.3 4.4 26.3 27 51.4 21.9 77.6-2.6 13.1-11.9 25.2-16.4 38-10.3 29.9 6.5 61.1 1.3 91.6-5.6 32.7-36.3 63.3-30.8 96 1.5 8.7 5.5 17.1 7.3 25.8 5.1 24.8-8.8 49.7-26.4 71.9-12.9 16.2-30.3 33-57.2 37.9-11.8 2.2-24.6 1.8-36.1 4.5-9 2.1-16.7 6-25.2 8.9-25 8.4-57 6.8-79.9-3.8l16.8-6.9z" fill="#7BAD37" /><path d="M427.4 717.7c0.2-25.4-20.9-48.5-37-71.7-16.1-23.2-27.1-51.2-7.6-73.2 10.8-12.2 30.8-23.4 26.3-37.2-1.7-5.2-6.7-9.6-11.1-14.1-13.8-14.2-21.2-31.1-21.1-47.9 0.1-21.9 12.5-43.6 8.2-65.3-3.3-16.3-15.9-32-13.2-48.3 4.4-26.9 47.8-45.2 54.2-71.9 3.9-16.4-6.8-34 3.3-49.2 6-9.1 18.5-15.5 30.4-21.6l46.2-23.4c21.9-11.1 15.5-28.2 17.1-46.3 0.8-9.2-12.8-23 20.6-23 23.5 17.2 45.6 35.3 66 54.1 17.9 16.5 35 34.2 39.8 54.2 3.4 14.3 0.3 28.9 2.6 43.3 4.4 26.3 27 51.4 21.9 77.6-2.6 13.1-11.9 25.2-16.4 38-10.3 29.9 6.5 61.1 1.3 91.6-5.6 32.7-36.3 63.3-30.8 96 1.5 8.7 5.5 17.1 7.3 25.8 5.1 24.8-8.8 49.7-26.4 71.9-12.9 16.2-30.3 33-57.2 37.9-11.8 2.2-24.6 1.8-36.1 4.5-9 2.1-16.7 6-25.2 8.9-25 8.4-57 6.8-79.9-3.8l16.8-6.9z" opacity=".3" /><path d="M519.1 695.6c-0.2-25.4 16.4-48.5 28.9-71.7 12.6-23.2 21.2-51.2 6-73.2-8.4-12.2-24.1-23.4-20.6-37.2 1.3-5.2 5.3-9.6 8.7-14.1 10.8-14.2 16.6-31.1 16.5-47.9-0.1-21.9-9.8-43.6-6.4-65.3 2.6-16.3 12.4-32 10.4-48.3-3.4-26.9-37.4-45.2-42.4-71.9-3.1-16.4 5.3-34-2.6-49.2-4.7-9.1-14.5-15.5-23.8-21.6-12.1-7.8-24.1-15.6-36.2-23.4-17.2-11.1-12.1-28.2-13.4-46.3-0.6-9.2 10-23-16.1-23-18.4 17.2-35.7 35.3-51.7 54.1-14 16.5-27.4 34.2-31.1 54.2-2.6 14.3-0.2 28.9-2.1 43.3-3.4 26.3-21.2 51.4-17.1 77.6 2 13.1 9.3 25.2 12.8 38 8.1 29.9-5.1 61.1-1 91.6 4.4 32.7 28.4 63.3 24.1 96-1.2 8.7-4.3 17.1-5.7 25.8-4 24.8 6.9 49.7 20.6 71.9 10.1 16.2 23.7 33 44.7 37.9 9.3 2.2 19.2 1.8 28.3 4.5 7 2.1 13.1 6 19.8 8.9 19.6 8.4 44.6 6.8 62.5-3.8l-13.1-6.9z" fill="#7BAD37" /><path d="M519.1 695.6c-0.2-25.4 16.4-48.5 28.9-71.7 12.6-23.2 21.2-51.2 6-73.2-8.4-12.2-24.1-23.4-20.6-37.2 1.3-5.2 5.3-9.6 8.7-14.1 10.8-14.2 16.6-31.1 16.5-47.9-0.1-21.9-9.8-43.6-6.4-65.3 2.6-16.3 12.4-32 10.4-48.3-3.4-26.9-37.4-45.2-42.4-71.9-3.1-16.4 5.3-34-2.6-49.2-4.7-9.1-14.5-15.5-23.8-21.6-12.1-7.8-24.1-15.6-36.2-23.4-17.2-11.1-12.1-28.2-13.4-46.3-0.6-9.2 10-23-16.1-23-18.4 17.2-35.7 35.3-51.7 54.1-14 16.5-27.4 34.2-31.1 54.2-2.6 14.3-0.2 28.9-2.1 43.3-3.4 26.3-21.2 51.4-17.1 77.6 2 13.1 9.3 25.2 12.8 38 8.1 29.9-5.1 61.1-1 91.6 4.4 32.7 28.4 63.3 24.1 96-1.2 8.7-4.3 17.1-5.7 25.8-4 24.8 6.9 49.7 20.6 71.9 10.1 16.2 23.7 33 44.7 37.9 9.3 2.2 19.2 1.8 28.3 4.5 7 2.1 13.1 6 19.8 8.9 19.6 8.4 44.6 6.8 62.5-3.8l-13.1-6.9z" opacity=".2" /><path d="M551 256.4c-1.9-41 26.9-81.4 66.3-92.9 15.1-4.4 31.3-5 45.9-10.8 22.7-9 38.6-29.4 58.8-43 2.1-1.5 4.5-2.9 7.1-2.9 6.7-0.1 10.1 8.6 8.9 15.3-1.1 6.6-4.7 13.1-3.7 19.7 1.5 10.3 12.7 16 18.3 24.8 8.2 13 2.8 30.3-5.5 43.2-8.3 12.9-19.5 24.5-23.6 39.3-4.5 16.3 0.3 33.7-1.2 50.6-2.1 23.8-16.6 44.5-30.6 63.9-24.2 33.5-48.3 67.1-72.5 100.6-9 12.5-18.2 25.3-22.1 40.2-8.5 32.6 9.4 69.8-5.8 99.9-9.3 18.5-29.6 30-37.2 49.2-7.3 18.3-3.4 43.1-19.7 54.2-8.4-30.6-15.7-61.4-22-92.5-7.7-38-13.7-77.6-4.7-115.4 6.6-27.8 21-53.2 28.9-80.6 15.4-53.4 21.9-101.6 11.7-156.2l2.7-6.6z" fill="#7BAD37" /><path d="M551 256.4c-1.9-41 26.9-81.4 66.3-92.9 15.1-4.4 31.3-5 45.9-10.8 22.7-9 38.6-29.4 58.8-43 2.1-1.5 4.5-2.9 7.1-2.9 6.7-0.1 10.1 8.6 8.9 15.3-1.1 6.6-4.7 13.1-3.7 19.7 1.5 10.3 12.7 16 18.3 24.8 8.2 13 2.8 30.3-5.5 43.2-8.3 12.9-19.5 24.5-23.6 39.3-4.5 16.3 0.3 33.7-1.2 50.6-2.1 23.8-16.6 44.5-30.6 63.9-24.2 33.5-48.3 67.1-72.5 100.6-9 12.5-18.2 25.3-22.1 40.2-8.5 32.6 9.4 69.8-5.8 99.9-9.3 18.5-29.6 30-37.2 49.2-7.3 18.3-3.4 43.1-19.7 54.2-8.4-30.6-15.7-61.4-22-92.5-7.7-38-13.7-77.6-4.7-115.4 6.6-27.8 21-53.2 28.9-80.6 15.4-53.4 21.9-101.6 11.7-156.2l2.7-6.6z" opacity=".2" /><path d="M715.2 770.7c7.1-27.2 47-3.6 65.2-25.1 8.4-10 16.1-44.3 20.8-56.5 5.1-13.1 13.1-20 13.4-34.1s10.2-10 21.2-18.8c15.5-12.5 15.6-53.1 33.5-61.9 24.7-12-3.9-60.9 21.4-71.6 9.2-3.9 20.1-3.8 28.2-9.6 10.6-7.6 12.6-22.3 13.1-35.4 1.8-48.9-5.8-98.2-22.3-144.3-3.8-10.5-8.1-21.4-6.6-32.5 1.6-12.4 10.2-22.9 13-35.1 4.1-17.9-4.7-36-6.4-54.3-1.1-12 0.9-24.4-2-36-4.5-17.8-19.6-30.6-33.9-42.2-2.7-2.2-5.7-4.6-9.3-4.8-4.4-0.3-8.2 2.8-11.4 5.7-15.5 13.8-30.7 28.9-50 36.5-20.1 7.9-42.4 6.6-64 6.2-5.3-0.1-10.7-0.1-15.5 2.2-9.2 4.4-12.7 15.4-17.1 24.6-8.4 17.6-23 31.3-36.2 45.7-20.4 22.1-38.3 46.4-56.1 70.6-9.2 12.6-18.5 25.1-27.7 37.7-9.6 13-19.2 26.1-26.7 40.3-7.8 14.7-13.3 30.5-16.8 46.7-9.1 42.3-4.6 86.2 0 129.2 3.1 28.6 6.4 57.9 20.2 83.2 4.3 7.9 9.6 15.3 13.3 23.4 5 10.8-7.5 26.8-4.7 38.4 8.1 32.9-10.8 77.4 2.7 108.5 0.9 2.1 49.3-13.1 51.2-11.9 3.2 2.1-3.1 40.2 0.3 38.7 19.2-8 43.2-26 62.3-34.1l26.9-29.4z" fill="#7BAD37" /><path d="M496.5 897.7c-10.7-21.8-18.8-45.1-24-69.3-18.7-85.5-1.3-175.3 16-261.2 9.6-47.6 19.2-95.3 28.8-142.9 35.7 52.8 40 124 42.9 190.6 1.1 24.8 2.1 49.6 3.2 74.4 2.4 55.7 4.6 112.9-10.5 165.9-3.8 13.2-8.8 26.3-17.3 36.2-8.5 9.9-21.2 16.1-33 13l-6.1-6.7z" fill="#DEE3A0" /><path d="M496.5 897.7c-10.7-21.8-18.8-45.1-24-69.3-18.7-85.5-1.3-175.3 16-261.2 9.6-47.6 19.2-95.3 28.8-142.9 35.7 52.8 40 124 42.9 190.6 1.1 24.8 2.1 49.6 3.2 74.4 2.4 55.7 4.6 112.9-10.5 165.9-3.8 13.2-8.8 26.3-17.3 36.2-8.5 9.9-21.2 16.1-33 13l-6.1-6.7z" opacity=".2" /><path d="M477 737.5c-13.4-16.5 4.9-46.1 4.6-69.1-0.5-44.3-68.9-60.1-53.3-106.7 7.4-22 32.9-43.9 31.3-64.5-0.7-9-6.8-16.2-5.2-25.7 3.5-21.3 39.3-35 49.1-56.4 4.1-8.9 2.8-17.6 1.5-25.7-6.1-37.2-13.1-76.3-41.6-99.4-18.2-14.8-45.4-23.9-49.4-47.6-1.9-11.2 1.7-24.9-4.5-33.8-7.9-11.3-28-10.2-39.9-18-24.6-16.2-4.5-59.7-17.8-84.9-2.3-4.4-6.1-8.4-12.1-8.6-7.8-0.3-16.1 5.7-23.3 11.3-64.7 50.4-136.7 112.2-143.1 177.8-2.1 21.7 2.6 44.5-13.9 64.9-10 12.4-26 20.9-35.3 33.6-19.3 26.6 1.5 53-8.8 81.2-4.4 12.2-14.3 23.7-19.5 35.9-19 44.7 30.7 69.8 39.8 109.4 5.6 24-3.7 55 11.9 73 6.9 8 18 12.2 28.3 16.8 41.7 18.8 75.1 48.1 97 84.8 8 13.4 14.7 28 27.8 37.1 11.2 7.8 26.4 10.9 41.2 14 33.7 6.9 67.3 13.8 101 20.7 2.8 0.6 6.1 1.1 9.1-0.7 4-2.3 5-6.8 5.4-10.5 3.7-31.7 7.5-63.4 11.2-95.1l8.5-13.8z" fill="#7BAD37" /><path d="M292.4 549.8c14.3 86.4 45.5 134.4 66 218.8 8.5 34.9 18.7 70.8 39.3 96.2 15.9 19.5 36.6 31.2 56.8 42.4 22.2 12.3 48.1 24.6 69.6 10.6 2.3-1.5 4.6-3.5 5.4-6.6 1.3-5.1-2.1-10-5.1-13.8-43.3-53.7-77.5-79.6-115.9-145-23.9-40.7-11.7-50.3-58.8-124.6-20.1-31.7-11.6-77.5-33.5-103.3-24.4-28.7 1.3-76.2-23.7-104.1-1.1 21.1-4.8 56.8-5.3 83l5.2 46.4z" fill="#DEE3A0" /><path d="M451 905.2c0.6 2.3 11.9 5.5 13.5 6.8 8.6 3.9 17.4 6.8 26 7.6h1.4c8.6-0.7 17.5-3.7 26.1-7.6 1.6-1.3 3-2.9 3.6-5.1 1.3-5.1-9.6-12.1-5.1-13.8 37.9-14.5 47.7-84.9 44.5-96.3-9.3 10.9-86.2 85.2-95.2 96.3-2.9 3.7-16.1 7-14.8 12.1z" opacity=".2" /><path d="M753.1 564c-48.8 72.7-37.9 129.7-72.9 207.7-14.7 32.8-37.4 67.6-58.1 93.1-15.9 19.5-36.6 31.2-56.8 42.4-22.2 12.3-57 28.5-78.5 14.4-2.3-1.5-21.5-9.6-22.3-12.7-1.3-5.1 25.6-14.7 28.6-18.5 43.3-53.7 84-97.3 122.6-162.6 17.9-30.3 40-49.5 47.5-86.2s28-58 48.3-85.1c27.9-37.3 53.3-132.4 75.9-154.5 1.1 20.9-4 116.9-34.3 162zM191.1 397.9c1.3 0.1-1.3 16.4 0.6 42.3 1.8 25.8 9.4 61.8 29.2 96.1 19.7 34.4 46.9 59.1 68.3 73.7 21.5 14.8 36.7 20.7 36.2 21.9-0.2 0.4-4.1-0.6-11.1-3.3-6.9-2.7-16.6-7.3-28-14.3-22.6-13.8-51.3-38.8-71.7-74.3-20.4-35.6-27.5-73-28-99.4-0.3-13.3 0.6-24.1 1.7-31.4 1.3-7.4 2.4-11.3 2.8-11.3zM308 283.8c1.1 0.6-5.3 12.1-9.3 32.5-4.3 20.4-4.5 49.4-0.1 81 4.4 31.7 9.8 60.6 10.7 81.9 1.2 21.3-0.9 34.4-1.7 34.3-1.1-0.1-0.8-13.1-3.3-33.9-2.2-20.9-8.2-49.3-12.7-81.4-4.5-32.1-3.5-62.3 2.2-83.1 5.5-20.8 13.7-31.8 14.2-31.3zM387 361.5c0.8-0.2 4.9 14.3 4.1 38.3-0.5 24-7.4 56.3-14.7 91.5-7.3 35.3-14.4 67.2-19.8 90.2s-9.3 37.1-10.3 36.9c-1-0.2 1.1-14.7 5.3-38 4.2-23.3 10.4-55.3 17.8-90.6 7.3-35.4 14.9-67 16.7-90.3 2-23.4-0.3-37.9 0.9-38zM383.5 289.9c1 0.6-5.2 12.8-13.6 33.2-8.4 20.4-18.3 49.3-26.6 81.9-16.1 65.5-24.6 119.9-27.1 119.4-1-0.2 0.3-13.9 3.5-35.9s8.3-52.3 16.6-85.3c8.4-33 19.2-62.1 28.9-82.2s17.5-31.6 18.3-31.1zM218.2 368.3c2.1-0.6 14 38.5 34.8 84 20.6 45.7 42.2 80.3 40.4 81.5-0.8 0.5-7.2-7.5-16.2-21.5s-20.3-34-30.8-57c-10.5-23.1-18.1-44.8-22.8-60.7-4.5-15.9-6.3-26-5.4-26.3z" fill="#DEE3A0" /><path d="M835.7 440.8c0.9 0.4-2.1 9.2-7.8 23.1-6 13.7-12.5 34.1-29.9 51.4-18.7 16.5-40.6 19.1-53.3 26-13.4 6-18.7 13.9-19.7 13.1-0.8-0.2 3.5-9.9 17.3-17.6 13-8.3 34.7-12.3 50.7-26.7 15.6-15.2 23.2-35.4 30.2-48.4 6.9-13.2 11.6-21.3 12.5-20.9zM796.7 584.6c0.9 0.4-2.1 9.2-7.8 23.1-6 13.7-12.5 34.1-29.9 51.4-18.7 16.5-40.6 19.1-53.3 26-13.4 6-18.7 13.9-19.7 13.1-0.8-0.2 3.5-9.9 17.3-17.6 13-8.3 34.7-12.3 50.7-26.7 15.6-15.2 23.2-35.4 30.2-48.4 6.9-13.2 11.6-21.2 12.5-20.9z" fill="#DEE3A0" /><path d="M847.3 242.9c1 0.6-9.3 17.6-21.5 47.1-6.1 14.7-12.6 32.6-18 52.9-5.7 20.2-9.1 43.2-14.6 67.3-11.1 48.8-36.5 87.1-54.9 113.1-9.4 13.1-17.4 23.3-23.1 30.3-5.7 7-9 10.7-9.4 10.4-0.9-0.7 10.6-16.9 28.3-43.5 17.3-26.7 41.4-64.5 52.1-111.9 5.5-23.6 9.1-46.9 15.3-67.4 5.9-20.6 13-38.5 19.7-53.2 6.8-14.7 13.2-26 18-33.7 4.7-7.7 7.8-11.6 8.1-11.4z" fill="#DEE3A0" /><path d="M727.5 307.1c1.1 0.5-5.9 14.5-12.1 38.6-6.4 24.1-10.5 58.4-11.1 96.5-0.6 38.2-0.2 73-2.4 98.2-2 25.2-5.7 40.5-6.6 40.3-1.1-0.2 0.8-15.6 1.5-40.6 1-25-0.3-59.6 0.3-98.1 0.6-38.5 5.5-73.5 13.4-97.7 3.8-12.1 7.8-21.6 11.1-27.9 3.3-6.3 5.5-9.6 5.9-9.3z" fill="#DEE3A0" /><path d="M613 447.8c1.1 0.3-1.6 11.9-5.1 30.5-3.4 18.5-7 44.8 1.4 72.1 8.2 27.3 23.1 49.3 33.5 65 10.7 15.7 17.4 25.5 16.6 26.1-0.7 0.6-8.9-8-20.7-23.1-11.5-15.1-27.5-37.2-36.2-65.9-8.9-29-4.2-56.9 0.6-75.2 4.8-18.7 9.1-29.7 9.9-29.5z" fill="#DEE3A0" /></svg>