<?xml version="1.0" standalone="no"?><!DOCTYPE svg PUBLIC "-//W3C//DTD SVG 1.1//EN" "http://www.w3.org/Graphics/SVG/1.1/DTD/svg11.dtd"><svg class="icon" width="81px" height="81.00px" viewBox="0 0 1024 1024" version="1.1" xmlns="http://www.w3.org/2000/svg"><path d="M519.8848 949.8624c-15.2576 0-30.5152-3.9424-44.1344-11.776l-303.7696-175.36a88.4736 88.4736 0 0 1-44.1344-76.4416V335.5136c0-31.4368 16.896-60.7232 44.1344-76.4416l303.7696-175.36c27.2384-15.7184 61.0816-15.7184 88.2688 0l303.7696 175.36a88.4736 88.4736 0 0 1 44.1344 76.4416v350.7712c0 31.4368-16.896 60.7232-44.1344 76.4416l-303.7696 175.36c-13.6192 7.8848-28.8768 11.776-44.1344 11.776z m0-816.5376c-4.6592 0-9.2672 1.1776-13.4144 3.584L202.7008 312.32a26.83392 26.83392 0 0 0-13.4144 23.2448v350.7712c0 9.5744 5.12 18.432 13.4144 23.2448l303.7696 175.36c8.2944 4.7616 18.5344 4.7616 26.8288 0l303.7696-175.36a26.83392 26.83392 0 0 0 13.4144-23.2448V335.5136c0-9.5744-5.12-18.432-13.4144-23.2448l-303.7696-175.36a27.2896 27.2896 0 0 0-13.4144-3.584z" fill="#3E3A39" /><path d="M530.3296 645.9392c-84.6336 0-153.4976-68.864-153.4976-153.4976S445.696 338.944 530.3296 338.944s153.4976 68.864 153.4976 153.4976-68.864 153.4976-153.4976 153.4976z m0-245.504c-50.7392 0-92.0576 41.2672-92.0576 92.0576s41.2672 92.0576 92.0576 92.0576 92.0576-41.2672 92.0576-92.0576-41.3184-92.0576-92.0576-92.0576z" fill="#FC4138" /></svg>