<?xml version="1.0" standalone="no"?><!DOCTYPE svg PUBLIC "-//W3C//DTD SVG 1.1//EN" "http://www.w3.org/Graphics/SVG/1.1/DTD/svg11.dtd"><svg class="icon" width="81px" height="81.00px" viewBox="0 0 1024 1024" version="1.1" xmlns="http://www.w3.org/2000/svg"><path d="M910.1824 917.8112c-8.0896 0-16.2304-3.1744-22.2208-9.5232L720.0768 732.16c-11.7248-12.288-11.264-31.744 1.024-43.4176 12.288-11.7248 31.744-11.264 43.4176 1.024l167.8336 176.0768c11.7248 12.288 11.264 31.744-1.024 43.4176a30.34112 30.34112 0 0 1-21.1456 8.5504z" fill="#FC4138" /><path d="M479.4368 837.376c-197.7856 0-362.3936-156.9792-370.0224-356.3008-3.7888-98.8672 31.1296-193.3312 98.4064-265.9328 67.2256-72.6016 158.72-114.688 257.5872-118.4768 203.9296-7.8848 376.576 151.8592 384.4096 355.9936 7.8336 204.1344-151.8592 376.576-355.9936 384.4096-4.8128 0.2048-9.6256 0.3072-14.3872 0.3072z m0.3072-679.5264c-3.9936 0-7.9872 0.1024-11.9808 0.2048-82.4832 3.1744-158.7712 38.2464-214.8864 98.816C196.8128 317.44 167.6288 396.2368 170.8032 478.72c6.4 166.2464 143.6672 297.216 308.6336 297.216 3.9936 0 7.9872-0.1024 11.9808-0.2048 170.2912-6.5536 303.4624-150.3744 296.96-320.6656-6.3488-166.2976-143.6672-297.216-308.6336-297.216z" fill="#3E3A39" /></svg>