<?xml version="1.0" standalone="no"?><!DOCTYPE svg PUBLIC "-//W3C//DTD SVG 1.1//EN" "http://www.w3.org/Graphics/SVG/1.1/DTD/svg11.dtd"><svg class="icon" width="81px" height="81.00px" viewBox="0 0 1024 1024" version="1.1" xmlns="http://www.w3.org/2000/svg"><path d="M512 542.9s-66.3-177.6 53.4-384.4c-30.4 204.2-5.7 321.8 11 384.4-45.8 17.9-64.4 0-64.4 0z" fill="#7BAD37" /><path d="M512 542.9s-66.3-177.6 53.4-384.4c-30.4 204.2-5.7 321.8 11 384.4-45.8 17.9-64.4 0-64.4 0z" opacity=".2" /><path d="M504.3 316.1c-36.1 134.6 7.7 226.8 7.7 226.8s2.7 2.5 8.4 4.8c5.8-2.2 8.4-4.8 8.4-4.8s23.4-89.6-24.5-226.8z" opacity=".2" /><path d="M515.9 542.9s51.3-137.5-68.4-344.2c30.4 204.2 8.9 275 4 344.2 45.8 17.9 64.4 0 64.4 0z" fill="#7BAD37" /><path d="M515.9 542.9s51.3-137.5-68.4-344.2c30.4 204.2 8.9 275 4 344.2 45.8 17.9 64.4 0 64.4 0z" opacity=".2" /><path d="M560.8 480.4c-9.1-44-14.3-104.2-8.6-189.7-32.2 78.4-58.6 194.3-65.8 237.1 5.8 38.7 28.1 17.4 33 19.5 8.8 0.6 19.7-0.6 33.7-6.1 2.4-18.8 4.8-39.1 7.7-60.8z" opacity=".2" /><path d="M503 530s7.3-239.3 197.8-371.5C576.4 297.3 580.1 434.4 566.5 541.1 516.6 560.5 503 530 503 530z" fill="#7BAD37" /><path d="M460.9 451.2c5 33.1 8.5 62.9 11.9 89.9 15.9 6.2 29.3 6.4 40.1 4 1.9-1.2 3-2.1 3-2.1s40.9 50.2 31.4-30.5c-14.2-48.4-60-207.2-94.3-273.6 12.6 99.5 11.8 163.5 7.9 212.3z" opacity=".2" /><path d="M534.5 522S508.4 286.7 324.7 64c107.5 218.3 121.2 370.4 134.9 477.1 50 19.3 74.9-19.1 74.9-19.1z" fill="#7BAD37" /><path d="M641 600.5c-18.6-11.6-38.7-21.5-54-37.2-15.3-15.7-11.1-38.2-16.8-59.9L512 519.7l-58.1-16.3c-3.4 20.3-1.6 44.1-16.8 59.9-15.3 15.7-35.4 25.6-54 37.2-65.3 40.7-116.6 111.1-116 188 0.6 77 35.6 153.2 112.5 149.9 11.3-0.5 22.9-2.5 33.8 0.4 11.4 3 20.8 11.2 31.6 16.1 17.2 7.9 40.3 6.6 57.7-2.6 5.9-3.1 12.8-3.1 18.8 0 17.4 9.1 40.5 10.4 57.7 2.6 10.8-4.9 20.1-13 31.6-16.1 11-2.9 22.5-0.9 33.8-0.4 76.9 3.3 111.9-72.9 112.5-149.9 0.5-77-50.8-147.4-116.1-188z" fill="#DEE3A0" /><path d="M644.5 914.5c-21.8-1.1 55.6-154.5-38.5-215.1 71 86.1 14.1 188.9-3.3 212.7-10.6 14.4-20.7 17.6-23.5 18.9-17.2 7.9-38.6 15.8-50.9 0.5-12.4-15.4-13-199.8-16.2-199.8-3.2 0-3.8 181.1-14.9 199.3-10.2 16.8-35 7.9-52.2 0-2.2-1-20.1-4.9-29.2-14.5-26.5-28.1-81.7-126.6-19.8-209.4-83.1 85.4-5.1 206.9-16.4 207.4-71.7 3.1-106.9-63-111.8-134.4-0.1 2.8-0.6 5.5-0.6 8.3 0.6 77 35.6 153.2 112.5 149.9 11.3-0.5 22.9-2.5 33.8 0.4 11.4 3 20.8 11.2 31.6 16.1 17.2 7.9 40.3 6.6 57.7-2.6 5.9-3.1 12.8-3.1 18.8 0 17.4 9.1 40.5 10.5 57.7 2.6 10.8-4.9 20.1-13 31.6-16.1 11-2.9 22.5-0.9 33.8-0.4 76.9 3.3 111.9-72.9 112.5-149.9 0-2.8-0.5-5.5-0.6-8.3-5.2 71.4-40.4 138-112.1 134.4z" fill="#7BAD37" opacity=".3" /></svg>