<?xml version="1.0" standalone="no"?><!DOCTYPE svg PUBLIC "-//W3C//DTD SVG 1.1//EN" "http://www.w3.org/Graphics/SVG/1.1/DTD/svg11.dtd"><svg class="icon" width="81px" height="81.00px" viewBox="0 0 1024 1024" version="1.1" xmlns="http://www.w3.org/2000/svg"><path d="M253.7 846.6c-3.1 10.8-6.4 21.8-4.9 32.9 3 22 25.2 39.4 49.8 47.1 24.7 7.7 51.7 7.6 78 7.4 23-0.2 49.1-1.5 63.8-16.4 11-11.1 12.3-26.7 12.8-41.2 3.8-113.5-10.9-226.8-25.5-339.7l-18.9-145.8c-1.8-14-3.8-28.4-12.2-40.6-15.9-23.2-40.6-32-68.1-18.3-36.1 18-40.1 59.8-39.9 95.1 0 0 4.1 283.9-34.9 419.5z" fill="#DEE3A0" /><path d="M403.7 96.5c6.3 12.7 12.7 25.5 19 38.2 3.4 6.9 6.9 14.4 5 21.7-0.9 3.4-2.9 6.5-3.1 10-0.6 10.6 15 17.1 15.6 27.8 0.2 3.1-1 6.1-2.2 9-6.7 17-13.9 34.6-27.9 47.4 4.2 2.1 6.1 6.8 5.8 11.1-0.3 4.3-2.4 8.4-4.7 12.2-10.2 17-24.7 31.8-42.1 42.9-5.9-2.3-11.7-4.7-17.6-7-0.9-0.4-1.8-0.7-2.4-1.4-2.5-2.8 2.2-6.1 4-9.4 2.6-4.9-2.2-10.3-7.2-13.2-5-2.9-11.1-5.3-13-10.4-2.1-5.5 1.7-11.2 4.2-16.6 9.3-20.4-0.8-43.7 1.5-65.6 1.2-11.3 5.7-22.6 3.1-33.7-2.3-10.1-10.2-19.2-9.2-29.4 0.3-3 1.3-5.8 2.3-8.6 4.3-12 8.7-24 13-36.1 1.3-3.7 2.8-7.6 6-10.1 3.6-2.9 8.8-3.4 13.5-3.9 8.2-0.8 16.4-1.5 24.6-2.3 2.4-0.2 4.9-0.4 7 0.6 1.7 0.8 3 2.3 4 3.8 5.5 7.8 2.3 14 1.8 23.3l-1-0.3z" fill="#7BAD37" /><path d="M403.7 96.5c6.3 12.7 12.7 25.5 19 38.2 3.4 6.9 6.9 14.4 5 21.7-0.9 3.4-2.9 6.5-3.1 10-0.6 10.6 15 17.1 15.6 27.8 0.2 3.1-1 6.1-2.2 9-6.7 17-13.9 34.6-27.9 47.4 4.2 2.1 6.1 6.8 5.8 11.1-0.3 4.3-2.4 8.4-4.7 12.2-10.2 17-24.7 31.8-42.1 42.9-5.9-2.3-11.7-4.7-17.6-7-0.9-0.4-1.8-0.7-2.4-1.4-2.5-2.8 2.2-6.1 4-9.4 2.6-4.9-2.2-10.3-7.2-13.2-5-2.9-11.1-5.3-13-10.4-2.1-5.5 1.7-11.2 4.2-16.6 9.3-20.4-0.8-43.7 1.5-65.6 1.2-11.3 5.7-22.6 3.1-33.7-2.3-10.1-10.2-19.2-9.2-29.4 0.3-3 1.3-5.8 2.3-8.6 4.3-12 8.7-24 13-36.1 1.3-3.7 2.8-7.6 6-10.1 3.6-2.9 8.8-3.4 13.5-3.9 8.2-0.8 16.4-1.5 24.6-2.3 2.4-0.2 4.9-0.4 7 0.6 1.7 0.8 3 2.3 4 3.8 5.5 7.8 2.3 14 1.8 23.3l-1-0.3z" opacity=".2" /><path d="M288.3 522.7a58.4 3.3 0 1 0 116.8 0 58.4 3.3 0 1 0-116.8 0Z" opacity=".2" /><path d="M314.7 617.3a58.4 3.3 0 1 0 116.8 0 58.4 3.3 0 1 0-116.8 0Z" opacity=".2" /><path d="M279.9 711.9a58.4 3.3 0 1 0 116.8 0 58.4 3.3 0 1 0-116.8 0Z" opacity=".2" /><path d="M288.3 792.2a83.4 3.1 0 1 0 166.8 0 83.4 3.1 0 1 0-166.8 0Z" opacity=".2" /><path d="M263.3 822.2a83.4 3.1 0 1 0 166.8 0 83.4 3.1 0 1 0-166.8 0Z" opacity=".2" /><path d="M291.5 856.2a83.4 3.1 0 1 0 166.8 0 83.4 3.1 0 1 0-166.8 0Z" opacity=".2" /><path d="M432.5 314.9c-1.2-15.3-2.5-30.6-3.7-46-0.3-3.6-0.6-7.2-1.8-10.7-4.1-11.9-17.6-18.7-25.3-29.1-8.5-11.4-9.2-26-13.6-39.2-8.6-25.6-31.8-47.4-31.8-74.2 0-7.1 1.4-15.1-3.7-20.4-4.7-4.9-12.8-5.1-19.9-6.2-7.1-1.1-15.2-5.2-14.8-11.7 0.3-4.4 3.9-10.1-0.3-12.2-1-0.5-2.3-0.6-3.5-0.6-7.7-0.1-15.5-0.3-23.2-0.4-13.8 19.8-22.6 42.6-25.4 66-0.6 5.2-0.9 10.7 0.9 15.6 1.9 5 6.5 9.4 12.2 10-9.2 20.3-8.3 43.1-7.2 65 0.2 3.8 0.4 7.6 2.2 11 6.1 11.7 26.9 12.3 31.6 24.5 1.5 4 0.9 8.3 1.6 12.5 1.6 9.1 9.4 16 16.7 22.3l40.8 34.8-1.6 0.4c4.3 10.6 3.7 19 13.9 25.4 2 1.2 4.1 2.4 6.5 2.6 2.9 0.2 5.6-1.1 8.2-2.4 8.8-4.4 17.6-8.7 26.4-13.1 5.1-2.5 10.6-5.4 13.2-10.1 2.4-4.1 2-9.1 1.6-13.8z" opacity=".2" /><path d="M347.7 326l-40.8-34.8c-7.3-6.3-15.1-13.2-16.7-22.3-0.7-4.2-0.1-8.5-1.6-12.5-4.7-12.2-25.5-12.9-31.6-24.5-1.8-3.4-2-7.3-2.2-11-1.1-21.9-2.1-44.7 7.2-65-5.7-0.6-10.3-5-12.2-10-1.9-5-1.6-10.4-0.9-15.6 2.8-23.4 11.6-46.1 25.4-66 7.7 0.1 15.5 0.3 23.2 0.4 1.2 0 2.4 0.1 3.5 0.6 4.2 2.1 0.6 7.8 0.3 12.2-0.4 6.5 7.8 10.6 14.8 11.7 7.1 1.1 15.2 1.3 19.9 6.2 5.1 5.3 3.7 13.3 3.7 20.4-0.1 26.8 23.1 48.6 31.8 74.2 4.4 13.2 5.2 27.8 13.6 39.2 7.7 10.3 21.1 17.2 25.3 29.1 1.2 3.4 1.5 7.1 1.8 10.7 1.2 15.3 2.5 30.6 3.7 46 0.4 4.7 0.7 9.7-1.6 13.9-2.6 4.8-8.1 7.6-13.2 10.1-8.8 4.4-17.6 8.7-26.4 13.1-2.5 1.3-5.3 2.6-8.2 2.4-2.4-0.2-4.5-1.3-6.5-2.6-10.2-6.4-9.7-14.8-13.9-25.4l1.6-0.5z" fill="#7BAD37" /><path d="M347.7 326l-40.8-34.8c-7.3-6.3-15.1-13.2-16.7-22.3-0.7-4.2-0.1-8.5-1.6-12.5-4.7-12.2-25.5-12.9-31.6-24.5-1.8-3.4-2-7.3-2.2-11-1.1-21.9-2.1-44.7 7.2-65-5.7-0.6-10.3-5-12.2-10-1.9-5-1.6-10.4-0.9-15.6 2.8-23.4 11.6-46.1 25.4-66 7.7 0.1 15.5 0.3 23.2 0.4 1.2 0 2.4 0.1 3.5 0.6 4.2 2.1 0.6 7.8 0.3 12.2-0.4 6.5 7.8 10.6 14.8 11.7 7.1 1.1 15.2 1.3 19.9 6.2 5.1 5.3 3.7 13.3 3.7 20.4-0.1 26.8 23.1 48.6 31.8 74.2 4.4 13.2 5.2 27.8 13.6 39.2 7.7 10.3 21.1 17.2 25.3 29.1 1.2 3.4 1.5 7.1 1.8 10.7 1.2 15.3 2.5 30.6 3.7 46 0.4 4.7 0.7 9.7-1.6 13.9-2.6 4.8-8.1 7.6-13.2 10.1-8.8 4.4-17.6 8.7-26.4 13.1-2.5 1.3-5.3 2.6-8.2 2.4-2.4-0.2-4.5-1.3-6.5-2.6-10.2-6.4-9.7-14.8-13.9-25.4l1.6-0.5z" opacity=".2" /><path d="M485.5 122.3l1.2 0.5c3.6-8.7 8.9-13.6 6.4-22.7-0.5-1.7-1.1-3.5-2.5-4.8-1.7-1.6-4.1-2.1-6.5-2.6-8.1-1.7-16.1-3.3-24.2-5-4.7-1-9.7-1.9-14.2-0.2-3.9 1.5-6.7 4.7-9.2 7.9-8.3 10.1-16.6 20.3-24.9 30.4-2 2.4-3.9 4.8-5.2 7.5-4.5 9.4-0.2 20.3-1.5 30.5-1.5 11.3-9.7 20.7-14.7 31.1-9.8 20.2-8.3 45.2-24.2 61.8-4.2 4.4-9.8 8.7-9.8 14.5 0 5.4 5 9.5 8.7 13.7 3.7 4.2 6.4 10.7 2.3 14.6-2.8 2.6-8.4 4.3-7 7.7 0.3 0.8 1.1 1.5 1.8 2.1 4.7 3.9 9.5 7.8 14.2 11.7 20.3-5.5 39.2-15.3 54.8-28.4 3.5-2.9 6.9-6.1 8.7-10.2 1.8-4 1.6-9-1.6-12.2 17.7-8 30.6-22.6 42.9-36.8 2.1-2.4 4.3-4.9 5.2-7.9 3.1-10.3-9.4-21-5.1-30.9 1.4-3.2 4.4-5.6 6.4-8.6 4.4-6.4 3.7-14.6 2.8-22.1-1.6-13.8-3.2-27.7-4.8-41.6z" opacity=".2" /><path d="M502.1 122.3c1.6 13.9 3.1 27.9 4.7 41.8 0.8 7.5 1.5 15.7-2.8 22.1-2 2.9-5 5.3-6.4 8.6-4.3 9.9 8.2 20.6 5.1 30.9-0.9 3-3.1 5.5-5.2 7.9-12.3 14.2-25.2 28.8-42.9 36.8 3.2 3.2 3.4 8.2 1.6 12.2-1.8 4-5.2 7.2-8.7 10.2-15.6 13.1-34.5 22.9-54.8 28.4-4.7-3.9-9.5-7.8-14.2-11.8-0.7-0.6-1.5-1.2-1.8-2.1-1.3-3.4 4.3-5.2 7-7.7 4.1-3.9 1.5-10.4-2.3-14.6-3.7-4.2-8.7-8.3-8.7-13.7 0-5.8 5.6-10.1 9.8-14.5 15.9-16.6 14.4-41.6 24.2-61.8 5-10.4 13.2-19.8 14.7-31.1 1.3-10.2-3-21.1 1.5-30.5 1.3-2.7 3.3-5.1 5.2-7.5 8.3-10.1 16.6-20.3 24.9-30.4 2.6-3.1 5.3-6.4 9.2-7.9 4.5-1.7 9.5-0.7 14.2 0.2 8.1 1.7 16.1 3.3 24.2 5 2.3 0.5 4.8 1 6.5 2.6 1.4 1.3 2 3.1 2.5 4.8 2.5 9-2.7 13.9-6.4 22.7l-1.1-0.6z" fill="#7BAD37" /><path d="M502.1 122.3c1.6 13.9 3.1 27.9 4.7 41.8 0.8 7.5 1.5 15.7-2.8 22.1-2 2.9-5 5.3-6.4 8.6-4.3 9.9 8.2 20.6 5.1 30.9-0.9 3-3.1 5.5-5.2 7.9-12.3 14.2-25.2 28.8-42.9 36.8 3.2 3.2 3.4 8.2 1.6 12.2-1.8 4-5.2 7.2-8.7 10.2-15.6 13.1-34.5 22.9-54.8 28.4-4.7-3.9-9.5-7.8-14.2-11.8-0.7-0.6-1.5-1.2-1.8-2.1-1.3-3.4 4.3-5.2 7-7.7 4.1-3.9 1.5-10.4-2.3-14.6-3.7-4.2-8.7-8.3-8.7-13.7 0-5.8 5.6-10.1 9.8-14.5 15.9-16.6 14.4-41.6 24.2-61.8 5-10.4 13.2-19.8 14.7-31.1 1.3-10.2-3-21.1 1.5-30.5 1.3-2.7 3.3-5.1 5.2-7.5 8.3-10.1 16.6-20.3 24.9-30.4 2.6-3.1 5.3-6.4 9.2-7.9 4.5-1.7 9.5-0.7 14.2 0.2 8.1 1.7 16.1 3.3 24.2 5 2.3 0.5 4.8 1 6.5 2.6 1.4 1.3 2 3.1 2.5 4.8 2.5 9-2.7 13.9-6.4 22.7l-1.1-0.6z" opacity=".2" /><path d="M337.9 381.1c-11-33.5-0.4-72.1 26.5-97-9.8-1.8-15.3-12.1-14.2-21.2 1-9.1 6.8-17 12.3-24.6 13.9-18.7 27.7-37.5 41.6-56.2 5.5-7.4 11.2-15 19.5-19.6 6.1-3.4 13.2-4.9 19.6-7.9 18.6-8.5 28.6-26.9 43.8-39.9s43.8-18 53.8-1.4c-12.8 9-27 21.2-23.9 35.7 0.9 4 3.1 7.8 3.7 11.8 2.1 12.9-11.4 23.9-12.3 36.9-0.6 8.6 4.4 17.3 2.1 25.6-1.7 6.3-7.3 11.1-11.3 16.5-13.2 17.5-11 41.9-24.3 59.4-16.1 21.3-51.1 26.8-63.8 49.9-4.8 8.8-5.8 19.2-11.5 27.5-4.7 6.8-12.1 11.6-19.3 16.1-8.6 5.5-18.2 11.2-28.6 10.2s-19.5-12.8-13-20.4l-0.7-1.4z" opacity=".2" /><path d="M354.5 381.1c-11-33.5-0.4-72.1 26.5-97-9.8-1.8-15.3-12.1-14.2-21.2 1-9.1 6.8-17 12.3-24.6 13.9-18.7 27.7-37.5 41.6-56.2 5.5-7.4 11.2-15 19.5-19.6 6.1-3.4 13.2-4.9 19.6-7.9 18.6-8.5 28.6-26.9 43.8-39.9s43.8-18 53.8-1.4c-12.8 9-27 21.2-23.9 35.7 0.9 4 3.1 7.8 3.7 11.8 2.1 12.9-11.4 23.9-12.3 36.9-0.6 8.6 4.4 17.3 2.1 25.6-1.7 6.3-7.3 11.1-11.3 16.5-13.2 17.5-11 41.9-24.3 59.4-16.1 21.3-51.1 26.8-63.8 49.9-4.8 8.8-5.8 19.2-11.5 27.5-4.7 6.8-12.1 11.6-19.3 16.1-8.6 5.5-18.2 11.2-28.6 10.2s-19.5-12.8-13-20.4l-0.7-1.4z" fill="#7BAD37" /><path d="M348.2 402.7c-13.3-0.9-17.3-7.3-29.9-11.3-7.8-2.5-16.1-6.3-19.1-13.3-1.3-3.1-1.6-6.8-4.1-9.3-3.9-3.9-10.7-2.6-16.4-1.8s-13.4-0.8-13.9-6.1c-0.2-2.4 1.3-4.9 0.6-7.2-1.2-3.6-7.1-4.6-7.9-8.3-0.2-1 0-2 0-3-0.1-6.1-8-9.2-14.3-11.2-14.6-4.7-27.8-12.3-40.9-19.8-3.1-1.8-6.3-3.7-8.3-6.5-1.4-2-2.1-4.3-2.8-6.6-5.4-18.6-10.9-37.7-9.2-56.9 0.2-2.2 0.5-4.4 0.2-6.6-0.4-2.5-1.5-4.9-2.5-7.3-5.4-12.3-8.7-25.3-9.7-38.5-0.5-7.1-0.3-14.4 2.8-20.9 1.4-2.9 3.4-5.6 4-8.7 0.7-3.3-0.2-6.8 0.7-10.1 1.3-4.3 5.5-7.3 8.9-10.6 5.5-5.2 9.3-11.6 13.8-17.5 4.6-5.9 10.3-11.5 17.7-13.7 7.5-2.2 17 0 20.4 6.5 2.5 4.8 1.4 10.6 4 15.3 4.4 7.8 16.4 8.5 23.5 14.3 5.5 4.6 7.4 11.8 11.6 17.5 4.7 6.4 12.1 10.6 17.7 16.3 18.8 19.2 13.1 49.3 23.4 73.2 6.6 15.4 19.7 27.7 33.5 38.5 6.9 5.4 14.2 10.6 18.7 17.9 3.1 5 4.6 10.7 6.1 16.4 4.4 16.7 8.8 33.4 13.2 50 1.3 4.9 2.3 10.6-1.3 14.3-1.7 1.7-4.1 2.6-6.4 3.5-11.3 4.2-22.6 8.5-33.8 12.7l-0.3-1.2z" opacity=".2" /><path d="M331.6 402.7c-13.3-0.9-17.3-7.3-29.9-11.3-7.8-2.5-16.1-6.3-19.1-13.3-1.3-3.1-1.6-6.8-4.1-9.3-3.9-3.9-10.7-2.6-16.4-1.8s-13.4-0.8-13.9-6.1c-0.2-2.4 1.3-4.9 0.6-7.2-1.2-3.6-7.1-4.6-7.9-8.3-0.2-1 0-2 0-3-0.1-6.1-8-9.2-14.3-11.2-14.6-4.7-27.8-12.3-40.9-19.8-3.1-1.8-6.3-3.7-8.3-6.5-1.4-2-2.1-4.3-2.8-6.6-5.4-18.6-10.9-37.7-9.2-56.9 0.2-2.2 0.5-4.4 0.2-6.6-0.4-2.5-1.5-4.9-2.5-7.3-5.4-12.3-8.7-25.3-9.7-38.5-0.5-7.1-0.3-14.4 2.8-20.9 1.4-2.9 3.4-5.6 4-8.7 0.7-3.3-0.2-6.8 0.7-10.1 1.3-4.3 5.5-7.3 8.9-10.6 5.5-5.2 9.3-11.6 13.8-17.5s10.3-11.5 17.7-13.7c7.5-2.2 17 0 20.4 6.5 2.5 4.8 1.4 10.6 4 15.3 4.4 7.8 16.4 8.5 23.5 14.3 5.5 4.6 7.4 11.8 11.6 17.5 4.7 6.4 12.1 10.6 17.7 16.3 18.8 19.2 13.1 49.3 23.4 73.2 6.6 15.4 19.7 27.7 33.5 38.5 6.9 5.4 14.2 10.6 18.7 17.9 3.1 5 4.6 10.7 6.1 16.4 4.4 16.7 8.8 33.4 13.2 50 1.3 4.9 2.3 10.6-1.3 14.3-1.7 1.7-4.1 2.6-6.4 3.5-11.3 4.2-22.6 8.5-33.8 12.7l-0.3-1.2z" fill="#7BAD37" /><path d="M513.2 152.3c0.7 0.5-8.9 10.6-21.7 28.5-12.8 17.8-28.1 43.9-41.1 74.3-6.6 15.1-11.7 30.2-19.4 42.9-7.4 13-18.4 22.2-28 28.4-9.6 6.3-17.5 11.1-22.6 14.8-5.2 3.6-7.8 5.9-8.1 5.6-6.1-4.9 57.5-25.8 73-93.6 13.1-30.7 29.2-56.9 43-74.5 6.9-8.8 13-15.5 17.4-20 4.6-4.3 7.3-6.6 7.5-6.4z" fill="#DEE3A0" /><path d="M499.1 249.5c0.6 0.4-3 6.7-9.5 16.5-3.3 4.9-7.2 10.7-11.6 17.1-2.2 3.1-4.4 6.7-8 10-3.6 3.4-8.4 5.4-12.9 6.9-35.8 11.9-57.8 32.8-58.9 31.6-1.3-0.5 19.8-23.9 56.9-36.3 4.4-1.5 8.3-3.2 11.1-5.8 2.9-2.6 5.1-5.9 7.5-9 4.7-6.2 9-11.8 12.6-16.5 7.4-9.4 12.2-14.9 12.8-14.5zM435 197.6c0.8 0.3-0.5 4.8-1 12-0.7 7.3 0 17.4 1.5 28.7s2.5 21.8 1.9 29.5c-0.5 7.7-2.1 12.2-2.7 12.1-0.8-0.1-0.6-4.7-1.2-12.1-0.5-7.4-2-17.5-3.5-28.9-1.5-11.4-1.6-22.2 0.1-29.7 1.7-7.6 4.3-11.8 4.9-11.6zM503 186.8c1.4 0.4-2.1 10.2-12.7 17.7-10.5 7.5-21.8 8.1-21.9 6.8-0.3-1.4 9.2-4.1 18.5-10.8 9.5-6.6 14.7-14.3 16.1-13.7zM206.8 154.9c1.1 0-3.9 15.2 3.5 38.4 3.5 11.5 10.1 24.5 19.1 38.2 8.8 13.8 19.9 28.3 29.2 45 9.3 16.6 16.8 32.8 26.5 45.9 9.5 13.2 21.4 22.5 32.2 29.4 21.8 13.5 36.8 19.9 36.3 20.8-0.2 0.3-4-1.1-10.7-4-6.7-2.9-16.5-7.2-27.7-13.9-11.2-6.6-24.1-16.1-34.2-29.7-10.3-13.4-18.1-29.8-27.2-46.2-9.1-16.3-20-30.9-28.7-45-8.8-14-15.3-27.6-18.4-39.6-3.2-12-3.4-22.2-2.5-29 0.8-6.8 2.3-10.4 2.6-10.3z" fill="#DEE3A0" /><path d="M293.7 271.5c2.2 0-0.6 19.5 4.2 41.8 5.9 22.1 21.5 36.3 19.7 37.4-0.5 0.4-4.7-2.6-10.1-8.7-5.3-6-12-15.5-15-27.5-2.9-11.9-2.3-22.9-1.5-30.6 0.8-7.8 2-12.4 2.7-12.4zM204.9 270.8c0.8-1.2 17.4 6.8 37 17.8 9.7 5.5 18.9 10.6 24.2 16.1 5.4 5.4 6.5 10.1 5.8 10.2-0.8 0.3-3-3.4-8.5-7.7-5.4-4.4-14.5-8.8-24.4-14.3-19.6-11-34.9-20.9-34.1-22.1z" fill="#DEE3A0" /><path d="M244.7 168c0.5-0.4 4.7 3.6 6.7 11.9 2.5 8.4-0.2 19.5-1.9 31.7-4.7 24-2.6 43.6-4.2 43.8-1.4 0.4-6-20-1.2-44.5 1.8-12 4.9-22.8 3.6-30.5-1-7.7-3.7-12-3-12.4z" fill="#DEE3A0" /><path d="M311.1 194.7c-1.7-3.4-3-6.7-4.4-10 1.2-2.3 1.2-14.8 3.2-29.9 2.1-16.6 5.8-29.8 4.3-30.3-1.4-0.5-7.6 12.5-9.7 29.7-1.4 10.5-0.9 19.7 0 25.3-6.4-16.5-9.6-32.3-12.2-44.3-3.1-15.8-5-25.6-5.8-25.5-0.7 0.1-0.2 10 1.9 26 2.3 15.9 6.1 38.4 17.8 61.1 12.4 22.4 29.2 38.6 34.8 53.9 6.7 14.7 10.2 24.2 11 23.9 0.6-0.2-1.5-9.9-7.4-25.3-4.9-15.9-21.8-33.3-33.5-54.6z m21.7 31.2c1.6-0.1 1.4-11.8 2.4-26.1 0.9-14.2 2.7-25.8 1.1-26.1-1.4-0.3-5.7 11.1-6.7 25.8-0.9 14.8 1.7 26.6 3.2 26.4z m59.7-44.5c-0.9-7-1.8-14.8-2.8-22.9-4.2-32.5-8.9-58.7-10.4-58.5-1.5 0.2 0.7 26.6 4.9 59.1 1.1 8.1 2.2 15.8 3.2 22.9 0.7 6.9 1.3 13.1 1.8 18.4-0.7 10.3-2.9 16.9-1.9 17.1 0.5 0.1 4-5.8 5.8-16.8 0.1-5.6-0.1-12.1-0.6-19.3z" fill="#DEE3A0" /><path d="M311.1 194.7c-1.7-3.4-3-6.7-4.4-10 1.2-2.3 1.2-14.8 3.2-29.9 2.1-16.6 5.8-29.8 4.3-30.3-1.4-0.5-7.6 12.5-9.7 29.7-1.4 10.5-0.9 19.7 0 25.3-6.4-16.5-9.6-32.3-12.2-44.3-3.1-15.8-5-25.6-5.8-25.5-0.7 0.1-0.2 10 1.9 26 2.3 15.9 6.1 38.4 17.8 61.1 12.4 22.4 29.2 38.6 34.8 53.9 6.7 14.7 10.2 24.2 11 23.9 0.6-0.2-1.5-9.9-7.4-25.3-4.9-15.9-21.8-33.3-33.5-54.6z m21.7 31.2c1.6-0.1 1.4-11.8 2.4-26.1 0.9-14.2 2.7-25.8 1.1-26.1-1.4-0.3-5.7 11.1-6.7 25.8-0.9 14.8 1.7 26.6 3.2 26.4z m59.7-44.5c-0.9-7-1.8-14.8-2.8-22.9-4.2-32.5-8.9-58.7-10.4-58.5-1.5 0.2 0.7 26.6 4.9 59.1 1.1 8.1 2.2 15.8 3.2 22.9 0.7 6.9 1.3 13.1 1.8 18.4-0.7 10.3-2.9 16.9-1.9 17.1 0.5 0.1 4-5.8 5.8-16.8 0.1-5.6-0.1-12.1-0.6-19.3z" opacity=".2" /><path d="M311.1 194.7c-1.7-3.4-3-6.7-4.4-10 1.2-2.3 1.2-14.8 3.2-29.9 2.1-16.6 5.8-29.8 4.3-30.3-1.4-0.5-7.6 12.5-9.7 29.7-1.4 10.5-0.9 19.7 0 25.3-6.4-16.5-9.6-32.3-12.2-44.3-3.1-15.8-5-25.6-5.8-25.5-0.7 0.1-0.2 10 1.9 26 2.3 15.9 6.1 38.4 17.8 61.1 12.4 22.4 29.2 38.6 34.8 53.9 6.7 14.7 10.2 24.2 11 23.9 0.6-0.2-1.5-9.9-7.4-25.3-4.9-15.9-21.8-33.3-33.5-54.6z m21.7 31.2c1.6-0.1 1.4-11.8 2.4-26.1 0.9-14.2 2.7-25.8 1.1-26.1-1.4-0.3-5.7 11.1-6.7 25.8-0.9 14.8 1.7 26.6 3.2 26.4z m59.7-44.5c-0.9-7-1.8-14.8-2.8-22.9-4.2-32.5-8.9-58.7-10.4-58.5-1.5 0.2 0.7 26.6 4.9 59.1 1.1 8.1 2.2 15.8 3.2 22.9 0.7 6.9 1.3 13.1 1.8 18.4-0.7 10.3-2.9 16.9-1.9 17.1 0.5 0.1 4-5.8 5.8-16.8 0.1-5.6-0.1-12.1-0.6-19.3z" fill="#DEE3A0" /><path d="M311.1 194.7c-1.7-3.4-3-6.7-4.4-10 1.2-2.3 1.2-14.8 3.2-29.9 2.1-16.6 5.8-29.8 4.3-30.3-1.4-0.5-7.6 12.5-9.7 29.7-1.4 10.5-0.9 19.7 0 25.3-6.4-16.5-9.6-32.3-12.2-44.3-3.1-15.8-5-25.6-5.8-25.5-0.7 0.1-0.2 10 1.9 26 2.3 15.9 6.1 38.4 17.8 61.1 12.4 22.4 29.2 38.6 34.8 53.9 6.7 14.7 10.2 24.2 11 23.9 0.6-0.2-1.5-9.9-7.4-25.3-4.9-15.9-21.8-33.3-33.5-54.6z m21.7 31.2c1.6-0.1 1.4-11.8 2.4-26.1 0.9-14.2 2.7-25.8 1.1-26.1-1.4-0.3-5.7 11.1-6.7 25.8-0.9 14.8 1.7 26.6 3.2 26.4z m59.7-44.5c-0.9-7-1.8-14.8-2.8-22.9-4.2-32.5-8.9-58.7-10.4-58.5-1.5 0.2 0.7 26.6 4.9 59.1 1.1 8.1 2.2 15.8 3.2 22.9 0.7 6.9 1.3 13.1 1.8 18.4-0.7 10.3-2.9 16.9-1.9 17.1 0.5 0.1 4-5.8 5.8-16.8 0.1-5.6-0.1-12.1-0.6-19.3z" opacity=".2" /><path d="M644.1 376.6c-7.6 10.2-11.2 20-10 20.5 1.2 0.6 6.5-7.9 13.9-17.7 7.3-9.9 14-17.4 13-18.4-0.9-0.9-9.3 5.4-16.9 15.6z m2.8-44.6c-5.9 6.9-9.8 13.9-11.8 18.3 3.1-15 8.1-27.9 11.8-37.7 5.1-12.8 8.3-20.8 7.7-21.1-0.6-0.3-4.8 7.2-10.8 19.7-5.7 12.6-13.5 30.6-15.6 52.5-1.5 22 3.2 41.5 0 55.2-2 13.8-3.9 22.2-3.2 22.4 0.5 0.1 3.5-7.9 6.4-21.7 4-13.8-0.1-34.2 1.3-55.2 0.3-3.2 0.9-6.2 1.4-9.3 1.9-1.1 7.7-10.2 16.2-20.1 9.2-11 18.1-18.9 17.2-19.9-0.5-1-11.1 5.5-20.6 16.9z m55.6 40.7c-3 6.4-5.8 12.5-8.3 18-2.7 5.3-5.2 10.1-7.3 14.1-5.3 7.1-10 10.9-9.4 11.5 0.3 0.3 5.6-2.3 12-9.4 2.6-3.9 5.5-8.7 8.5-14.2 2.7-5.5 5.6-11.5 8.7-17.9 12.1-25.5 20.9-46.6 19.7-47.1-1.2-0.6-11.9 19.6-23.9 45z" opacity=".2" /><path d="M644.1 376.6c-7.6 10.2-11.2 20-10 20.5 1.2 0.6 6.5-7.9 13.9-17.7 7.3-9.9 14-17.4 13-18.4-0.9-0.9-9.3 5.4-16.9 15.6z m2.8-44.6c-5.9 6.9-9.8 13.9-11.8 18.3 3.1-15 8.1-27.9 11.8-37.7 5.1-12.8 8.3-20.8 7.7-21.1-0.6-0.3-4.8 7.2-10.8 19.7-5.7 12.6-13.5 30.6-15.6 52.5-1.5 22 3.2 41.5 0 55.2-2 13.8-3.9 22.2-3.2 22.4 0.5 0.1 3.5-7.9 6.4-21.7 4-13.8-0.1-34.2 1.3-55.2 0.3-3.2 0.9-6.2 1.4-9.3 1.9-1.1 7.7-10.2 16.2-20.1 9.2-11 18.1-18.9 17.2-19.9-0.5-1-11.1 5.5-20.6 16.9z m55.6 40.7c-3 6.4-5.8 12.5-8.3 18-2.7 5.3-5.2 10.1-7.3 14.1-5.3 7.1-10 10.9-9.4 11.5 0.3 0.3 5.6-2.3 12-9.4 2.6-3.9 5.5-8.7 8.5-14.2 2.7-5.5 5.6-11.5 8.7-17.9 12.1-25.5 20.9-46.6 19.7-47.1-1.2-0.6-11.9 19.6-23.9 45z" opacity=".2" /><path d="M453.5 855.2c0.3-20.8 0.2-41.5-0.6-62.3 1.4-0.2 2.2-0.4 2.2-0.7 0-0.2-0.9-0.5-2.2-0.7-2.1-55.1-7.5-110-14-164.9-44.6 63.7-103 140.7-150.9 182.6-7.3 6.4-14.8 12.8-18.9 21.5-8.1 17.3-0.1 40.2 14.1 57.3 14.2 17.1 33.8 29.5 53 41.6 2 1.3 4.1 2.6 6.2 3.9 11.4 0.6 22.9 0.6 34.3 0.5 12-0.1 24.8-0.6 36.4-3 1.9-2.4 3.7-4.9 5.4-7.3 3.1-4.5 6.1-9.2 9.1-13.7 2.2 1.1 3.8 1.8 4 1.5 0.2-0.2-1.1-1.4-3-2.9 8.6-13 16.9-26.2 24.9-39.5 0-3.9 0.1-7.9 0.2-11.8 2.9-0.3 4.8-0.6 4.8-1s-2.2-0.8-5-1.1z" opacity=".2" /><path d="M309.7 820.7c-7.3 6.4-14.8 12.8-18.9 21.5-8.1 17.3-0.1 40.2 14.1 57.3s33.8 29.5 53 41.6c16.7 10.6 36.2 21.7 53.8 17.8 13.2-2.9 21.4-13.6 28.5-23.9 55.6-80.3 97.7-169.1 139.7-257.6 18.1-38.1 36.1-76.2 54.2-114.2 5.2-10.9 10.5-22.3 10.1-35-0.7-24.2-14.5-42-40.7-45-34.5-3.8-56.8 24.6-73.1 50.2-0.1 0.1-129.3 207.4-220.7 287.3z" fill="#DEE3A0" /><path d="M767.4 347.9c-1.4 12.2-2.7 24.3-4.1 36.5-0.7 6.6-1.7 13.6-6.5 18.1-2.2 2-5.1 3.4-6.9 5.8-5.4 7.4 2.9 19.4-1.7 27.4-1.3 2.3-3.6 4-5.8 5.5-12.8 9.2-26.2 18.6-42.2 21.3 2 3.4 1.3 7.7-1 10.7s-5.6 4.9-9 6.6c-15.3 7.5-32.7 11.5-50.4 11.4-3.1-4.4-6.3-8.8-9.4-13.2-0.5-0.7-1-1.4-1.1-2.2-0.5-3.2 4.5-3.4 7.2-4.9 4.1-2.3 3.2-8.5 0.9-12.9-2.3-4.4-5.5-9-4.5-13.6 1.1-4.9 6.5-7.3 10.8-10 16.2-10.4 19.7-32 31.6-46.8 6.1-7.6 14.6-13.7 18-22.9 3-8.3 1.6-18.6 7-25.5 1.6-2 3.7-3.6 5.7-5.2 8.7-6.7 17.5-13.3 26.2-20 2.7-2.1 5.6-4.2 9.1-4.5 4-0.4 7.9 1.6 11.6 3.5 6.3 3.3 12.6 6.5 18.9 9.8 1.8 0.9 3.7 2 4.8 3.7 0.9 1.4 1.1 3.1 1.1 4.6 0.4 8.2-4.9 11.2-9.5 17.7l-0.8-0.9z" fill="#7BAD37" /><path d="M767.4 347.9c-1.4 12.2-2.7 24.3-4.1 36.5-0.7 6.6-1.7 13.6-6.5 18.1-2.2 2-5.1 3.4-6.9 5.8-5.4 7.4 2.9 19.4-1.7 27.4-1.3 2.3-3.6 4-5.8 5.5-12.8 9.2-26.2 18.6-42.2 21.3 2 3.4 1.3 7.7-1 10.7s-5.6 4.9-9 6.6c-15.3 7.5-32.7 11.5-50.4 11.4-3.1-4.4-6.3-8.8-9.4-13.2-0.5-0.7-1-1.4-1.1-2.2-0.5-3.2 4.5-3.4 7.2-4.9 4.1-2.3 3.2-8.5 0.9-12.9-2.3-4.4-5.5-9-4.5-13.6 1.1-4.9 6.5-7.3 10.8-10 16.2-10.4 19.7-32 31.6-46.8 6.1-7.6 14.6-13.7 18-22.9 3-8.3 1.6-18.6 7-25.5 1.6-2 3.7-3.6 5.7-5.2 8.7-6.7 17.5-13.3 26.2-20 2.7-2.1 5.6-4.2 9.1-4.5 4-0.4 7.9 1.6 11.6 3.5 6.3 3.3 12.6 6.5 18.9 9.8 1.8 0.9 3.7 2 4.8 3.7 0.9 1.4 1.1 3.1 1.1 4.6 0.4 8.2-4.9 11.2-9.5 17.7l-0.8-0.9z" opacity=".2" /><path d="M526.155466 632.184656a50.2 2.9 32.772 1 0 3.139525-4.876821 50.2 2.9 32.772 1 0-3.139525 4.876821Z" opacity=".2" /><path d="M501.221829 712.842998a50.2 2.9 32.772 1 0 3.139525-4.876822 50.2 2.9 32.772 1 0-3.139525 4.876822Z" opacity=".2" /><path d="M431.99676 765.097043a50.2 2.9 32.772 1 0 3.139524-4.876821 50.2 2.9 32.772 1 0-3.139524 4.876821Z" opacity=".2" /><path d="M418.908924 838.394728a71.7 2.6 32.772 1 0 2.814746-4.372323 71.7 2.6 32.772 1 0-2.814746 4.372323Z" opacity=".2" /><path d="M386.886206 848.498392a71.7 2.6 32.772 1 0 2.814747-4.372322 71.7 2.6 32.772 1 0-2.814747 4.372322Z" opacity=".2" /><path d="M391.463273 886.180353a71.7 2.6 32.772 1 0 2.814746-4.372322 71.7 2.6 32.772 1 0-2.814746 4.372322Z" opacity=".2" /><path d="M686.6 519.3c6.2-11.7 12.5-23.3 18.7-35 1.5-2.7 2.9-5.5 3.7-8.6 2.6-10.5-4-21.7-4.7-32.8-0.8-12.2 5.5-23.1 8.4-34.7 5.7-22.5-0.9-49.1 11.6-68.5 3.3-5.1 8-10.3 6.8-16.5-1.1-5.8-6.9-9.7-11.5-13.7-4.6-4.1-8.6-10.8-5.3-15.4 2.2-3 7.5-5.5 5.4-9-0.5-0.9-1.4-1.5-2.2-2-5.5-3.7-11.1-7.4-16.6-11.1-19.2 7.9-36.2 20.3-49.1 35.9-2.9 3.5-5.6 7.3-6.6 11.7-1 4.5 0.3 9.8 4.2 12.9-16.1 10.4-26 27.3-35.5 43.7-1.6 2.8-3.3 5.7-3.6 9-1 11.3 13.7 21.4 11.4 32.5-0.7 3.6-3.2 6.5-4.6 9.8-3.1 7.3-0.7 15.9 1.7 23.9 4.4 14.7 8.9 29.4 13.3 44.1l-1.3-0.4c-1.8 9.7-6.1 15.5-1.7 24.9 0.8 1.8 1.9 3.6 3.5 4.9 2 1.5 4.6 1.8 7 2.1 8.4 1 16.8 1.9 25.2 2.9 4.9 0.6 10.1 1.1 14.3-1.2 3.5-2 5.6-5.8 7.5-9.4z" opacity=".2" /><path d="M620.1 487.9c-4.4-14.7-8.9-29.4-13.3-44.1-2.4-7.9-4.8-16.6-1.7-23.9 1.4-3.3 3.9-6.2 4.6-9.8 2.3-11-12.5-21.2-11.4-32.5 0.3-3.3 1.9-6.2 3.6-9 9.4-16.4 19.3-33.3 35.5-43.7-3.9-3.1-5.1-8.4-4.2-12.9 0.9-4.5 3.7-8.3 6.6-11.7 12.9-15.6 29.9-28 49.1-35.9 5.5 3.7 11.1 7.4 16.6 11.1 0.9 0.6 1.7 1.2 2.2 2 2 3.5-3.2 5.9-5.4 9-3.3 4.5 0.7 11.3 5.3 15.4s10.4 8 11.5 13.7c1.2 6.2-3.5 11.4-6.8 16.5-12.5 19.4-5.9 45.9-11.6 68.5-2.9 11.6-9.2 22.5-8.4 34.7 0.7 11 7.3 22.3 4.7 32.8-0.7 3-2.2 5.8-3.7 8.6-6.2 11.7-12.5 23.3-18.7 35-1.9 3.6-4 7.4-7.7 9.3-4.1 2.2-9.4 1.7-14.3 1.2-8.4-1-16.8-1.9-25.2-2.9-2.4-0.3-5-0.6-7-2.1-1.6-1.2-2.6-3.1-3.5-4.9-4.4-9.4-0.1-15.2 1.7-24.9l1.5 0.5z" fill="#7BAD37" /><path d="M620.1 487.9c-4.4-14.7-8.9-29.4-13.3-44.1-2.4-7.9-4.8-16.6-1.7-23.9 1.4-3.3 3.9-6.2 4.6-9.8 2.3-11-12.5-21.2-11.4-32.5 0.3-3.3 1.9-6.2 3.6-9 9.4-16.4 19.3-33.3 35.5-43.7-3.9-3.1-5.1-8.4-4.2-12.9 0.9-4.5 3.7-8.3 6.6-11.7 12.9-15.6 29.9-28 49.1-35.9 5.5 3.7 11.1 7.4 16.6 11.1 0.9 0.6 1.7 1.2 2.2 2 2 3.5-3.2 5.9-5.4 9-3.3 4.5 0.7 11.3 5.3 15.4s10.4 8 11.5 13.7c1.2 6.2-3.5 11.4-6.8 16.5-12.5 19.4-5.9 45.9-11.6 68.5-2.9 11.6-9.2 22.5-8.4 34.7 0.7 11 7.3 22.3 4.7 32.8-0.7 3-2.2 5.8-3.7 8.6-6.2 11.7-12.5 23.3-18.7 35-1.9 3.6-4 7.4-7.7 9.3-4.1 2.2-9.4 1.7-14.3 1.2-8.4-1-16.8-1.9-25.2-2.9-2.4-0.3-5-0.6-7-2.1-1.6-1.2-2.6-3.1-3.5-4.9-4.4-9.4-0.1-15.2 1.7-24.9l1.5 0.5z" opacity=".2" /><path d="M814.6 404.7l0.6 0.9c6.7-4.6 12.8-5.7 15.2-13.4 0.5-1.5 0.8-3.1 0.4-4.6-0.5-1.9-2-3.4-3.5-4.9-5.1-4.9-10.1-9.9-15.2-14.8-2.9-2.9-6.1-5.9-10.1-6.8-3.5-0.8-7 0.3-10.3 1.4-10.7 3.5-21.4 6.9-32.2 10.4-2.5 0.8-5.1 1.6-7.3 3-7.6 4.7-9.6 14.6-15.3 21.4-6.3 7.5-16.6 10.5-25.1 15.6-16.5 10-27.1 28.8-46.3 33.4-5.1 1.2-11.1 1.7-13.8 5.9-2.5 3.9-0.8 9.2-0.1 13.9 0.8 4.8-0.4 10.7-5.2 11.6-3.2 0.6-8.1-0.8-8.7 2.3-0.2 0.8 0.1 1.6 0.3 2.3 1.6 5 3.2 10.1 4.8 15.1 17.2 5.5 35.5 7.2 52.9 5 3.9-0.5 7.8-1.2 11-3.3 3.2-2.1 5.3-5.8 4.5-9.6 16.6 2.5 32.7-2.1 48.2-6.6 2.7-0.8 5.4-1.6 7.4-3.3 7-6 3-19.6 10.7-24.7 2.5-1.7 5.8-2 8.6-3.2 6.1-2.6 9.4-8.8 12.3-14.7 5.5-10.7 10.9-21.5 16.2-32.3z" opacity=".2" /><path d="M826.6 412.4c-5.3 10.8-10.7 21.6-16 32.4-2.9 5.8-6.2 12-12.3 14.7-2.8 1.2-6.1 1.5-8.6 3.2-7.7 5.2-3.6 18.8-10.7 24.7-2.1 1.7-4.8 2.5-7.4 3.3-15.5 4.5-31.6 9.1-48.2 6.6 0.8 3.8-1.3 7.5-4.5 9.6-3.2 2.1-7.1 2.8-11 3.3-17.4 2.2-35.6 0.5-52.9-5-1.6-5-3.2-10.1-4.8-15.1-0.2-0.8-0.5-1.6-0.3-2.3 0.6-3.1 5.5-1.7 8.7-2.3 4.8-0.9 5.9-6.9 5.2-11.6-0.8-4.8-2.4-10 0.1-14 2.7-4.2 8.7-4.7 13.8-5.9 19.2-4.6 29.8-23.4 46.3-33.4 8.5-5.2 18.8-8.2 25.1-15.6 5.7-6.8 7.7-16.7 15.3-21.4 2.2-1.4 4.8-2.2 7.3-3 10.7-3.5 21.4-6.9 32.2-10.4 3.3-1.1 6.8-2.1 10.3-1.4 4 0.9 7.2 3.9 10.1 6.8 5.1 4.9 10.1 9.9 15.2 14.8 1.5 1.4 3 3 3.5 4.9 0.4 1.6 0 3.1-0.4 4.6-2.4 7.7-8.5 8.8-15.2 13.4l-0.8-0.9z" fill="#7BAD37" /><path d="M826.6 412.4c-5.3 10.8-10.7 21.6-16 32.4-2.9 5.8-6.2 12-12.3 14.7-2.8 1.2-6.1 1.5-8.6 3.2-7.7 5.2-3.6 18.8-10.7 24.7-2.1 1.7-4.8 2.5-7.4 3.3-15.5 4.5-31.6 9.1-48.2 6.6 0.8 3.8-1.3 7.5-4.5 9.6-3.2 2.1-7.1 2.8-11 3.3-17.4 2.2-35.6 0.5-52.9-5-1.6-5-3.2-10.1-4.8-15.1-0.2-0.8-0.5-1.6-0.3-2.3 0.6-3.1 5.5-1.7 8.7-2.3 4.8-0.9 5.9-6.9 5.2-11.6-0.8-4.8-2.4-10 0.1-14 2.7-4.2 8.7-4.7 13.8-5.9 19.2-4.6 29.8-23.4 46.3-33.4 8.5-5.2 18.8-8.2 25.1-15.6 5.7-6.8 7.7-16.7 15.3-21.4 2.2-1.4 4.8-2.2 7.3-3 10.7-3.5 21.4-6.9 32.2-10.4 3.3-1.1 6.8-2.1 10.3-1.4 4 0.9 7.2 3.9 10.1 6.8 5.1 4.9 10.1 9.9 15.2 14.8 1.5 1.4 3 3 3.5 4.9 0.4 1.6 0 3.1-0.4 4.6-2.4 7.7-8.5 8.8-15.2 13.4l-0.8-0.9z" opacity=".2" /><path d="M587.3 523.2c7.7-29.3 33.3-52.4 64.3-57.8-6.2-5.8-5.4-15.9-0.4-22s12.8-9.2 20.4-12c18.8-7.1 37.5-14.2 56.3-21.3 7.4-2.8 15.1-5.6 23.2-5.1 6 0.4 11.9 2.6 17.8 3.4 17.4 2.5 33.3-6.2 50.2-8.5 17-2.3 40.1 7.4 39.6 24-13.4 0.6-29.4 2.8-33.9 14.7-1.3 3.3-1.4 7-2.8 10.3-4.5 10.3-19.4 12-26.1 21-4.5 5.9-4.9 14.5-10.4 19.5-4.2 3.8-10.4 4.6-15.9 6.6-17.7 6.5-27.5 25.2-45.2 31.7-21.6 7.9-49.4-4.4-69.4 6.4-7.6 4.1-13.1 11.2-21.1 14.5-6.5 2.7-14.1 2.7-21.5 2.7-8.8-0.1-18.4-0.4-25.5-6-7.1-5.6-8.1-18.3 0.1-20.8l0.3-1.3z" opacity=".2" /><path d="M599.3 530.9c7.7-29.3 33.3-52.4 64.3-57.8-6.2-5.8-5.4-15.9-0.4-22s12.8-9.2 20.4-12c18.8-7.1 37.5-14.2 56.3-21.3 7.4-2.8 15.1-5.6 23.2-5.1 6 0.4 11.9 2.6 17.8 3.4 17.4 2.5 33.3-6.2 50.2-8.5 17-2.3 40.1 7.4 39.6 24-13.4 0.6-29.4 2.8-33.9 14.7-1.3 3.3-1.4 7-2.8 10.3-4.5 10.3-19.4 12-26.1 21-4.5 5.9-4.9 14.5-10.4 19.5-4.2 3.8-10.4 4.6-15.9 6.6-17.7 6.5-27.5 25.2-45.2 31.7-21.6 7.9-49.4-4.4-69.4 6.4-7.6 4.1-13.1 11.2-21.1 14.5-6.5 2.7-14.1 2.7-21.5 2.7-8.8-0.1-18.4-0.4-25.5-6s-8.1-18.3 0.1-20.8l0.3-1.3z" fill="#7BAD37" /><path d="M584.8 543.5c-9.2-6.9-9.1-13.3-16.3-22.1-4.5-5.4-8.7-12-7.6-18.5 0.5-2.9 2-5.6 1.4-8.6-1-4.6-6.6-6.9-11-9-4.5-2.1-9.3-6.8-7.2-10.8 1-1.9 3.2-2.9 3.8-4.9 0.8-3.2-3-6.7-1.8-9.7 0.3-0.8 1-1.5 1.4-2.2 2.8-4.5-1.5-10.3-5.1-14.8-8.4-10.2-14.4-21.8-20.4-33.3-1.4-2.7-2.9-5.6-3-8.6-0.1-2.1 0.5-4.1 1.1-6.1 4.7-16 9.7-32.3 19.9-45.4 1.2-1.5 2.4-3 3.2-4.7 0.9-2 1.2-4.3 1.6-6.5 1.8-11.4 5.5-22.3 10.9-32.3 2.9-5.4 6.5-10.6 11.8-13.8 2.4-1.4 5-2.5 6.9-4.4 2-2.1 3-5 5.2-6.9 2.9-2.6 7.4-2.8 11.3-3.5 6.4-1.2 12.1-4.1 18.1-6.2 6-2.1 12.8-3.5 19.2-1.6 6.5 1.9 12.3 7.9 11.8 14.2-0.4 4.6-4 8.3-4.2 13-0.4 7.7 7.9 13.8 10.3 21.3 1.9 5.9-0.1 12 0.3 18 0.4 6.8 3.8 13.3 5.2 20 4.6 22.6-13.5 41.7-17.2 63.9-2.4 14.2 1.3 29.2 6.3 43.4 2.5 7.1 5.3 14.3 5.2 21.6-0.1 5.1-1.7 9.9-3.2 14.7L628.9 542c-1.3 4.1-3.2 8.8-7.6 9.8-2 0.5-4.2 0-6.3-0.4-10.1-2.2-20.3-4.4-30.4-6.6l0.2-1.3z" opacity=".2" /><path d="M572.8 535.8c-9.2-6.9-9.1-13.3-16.3-22.1-4.5-5.4-8.7-12-7.6-18.5 0.5-2.9 2-5.6 1.4-8.6-1-4.6-6.6-6.9-11-9-4.5-2.1-9.3-6.8-7.2-10.8 1-1.9 3.2-2.9 3.8-4.9 0.8-3.2-3-6.7-1.8-9.7 0.3-0.8 1-1.5 1.4-2.2 2.8-4.5-1.5-10.3-5.1-14.8C522 425 516 413.4 510 401.9c-1.4-2.7-2.9-5.6-3-8.6-0.1-2.1 0.5-4.1 1.1-6.1 4.7-16 9.7-32.3 19.9-45.4 1.2-1.5 2.4-3 3.2-4.7 0.9-2 1.2-4.3 1.6-6.5 1.8-11.4 5.5-22.3 10.9-32.3 2.9-5.4 6.5-10.6 11.8-13.8 2.4-1.4 5-2.5 6.9-4.4 2-2.1 3-5 5.2-6.9 2.9-2.6 7.4-2.8 11.3-3.5 6.4-1.2 12.1-4.1 18.1-6.2 6-2.1 12.8-3.5 19.2-1.6 6.5 1.9 12.3 7.9 11.8 14.2-0.4 4.6-4 8.3-4.2 13-0.4 7.7 7.9 13.8 10.3 21.3 1.9 5.9-0.1 12 0.3 18 0.4 6.8 3.8 13.3 5.2 20 4.6 22.6-13.5 41.7-17.2 63.9-2.4 14.2 1.3 29.2 6.3 43.4 2.5 7.1 5.3 14.3 5.2 21.6-0.1 5.1-1.7 9.9-3.2 14.7l-13.8 42.3c-1.3 4.1-3.2 8.8-7.6 9.8-2 0.5-4.2 0-6.3-0.4-10.1-2.2-20.3-4.4-30.4-6.6l0.2-1.3z" fill="#7BAD37" /><path d="M820.7 439.3c0.2 0.7-11.4 3.5-28.9 10.5-17.6 6.9-40.8 18.7-64.3 34.6-11.8 7.8-22.5 16.4-34 22-11.4 5.9-23.7 7.5-33.5 7.5-9.9 0.1-17.8-0.1-23.2 0.2-5.4 0.2-8.4 0.6-8.5 0.3-2.1-6.4 53.6 8.1 96.4-33.7 23.8-16.1 47.6-27.6 65.8-33.8 9.1-3.2 16.6-5.2 21.9-6.3 5.2-1.2 8.2-1.6 8.3-1.3z" fill="#DEE3A0" /><path d="M765.3 503c0.3 0.6-5.3 3.4-14.6 7.5-4.7 2-10.2 4.4-16.4 7-3.1 1.2-6.3 2.8-10.4 3.5-4.2 0.8-8.6 0-12.5-1-31.4-8.1-57.1-3.2-57.3-4.6-0.7-1 25.5-8.1 58 0.2 3.9 0.9 7.5 1.5 10.7 1 3.3-0.5 6.5-1.9 9.6-3 6.3-2.3 12-4.4 16.8-6.1 9.7-3.3 15.8-5.1 16.1-4.5zM743 435.7c0.5 0.6-2.5 3.2-6.4 8.2-3.9 5-8.1 12.6-12.3 21.5-4.2 8.9-8.4 16.9-12.3 22.2-3.9 5.3-7.2 7.9-7.6 7.5-0.6-0.5 1.7-3.7 4.8-9.3 3.1-5.6 6.7-13.6 10.9-22.6 4.2-9 9.2-16.8 14-21.4 4.7-4.8 8.6-6.6 8.9-6.1zM797.2 459.5c0.8 0.9-6.3 6.4-17.4 6.9-11.1 0.5-19.5-4.3-19-5.3 0.4-1.2 8.5 1.3 18.4 0.8 9.9-0.3 17.3-3.5 18-2.4zM597.8 298.5c0.8 0.5-9.9 9.2-15.3 29.4-2.8 10-4.1 22.4-4 36.5 0 14 1.2 29.7 0.2 46.2-1 16.3-3.1 31.6-2.2 45.5 0.7 14 5 26.3 9.6 36.3 9.5 19.9 17.4 31.6 16.6 31.9-0.3 0.1-2.4-2.6-5.9-7.9-3.5-5.2-8.5-12.9-13.6-22.9-5-10-9.9-22.9-10.9-37.4-1.2-14.5 0.8-30 1.8-46.1s-0.1-31.7 0.2-45.9c0.1-14.2 1.8-27.1 5.1-37.2 3.2-10.2 7.8-17.6 11.7-22.1 3.8-4.6 6.6-6.5 6.7-6.3z" fill="#DEE3A0" /><path d="M606.4 423.3c1.6 1-9.5 13.8-16.4 32.2-6 18.8-1.4 36.2-3.1 36.2-0.6 0.1-2.1-4.1-3.2-11-1-6.8-1.5-16.8 2-26.9 3.4-10 9-17.6 13.1-22.8 4.1-5.2 7.1-8.1 7.6-7.7zM542.5 381.5c1.1-0.5 9.4 13 18.5 30.1 4.5 8.5 8.8 16.4 10 22.9 1.4 6.4 0 10.3-0.6 10.1-0.7-0.1-0.6-3.9-2.6-9.5-1.9-5.7-6.4-13.1-11-21.7-9-17.2-15.4-31.5-14.3-31.9z" fill="#DEE3A0" /><path d="M619.2 325.6c0.5-0.1 1.7 4.8-0.7 11.7-2.1 7.2-9.2 14.1-16.2 22-14.5 15.1-22.2 30.3-23.5 29.7-1.2-0.4 5-17.2 19.8-32.8 6.9-7.8 14.2-14.2 16.8-20.4 3-5.8 3.1-10.2 3.8-10.2z" fill="#DEE3A0" /><path d="M665.9 388c-7.6 10.2-11.2 20-10 20.5 1.2 0.6 6.5-7.9 13.9-17.7 7.3-9.9 14-17.4 13-18.4-0.9-0.9-9.3 5.4-16.9 15.6z m2.8-44.6c-5.9 6.9-9.8 13.9-11.8 18.3 3.1-15 8.1-27.9 11.8-37.7 5.1-12.8 8.3-20.8 7.7-21.1-0.6-0.3-4.8 7.2-10.7 19.7-5.7 12.6-13.5 30.6-15.6 52.5-1.5 22 3.2 41.5 0 55.2-2 13.8-3.9 22.2-3.2 22.4 0.5 0.1 3.5-7.9 6.4-21.7 4-13.8-0.1-34.2 1.3-55.2 0.3-3.2 0.9-6.2 1.4-9.3 1.9-1.1 7.7-10.2 16.2-20.1 9.2-11 18.1-18.9 17.2-19.9-0.6-1-11.1 5.5-20.7 16.9z m55.6 40.8c-3 6.4-5.8 12.5-8.3 18-2.7 5.3-5.2 10.1-7.3 14.1-5.3 7.1-10 10.9-9.4 11.5 0.3 0.3 5.6-2.3 12-9.4 2.6-3.9 5.5-8.7 8.5-14.2 2.7-5.5 5.6-11.5 8.7-17.9 12.1-25.5 20.9-46.6 19.7-47.1-1.2-0.6-11.9 19.5-23.9 45z" fill="#DEE3A0" /><path d="M665.9 388c-7.6 10.2-11.2 20-10 20.5 1.2 0.6 6.5-7.9 13.9-17.7 7.3-9.9 14-17.4 13-18.4-0.9-0.9-9.3 5.4-16.9 15.6z m2.8-44.6c-5.9 6.9-9.8 13.9-11.8 18.3 3.1-15 8.1-27.9 11.8-37.7 5.1-12.8 8.3-20.8 7.7-21.1-0.6-0.3-4.8 7.2-10.7 19.7-5.7 12.6-13.5 30.6-15.6 52.5-1.5 22 3.2 41.5 0 55.2-2 13.8-3.9 22.2-3.2 22.4 0.5 0.1 3.5-7.9 6.4-21.7 4-13.8-0.1-34.2 1.3-55.2 0.3-3.2 0.9-6.2 1.4-9.3 1.9-1.1 7.7-10.2 16.2-20.1 9.2-11 18.1-18.9 17.2-19.9-0.6-1-11.1 5.5-20.7 16.9z m55.6 40.8c-3 6.4-5.8 12.5-8.3 18-2.7 5.3-5.2 10.1-7.3 14.1-5.3 7.1-10 10.9-9.4 11.5 0.3 0.3 5.6-2.3 12-9.4 2.6-3.9 5.5-8.7 8.5-14.2 2.7-5.5 5.6-11.5 8.7-17.9 12.1-25.5 20.9-46.6 19.7-47.1-1.2-0.6-11.9 19.5-23.9 45z" opacity=".2" /></svg>