<?xml version="1.0" standalone="no"?><!DOCTYPE svg PUBLIC "-//W3C//DTD SVG 1.1//EN" "http://www.w3.org/Graphics/SVG/1.1/DTD/svg11.dtd"><svg class="icon" width="81px" height="81.00px" viewBox="0 0 1024 1024" version="1.1" xmlns="http://www.w3.org/2000/svg"><path d="M512 953.9584c-98.048 0-177.7664-79.7696-177.7664-177.7664 0-16.9472 13.7728-30.72 30.72-30.72h294.144c16.9472 0 30.72 13.7728 30.72 30.72-0.0512 97.9968-79.7696 177.7664-177.8176 177.7664zM399.7696 806.912c13.5168 49.3056 58.7264 85.6064 112.2304 85.6064s98.7136-36.352 112.2304-85.6064H399.7696z" fill="#FC4138" /><path d="M833.5872 806.912H190.4128c-60.7232 0-110.1312-49.408-110.1312-110.1312 0-60.7232 49.408-110.1312 110.1312-110.1312h15.36V379.5456c0-168.8576 137.3696-306.2272 306.2272-306.2272s306.2272 137.3696 306.2272 306.2272v207.104h15.36c60.7232 0 110.1312 49.408 110.1312 110.1312 0 60.7232-49.408 110.1312-110.1312 110.1312zM190.4128 648.0384c-26.8288 0-48.6912 21.8624-48.6912 48.6912s21.8624 48.6912 48.6912 48.6912h643.1744c26.8288 0 48.6912-21.8624 48.6912-48.6912s-21.8624-48.6912-48.6912-48.6912h-46.08c-16.9472 0-30.72-13.7728-30.72-30.72V379.5456c0-134.9632-109.824-244.7872-244.7872-244.7872S267.2128 244.5824 267.2128 379.5456v237.824c0 16.9472-13.7728 30.72-30.72 30.72h-46.08z" fill="#3E3A39" /></svg>