<?xml version="1.0" standalone="no"?><!DOCTYPE svg PUBLIC "-//W3C//DTD SVG 1.1//EN" "http://www.w3.org/Graphics/SVG/1.1/DTD/svg11.dtd"><svg class="icon" width="81px" height="81.00px" viewBox="0 0 1024 1024" version="1.1" xmlns="http://www.w3.org/2000/svg"><path d="M710.3 664.3l0.4 1.9s5.3 19.2 28.9 11.5 26.2-29.2 26.2-29.2-15-12.3-34.9-8.2c-19.9 4-20.6 24-20.6 24" fill="#7BAD37" /><path d="M684.6 689.1l-5.3-4.1c1.8-2.4 18.3-23.1 32.8-23.7l0.3 6.7c-9.7 0.4-23.4 15.4-27.8 21.1z" fill="#7BAD37" /><path d="M716.5 663.1s21.6-15.3 38.8-10.2c-17.7-2.5-35.1 9.8-39.9 13.5-1.3 1.6 1.1-3.3 1.1-3.3zM426.2 676.1c12.8 36.1 23.1 22.5 57.5 39.5 22.8 11.3 49.8 10.2 75 6.1s50.2-10.8 75.7-10c-10.9-92.3 3.2-187.5 40.3-272.7-18.6 0-37.1-4-54-11.7-18.8 75.7-45.5 149.5-79.7 219.6-12.7-10.4-23.9-22.7-33-36.4-15.8-23.7-25-51.1-34.2-78.1-10.6-31.5-21.3-63.1-27.1-95.9-16.4 6.6-32 15.3-46.3 25.8l-0.5 1.6c31.2 66.1 38.7 136.1 25.9 208l0.4 4.2z" fill="#DEE3A0" /><path d="M426.2 676.1c12.8 36.1 23.1 22.5 57.5 39.5 22.8 11.3 49.8 10.2 75 6.1s50.2-10.8 75.7-10c-10.9-92.3 3.2-187.5 40.3-272.7-18.6 0-37.1-4-54-11.7-18.8 75.7-45.5 149.5-79.7 219.6-12.7-10.4-23.9-22.7-33-36.4-15.8-23.7-25-51.1-34.2-78.1-10.6-31.5-21.3-63.1-27.1-95.9-16.4 6.6-32 15.3-46.3 25.8l-0.5 1.6c31.2 66.1 38.7 136.1 25.9 208l0.4 4.2z" opacity=".2" /><path d="M328.3 518.3c9.9-8.5 21.6-15 34.1-19 4.1-1.3 8.5 0.8 10.5 4.6 27 51.7 58.9 100.7 95.2 146.4 4.4 5.5 13.4 4.2 15.8-2.5C503.4 594 511.3 536 507 478.9c-0.4-5.9 4.6-10.8 10.5-9.8 13.7 2.4 27.6 3.4 41.5 3 5.3-0.1 9.6 4 9.5 9.3-0.6 46.1 6.6 92.3 21.1 136 2.6 7.9 13.6 8.3 17 0.7 21.1-47.4 63.9-83.9 104.7-117.4 8.8-7.2 32.5-26.3 43-36.1 3.2-3 8-3.3 11.5-0.8 9.2 6.6 16.1 16.4 25 27.1v2.5c-59.2 46.9-92.6 120.5-105.8 194.9-12.7 71.9-8.4 145.5-3.5 218.4 0.3 4.5-2.7 8.5-7 9.5-31.1 7.2-62.9 13.7-94.4 9.4-24.1-3.3-47.5-5.3-71.5-9.7-20.5-3.8-38.4 2.7-58.4 4.9-5.5 0.6-10.2-3.8-10.1-9.3C442 791.1 391.6 638 329 537c-0.3-0.6-0.6-1.1-0.8-1.8l-2.4-7.1c-1.2-3.5-0.3-7.4 2.5-9.8z" fill="#DEE3A0" /><path d="M264.3 598.8c-15.1 1.9-27.1-13.1-31.5-27.7-1.3-4.2-2.2-8.8-0.3-12.7s7.7-6 10.7-2.9c-4.5 0.5-8.6-3.4-9.8-7.8-1.9-7.3 2.5-14.9 8-20.2 5.5-5.2 12.3-9.1 17.2-14.9 3.1-3.6 5.3-7.8 8.6-11.2s7.9-6 12.5-5.1 8.1 6.8 5.4 10.7c3.2-4.8 7.9-8.9 13.5-9.8 5.7-0.9 12.2 2.3 13.5 7.9 0.4 1.7 0.4 3.6 1.5 4.9 1 1.2 2.6 1.6 4.1 1.9 7.4 1.4 15.5 2.2 21 7.3s5.4 16.5-1.9 18.4c9.3-1.8 19.2 6.1 19.6 15.6s-9 18.1-18.4 17c7.1 4.6 10.8 13.8 8.8 22-1.9 8.2-9.4 14.8-17.8 15.7 4.1-3.2 10.4 2 9.9 7.1s-5.2 8.9-9.9 11.1c-6.9 3.3-15 4.6-22.3 2.4-7.3-2.3-13.5-8.7-14.2-16.3-3.3 3.1-6.9 6.5-11.4 7.1-4.5 0.6-9.8-2.9-9.1-7.4 0.5-3.5 5-5.7 8.1-4s3.6 6.7 0.9 9c-4.2 3.5-10.5-0.7-13.4-5.4-3.1-5.1-5-10.9-5.3-16.8l2 4.1z" opacity=".2" /><path d="M265.1 606.6c-14.7 1.8-26.3-12.8-30.6-26.9-1.2-4-2.1-8.6-0.3-12.4 1.8-3.8 7.5-5.8 10.4-2.8-4.4 0.5-8.4-3.3-9.5-7.6-1.9-7.1 2.4-14.5 7.8-19.6 5.4-5.1 11.9-8.8 16.7-14.5 3-3.5 5.2-7.6 8.3-10.9 3.2-3.3 7.7-5.9 12.2-5 4.5 0.9 7.8 6.6 5.2 10.4 3.1-4.6 7.7-8.7 13.2-9.6 5.5-0.9 11.8 2.2 13.1 7.7 0.4 1.6 0.4 3.5 1.4 4.8 1 1.1 2.5 1.5 4 1.8 7.2 1.4 15.1 2.2 20.4 7.1s5.3 16-1.8 17.9c9-1.7 18.7 5.9 19.1 15.1 0.3 9.2-8.7 17.6-17.9 16.6 6.9 4.4 10.5 13.4 8.6 21.4s-9.1 14.4-17.3 15.2c4-3.1 10.1 1.9 9.6 6.9s-5 8.6-9.6 10.8c-6.7 3.2-14.6 4.5-21.6 2.3s-13.1-8.5-13.8-15.8c-3.2 3.1-6.7 6.3-11.1 6.9-4.4 0.6-9.6-2.8-8.9-7.2 0.5-3.4 4.9-5.5 7.9-3.9 3 1.7 3.5 6.5 0.8 8.7-4.1 3.4-10.2-0.7-13-5.2-3-4.9-4.8-10.6-5.2-16.4l1.9 4.2zM442.7 194.6c-15.9-12-16-39.5-0.2-51.7 6-4.6 17.8-4.6 18.2 3 5.4-13.5 12.8-28.8 27.1-31.8 8.7-1.8 17.8 1.7 26.6 0.2 7.9-1.3 14.4-6.5 21.2-10.8s14.8-8 22.5-5.9c7.7 2.1 13 12.6 7.5 18.4 7.5-5.3 18.7-4.7 25.5 1.5s8.6 17.2 4.1 25.2c13.6-3.1 27.7 11.8 23.9 25.2-0.8 2.8-2.2 5.6-2.1 8.5 0.2 4.5 3.8 7.9 6.3 11.7 5.5 8.4 4.9 20.3-1.3 28.2-6.3 7.9-17.7 11.1-27.2 7.6 3.4 10.4-3.9 21.8-13.6 27-9.7 5.1-21.1 5.5-32 5.7 9.1 5.3 7.3 20-0.6 26.8-8 6.8-19.2 7.8-29.7 8.4-7 0.4-17.2-3.3-14.4-9.7 3-4.3 10.6 0.2 10.3 5.4-0.4 5.2-5.4 8.8-10.2 10.7-12.6 5-27.7 3.2-38.8-4.7-11.1-7.9-17.8-21.5-17.2-35.1-2.5 7.5-13.4 9.6-19.8 4.9s-8.1-13.8-6-21.5c2.1-7.6 7.4-13.9 13.1-19.4-6 4.8-15.1-3.5-14-11 1.1-7.6 7.8-12.9 14-17.4l6.8 0.6z" fill="#7BAD37" /><path d="M623.2 188.1c-2.5-3.8-6.1-7.2-6.3-11.7-0.1-2.9 1.3-5.7 2.1-8.5 3.8-13.4-10.3-28.3-23.9-25.2 4.2-7.4 2.8-17.3-2.9-23.7-7.7 0.9-15.7-1.9-23.4-0.3-13.2 2.8-20.1 17-25.1 29.5-0.3-7-11.3-7.1-16.9-2.8-14.6 11.3-14.5 36.8 0.2 48l-6.6-0.7c-5.7 4.2-11.9 9.1-12.9 16.2-1 7 7.5 14.7 13 10.2-5.3 5.1-10.2 11-12.1 18-2 7.1-0.3 15.5 5.6 19.9 5.9 4.4 16 2.4 18.3-4.6-0.5 12.1 5.4 24.2 14.9 31.6 0.4-0.3 0.9-0.5 1.3-0.8 8-6.8 9.7-21.5 0.6-26.8 10.9-0.2 22.3-0.6 32-5.7 9.7-5.1 16.9-16.6 13.6-27 9.4 3.4 20.9 0.2 27.2-7.6 6.2-7.7 6.8-19.6 1.3-28zM481.5 247.4c5.8-7.3 6.3-18.3 1.2-26.2-2.3-3.5-5.7-6.7-5.8-10.9-0.1-2.7 1.2-5.3 1.9-7.9 3.5-12.4-9.6-26.2-22.2-23.4 4.2-7.4 2.6-17.7-3.8-23.4-4.7-4.2-11.5-5.6-17.6-4.1-7.7 13.7-5.3 33.2 7.4 42.9l-7.1-0.7c-6.2 4.5-12.9 9.8-14 17.4-1.1 7.6 8.1 15.8 14 11-5.7 5.5-11 11.8-13.1 19.4-2.1 7.6-0.3 16.8 6 21.5 6.4 4.7 17.2 2.6 19.8-4.9-0.2 5.2 0.9 10.2 2.7 15.1 4.7-5.3 7.4-12.3 5.2-18.9 8.9 3.4 19.6 0.4 25.4-6.9z" opacity=".2" /><path d="M301.2 249.6c-15.9-12-16-39.5-0.2-51.7 6-4.6 17.8-4.6 18.2 3 5.4-13.5 12.8-28.8 27.1-31.8 8.7-1.8 17.8 1.7 26.6 0.2 7.9-1.3 14.4-6.5 21.2-10.8s14.8-8 22.5-5.9c7.7 2.1 13 12.6 7.5 18.4 7.5-5.3 18.7-4.7 25.5 1.5s8.6 17.2 4.1 25.2c13.6-3.1 27.7 11.8 23.9 25.2-0.8 2.8-2.2 5.6-2.1 8.5 0.2 4.5 3.8 7.9 6.3 11.7 5.5 8.4 4.9 20.3-1.3 28.2s-17.7 11.1-27.2 7.6c3.4 10.4-3.9 21.8-13.6 27-9.7 5.1-21.1 5.5-32 5.7 9.1 5.3 7.3 20-0.6 26.8-8 6.8-19.2 7.8-29.7 8.4-7 0.4-17.2-3.3-14.4-9.7 3-4.3 10.6 0.2 10.3 5.4-0.4 5.2-5.4 8.8-10.2 10.7-12.6 5-27.7 3.2-38.8-4.7-11.1-7.9-17.8-21.5-17.2-35.1-2.5 7.5-13.4 9.6-19.8 4.9s-8.1-13.8-6-21.5c2.1-7.6 7.4-13.9 13.1-19.4-6 4.8-15.1-3.5-14-11 1.1-7.6 7.8-12.9 14-17.4l6.8 0.6zM529.4 213.3c-15.9-12-16-39.5-0.2-51.7 6-4.6 17.8-4.6 18.2 3 5.4-13.5 12.8-28.8 27.1-31.8 8.7-1.8 17.8 1.7 26.6 0.2 7.9-1.3 14.4-6.5 21.2-10.8 6.7-4.3 14.8-8 22.5-5.9s13 12.6 7.5 18.4c7.5-5.3 18.7-4.7 25.5 1.5 6.8 6.2 8.6 17.2 4.1 25.2 13.6-3.1 27.7 11.8 23.9 25.2-0.8 2.8-2.2 5.6-2.1 8.5 0.2 4.5 3.8 7.9 6.3 11.7 5.5 8.4 4.9 20.3-1.3 28.2-6.3 7.9-17.7 11.1-27.2 7.6 3.4 10.4-3.9 21.8-13.6 27-9.7 5.1-21.1 5.5-32 5.7 9.1 5.3 7.3 20-0.6 26.8s-19.2 7.8-29.7 8.4c-7 0.4-17.2-3.3-14.4-9.7 3-4.3 10.6 0.2 10.3 5.4-0.4 5.2-5.4 8.8-10.2 10.7-12.6 5-27.7 3.2-38.8-4.7-11.1-7.9-17.8-21.5-17.2-35.1-2.5 7.5-13.4 9.6-19.8 4.9-6.4-4.7-8.1-13.8-6-21.5 2.1-7.6 7.4-13.9 13.1-19.4-6 4.8-15.1-3.5-14-11 1.1-7.6 7.8-12.9 14-17.4l6.8 0.6z" fill="#7BAD37" /><path d="M455.7 294.3c-16.5-12.5-16.6-41-0.2-53.7 6.2-4.8 18.5-4.8 18.9 3.1 5.6-14 13.3-29.9 28.1-33 9-1.9 18.5 1.8 27.6 0.2 8.2-1.4 15-6.8 22-11.2 7-4.5 15.3-8.3 23.3-6.1 8 2.2 13.5 13.1 7.8 19.1 7.8-5.5 19.4-4.8 26.5 1.6s8.9 17.9 4.2 26.2c14.1-3.2 28.7 12.2 24.8 26.1-0.8 2.9-2.3 5.8-2.2 8.8 0.2 4.7 4 8.2 6.5 12.2 5.7 8.7 5.1 21.1-1.4 29.3s-18.4 11.5-28.2 7.9c3.5 10.8-4.1 22.7-14.1 28-10 5.3-21.9 5.7-33.2 5.9 9.4 5.5 7.6 20.8-0.7 27.8s-20 8-30.8 8.7c-7.3 0.4-17.8-3.4-15-10.1 3.1-4.4 11 0.2 10.7 5.6s-5.6 9.2-10.6 11.2c-13.1 5.2-28.8 3.3-40.3-4.9s-18.5-22.3-17.9-36.4c-2.6 7.8-13.9 10-20.5 5.1s-8.5-14.4-6.3-22.3 7.7-14.5 13.6-20.2c-6.2 5-15.7-3.6-14.6-11.5 1.1-7.9 8.1-13.4 14.5-18.1l7.5 0.7z" opacity=".2" /><path d="M458.8 307c-15.9-12-16-39.5-0.2-51.7 6-4.6 17.8-4.6 18.2 3 5.4-13.5 12.8-28.8 27.1-31.8 8.7-1.8 17.8 1.7 26.6 0.2 7.9-1.3 14.4-6.5 21.2-10.8s14.8-8 22.5-5.9 13 12.6 7.5 18.4c7.5-5.3 18.7-4.7 25.5 1.5 6.8 6.2 8.6 17.2 4.1 25.2 13.6-3.1 27.7 11.8 23.9 25.2-0.8 2.8-2.2 5.6-2.1 8.5 0.2 4.5 3.8 7.9 6.3 11.7 5.5 8.4 4.9 20.3-1.3 28.2-6.3 7.9-17.7 11.1-27.2 7.6 3.4 10.4-3.9 21.8-13.6 27-9.7 5.1-21.1 5.5-32 5.7 9.1 5.3 7.3 20-0.6 26.8-8 6.8-19.2 7.8-29.7 8.4-7 0.4-17.2-3.3-14.4-9.7 3-4.3 10.6 0.2 10.3 5.4-0.4 5.2-5.4 8.8-10.2 10.7-12.6 5-27.7 3.2-38.8-4.7s-17.8-21.5-17.2-35.1c-2.5 7.5-13.4 9.6-19.8 4.9-6.4-4.7-8.1-13.8-6-21.5 2.1-7.6 7.4-13.9 13.1-19.4-6 4.8-15.1-3.5-14-11 1.1-7.6 7.8-12.9 14-17.4l6.8 0.6z" fill="#7BAD37" /><path d="M616.4 296.5c-15.9-12-16-39.5-0.2-51.7 6-4.6 17.8-4.6 18.2 3 5.4-13.5 12.8-28.8 27.1-31.8 8.7-1.8 17.8 1.7 26.6 0.2 7.9-1.3 14.4-6.5 21.2-10.8s14.8-8 22.5-5.9c7.7 2.1 13 12.6 7.5 18.4 7.5-5.3 18.7-4.7 25.5 1.5 6.8 6.2 8.6 17.2 4.1 25.2 13.6-3.1 27.7 11.8 23.9 25.2-0.8 2.8-2.2 5.6-2.1 8.5 0.2 4.5 3.8 7.9 6.3 11.7 5.5 8.4 4.9 20.3-1.3 28.2-6.3 7.9-17.7 11.1-27.2 7.6 3.4 10.4-3.9 21.8-13.6 27-9.7 5.1-21.1 5.5-32 5.7 9.1 5.3 7.3 20-0.6 26.8-8 6.8-19.2 7.8-29.7 8.4-7 0.4-17.2-3.3-14.4-9.7 3-4.3 10.6 0.2 10.3 5.4-0.4 5.2-5.4 8.8-10.2 10.7-12.6 5-27.7 3.2-38.8-4.7-11.1-7.9-17.8-21.5-17.2-35.1-2.5 7.5-13.4 9.6-19.8 4.9-6.4-4.7-8.1-13.8-6-21.5 2.1-7.6 7.4-13.9 13.1-19.4-6 4.8-15.1-3.5-14-11 1.1-7.6 7.8-12.9 14-17.4l6.8 0.6z" opacity=".2" /><path d="M616.4 307c-15.9-12-16-39.5-0.2-51.7 6-4.6 17.8-4.6 18.2 3 5.4-13.5 12.8-28.8 27.1-31.8 8.7-1.8 17.8 1.7 26.6 0.2 7.9-1.3 14.4-6.5 21.2-10.8s14.8-8 22.5-5.9c7.7 2.1 13 12.6 7.5 18.4 7.5-5.3 18.7-4.7 25.5 1.5 6.8 6.2 8.6 17.2 4.1 25.2 13.6-3.1 27.7 11.8 23.9 25.2-0.8 2.8-2.2 5.6-2.1 8.5 0.2 4.5 3.8 7.9 6.3 11.7 5.5 8.4 4.9 20.3-1.3 28.2s-17.7 11.1-27.2 7.6c3.4 10.4-3.9 21.8-13.6 27-9.7 5.1-21.1 5.5-32 5.7 9.1 5.3 7.3 20-0.6 26.8-8 6.8-19.2 7.8-29.7 8.4-7 0.4-17.2-3.3-14.4-9.7 3-4.3 10.6 0.2 10.3 5.4-0.4 5.2-5.4 8.8-10.2 10.7-12.6 5-27.7 3.2-38.8-4.7s-17.8-21.5-17.2-35.1c-2.5 7.5-13.4 9.6-19.8 4.9-6.4-4.7-8.1-13.8-6-21.5 2.1-7.6 7.4-13.9 13.1-19.4-6 4.8-15.1-3.5-14-11 1.1-7.6 7.8-12.9 14-17.4l6.8 0.6z" fill="#7BAD37" /><path d="M228.8 387.2c-20.9 2.6-37.5-18.2-43.7-38.3-1.8-5.8-3-12.2-0.4-17.6 2.6-5.4 10.7-8.3 14.8-4-6.3 0.7-11.9-4.7-13.5-10.8-2.7-10.2 3.4-20.7 11.1-27.9s17-12.6 23.9-20.6c4.2-5 7.4-10.8 11.9-15.5 4.5-4.7 11-8.4 17.4-7.1s11.2 9.4 7.4 14.8c4.4-6.6 10.9-12.3 18.8-13.6 7.8-1.3 16.9 3.2 18.7 10.9 0.5 2.3 0.5 4.9 2 6.8 1.4 1.6 3.6 2.2 5.7 2.6 10.2 2 21.5 3.1 29.1 10.1s7.5 22.9-2.6 25.4c12.9-2.5 26.7 8.5 27.2 21.6 0.3 13-12.6 25-25.6 23.5 9.8 6.3 14.9 19.1 12.3 30.4-2.7 11.3-13 20.5-24.6 21.7 5.6-4.4 14.5 2.8 13.7 9.9s-7.2 12.3-13.7 15.4c-9.6 4.6-20.7 6.4-30.8 3.3-10.1-3.2-18.7-12-19.7-22.6-4.6 4.4-9.5 8.9-15.8 9.8s-13.6-4-12.7-10.2c0.7-4.8 7-7.9 11.2-5.5 4.3 2.4 4.9 9.3 1.2 12.5-5.8 4.9-14.6-1-18.5-7.4-4.3-7-6.9-15.1-7.3-23.3l2.5 5.7z" opacity=".2" /><path d="M228.8 401.5c-20.9 2.6-37.5-18.2-43.7-38.3-1.8-5.8-3-12.2-0.4-17.6 2.6-5.4 10.7-8.3 14.8-4-6.3 0.7-11.9-4.7-13.5-10.8-2.7-10.2 3.4-20.7 11.1-27.9s17-12.6 23.9-20.6c4.2-5 7.4-10.8 11.9-15.5s11-8.4 17.4-7.1c6.4 1.3 11.2 9.4 7.4 14.8 4.4-6.6 10.9-12.3 18.8-13.6 7.8-1.3 16.9 3.2 18.7 10.9 0.5 2.3 0.5 4.9 2 6.8 1.4 1.6 3.6 2.2 5.7 2.6 10.2 2 21.5 3.1 29.1 10.1s7.5 22.9-2.6 25.4c12.9-2.5 26.7 8.5 27.2 21.6 0.5 13.1-12.4 25.1-25.4 23.6 9.8 6.3 14.9 19.1 12.3 30.4-2.7 11.3-13 20.5-24.6 21.7 5.6-4.4 14.5 2.8 13.7 9.9s-7.2 12.3-13.7 15.4c-9.6 4.6-20.7 6.4-30.8 3.3-10.1-3.2-18.7-12-19.7-22.6-4.6 4.4-9.5 8.9-15.8 9.8s-13.6-4-12.7-10.2c0.7-4.8 7-7.9 11.2-5.5 4.3 2.4 4.9 9.3 1.2 12.5-5.8 4.9-14.6-1-18.5-7.4-4.3-7-6.9-15.1-7.3-23.3l2.3 5.6z" fill="#7BAD37" /><path d="M361.2 420.4c-20.9 2.6-37.5-18.2-43.7-38.3-1.8-5.8-3-12.2-0.4-17.6 2.6-5.4 10.7-8.3 14.8-4-6.3 0.7-11.9-4.7-13.5-10.8-2.7-10.2 3.4-20.7 11.1-27.9 7.6-7.2 17-12.6 23.9-20.6 4.2-5 7.4-10.8 11.9-15.5 4.5-4.7 11-8.4 17.4-7.1 6.4 1.3 11.2 9.4 7.4 14.8 4.4-6.6 10.9-12.3 18.8-13.6 7.8-1.3 16.9 3.2 18.7 10.9 0.5 2.3 0.5 4.9 2 6.8 1.4 1.6 3.6 2.2 5.7 2.6 10.2 2 21.5 3.1 29.1 10.1s7.5 22.9-2.6 25.4c12.9-2.5 26.7 8.5 27.2 21.6 0.5 13.1-12.4 25.1-25.4 23.6 9.8 6.3 14.9 19.1 12.3 30.4-2.7 11.3-13 20.5-24.6 21.7 5.6-4.4 14.5 2.8 13.7 9.9s-7.2 12.3-13.7 15.4c-9.6 4.6-20.7 6.4-30.8 3.3s-18.7-12-19.7-22.6c-4.6 4.4-9.5 8.9-15.8 9.8s-13.6-4-12.7-10.2c0.7-4.8 7-7.9 11.2-5.5 4.3 2.4 4.9 9.3 1.2 12.5-5.8 4.9-14.6-1-18.5-7.4-4.3-7-6.9-15.1-7.3-23.3l2.3 5.6z" opacity=".2" /><path d="M361.2 432.9c-20.9 2.6-37.5-18.2-43.7-38.3-1.8-5.8-3-12.2-0.4-17.6 2.6-5.4 10.7-8.3 14.8-4-6.3 0.7-11.9-4.7-13.5-10.8-2.7-10.2 3.4-20.7 11.1-27.9 7.6-7.2 17-12.6 23.9-20.6 4.2-5 7.4-10.8 11.9-15.5 4.5-4.7 11-8.4 17.4-7.1 6.4 1.3 11.2 9.4 7.4 14.8 4.4-6.6 10.9-12.3 18.8-13.6 7.8-1.3 16.9 3.2 18.7 10.9 0.5 2.3 0.5 4.9 2 6.8 1.4 1.6 3.6 2.2 5.7 2.6 10.2 2 21.5 3.1 29.1 10.1s7.5 22.9-2.6 25.4c12.9-2.5 26.7 8.5 27.2 21.6 0.5 13.1-12.4 25.1-25.4 23.6 9.8 6.3 14.9 19.1 12.3 30.4-2.7 11.3-13 20.5-24.6 21.7 5.6-4.4 14.5 2.8 13.7 9.9s-7.2 12.3-13.7 15.4c-9.6 4.6-20.7 6.4-30.8 3.3s-18.7-12-19.7-22.6c-4.6 4.4-9.5 8.9-15.8 9.8s-13.6-4-12.7-10.2c0.7-4.8 7-7.9 11.2-5.5 4.3 2.4 4.9 9.3 1.2 12.5-5.8 4.9-14.6-1-18.5-7.4-4.3-7-6.9-15.1-7.3-23.3l2.3 5.6z" fill="#7BAD37" /><path d="M584.7 478c-21.5 2.7-38.6-18.7-44.9-39.4-1.8-5.9-3.1-12.5-0.4-18.1 2.7-5.6 11-8.6 15.3-4.1-6.4 0.7-12.3-4.8-13.9-11.1-2.8-10.5 3.5-21.3 11.4-28.7s17.5-13 24.5-21.2c4.4-5.1 7.6-11.1 12.2-16s11.3-8.6 17.8-7.3c6.6 1.3 11.5 9.7 7.7 15.2 4.6-6.8 11.2-12.7 19.3-14 8.1-1.3 17.4 3.3 19.2 11.2 0.6 2.4 0.5 5.1 2.1 7 1.4 1.7 3.7 2.3 5.8 2.7 10.5 2.1 22.1 3.2 30 10.4s7.7 23.5-2.7 26.2c13.3-2.5 27.4 8.7 27.9 22.2s-12.8 25.8-26.2 24.3c10.1 6.5 15.4 19.6 12.6 31.3s-13.4 21-25.3 22.3c5.8-4.6 14.9 2.8 14.1 10.2-0.8 7.3-7.4 12.6-14 15.8-9.8 4.7-21.3 6.6-31.7 3.4s-19.2-12.4-20.3-23.2c-4.7 4.5-9.8 9.2-16.2 10.1-6.4 0.9-14-4.1-13-10.5 0.8-5 7.2-8.1 11.6-5.7 4.4 2.5 5.1 9.6 1.2 12.8-6 5-15-1-19.1-7.6-4.4-7.2-7.1-15.5-7.6-24l2.6 5.8z" opacity=".2" /><path d="M585.9 489.1c-20.9 2.6-37.5-18.2-43.7-38.3-1.8-5.8-3-12.2-0.4-17.6s10.7-8.3 14.8-4c-6.3 0.7-11.9-4.7-13.5-10.8-2.7-10.2 3.4-20.7 11.1-27.9s17-12.6 23.9-20.6c4.2-5 7.4-10.8 11.9-15.5s11-8.4 17.4-7.1c6.4 1.3 11.2 9.4 7.4 14.8 4.4-6.6 10.9-12.3 18.8-13.6 7.8-1.3 16.9 3.2 18.7 10.9 0.5 2.3 0.5 4.9 2 6.8 1.4 1.6 3.6 2.2 5.7 2.6 10.2 2 21.5 3.1 29.1 10.1 7.7 7.1 7.5 22.9-2.6 25.4 12.9-2.5 26.7 8.5 27.2 21.6 0.5 13.1-12.4 25.1-25.4 23.6 9.8 6.3 14.9 19.1 12.3 30.4-2.7 11.3-13 20.5-24.6 21.7 5.6-4.4 14.5 2.8 13.7 9.9s-7.2 12.3-13.7 15.4c-9.6 4.6-20.7 6.4-30.8 3.3s-18.7-12-19.7-22.6c-4.6 4.4-9.5 8.9-15.8 9.8-6.2 0.9-13.6-4-12.7-10.2 0.7-4.8 7-7.9 11.2-5.5 4.3 2.4 4.9 9.3 1.2 12.5-5.8 4.9-14.6-1-18.5-7.4-4.3-7-6.9-15.1-7.3-23.3l2.3 5.6z" fill="#7BAD37" /><path d="M178.9 526.5c-22.9 2.9-41.1-19.9-47.9-42-1.9-6.3-3.3-13.4-0.4-19.3s11.7-9.1 16.3-4.4c-6.9 0.8-13.1-5.2-14.9-11.8-3-11.1 3.7-22.7 12.1-30.6 8.4-7.9 18.7-13.8 26.2-22.6 4.7-5.4 8.1-11.8 13-17 4.9-5.2 12-9.2 19-7.7s12.2 10.3 8.2 16.2c4.9-7.2 12-13.5 20.6-14.9 8.6-1.4 18.5 3.5 20.5 12 0.6 2.5 0.6 5.4 2.2 7.4 1.5 1.8 3.9 2.4 6.2 2.8 11.2 2.2 23.5 3.4 31.9 11.1 8.4 7.7 8.2 25.1-2.9 27.9 14.1-2.7 29.2 9.3 29.8 23.7 0.5 14.4-13.6 27.5-27.9 25.9 10.7 6.9 16.4 20.9 13.4 33.4-3 12.4-14.3 22.4-27 23.8 6.2-4.9 15.8 3 15 10.8-0.8 7.8-7.9 13.5-15 16.9-10.5 5-22.7 7.1-33.8 3.6s-20.5-13.2-21.6-24.8c-5 4.8-10.5 9.8-17.3 10.8s-14.9-4.4-13.9-11.2c0.8-5.3 7.6-8.7 12.3-6 4.7 2.6 5.4 10.2 1.3 13.7-6.3 5.4-16-1.1-20.3-8.1-4.7-7.7-7.5-16.6-8.1-25.6l3 6z" opacity=".2" /><path d="M177 527.9c-20.9 2.6-37.5-18.2-43.7-38.3-1.8-5.8-3-12.2-0.4-17.6 2.6-5.4 10.7-8.3 14.8-4-6.3 0.7-11.9-4.7-13.5-10.8-2.7-10.2 3.4-20.7 11.1-27.9s17-12.6 23.9-20.6c4.2-5 7.4-10.8 11.9-15.5s11-8.4 17.4-7.1c6.4 1.3 11.2 9.4 7.4 14.8 4.4-6.6 10.9-12.3 18.8-13.6 7.8-1.3 16.9 3.2 18.7 10.9 0.5 2.3 0.5 4.9 2 6.8 1.4 1.6 3.6 2.2 5.7 2.6 10.2 2 21.5 3.1 29.1 10.1 7.7 7.1 7.5 22.9-2.6 25.4 12.9-2.5 26.7 8.5 27.2 21.6s-12.4 25.1-25.4 23.6c9.8 6.3 14.9 19.1 12.3 30.4-2.7 11.3-13 20.5-24.6 21.7 5.6-4.4 14.5 2.8 13.7 9.9-0.7 7.1-7.2 12.3-13.7 15.4-9.6 4.6-20.7 6.4-30.8 3.3-10.1-3.2-18.7-12-19.7-22.6-4.6 4.4-9.5 8.9-15.8 9.8s-13.6-4-12.7-10.2c0.7-4.8 7-7.9 11.2-5.5 4.3 2.4 4.9 9.3 1.2 12.5-5.8 4.9-14.6-1-18.5-7.4-4.3-7-6.9-15.1-7.3-23.3l2.3 5.6z" fill="#7BAD37" /><path d="M488.8 511.8c-13.4-2.2-25.9-9.1-34.8-19.3-3.5-4-6.5-8.6-7-13.8s2-11 6.9-12.9c-9.6-0.7-16-11.5-15.4-21.1 0.5-9.7 5.9-18.3 11.2-26.4 1.3-2.1 2.7-4.2 4-6.3 3.2-5 6.4-9.9 9.6-14.9 2.4-3.8 5.2-7.8 9.6-9 4.3-1.2 9.9 2.9 8.3 7-1.9-7.6 3.6-15.4 10.7-18.8 7.1-3.4 15.2-3.3 23-3.2 2.2 0 5.4 1.9 3.9 3.5l3.8-3.3c1.2-6.7 9.1-11.3 15.6-9.1 6.5 2.2 9.9 10.7 6.7 16.7 7.7-5.7 19.6-1.6 24.7 6.5 4.8 7.5 4.7 17.9-0.3 25.3 12.6 0.7 22.3 12.9 24 25.4s-2.6 25-7.9 36.5c-0.7 1.4-1.3 3.1-0.7 4.6 0.7 1.4 2.3 1.9 3.6 2.6 8.3 4.4 7.4 17.6 0.6 24.1-6.8 6.5-16.7 8.1-25.9 9.8-2.2 0.4-4.6 0.9-6.2 2.5-0.9 0.9-1.5 2.1-2.2 3.2-7 10.8-22.9 9.5-35.5 7-3.7-0.7-7.6-1.6-10.2-4.3-2.6-2.7-2.9-7.8 0.3-9.7 3.5 0.3 4.6 5.5 2.3 8.1s-6.3 2.9-9.7 2.3c-9.5-1.8-17.3-10.3-18.3-19.8l5.3 6.8z" opacity=".2" /><path d="M490.3 517.6c-12.6-2.1-24.5-8.6-32.9-18.3-3.3-3.7-6.1-8.1-6.6-13.1-0.5-4.9 1.9-10.4 6.5-12.2-9.1-0.7-15.1-10.9-14.6-20s5.6-17.3 10.6-25c1.3-2 2.6-4 3.8-6l9-14.1c2.3-3.6 4.9-7.4 9-8.5 4.1-1.1 9.4 2.7 7.8 6.7-1.8-7.2 3.4-14.6 10.1-17.8 6.7-3.2 14.4-3.2 21.8-3.1 2.1 0 5.1 1.8 3.7 3.4l3.6-3.1c1.2-6.3 8.6-10.7 14.7-8.6s9.3 10.1 6.4 15.8c7.3-5.4 18.5-1.5 23.4 6.1 4.5 7.1 4.4 16.9-0.3 23.9 11.9 0.7 21.1 12.2 22.7 24 1.7 11.8-2.5 23.7-7.5 34.5-0.6 1.4-1.3 3-0.6 4.3 0.6 1.3 2.2 1.8 3.4 2.5 7.9 4.1 7 16.7 0.5 22.8s-15.8 7.7-24.5 9.3c-2.1 0.4-4.4 0.9-5.9 2.4-0.9 0.9-1.4 2-2.1 3-6.7 10.2-21.7 9-33.6 6.6-3.5-0.7-7.2-1.5-9.6-4-2.5-2.5-2.8-7.4 0.3-9.2 3.3 0.3 4.3 5.2 2.1 7.7s-5.9 2.8-9.2 2.2c-9-1.7-16.3-9.7-17.3-18.8l5.3 6.6z" fill="#7BAD37" /><path d="M703.4 413.3c-15.9-12-16-39.5-0.2-51.7 6-4.6 17.8-4.6 18.2 3 5.4-13.5 12.8-28.8 27.1-31.8 8.7-1.8 17.8 1.7 26.6 0.2 7.9-1.3 14.4-6.5 21.2-10.8 6.7-4.3 14.8-8 22.5-5.9s13 12.6 7.5 18.4c7.5-5.3 18.7-4.7 25.5 1.5 6.8 6.2 8.6 17.2 4.1 25.2 13.6-3.1 27.7 11.8 23.9 25.2-0.8 2.8-2.2 5.6-2.1 8.5 0.2 4.5 3.8 7.9 6.3 11.7 5.5 8.4 4.9 20.3-1.3 28.2-6.3 7.9-17.7 11.1-27.2 7.6 3.4 10.4-3.9 21.8-13.6 27-9.7 5.1-21.1 5.5-32 5.7 9.1 5.3 7.3 20-0.6 26.8-8 6.8-19.2 7.8-29.7 8.4-7 0.4-17.2-3.3-14.4-9.7 3-4.3 10.6 0.2 10.3 5.4-0.4 5.2-5.4 8.8-10.2 10.7-12.6 5-27.7 3.2-38.8-4.7-11.1-7.9-17.8-21.5-17.2-35.1-2.5 7.5-13.4 9.6-19.8 4.9-6.4-4.7-8.1-13.8-6-21.5 2.1-7.6 7.4-13.9 13.1-19.4-6 4.8-15.1-3.5-14-11s7.8-12.9 14-17.4l6.8 0.6z" opacity=".2" /><path d="M703.4 425.4c-15.9-12-16-39.5-0.2-51.7 6-4.6 17.8-4.6 18.2 3 5.4-13.5 12.8-28.8 27.1-31.8 8.7-1.8 17.8 1.7 26.6 0.2 7.9-1.3 14.4-6.5 21.2-10.8 6.7-4.3 14.8-8 22.5-5.9 7.7 2.1 13 12.6 7.5 18.4 7.5-5.3 18.7-4.7 25.5 1.5 6.8 6.2 8.6 17.2 4.1 25.2 13.6-3.1 27.7 11.8 23.9 25.2-0.8 2.8-2.2 5.6-2.1 8.5 0.2 4.5 3.8 7.9 6.3 11.7 5.5 8.4 4.9 20.3-1.3 28.2-6.3 7.9-17.7 11.1-27.2 7.6 3.4 10.4-3.9 21.8-13.6 27s-21.1 5.5-32 5.7c9.1 5.3 7.3 20-0.6 26.8s-19.2 7.8-29.7 8.4c-7 0.4-17.2-3.3-14.4-9.7 3-4.3 10.6 0.2 10.3 5.4-0.4 5.2-5.4 8.8-10.2 10.7-12.6 5-27.7 3.2-38.8-4.7-11.1-7.9-17.8-21.5-17.2-35.1-2.5 7.5-13.4 9.6-19.8 4.9-6.4-4.7-8.1-13.8-6-21.5 2.1-7.6 7.4-13.9 13.1-19.4-6 4.8-15.1-3.5-14-11s7.8-12.9 14-17.4l6.8 0.6z" fill="#7BAD37" /><path d="M289.6 505.5c-12.6-2.1-24.5-8.6-32.9-18.3-3.3-3.7-6.1-8.1-6.6-13.1-0.5-4.9 1.9-10.4 6.5-12.2-9.1-0.7-15.1-10.9-14.6-20s5.6-17.3 10.6-25c1.3-2 2.6-4 3.8-6l9-14.1c2.3-3.6 4.9-7.4 9-8.5 4.1-1.1 9.4 2.7 7.8 6.7-1.8-7.2 3.4-14.6 10.1-17.8 6.7-3.2 14.4-3.2 21.8-3.1 2.1 0 5.1 1.8 3.7 3.4l3.6-3.1c1.2-6.3 8.6-10.7 14.7-8.6 6.1 2.1 9.3 10.1 6.4 15.8 7.3-5.4 18.5-1.5 23.4 6.1 4.5 7.1 4.4 16.9-0.3 23.9 11.9 0.7 21.1 12.2 22.7 24s-2.5 23.7-7.5 34.5c-0.6 1.4-1.3 3-0.6 4.3 0.6 1.3 2.2 1.8 3.4 2.5 7.9 4.1 7 16.7 0.5 22.8-6.4 6.1-15.8 7.7-24.5 9.3-2.1 0.4-4.4 0.9-5.9 2.4-0.9 0.9-1.4 2-2.1 3-6.7 10.2-21.7 9-33.6 6.6-3.5-0.7-7.2-1.5-9.6-4s-2.8-7.4 0.3-9.2c3.3 0.3 4.3 5.2 2.1 7.7s-5.9 2.8-9.2 2.2c-9-1.7-16.3-9.7-17.3-18.8l5.3 6.6z" opacity=".2" /><path d="M289.6 517.6c-12.6-2.1-24.5-8.6-32.9-18.3-3.3-3.7-6.1-8.1-6.6-13.1-0.5-4.9 1.9-10.4 6.5-12.2-9.1-0.7-15.1-10.9-14.6-20s5.6-17.3 10.6-25c1.3-2 2.6-4 3.8-6l9-14.1c2.3-3.6 4.9-7.4 9-8.5 4.1-1.1 9.4 2.7 7.8 6.7-1.8-7.2 3.4-14.6 10.1-17.8 6.7-3.2 14.4-3.2 21.8-3.1 2.1 0 5.1 1.8 3.7 3.4l3.6-3.1c1.2-6.3 8.6-10.7 14.7-8.6s9.3 10.1 6.4 15.8c7.3-5.4 18.5-1.5 23.4 6.1 4.5 7.1 4.4 16.9-0.3 23.9 11.9 0.7 21.1 12.2 22.7 24s-2.5 23.7-7.5 34.5c-0.6 1.4-1.3 3-0.6 4.3 0.6 1.3 2.2 1.8 3.4 2.5 7.9 4.1 7 16.7 0.5 22.8s-15.8 7.7-24.5 9.3c-2.1 0.4-4.4 0.9-5.9 2.4-0.9 0.9-1.4 2-2.1 3-6.7 10.2-21.7 9-33.6 6.6-3.5-0.7-7.2-1.5-9.6-4s-2.8-7.4 0.3-9.2c3.3 0.3 4.3 5.2 2.1 7.7s-5.9 2.8-9.2 2.2c-9-1.7-16.3-9.7-17.3-18.8l5.3 6.6z" fill="#7BAD37" /><path d="M392.6 567.1c-12.6-2.1-24.5-8.6-32.9-18.3-3.3-3.7-6.1-8.1-6.6-13.1-0.5-4.9 1.9-10.4 6.5-12.2-9.1-0.7-15.1-10.9-14.6-20s5.6-17.3 10.6-25c1.3-2 2.6-4 3.8-6l9-14.1c2.3-3.6 4.9-7.4 9-8.5 4.1-1.1 9.4 2.7 7.8 6.7-1.8-7.2 3.4-14.6 10.1-17.8 6.7-3.2 14.4-3.2 21.8-3.1 2.1 0 5.1 1.8 3.7 3.4l3.6-3.1c1.2-6.3 8.6-10.7 14.7-8.6 6.1 2.1 9.3 10.1 6.4 15.8 7.3-5.4 18.5-1.5 23.4 6.1 4.5 7.1 4.4 16.9-0.3 23.9 11.9 0.7 21.1 12.2 22.7 24 1.7 11.8-2.5 23.7-7.5 34.5-0.6 1.4-1.3 3-0.6 4.3 0.6 1.3 2.2 1.8 3.4 2.5 7.9 4.1 7 16.7 0.5 22.8-6.4 6.1-15.8 7.7-24.5 9.3-2.1 0.4-4.4 0.9-5.9 2.4-0.9 0.9-1.4 2-2.1 3-6.7 10.2-21.7 9-33.6 6.6-3.5-0.7-7.2-1.5-9.6-4-2.5-2.5-2.8-7.4 0.3-9.2 3.3 0.3 4.3 5.2 2.1 7.7s-5.9 2.8-9.2 2.2c-9-1.7-16.3-9.7-17.3-18.8l5.3 6.6z" opacity=".2" /><path d="M392.6 576.2c-12.6-2.1-24.5-8.6-32.9-18.3-3.3-3.7-6.1-8.1-6.6-13.1-0.5-4.9 1.9-10.4 6.5-12.2-9.1-0.7-15.1-10.9-14.6-20s5.6-17.3 10.6-25c1.3-2 2.6-4 3.8-6l9-14.1c2.3-3.6 4.9-7.4 9-8.5 4.1-1.1 9.4 2.7 7.8 6.7-1.8-7.2 3.4-14.6 10.1-17.8 6.7-3.2 14.4-3.2 21.8-3.1 2.1 0 5.1 1.8 3.7 3.4l3.6-3.1c1.2-6.3 8.6-10.7 14.7-8.6 6.1 2.1 9.3 10.1 6.4 15.8 7.3-5.4 18.5-1.5 23.4 6.1 4.5 7.1 4.4 16.9-0.3 23.9 11.9 0.7 21.1 12.2 22.7 24 1.7 11.8-2.5 23.7-7.5 34.5-0.6 1.4-1.3 3-0.6 4.3 0.6 1.3 2.2 1.8 3.4 2.5 7.9 4.1 7 16.7 0.5 22.8s-15.8 7.7-24.5 9.3c-2.1 0.4-4.4 0.9-5.9 2.4-0.9 0.9-1.4 2-2.1 3-6.7 10.2-21.7 9-33.6 6.6-3.5-0.7-7.2-1.5-9.6-4s-2.8-7.4 0.3-9.2c3.3 0.3 4.3 5.2 2.1 7.7s-5.9 2.8-9.2 2.2c-9-1.7-16.3-9.7-17.3-18.8l5.3 6.6z" fill="#7BAD37" /><path d="M802.9 521.9c-15.1 1.9-27.1-13.1-31.5-27.7-1.3-4.2-2.2-8.8-0.3-12.7 1.9-3.9 7.7-6 10.7-2.9-4.5 0.5-8.6-3.4-9.8-7.8-1.9-7.3 2.5-14.9 8-20.2 5.5-5.2 12.3-9.1 17.2-14.9 3.1-3.6 5.3-7.8 8.6-11.2 3.2-3.4 7.9-6 12.5-5.1s8.1 6.8 5.4 10.7c3.2-4.8 7.9-8.9 13.5-9.8 5.7-0.9 12.2 2.3 13.5 7.9 0.4 1.7 0.4 3.6 1.5 4.9 1 1.2 2.6 1.6 4.1 1.9 7.4 1.4 15.5 2.2 21 7.3s5.4 16.5-1.9 18.4c9.3-1.8 19.2 6.1 19.6 15.6s-9 18.1-18.4 17c7.1 4.6 10.8 13.8 8.8 22-1.9 8.2-9.4 14.8-17.8 15.7 4.1-3.2 10.4 2 9.9 7.1s-5.2 8.9-9.9 11.1c-6.9 3.3-15 4.6-22.3 2.4-7.3-2.3-13.5-8.7-14.2-16.3-3.3 3.1-6.9 6.5-11.4 7.1-4.5 0.6-9.8-2.9-9.1-7.4 0.5-3.5 5-5.7 8.1-4 3.1 1.7 3.6 6.7 0.9 9-4.2 3.5-10.5-0.7-13.4-5.4-3.1-5.1-5-10.9-5.3-16.8l2 4.1z" opacity=".2" /><path d="M803.7 529.7c-14.7 1.8-26.3-12.8-30.6-26.9-1.2-4-2.1-8.6-0.3-12.4s7.5-5.8 10.4-2.8c-4.4 0.5-8.4-3.3-9.5-7.6-1.9-7.1 2.4-14.5 7.8-19.6s11.9-8.8 16.7-14.5c3-3.5 5.2-7.6 8.3-10.9 3.2-3.3 7.7-5.9 12.2-5 4.5 0.9 7.8 6.6 5.2 10.4 3.1-4.6 7.7-8.7 13.2-9.6 5.5-0.9 11.8 2.2 13.1 7.7 0.4 1.6 0.4 3.5 1.4 4.8 1 1.1 2.5 1.5 4 1.8 7.2 1.4 15.1 2.2 20.4 7.1s5.3 16-1.8 17.9c9-1.7 18.7 5.9 19.1 15.1 0.3 9.2-8.7 17.6-17.9 16.6 6.9 4.4 10.5 13.4 8.6 21.4-1.9 8-9.1 14.4-17.3 15.2 4-3.1 10.1 1.9 9.6 6.9s-5 8.6-9.6 10.8c-6.7 3.2-14.6 4.5-21.6 2.3s-13.1-8.5-13.8-15.8c-3.2 3.1-6.7 6.3-11.1 6.9-4.4 0.6-9.6-2.8-8.9-7.2 0.5-3.4 4.9-5.5 7.9-3.9s3.5 6.5 0.8 8.7c-4.1 3.4-10.2-0.7-13-5.2-3-4.9-4.8-10.6-5.2-16.4l1.9 4.2z" fill="#7BAD37" /><path d="M508.7 915.9c3.4 0.6 6.7 0.9 10 1.5-17.5-93.5-32-235-33.3-192.9-1 33.7-3.9 122.2-6.1 191.6 9.5-1.4 19.2-2.1 29.4-0.2zM594.3 732.5c0 14.2-10.8 119.4-25.1 191.8 3.7 0.5 7.3 0.9 11 1.4 15.6 2.1 31.2 1.6 46.8-0.3-30.1-136.9-32.7-212.8-32.7-192.9z" fill="#7BAD37" opacity=".3" /><path d="M455.6 669.1l-0.4 1.9s-5.3 19.2-28.9 11.5-26.2-29.2-26.2-29.2 15-12.3 34.9-8.2c19.8 3.9 20.6 24 20.6 24" fill="#7BAD37" /><path d="M481.3 693.8l5.3-4.1c-1.8-2.4-18.3-23.1-32.8-23.7l-0.3 6.7c9.6 0.4 23.3 15.4 27.8 21.1z" fill="#7BAD37" /><path d="M449.3 667.8s-21.6-15.3-38.8-10.2c17.7-2.5 35.1 9.8 39.9 13.5 1.3 1.6-1.1-3.3-1.1-3.3z" fill="#DEE3A0" /></svg>