<?xml version="1.0" standalone="no"?><!DOCTYPE svg PUBLIC "-//W3C//DTD SVG 1.1//EN" "http://www.w3.org/Graphics/SVG/1.1/DTD/svg11.dtd"><svg class="icon" width="81px" height="81.00px" viewBox="0 0 1024 1024" version="1.1" xmlns="http://www.w3.org/2000/svg"><path d="M391.6288 798.1568c-16.9472 0-30.72-13.7728-30.72-30.72V231.0144c0-30.4128 21.504-55.9616 51.0976-60.672l437.1968-65.024c16.9984-2.7136 34.6112 2.2528 48.0256 13.7216 13.7216 11.7248 21.6064 28.8256 21.6064 47.0528v511.232c0 16.9472-13.7728 30.72-30.72 30.72s-30.72-13.7728-30.72-30.72V166.1952L422.4 230.8608l-0.0512 536.576c0 16.9984-13.7728 30.72-30.72 30.72z m466.944-632.1152c-0.0512 0 0 0 0 0z" fill="#3E3A39" /><path d="M257.7408 925.44c-90.7776 0-164.608-73.8304-164.608-164.608 0-90.7776 73.8304-164.608 164.608-164.608 90.7776 0 164.608 73.8304 164.608 164.608 0 90.7264-73.8304 164.608-164.608 164.608z m0-267.776c-56.8832 0-103.168 46.2848-103.168 103.168s46.2848 103.168 103.168 103.168 103.168-46.2848 103.168-103.168-46.2848-103.168-103.168-103.168zM757.9648 842.9568c-88.6784 0-160.8704-72.1408-160.8704-160.8704s72.1408-160.8704 160.8704-160.8704 160.8704 72.1408 160.8704 160.8704-72.1408 160.8704-160.8704 160.8704z m0-260.2496c-54.8352 0-99.4304 44.5952-99.4304 99.4304s44.5952 99.4304 99.4304 99.4304 99.4304-44.5952 99.4304-99.4304-44.5952-99.4304-99.4304-99.4304z" fill="#FC4138" /></svg>