<?xml version="1.0" standalone="no"?><!DOCTYPE svg PUBLIC "-//W3C//DTD SVG 1.1//EN" "http://www.w3.org/Graphics/SVG/1.1/DTD/svg11.dtd"><svg class="icon" width="81px" height="81.00px" viewBox="0 0 1024 1024" version="1.1" xmlns="http://www.w3.org/2000/svg"><path d="M385.3 855.4c1.3-12.5 4.5-23.6 9.4-32.4-2 0.8-4.1 1.6-6.1 2.4-1.3-27.6-1-54.6 0.9-80.7-6.8-16.2-6.4-36 0.8-45-10.8-19.6-13.6-46.6-6.4-61.8-10.7-17.4-14.7-42.6-9.2-58.2-3.7 2.4-8.3-7.7-9.4-14.9-2.6-17.6-0.8-34.6 5-46.3-9.5-8.1-14.5-29.2-9.3-38.8-12.2-13.3-20.8-36.1-20.9-55.5 0-3.7 0.3-7.5-0.7-11.4-1-3.9-3-7.4-4.9-10.8-11.6-21.2-18.4-47.4-18.3-70.4-10-18.9-15.6-42.2-14.9-62.1-14.5-9.4-6.3-20.1-11.8-42.5-2.8 2.3-7.4-1.2-10.3-6.1-2.9-4.9-4.7-10.7-7-16.2-6.8-16.7-12.5-36.2-16.4-58.1l-8.9 9.4c6.3 21.7-31.8 23.5-30.7 40.7 0.4 5.7 1.3 11.6 0.7 16.8-0.6 5.2-3.4 9.3-7.1 7.6 5 22.5-13.1 55.4-22.7 66.9 9.8 19.1 15.1 42.4 14.1 62.2 10.7 22.1 16.2 48.5 14.7 70.8-0.2 3.6-0.6 7.3 0.2 11.2 0.9 3.9 2.8 7.5 4.5 11.1 8.8 18.6 11 42.1 5.4 56.9 9.4 8.3 14.2 29.4 8.8 38.8 10.9 10.3 20.4 26.3 26 43.6 2.3 7.1 2.5 17.6-2.2 15.9 12.4 14.1 20.1 39 17.8 57.5 13.9 13.3 23.6 39.8 22.1 60.4 11.1 7.4 20.4 26.3 21.4 43 13.7 24.7 26.4 50.6 37.8 77.3-2.3-0.4-4.6-0.9-7-1.3 8.7 7.7 16.9 17.8 23.8 29.6l10.8-9.6z" fill="#7BAD37" /><path d="M435.1 755.3h-21c-7.8 0-30.3 55.1-30.3 62.9V896c0 7.8 6.4 14.2 14.2 14.2h56.1c7.8 0 14.2-6.4 14.2-14.2v-85c0-7.9-25.4-55.7-33.2-55.7z" fill="#DEE3A0" /><path d="M409.8 895.7c-1.3-5.5-32.4-135.6-87.9-291.2-53.1-148.8-82.8-365.1-82.8-365.1 0.9 7.6 19 214.1 75.3 371.9 53.8 150.8 84.9 280.6 85.2 281.9l10.2 2.5z" fill="#DEE3A0" /><path d="M446.9 861.2c-2-10.8-5.6-20.3-10.5-27.7 1.8 0.6 3.7 1.1 5.5 1.7-0.8-24.2-2.9-47.9-6.4-70.5 4.8-14.7 3.1-31.9-3.8-39.3 8.1-17.9 8.7-41.7 1.3-54.5 8.1-15.9 9.9-38.3 4-51.5 3.4 1.8 6.8-7.3 7.2-13.7 1.1-15.6-1.7-30.3-7.6-40.1 7.7-7.7 10.7-26.5 5.4-34.5 9.8-12.4 15.7-33 14.4-50-0.3-3.3-0.7-6.6-0.2-10.1 0.6-3.5 2.2-6.7 3.6-9.8 8.7-19.3 12.8-42.8 11.1-62.9 7.5-17.2 10.7-37.9 8.7-55.4 12-9.3 4.1-18 7.3-38 2.6 1.8 6.4-1.6 8.6-6s3.4-9.7 5-14.7c4.8-15.1 8.5-32.5 10.3-51.9l8.4 7.6c-4 19.4 29.5 18.3 29.7 33.5 0.1 5-0.4 10.3 0.5 14.7 0.9 4.5 3.6 7.9 6.8 6.1-2.8 20 15.3 47.5 24.5 57-7.3 17.4-10.3 38.1-8 55.4-7.8 20-10.8 43.5-7.9 62.9 0.5 3.1 1.1 6.3 0.6 9.8-0.5 3.5-2 6.8-3.2 10-6.4 16.9-6.7 37.6-0.8 50.1-7.7 7.9-10.4 26.7-5 34.5-8.8 9.8-16.1 24.4-19.7 40-1.5 6.4-0.9 15.5 3 13.8-9.8 13.2-14.8 35.5-11.5 51.5-11.2 12.6-17.8 36.5-15.1 54.4-9.2 7.2-16 24.4-15.7 39.1-10.3 22.5-19.6 46.1-27.7 70.2 2-0.5 4-1.1 6-1.6-7.1 7.3-13.5 16.8-18.8 27.5l-10-7.6z" fill="#7BAD37" /><path d="M428.3 898.2c0.8-4.9 18.9-120.8 56.6-260.8 36.1-133.9 47-325 47-325-0.3 6.7-1.8 188.5-40 330.5-36.5 135.6-54.7 251.3-54.9 252.5l-8.7 2.8z" fill="#DEE3A0" /><path d="M388.9 758.2c0.2-4.5 0.2-9 0.6-13.4-6.8-16.2-6.4-36 0.8-45-10.8-19.6-13.6-46.6-6.4-61.8-10.7-17.4-14.7-42.6-9.2-58.2-3.7 2.4-8.3-7.7-9.4-14.9-2.6-17.6-0.8-34.6 5-46.3-9.5-8.1-14.5-29.2-9.3-38.8-12.2-13.3-20.8-36.1-20.9-55.5 0-3.7 0.3-7.5-0.7-11.4-1-3.9-3-7.4-4.9-10.8-11.6-21.2-18.4-47.4-18.3-70.4-10-18.9-15.6-42.2-14.9-62.1-2.3-1.5-3.9-3.1-5.2-4.7 8.5 22.4 9.1 48.3 1.2 70.3-1.3 3.7-2.9 7.5-2.7 11.6 0.2 4.1 2.1 7.8 3.6 11.6 7.9 19.5 4.8 43.7-7.5 58.8 11.6 8.8 12.9 30.7 2.4 40.3 13.3 10.9 22.9 27.6 26.4 45.7 1.4 7.4-1.1 18.2-7.6 16.4 14.4 14.9 18.9 40.7 10.5 59.8 16.8 14.1 23.8 41.7 16.1 63 14.2 7.9 22.9 27.7 19.7 45 11.8 22.5 21.9 46.3 30.7 70.8zM388.6 767.3c-1.9-0.3-3.9-0.6-5.8-0.9 1.9 1.5 3.8 3.1 5.6 4.8 0-1.3 0.1-2.6 0.2-3.9zM514.1 414.1c-14.4-14-20.8-37.8-15.6-57.9 1-3.9 2.4-7.7 2-11.8-0.4-4.1-2.5-7.7-4.3-11.3-5.6-10.9-9.1-23.1-10.5-35.5-1.7 10.6-4.7 21.1-8.8 30.7 2 22.9-2.7 49.7-12.6 71.7-1.6 3.6-3.4 7.2-4.1 11.2-0.7 4-0.1 7.7 0.2 11.5 1.5 19.3-5.3 42.8-16.4 57 6 9.2 2.6 30.5-6.2 39.4 6.7 11.3 9.9 28 8.7 45.8-0.5 7.3-4.3 17.7-8.2 15.6 6.7 15.1 4.7 40.6-4.6 58.7 8.4 14.5 7.7 41.8-1.5 62.1 7.9 8.4 9.8 28 4.4 44.8 2.7 17.6 4.4 35.8 5.7 54.2l5.5 2.2c5.3-12.8 13.1-24.2 22.6-33.2-3.2 0.8-6.4 1.6-9.6 2.3 5.6-28.5 13.4-56.4 23.2-83.2-5.5-16.9 0.3-37.3 13.4-46.4-10.6-20.5-7.4-48.5 7.3-64-11-18.2-10-44.3 2.2-60.3-6.1 2.3-10.2-8.2-9.8-15.6 0.9-18.3 8.2-35.7 19.9-47.7-11.5-8.6-13.2-30.5-2.9-40.3zM486.9 265.3c0.1 0.6 0 1.3 0.1 1.9 0.2-0.9 0.4-1.7 0.6-2.5-0.3 0.2-0.5 0.4-0.7 0.6z" opacity=".2" /><path d="M424.9 794.6c-7-12.3-16.3-23-27-31.1l9.9 1.5c-9.5-27.9-21.1-55-34.5-80.8 3.2-17.3-5.5-37.1-19.7-45 7.7-21.2 0.7-48.8-16.1-63 8.4-19 3.9-44.9-10.5-59.8 6.4 1.8 9-9 7.6-16.4-3.4-18.1-13.1-34.8-26.4-45.7 10.5-9.5 9.1-31.4-2.4-40.3 12.3-15.1 15.5-39.4 7.5-58.8-1.5-3.8-3.5-7.5-3.6-11.6-0.2-4.1 1.4-7.9 2.7-11.6 8.2-23 7.3-50.4-2.4-73.4 6.9-20.4 5.4-44.6-3.9-64.6 17.2-11.7 0.9-21.1-0.4-44.4 5 1.9 10.3-2.3 12.5-7.7 2.3-5.3 2.5-11.5 3.5-17.3 3-17.8 3.4-38.2 0-60.7l16.8 8.1c-0.3 22.7 56.1 18.8 61.6 36.3 1.8 5.7 2.9 11.9 5.8 16.9 3 5.1 8.8 8.8 13.5 6.5 2 23.3 42 53.6 60.7 63.7-6.5 20.6-4.6 44.8 5 64.5-6.5 23.8-3.6 51.1 7.7 73.2 1.8 3.6 3.9 7.2 4.3 11.3 0.4 4.1-1 8-2 11.8-5.2 20 1.2 43.9 15.6 57.9-10.3 9.8-8.6 31.6 3.1 40.2-11.7 12-19 29.4-19.9 47.7-0.4 7.5 3.6 18 9.8 15.6-12.2 16-13.2 42.1-2.2 60.3-14.7 15.5-17.9 43.5-7.3 64-13.1 9.1-19 29.5-13.4 46.4-9.8 26.8-17.6 54.7-23.2 83.2 3.2-0.8 6.4-1.6 9.6-2.3-9.5 9-17.3 20.4-22.6 33.2l-19.7-7.8z" fill="#7BAD37" /><path d="M421.3 851.2c-0.7-5.6-18.1-139.2-0.1-304.2C438.5 389.2 363 173.6 363 173.6c2.9 7.5 96.8 210.4 78.6 377.8-17.5 159.9-0.2 293.2-0.1 294.5l-20.2 5.3z" fill="#DEE3A0" /><path d="M513.2 733.5c-2.7-17.9 3.9-41.8 15.1-54.4-3.3-16 1.7-38.3 11.5-51.5-4 1.8-4.5-7.4-3-13.8 3.6-15.6 10.9-30.2 19.7-40-5.4-7.8-2.6-26.6 5-34.5-6-12.5-5.7-33.2 0.8-50.1 1.2-3.3 2.7-6.5 3.2-10s-0.1-6.7-0.6-9.8c-2.8-19.4 0.1-42.8 7.9-62.9-2.3-17.3 0.8-38 8-55.4-9.2-9.4-27.4-36.9-24.5-57-3.2 1.8-5.9-1.7-6.8-6.1-0.9-4.5-0.4-9.7-0.5-14.7 0-1.5-0.5-2.9-1.1-4.1-2.7 8.2-6.6 16-11.5 23 1.6 15.3-0.6 31.4-6.2 46.2-0.2-3-0.5-6.1-0.5-9.1-0.7 2.4-1.8 4.6-2.6 6.9-2.8 1.1-5.8-2.7-7.3-7.4s-1.8-10.1-2.5-15.3c-2.3-15.7-3.1-33.4-1.8-52.9l-9.5 6.1c0.2 3.7-1.1 6.2-2.8 8.4-0.8 3.1-1.7 6.2-2.6 9.1-1.6 5-2.7 10.2-5 14.7-2.2 4.3-5.8 7.6-8.4 6.1-0.4-2.4-1.2-4.8-1.5-7.3-0.5 3-1.3 5.9-2 8.9-1.4-7-1.9-14.1-1.9-21.1-5.3 2-9.7 4.5-10.6 9.5-0.9 4.9-1.3 10.2-2.9 14.4-1.6 4.3-4.8 7.2-7.7 5-0.5 20.2-22.8 44.4-33.4 52.2 4.4 18.3 4 39.3-1 55.9 4.5 21 3.6 44.7-2.4 63.4-1 3-2.1 6.1-2.2 9.6-0.1 3.5 0.8 7 1.5 10.4 3.6 17.7 0.6 38.1-7.4 49.6 6.3 9.1 5.9 28-0.6 34.9 7.1 11.1 11.9 26.7 13 42.6 0.4 6.5-1.6 15.5-5.2 13.1 7.6 14.6 8.9 37.4 3.1 52.7 9 14.3 11.7 38.9 6.1 56.1 7.9 8.6 11.9 26.7 9.2 41.2 6.4 23.5 11.6 47.8 15.7 72.6 5.3-10.7 11.7-20.1 18.7-27.4-2 0.5-4 1.1-6 1.6 8.1-24.2 17.4-47.7 27.7-70.2-0.3-14.7 6.6-31.9 15.8-39.2z" opacity=".2" /><path d="M533.9 297.1c-0.2-0.2-0.3-0.5-0.5-0.7 0 0.9 0.1 1.7 0.1 2.6 0.2-0.6 0.2-1.3 0.4-1.9z" opacity=".2" /><path d="M549.5 907.5c0.8-15.1-0.7-24.1-4-33.5 1.9 1.1 3.8 2.2 5.6 3.4 5.7-27 9.8-53.8 12.2-79.7 9.3-14.9 12.1-34.5 6.5-44.5 13.9-17.5 21-43.8 16.3-59.9 13.4-15.4 21.4-39.6 18.5-55.9 3.3 2.9 9.5-6.3 11.7-13.2 5.4-17 6.4-34 2.6-46.5 10.7-6.5 19-26.4 15.4-36.7 14.2-11.1 26.4-32.3 29.6-51.4 0.6-3.7 1-7.5 2.6-11.2 1.6-3.7 4.2-6.8 6.6-9.9 14.9-19 25.9-43.8 29.4-66.6 12.9-17 22.2-39.1 24.7-58.9 15.8-7 9.4-18.8 18.5-40.1 2.4 2.7 7.5 0 11.2-4.3 3.7-4.3 6.4-9.8 9.5-14.9 9.4-15.4 18.2-33.7 25.6-54.7l7.2 10.7c-9.7 20.4 27.6 28.4 23.7 45.2-1.3 5.5-3.2 11.2-3.4 16.4-0.3 5.2 1.8 9.8 5.8 8.6-8.6 21.4 4 56.8 11.6 69.7-12.8 17.2-21.8 39.4-24 59.1-14.1 20.1-23.8 45.2-25.9 67.4-0.3 3.6-0.5 7.3-2 11s-4 7-6.3 10.2c-11.7 17-17.7 39.7-14.5 55.2-10.6 6.7-18.8 26.7-15 36.9-12.5 8.4-24.4 22.6-32.7 38.8-3.4 6.6-5.3 16.9-0.4 16.1-14.5 11.9-26.1 35.2-26.8 53.8-15.9 10.9-29.7 35.5-31.6 56.1-12.1 5.5-24.4 22.7-28 39-17.5 22.1-34.2 45.6-49.8 70.2 2.4 0 4.7-0.1 7.1-0.1-9.8 6.2-32.2 14.9-40.9 25.3l3.4-11.1z" fill="#7BAD37" /><path d="M518.7 943.3c2.2-5.2 54-128.6 133.9-273.1 76.5-138.3 140.8-346.9 140.8-346.9-2.1 7.3-53.4 208.2-134.5 354.8-77.5 140.1-129.2 263.2-129.7 264.4l-10.5 0.8z" fill="#DEE3A0" /><path d="M487.7 903.3c3.7-10.3 8.8-19.1 14.8-25.7-1.9 0.3-3.8 0.5-5.7 0.8 4.7-23.8 10.6-46.7 17.7-68.5-2.4-15.2 2.1-32 10.1-38.1-5.1-18.9-1.8-42.6 7.5-54-5.4-17-3.6-39.4 4.4-51.5-3.7 1.2-5.5-8.3-4.9-14.7 1.5-15.6 6.6-29.6 14-38.4-6.4-8.9-6.2-27.9 0.2-35-7.6-13.9-10.1-35.1-6.1-51.7 0.8-3.2 1.8-6.3 1.8-9.9 0-3.5-1-6.9-1.9-10.2-5.5-20.5-5.7-44.3-0.8-63.8-4.6-18.2-4.4-39.2 0.4-56-10.4-11.1-1.1-18.4-1.1-38.7-2.9 1.4-6-2.6-7.5-7.3-1.5-4.7-1.8-10.1-2.5-15.3-2.3-15.7-3.1-33.4-1.8-52.9l-9.5 6.1c0.8 19.8-32.1 13.3-34.7 28.2-0.9 4.9-1.3 10.2-2.9 14.4-1.6 4.3-4.8 7.2-7.7 5-0.5 20.2-22.8 44.4-33.4 52.2 4.4 18.3 4 39.3-1 55.9 4.5 21 3.6 44.7-2.4 63.4-1 3-2.1 6.1-2.2 9.6-0.1 3.5 0.8 7 1.5 10.4 3.6 17.7 0.6 38.1-7.4 49.6 6.3 9.1 5.9 28-0.6 34.9 7.1 11.1 11.9 26.7 13 42.6 0.4 6.5-1.6 15.5-5.2 13.1 7.6 14.6 8.9 37.4 3.1 52.7 9 14.3 11.7 38.9 6.1 56.1 7.9 8.6 11.9 26.7 9.2 41.2 6.5 23.9 11.8 48.6 15.9 73.8-1.9-0.9-3.8-1.7-5.7-2.6 5.8 8.4 10.6 18.7 14.1 30.2l11.2-5.9z" fill="#7BAD37" /><path d="M500.1 942.7c0-4.9 0.9-122.3-13.7-266.5-13.9-137.9 6.2-328.4 6.2-328.4-0.8 6.6-28.8 186.3-14 332.6 14.1 139.7 13.3 256.9 13.3 258l8.2 4.3z" fill="#DEE3A0" /><path d="M561.6 811c0.5-4.4 1.2-9 1.6-13.4 9.3-14.9 12.1-34.5 6.5-44.5 13.9-17.5 21-43.8 16.3-59.9 13.4-15.4 21.4-39.6 18.5-55.9 3.3 2.9 9.5-6.3 11.7-13.2 5.4-17 6.4-34 2.6-46.5 10.7-6.5 19-26.4 15.4-36.7 14.2-11.1 26.4-32.3 29.6-51.4 0.6-3.7 1-7.5 2.6-11.2 1.6-3.7 4.2-6.8 6.6-9.9 14.9-19 25.9-43.8 29.4-66.6 12.9-17 22.2-39.1 24.7-58.9 2.6-1.1 4.4-2.4 5.9-3.8-12.1 20.7-16.8 46.2-12.6 69.2 0.7 3.9 1.7 7.9 0.8 11.9-0.8 4-3.4 7.4-5.5 10.8-11 17.9-11.8 42.4-2.1 59.3-12.9 6.9-17.7 28.2-8.9 39.3-14.9 8.6-27.1 23.6-33.4 40.8-2.6 7.1-1.8 18.1 4.8 17.4-16.6 12.3-25.3 37.1-20 57.3-18.8 11.2-30.2 37.3-26 59.5-15.3 5.5-27.1 23.6-26.7 41.2-15.3 20.6-29.1 42.5-41.8 65.2zM560.5 820c1.9 0 3.9 0 5.8 0.1-2.2 1.1-4.2 2.5-6.3 3.8 0.2-1.3 0.4-2.6 0.5-3.9zM493.8 451.2c16.4-11.5 26.6-34 24.7-54.6-0.4-4-1.1-8-0.1-12s3.7-7.2 6.1-10.4c7.3-9.9 12.7-21.3 16.1-33.3 0 10.7 1.2 21.6 3.8 31.7-5.7 22.3-5.4 49.4 0.9 72.8 1 3.8 2.2 7.6 2.2 11.7 0 4-1.1 7.6-2 11.3-4.6 18.9-1.7 43.1 6.9 58.9-7.4 8.1-7.5 29.7-0.3 39.8-8.4 10-14.3 26-15.9 43.8-0.7 7.3 1.4 18.1 5.6 16.7-9 13.9-11.2 39.3-5 58.7-10.6 13-14.4 40-8.6 61.5-9.2 7-14.3 26.1-11.6 43.5-5.5 16.9-10.1 34.6-14.4 52.6l-5.8 1.3c-3.2-13.5-9-26-16.9-36.5 3 1.3 6.1 2.6 9.1 3.9-0.9-29.1-4.1-57.9-9.5-85.9 8.2-15.8 5.7-36.9-5.7-48 13.8-18.5 15.1-46.7 3.1-64.3 13.8-16.2 17.1-42.1 7.6-59.9 5.7 3.3 11.3-6.4 12.2-13.9 2-18.2-2.3-36.6-12-50.3 12.9-6.5 18.1-27.8 9.5-39.1zM544.7 308.7c-0.2 0.6-0.2 1.3-0.4 1.9 0-0.9-0.1-1.7-0.1-2.6 0.2 0.3 0.3 0.5 0.5 0.7z" opacity=".2" /><path d="M520.2 841.1c8.9-11 19.8-20 31.7-26.3-3.3 0-6.7-0.1-10-0.1 13.9-26 29.7-50.8 47.1-74.1-0.3-17.6 11.4-35.7 26.7-41.2-4.2-22.2 7.2-48.3 26-59.5-5.2-20.2 3.4-45 20-57.3-6.6 0.7-7.4-10.3-4.8-17.4 6.3-17.3 18.5-32.2 33.4-40.8-8.8-11.1-3.9-32.5 8.9-39.3-9.7-16.9-8.9-41.3 2.1-59.3 2.1-3.5 4.6-6.8 5.5-10.8 0.8-4-0.1-8-0.8-11.9-4.4-24 0.9-50.9 14.2-72.1-3.5-21.3 1.9-44.9 14.3-63.1-15.1-14.3 2.5-20.9 7.6-43.8-5.3 1-9.8-4-11.1-9.6-1.4-5.6-0.6-11.7-0.6-17.7-0.1-18.1 2.8-38.2 9.8-59.9l-17.9 5.2c-3.4 22.5-58.4 9.5-66.6 25.8-2.7 5.4-4.7 11.2-8.5 15.8-3.8 4.5-10.1 7.3-14.4 4.3-5.7 22.7-50.1 46.1-70.2 53.1 3.1 21.4-2.7 44.9-15.4 62.9 2.6 24.5-4.7 51-19.5 71-2.4 3.2-5 6.5-6.1 10.4-1 4-0.3 8 0.1 12 1.9 20.6-8.3 43.1-24.7 54.6 8.6 11.3 3.4 32.6-9.6 39.2 9.6 13.7 14 32.1 12 50.3-0.8 7.4-6.5 17.2-12.2 13.9 9.5 17.8 6.2 43.7-7.6 59.9 12 17.7 10.7 45.8-3.1 64.3 11.4 11.1 13.9 32.1 5.7 48 5.4 28.1 8.5 56.8 9.5 85.9-3-1.3-6.1-2.6-9.1-3.9 7.9 10.4 13.7 22.9 16.9 36.5l20.7-5z" fill="#7BAD37" /><path d="M514.6 897.5c1.6-5.4 40.4-134.4 49.3-300.2 8.5-158.5 117.9-359.1 117.9-359.1-4.1 6.9-129.6 192-138.7 360.1-8.6 160.7-47.2 289.5-47.6 290.7l19.1 8.5z" fill="#DEE3A0" /><path d="M537.2 804l-20.7-3.4c-7.7-1.3-40.6 41.9-41.8 49.6l-13.7 84c-1.3 7.7 4 15.1 11.7 16.3l55.3 9.1c7.7 1.3 15.1-4 16.3-11.7l12.6-76.8c1.3-7.8-12-65.8-19.7-67.1z" fill="#DEE3A0" /></svg>